<svg width="220" height="241" viewBox="0 0 220 241" xmlns="http://www.w3.org/2000/svg" xmlns:xlink="http://www.w3.org/1999/xlink"><title>Harry</title><defs><path id="a" d="M29.313.197H.12v50.516h29.193V.197z"/><path id="c" d="M0 .218v126.196h56.132V.218H0z"/><path id="e" d="M56.46 126.414V.218H.326v126.196z"/><path d="M5.145.232C3.54 1.894 1.893 3.742.368 5.702V30.74c6.077 2.83 15.092 2.01 21.668.816V.232H5.146z" id="g"/><path d="M.025 28.693c6.466 1.436 13.972 3.348 19.03.918V4.29c-.91-1.24-1.937-2.22-3.058-2.82-.77-.41-1.98-.875-3.54-1.374H.026v28.597z" id="i"/></defs><g fill="none" fill-rule="evenodd"><path d="M169.154 52.664s17.067-29.19-4.907-50.337c-1.043-1.003-2.84-.225-2.72 1.182.69 7.93.682 25.624-11.624 33.898-16.134 10.848 19.25 15.256 19.25 15.256" fill="#EDE1C6"/><g transform="translate(48.61 .33)"><mask id="b" fill="#fff"><use xlink:href="#a"/></mask><path d="M5.443 50.713S-10.363 20.888 12.498.61c1.084-.964 2.848-.117 2.665 1.284-1.027 7.897-1.776 25.578 10.166 34.322C40.986 47.68 5.442 50.713 5.442 50.713" fill="#EDE1C6" mask="url(#b)"/></g><g transform="translate(0 89.197)"><mask id="d" fill="#fff"><use xlink:href="#c"/></mask><path d="M21.103 119.428c6.404 8.958 19.123 8.252 24.88 3.737 7.75-6.077-11.442-49.567-6.896-61.253 4.547-11.686 13.894-1.835 13.894-1.835L56.133.217s-38.07 6.55-51.215 32.137c0 0 7.357-.93 8.675-.907 0 0-9.904 7.094-13.592 28.865l7.678-1.17S.88 71.025 2.723 89.23l7.957-4.48s4.34 26.17 10.423 34.68" fill="#232E5D" mask="url(#d)"/></g><g transform="translate(162.952 89.197)"><mask id="f" fill="#fff"><use xlink:href="#e"/></mask><path d="M35.356 119.428c-6.403 8.958-19.122 8.252-24.88 3.737-7.75-6.077 11.443-49.567 6.896-61.253S3.48 60.077 3.48 60.077L.326.217s38.07 6.55 51.215 32.137c0 0-7.357-.93-8.675-.907 0 0 9.904 7.094 13.593 28.865l-7.68-1.17s6.798 11.882 4.956 30.086l-7.957-4.48s-4.34 26.17-10.424 34.68" fill="#232E5D" mask="url(#f)"/></g><path d="M112.63 178.923c-4.39-.69-6.21 1.212-6.24 3.28-.05 3.22 1.77 4.8 4.128 5.05 3.487.37 5.215-.918 5.9-3.178.683-2.26-.45-4.628-3.79-5.152" fill="#44413E"/><path d="M190.493 84.262l10.106.666c-4.723-11-16.313-18.9-16.313-18.9 2.768-2.34 9.18-2.912 9.18-2.912-5.46-7.663-18.835-12.907-20.467-13.526-.033-.04-.065-.082-.097-.123 3.584-3.35 9.84-6.186 9.84-6.186-8.885-5.833-22.55-7.728-22.55-7.728.985-4.084 6.384-10.227 6.384-10.227-14.107-.413-26.65 3.564-26.65 3.564.79-4.582 4.578-10.262 4.578-10.262-7.495-2.527-20.466 7.848-20.466 7.848-.284-2.333 2.8-14.518 2.8-14.518-9.394 1.225-16.656 12.087-16.656 12.087s-10.392-12.25-21.89-15.4c0 0 2.678 6.35 1.34 13.255 0 0-6.212-5.758-14.634-4.695 0 0 4.46 6.712 4.73 11.875 0 0-.396.09-1.105.293-5.665-1.182-14.77-2.464-24.313-1.286 0 0 4.334 2.482 8.114 8.973 0 0-14.206-.136-22.618 5.387 0 0 5.997 2.717 9.38 5.915 0 0-14.022 5.132-19.534 12.864 0 0 6.073.542 8.693 2.757 0 0-10.28 3.87-16.815 19.39l10.153-1.16S29.098 93.04 28.07 112.48c-.063 1.202-.113 2.38-.15 3.536-3.928 6.397-10.544 18.575-10.888 28.505l11.034-4.423s-6.534 10.945-8.333 24.618l11.46-5.23c-.888 1.63-4.893 16.69-4.488 27.526 0 0 3.528-1.65 7.794-3.443 2.787 15.09 6.016 27.673 8.694 39.976 1.21 5.555 4.446 16.573 16.283 16.573 13.382 0 21.11-5.463 22.076-16.048.258-2.823.257-6.207.617-9.182 0 0 8.792-1.88 26.483-2.877 14.7-.83 28.938 2.04 28.938 2.04.36 2.976.015 7.198.306 10.018 1.105 10.716 9.895 16.048 23.278 16.048s15.145-11.004 16.283-16.573c1.612-7.884 3.073-16.27 4.392-24.764l8.07 4.428c-.524-10.234-3.777-19.15-5.41-23.05.067-.515.135-1.03.2-1.542l9.512 4.652c.337-7.46-2.757-16.44-5.76-23.272 4.092 2.167 7.415 4.195 7.415 4.195 1.267-12.67-4.06-25.06-6.365-29.35 2.337-23.04.98-50.578.98-50.578" fill="#26358A"/><path d="M93.27 95.344c-6.976-.447-14 .266-20.655 2.305-7.79 2.386-14.18 6.61-14.316 14.363-.153 8.77 3.033 10.097 8.186 14.11 5.152 4.014 2.422 7.608 1.474 12.19-1.09 5.267 8.344 6.02 8.373.976.026-4.482-3.454-9.338 4.004-10.257 6.57-.81 34.967-6.04 43.398-5.14 8.432.903 17.006 5.586 25.438 3.356 8.432-2.23 11.945-7.568 11.945-13.818s-4.346-14.003-14.99-14.723c-10.644-.72-35.13-2.23-35.13-2.23l-17.73-1.136z" fill="#4560AA"/><path d="M85.52 99.61s-25.535 2.6-22.373 15.977c3.162 13.378 25.023 9.197 33.24 7.19 8.215-2.006 21.917-3.19 29.47-2.263 7.554.926 19.147 5.608 25.646 1.427 6.5-4.18 7.202-13.543 0-17.39-7.202-3.846-54.42-7.613-65.982-4.94" fill="#1D1C1B"/><g><g transform="translate(69.048 92.352)"><mask id="h" fill="#fff"><use xlink:href="#g"/></mask><path d="M20.845 35.135c.978-.47 1.422-1.553 1.072-2.54-3.528-9.956-5.525-20.355-5.75-30.778-.012-.518-.402-.967-.95-1.086l-2.12-.46c-.676-.147-1.372.135-1.704.69C5.226 11.28.54 21.114.368 32.775c-.01.702.355 1.366.966 1.758 1.435.92 4.55 2.33 10.323 2.516 3.814.122 6.913-.82 9.188-1.913" fill="#FEFEFE" mask="url(#h)"/></g><g transform="translate(131.467 92.878)"><mask id="j" fill="#fff"><use xlink:href="#i"/></mask><path d="M19.055 30.013C19.112 19.317 15.025 10.28 9.59.77 9.306.27 8.704.006 8.118.124l-1.84.373c-.474.096-.812.49-.823.952-.23 9.568-2.082 19.085-5.342 28.138-.278.773.134 1.616.944 1.888 2.19.733 5.712 1.648 9.65 1.648 3.822 0 6.258-1.016 7.63-1.866.443-.275.716-.742.72-1.245" fill="#FEFEFE" mask="url(#j)"/></g></g><g><path d="M71.91 146.25c-3.33.373-4.23 2.112-3.8 3.618.67 2.34 2.336 3.124 4.098 2.837 2.608-.426 3.577-1.703 3.577-3.476 0-1.774-1.342-3.264-3.875-2.98M144.503 133.34c-4.784.535-6.08 3.034-5.46 5.197.964 3.363 3.356 4.49 5.888 4.076 3.748-.61 5.14-2.445 5.14-4.993 0-2.548-1.927-4.688-5.567-4.28M155.78 129.142c-2.424.27-3.08 1.537-2.766 2.633.488 1.703 1.7 2.275 2.983 2.065 1.898-.31 2.603-1.24 2.603-2.53 0-1.29-.976-2.375-2.82-2.168" fill="#4560AA"/><path d="M136.48 67.104c-1.802 9.15-11.192 21.16-24.63 21.16-13.435 0-24.027-7.225-24.027-20.016 0-12.79 10.59-24.947 24.027-24.947 13.436 0 27.106 11.232 24.63 23.804" fill="#FEFEFE"/><path d="M124.312 66.19c-.886 4.496-5.502 10.4-12.106 10.4-6.605 0-11.81-3.55-11.81-9.84 0-6.286 5.205-12.26 11.81-12.26 6.604 0 13.323 5.52 12.106 11.7" fill="#15B2C5"/><path d="M120.134 65.56c-.546 2.77-3.39 6.408-7.46 6.408s-7.28-2.188-7.28-6.063c0-3.875 3.21-7.557 7.28-7.557s8.21 3.403 7.46 7.21" fill="#13110D"/></g></g></svg>