<svg version="1.1" id="Layer_1" xmlns="http://www.w3.org/2000/svg" xmlns:xlink="http://www.w3.org/1999/xlink" x="0px" y="0px" viewBox="0 0 119.9 135.7" style="enable-background:new 0 0 119.9 135.7;" xml:space="preserve">
<g id="Pages">
	<g id="Create-monster" transform="translate(-469.000000, -814.000000)">
		<g id="Scoll-02" transform="translate(414.000000, 431.000000)">
			<g id="Monster-shape-1" transform="translate(55.000000, 383.000000)">
				<g id="Clip-2">
				</g>
				<g id="Clip-7">
				</g>
			</g>
		</g>
	</g>
</g>
<g>
	<path class="st0" fill="#DAD9D9" d="M13.9,55.8c-1.8,2-3.1,4-4.1,5.6c-1.2,2-2.5,3.9-3.9,5.7C4.1,69.4,1.4,73.9,0,81.6L4.3,81c0,0-4,6.9-3.2,17.6
		l4.5-2.5c0,0,2,15.4,5.3,20.5c2.4,3.8,6.7,4.8,10.2,4.1C17.8,106,14,89.5,13.7,60.9C13.7,59.1,13.8,57.4,13.9,55.8z"/>
	<path class="st0" fill="#DAD9D9" d="M119.9,81.6c-1.4-7.7-4.1-12.2-5.9-14.5c-1.4-1.8-2.7-3.7-3.9-5.7c-1.2-2-3-4.6-5.4-7c0.1,2.1,0.2,4.2,0.2,6.5
		c0,0-2.1,33-6.7,59.6c3.6,0.9,8.3,0.1,10.9-4c3.3-5.1,5.3-20.5,5.3-20.5l4.5,2.5c0.8-10.7-3.2-17.6-3.2-17.6L119.9,81.6z"/>
	<path class="st1" fill="#F2F3F4" d="M104.6,54.4C102,15.5,76.2,11.9,76.2,11.9c0.4-2.7,2.6-6,2.6-6c-4.2-1.5-11.4,4.6-11.4,4.6
		c-0.2-1.4,1.6-8.5,1.6-8.5C63.6,2.7,59.6,9,59.6,9s-5.8-7.2-12.2-9c0,0,1.5,3.7,0.7,7.8c0,0-3.5-3.4-8.2-2.8c0,0,2.5,3.9,2.6,7
		c0,0-26.7,6.3-28.7,43.8c-0.1,1.6-0.1,3.3-0.1,5.1C14,89.5,17.8,106,21,120.7c0.4,1.8,0.8,3.6,1.1,5.3c0.7,3.3,2.5,9.7,9.1,9.7
		c7.5,0,10.1-5.4,10.1-9.4c0-1.7,0.2-3.6,0.4-5.4c0,0,7.1-1.1,17-1.7c8.2-0.5,18.9,1.7,18.9,1.7c0.2,1.7,0.4,3.7,0.4,5.4
		c0,4,2.6,9.4,10.1,9.4c7.5,0,8.5-6.5,9.1-9.7c0.3-1.8,0.7-3.6,1-5.5c4.6-26.7,6.7-59.6,6.7-59.6C104.9,58.6,104.8,56.4,104.6,54.4z
		"/>
</g>
</svg>
