<svg width="153px" height="156px" viewBox="0 0 153 156" version="1.1" xmlns="http://www.w3.org/2000/svg" xmlns:xlink="http://www.w3.org/1999/xlink">
    <!-- Generator: Sketch 41.1 (35376) - http://www.bohemiancoding.com/sketch -->
    <title>Circle</title>
    <desc>Created with Sketch.</desc>
    <defs>
        <path d="M24.5163942,18.2138435 C19.8664839,22.5622788 17.0109008,28.3528326 13.5461015,34.0632687 L13.5461015,34.0632687 C5.77089325,46.8776842 0,61.8376137 0,77.2788803 L0,77.2788803 C0,84.1633245 2.15457579,88.9785873 3.83825071,95.3861105 L3.83825071,95.3861105 C9.13509957,115.548643 17.9847666,134.071603 35.0321323,145.056559 L35.0321323,145.056559 C46.1539432,152.222992 62.9322227,155.819457 77.0164967,155.819457 L77.0164967,155.819457 C101.21728,155.819457 124.696938,144.211222 138.81642,126.343084 L138.81642,126.343084 C149.512597,112.805716 152.775581,95.6756697 152.775581,77.2788803 L152.775581,77.2788803 C152.775581,61.2225369 148.073488,43.786529 139.942432,31.4301092 L139.942432,31.4301092 C129.857987,16.1042878 114.498697,7.38281417 96.2951404,3.32393812 L96.2951404,3.32393812 C90.1614837,1.9568905 83.7040434,0 77.0164967,0 L77.0164967,0 C56.728151,0 38.2724836,5.34832936 24.5163942,18.2138435 L24.5163942,18.2138435 Z" id="path-1"></path>
    </defs>
    <g id="Pages" stroke="none" stroke-width="1" fill="none" fill-rule="evenodd">
        <g id="Connect" transform="translate(-697.000000, -1247.000000)">
            <g id="Your-connections" transform="translate(156.000000, 1162.000000)">
                <g id="01" transform="translate(490.000000, 84.000000)">
                    <g id="4x" transform="translate(0.000000, 0.478695)">
                        <g id="1">
                            <g id="Circle" transform="translate(51.000000, 0.000000)">
                                <g transform="translate(0.000000, 0.604343)">
                                    <mask id="mask-2" fill="white">
                                        <use xlink:href="#path-1"></use>
                                    </mask>
                                    <g id="Clip-2"></g>
                                    <polygon id="Fill-1" fill="#FFFFFF" mask="url(#mask-2)" points="-4 -4 155.062642 -4 155.062642 158.127937 -4 158.127937"></polygon>
                                </g>
                            </g>
                        </g>
                    </g>
                </g>
            </g>
        </g>
    </g>
</svg>
