<?xml version="1.0" encoding="UTF-8" standalone="no"?>
<svg width="127px" height="46px" viewBox="0 0 127 46" version="1.1" xmlns="http://www.w3.org/2000/svg" xmlns:xlink="http://www.w3.org/1999/xlink">
    <!-- Generator: Sketch 41.1 (35376) - http://www.bohemiancoding.com/sketch -->
    <title>Cloud</title>
    <desc>Created with Sketch.</desc>
    <defs></defs>
    <g id="Pages" stroke="none" stroke-width="1" fill="none" fill-rule="evenodd">
        <g id="How-to-play" transform="translate(-392.000000, -145.000000)" fill="#FDFEFE">
            <g id="Section-01" transform="translate(-1077.000000, 71.000000)">
                <g id="Image" transform="translate(1106.000000, 74.000000)">
                    <g id="Clouds">
                        <path d="M363,44.8877963 C365.682,41.5147963 369.186,39.9057963 372.821,40.1797963 C376.563,40.4607963 378.67,38.1327963 381.548,36.9887963 C388.123,34.3757963 392.394,30.0997963 395.946,24.1927963 C397.997,20.7807963 402.082,19.0677963 406.211,18.6587963 C408.881,18.3937963 409.738,17.1117963 410.3,14.6327963 C412.245,6.05779633 418.687,0.613796332 427.092,0.0397963319 C435.075,-0.504203668 442.547,4.56879633 445.321,12.8147963 C446.171,15.3397963 447.366,16.4157963 449.98,17.0767963 C459.071,19.3717963 465.193,25.1467963 467.803,34.2027963 C468.621,37.0447963 469.622,37.8917963 472.631,37.2787963 C478.377,36.1077963 483.487,37.9737963 487.866,41.7677963 C488.799,42.5757963 490.363,43.3837963 489.753,44.9207963 C489.23,46.2367963 487.696,45.5037963 486.615,45.6917963 C486.291,45.7487963 485.95,45.7037963 485.617,45.7037963 C446.139,45.7037963 406.662,45.7087963 367.185,45.6827963 C365.921,45.6817963 364.55,46.0987963 363,44.8877963" id="Cloud"></path>
                    </g>
                </g>
            </g>
        </g>
    </g>
</svg>