<?xml version="1.0" encoding="UTF-8" standalone="no"?>
<svg width="151px" height="30px" viewBox="0 0 151 30" version="1.1" xmlns="http://www.w3.org/2000/svg" xmlns:xlink="http://www.w3.org/1999/xlink">
    <!-- Generator: Sketch 41.1 (35376) - http://www.bohemiancoding.com/sketch -->
    <title>Cloud</title>
    <desc>Created with Sketch.</desc>
    <defs></defs>
    <g id="Pages" stroke="none" stroke-width="1" fill="none" fill-rule="evenodd">
        <g id="How-to-play" transform="translate(-119.000000, -271.000000)" fill="#F9FCFC">
            <g id="Section-01" transform="translate(-1077.000000, 71.000000)">
                <g id="Image" transform="translate(1106.000000, 74.000000)">
                    <g id="Clouds">
                        <path d="M90,155.828266 C93.546,150.321266 99.306,148.217266 105.835,150.210266 C108.653,151.070266 110.213,150.760266 112.123,148.405266 C115.833,143.829266 120.973,141.969266 126.818,142.830266 C129.153,143.174266 130.361,142.524266 131.742,140.661266 C138.697,131.284266 147.68,128.932266 158.032,133.900266 C160.536,135.101266 161.676,134.557266 163.434,132.734266 C172.722,123.111266 185.97,123.890266 194.112,134.501266 C195.472,136.274266 196.688,137.017266 199.015,136.908266 C205.449,136.604266 210.385,139.457266 213.011,145.365266 C214.326,148.323266 215.721,148.256266 218.371,147.329266 C225.754,144.746266 232.475,146.398266 238.381,151.403266 C239.467,152.323266 241.189,153.345266 240.602,154.938266 C240.091,156.327266 238.253,155.685266 236.976,155.821266 C236.646,155.856266 236.31,155.828266 235.978,155.828266 L93.667,155.828266 L90,155.828266 Z" id="Cloud"></path>
                    </g>
                </g>
            </g>
        </g>
    </g>
</svg>