<?xml version="1.0" encoding="UTF-8" standalone="no"?>
<svg width="21px" height="22px" viewBox="0 0 21 22" version="1.1" xmlns="http://www.w3.org/2000/svg" xmlns:xlink="http://www.w3.org/1999/xlink">
    <!-- Generator: Sketch 41.2 (35397) - http://www.bohemiancoding.com/sketch -->
    <title>Shape</title>
    <desc>Created with Sketch.</desc>
    <defs></defs>
    <g id="Pages" stroke="none" stroke-width="1" fill="none" fill-rule="evenodd">
        <g id="Connect" transform="translate(-709.000000, -1365.000000)" fill="#FFFFFF">
            <g id="Your-connections" transform="translate(156.000000, 1162.000000)">
                <g id="01" transform="translate(490.000000, 84.000000)">
                    <g id="delete-cross-(1)" transform="translate(63.000000, 119.000000)">
                        <g id="Capa_1">
                            <path d="M20.6275505,16.3488206 C19.0151852,14.3268932 17.2809595,12.3709111 15.4533756,10.4962256 C16.1101098,9.7724484 16.7603907,9.04261725 17.3971195,8.30446185 C18.4632101,7.06847317 20.085363,5.45821766 20.2976776,3.78266544 C20.3076803,3.70417967 20.2931603,3.63682894 20.2693905,3.57509977 C20.3174678,3.3689395 20.3027327,3.24937303 20.2726172,3.09326635 C20.3152092,3.31542647 20.2321763,2.85586312 20.1991567,2.79921499 C20.1447336,2.70581044 20.054387,2.61640585 19.9863043,2.53002826 C19.7135434,2.18440981 19.4171203,1.85695335 19.1138137,1.53836167 C18.7196226,1.12398709 17.8731604,0.168320169 17.1973889,0.408534185 C17.0007773,0.162914813 16.6433702,0.0610779085 16.3750191,0.365939981 C14.6023961,2.37986748 12.5948717,4.14147296 10.5542203,5.8675112 C8.62241502,4.19087791 6.61843999,2.6095951 4.55875119,1.14831119 C4.44366676,1.06669032 4.32298943,1.10787913 4.24511921,1.19360807 C4.14068277,1.18625679 4.03334233,1.20928361 3.93363833,1.27685055 C3.42479302,1.62192847 2.98940815,2.10343758 2.54272995,2.52527155 C2.00021975,3.03759118 1.44448022,3.53650553 0.894978911,4.04136577 C0.82248647,4.10806786 0.78140025,4.18601309 0.764083806,4.26709343 C0.510898039,4.3334712 0.379787823,4.69476519 0.667176255,4.87584461 C2.72008905,6.16945438 4.44237609,7.89776287 6.03570402,9.7481243 C5.82145336,9.94163604 5.60397604,10.1316884 5.39262938,10.3283352 C3.947513,11.6730796 2.52293973,13.0730668 1.32326511,14.6480794 C0.793769138,15.3433163 -0.412681476,16.8423296 0.143058056,17.797456 C0.255668717,17.9910758 0.553597593,17.9979947 0.664594922,17.797456 C0.678792254,17.7718346 0.695033142,17.7477267 0.709338031,17.7222134 C0.955855353,18.2226413 1.362738,18.6841505 1.71552021,19.0465256 C2.19898241,19.5428454 2.99145171,20.3487839 3.75520367,20.2811089 C3.79682767,20.4797017 4.0774401,20.5588361 4.22285521,20.4098645 C5.56461071,19.03485 6.77611643,17.8134558 8.37482214,16.6955201 C9.07576166,16.2053624 9.79283452,15.7206101 10.4936665,15.2140202 C11.5017847,16.4253604 12.5437828,17.6079442 13.6915081,18.6882586 C14.6889783,19.627277 16.151196,21.0647774 17.5812546,21.1069392 C17.7542039,21.1120202 17.8837008,21.036129 17.9638297,20.9234814 C18.8097541,20.5576469 19.5844768,19.9130042 20.1828083,19.2184159 C20.64121,18.6858803 21.38173,17.5464312 20.7650065,16.9067614 C20.80093,16.7252496 20.7692011,16.5265487 20.6275505,16.3488206 Z M4.98746762,6.92177182 C5.00575206,6.9383122 5.02414406,6.95452827 5.04242851,6.97106866 C5.05759384,7.01301422 5.07222139,7.05506789 5.1005085,7.09409456 C5.15417872,7.16803983 5.21075294,7.23939053 5.2650685,7.31279526 C5.05081784,7.11387816 4.83366318,6.91906914 4.6131743,6.7286925 C4.73643296,6.79517838 4.86098229,6.85993454 4.98746762,6.92177182 Z M2.80011038,18.4571256 C2.76848905,18.4288015 2.73729794,18.4002613 2.70610683,18.3716129 C2.83226949,18.2882623 2.95552815,18.2015604 3.07932459,18.1157233 C3.1153557,18.1268584 3.1521397,18.1342096 3.18935392,18.1389664 C3.19322592,18.1451285 3.1976357,18.1506419 3.20172281,18.1564797 C3.11664637,18.2118306 3.0299566,18.2655598 2.94509527,18.3214512 C2.88658505,18.3599373 2.83883038,18.4063153 2.80011038,18.4571256 Z M12.3056549,11.6166477 C12.0845206,11.3713527 11.8627411,11.1270306 11.639886,10.8836815 C11.9350184,11.1778409 12.2337002,11.4680004 12.5384051,11.7515654 C12.5306611,11.7594572 12.5231322,11.7676734 12.5152806,11.7755652 C12.445262,11.722917 12.3750282,11.6701607 12.3056549,11.6166477 Z" id="Shape"></path>
                        </g>
                    </g>
                </g>
            </g>
        </g>
    </g>
</svg>