<?xml version="1.0" encoding="UTF-8" standalone="no"?>
<svg width="63px" height="67px" viewBox="0 0 63 67" version="1.1" xmlns="http://www.w3.org/2000/svg" xmlns:xlink="http://www.w3.org/1999/xlink">
    <!-- Generator: Sketch 41.1 (35376) - http://www.bohemiancoding.com/sketch -->
    <title>cup</title>
    <desc>Created with Sketch.</desc>
    <defs></defs>
    <g id="Styles" stroke="none" stroke-width="1" fill="none" fill-rule="evenodd">
        <g transform="translate(-227.000000, -2929.000000)" id="cup">
            <g transform="translate(227.000000, 2929.000000)">
                <g id="Layer_1">
                    <path d="M59.7753038,7.31533861 L53.4936456,7.31533861 L53.4936456,5.22533663 C53.4937785,2.35136832 51.1381899,0 48.2590633,0 L14.7572848,0 C11.8781582,0 9.52256962,2.35136832 9.52256962,5.22533663 L9.52256962,7.31547129 L3.2410443,7.31547129 C1.51359494,7.31547129 0.10021519,8.72631881 0.10021519,10.4506733 L0.10021519,16.7210772 C0.10021519,18.7589386 1.35649367,21.1103069 3.2410443,22.9914812 L10.2032089,28.373505 C12.4018291,36.8907307 19.520962,43.4746416 28.3675443,44.7286693 L28.3675443,50.1629663 L26.2736582,50.1629663 C24.5462089,50.1629663 23.1328291,51.5738139 23.1328291,53.2981683 L23.1328291,54.3432356 L22.0858861,54.3432356 C20.3584367,54.3432356 18.945057,55.7540832 18.945057,57.4784376 L18.945057,58.523505 L44.0714241,58.523505 L44.0714241,57.4784376 C44.0714241,55.7540832 42.6580443,54.3432356 40.9305949,54.3432356 L39.8836519,54.3432356 L39.8836519,53.2981683 C39.8836519,51.5738139 38.4702722,50.1629663 36.7428228,50.1629663 L34.6489367,50.1629663 L34.6489367,44.7286693 C43.495519,43.4746416 50.6146519,36.8907307 52.8132722,28.373505 L59.7754367,22.9914812 C61.6598544,21.1104396 62.9162658,18.7589386 62.9162658,16.7210772 L62.9162658,10.4505406 C62.9161329,8.72618614 61.5027532,7.31533861 59.7753038,7.31533861 L59.7753038,7.31533861 Z M5.33479747,20.6398475 C3.86905063,19.1244535 3.24091139,17.6091921 3.24091139,16.7209446 L3.24091139,10.4505406 L9.52256962,10.4505406 L9.52256962,23.8794634 L5.33479747,20.6398475 L5.33479747,20.6398475 Z M59.7753038,16.7209446 C59.7753038,17.6091921 59.1471646,19.1245861 57.6814177,20.6398475 L53.4412785,23.8794634 L53.4412785,10.4505406 L59.7229367,10.4505406 L59.7229367,16.7209446 L59.7753038,16.7209446 L59.7753038,16.7209446 Z" id="Shape" fill="#FCD200"></path>
                    <path d="M12.6633987,58.5232396 L50.3529494,58.5232396 C52.0803987,58.5232396 53.4937785,59.9340871 53.4937785,61.6584416 L53.4937785,63.7485762 C53.4937785,65.4729307 52.0803987,66.8837782 50.3529494,66.8837782 L12.6633987,66.8837782 C10.9359494,66.8837782 9.52256962,65.4729307 9.52256962,63.7485762 L9.52256962,61.6584416 C9.52256962,59.9340871 10.9359494,58.5232396 12.6633987,58.5232396 L12.6633987,58.5232396 Z" id="Shape" fill="#E4E7E7"></path>
                    <path d="M38.8367089,14.003796 L35.2248418,17.7660119 C35.2248418,17.7660119 31.5606076,13.5857426 31.5082405,13.5857426 C31.4558734,13.5857426 27.8440063,17.7660119 27.8440063,17.7660119 L24.2321392,14.0560693 C23.7087342,13.3767822 23.1851962,13.4290554 23.1851962,14.003796 L24.2321392,22.9390752 C24.2321392,23.5138158 24.7033101,23.9841426 25.2790823,23.9841426 L37.8422658,23.9841426 C38.418038,23.9841426 38.8892089,23.5138158 38.8892089,22.9390752 L39.9361519,14.0560693 C39.8836519,13.1676891 39.2031456,13.6380158 38.8367089,14.003796 L38.8367089,14.003796 Z M37.7897658,26.1264178 L25.2265823,26.1264178 C24.6508101,26.1264178 24.1796392,26.5967446 24.1796392,27.1714851 C24.1796392,27.7462257 24.6508101,28.2165525 25.2265823,28.2165525 L37.7897658,28.2165525 C38.365538,28.2165525 38.8367089,27.7462257 38.8367089,27.1714851 C38.8367089,26.5967446 38.365538,26.1264178 37.7897658,26.1264178 L37.7897658,26.1264178 Z" id="Shape" fill="#E5A300"></path>
                    <path d="M23.2897975,52.2528356 C23.1850633,52.5663426 23.1326962,52.9321228 23.1326962,53.297903 L23.1326962,54.3429703 L39.8836519,54.3429703 L39.8836519,53.297903 C39.8836519,52.9321228 39.8312848,52.5663426 39.7265506,52.2528356 L23.2897975,52.2528356 L23.2897975,52.2528356 Z M19.1020253,56.433105 C18.9972911,56.7466119 18.9449241,57.1123921 18.9449241,57.4781723 L18.9449241,58.5232396 L44.0712911,58.5232396 L44.0712911,57.4781723 C44.0712911,57.1123921 44.0189241,56.7466119 43.9141899,56.433105 C43.9143228,56.433105 19.1020253,56.433105 19.1020253,56.433105 L19.1020253,56.433105 Z" id="Shape" fill="#E3BD59"></path>
                    <path d="M9.52256962,63.7484436 C9.52256962,65.472798 10.9359494,66.8836455 12.6633987,66.8836455 L50.3529494,66.8836455 C52.0803987,66.8836455 53.4937785,65.472798 53.4937785,63.7484436 L53.4937785,62.7033762 L9.52256962,62.7033762 L9.52256962,63.7484436 L9.52256962,63.7484436 Z" id="Shape" fill="#D2D5D5"></path>
                    <path d="M14.7572848,22.8345287 L14.7572848,5.22533663 C14.7572848,2.35136832 17.1128734,0 19.9918671,0 L14.7571519,0 C11.8780253,0 9.52243671,2.35136832 9.52243671,5.22533663 L9.52243671,22.8345287 C9.52243671,35.061697 19.3635949,44.937497 31.5079747,44.937497 C32.3978165,44.937497 33.2877911,44.8852238 34.1252658,44.7806772 C23.1850633,43.4743762 14.7572848,34.1733168 14.7572848,22.8345287 L14.7572848,22.8345287 Z" id="Shape" fill="#E5A300"></path>
                </g>
            </g>
        </g>
    </g>
</svg>