<?xml version="1.0" encoding="UTF-8" standalone="no"?>
<svg width="57px" height="68px" viewBox="0 0 57 68" version="1.1" xmlns="http://www.w3.org/2000/svg" xmlns:xlink="http://www.w3.org/1999/xlink">
    <!-- Generator: Sketch 41.1 (35376) - http://www.bohemiancoding.com/sketch -->
    <title>earth-globe</title>
    <desc>Created with Sketch.</desc>
    <defs></defs>
    <g id="Styles" stroke="none" stroke-width="1" fill="none" fill-rule="evenodd">
        <g transform="translate(-429.000000, -2918.000000)" id="earth-globe">
            <g transform="translate(429.000000, 2918.000000)">
                <g id="Layer_1">
                    <path d="M45.6347887,51.856396 C32.0915352,59.7052119 14.7539014,55.0914455 6.95466901,41.6211168 C-0.79184507,28.1507881 3.89821127,10.8090376 17.4414648,2.96022178 C18.1792535,2.53592871 18.4427113,1.52831683 18.0210986,0.785837624 C17.5994859,0.0433584158 16.5982394,-0.221774257 15.8604507,0.202518812 C0.789035211,8.9528396 -4.42807042,28.2567604 4.21438732,43.2120475 C9.58951408,52.5458218 19.0224789,58.0081743 29.0350775,58.7506535 L29.0350775,63.0992871 L22.9748803,63.0992871 C21.6574577,63.0992871 20.603493,64.1599525 20.603493,65.4857505 C20.603493,66.8115485 21.6574577,67.8722139 22.9748803,67.8722139 L38.257169,67.8722139 C39.5745915,67.8722139 40.6285563,66.8115485 40.6285563,65.4857505 C40.6285563,64.1599525 39.5745915,63.0992871 38.257169,63.0992871 L31.7753592,63.0992871 L32.1969718,63.0992871 L32.1969718,58.8566257 C37.3086408,58.7505188 42.4730282,57.3716673 47.2158028,54.6139644 C47.9534577,54.1367525 48.2170493,53.1821941 47.7954366,52.4397149 C47.3738239,51.6972356 46.3725775,51.432103 45.6347887,51.856396 Z" id="Shape" fill="#FFFFFF"></path>
                    <path d="M56.9648099,27.5673347 C56.9648099,41.6209822 45.6347887,53.0230337 31.6699225,53.0230337 C17.7050563,53.0230337 6.37503521,41.6211168 6.37503521,27.5673347 C6.37503521,13.5135525 17.7050563,2.11163564 31.6699225,2.11163564 C45.6347887,2.11163564 56.9648099,13.5136871 56.9648099,27.5673347 Z" id="Shape" fill="#258A96"></path>
                    <path d="M50.5357183,44.5378455 C52.2747535,37.749695 53.8556338,27.9385743 48.8494014,29.0522931 C44.0539085,30.1129584 38.0990141,31.2797307 35.2534296,31.7038891 C32.4078451,32.1280475 28.9823592,29.2643723 25.1355282,27.196095 C24.6086127,25.0217109 24.5558944,23.8550733 27.5596338,21.6276356 C30.6160915,19.3472792 32.0389507,23.8020198 33.2509366,22.4762218 C35.2534296,20.036705 33.8832887,17.7563485 36.4655493,12.4530218 C39.0476761,7.25580198 39.3112676,8.05133465 41.1556056,3.96783366 C38.257169,2.80106139 35.0426901,2.11163564 31.6700563,2.11163564 C21.868331,2.11163564 13.3838944,7.73314851 9.16816901,15.9001505 C9.85323944,17.3320554 10.8017676,18.8170139 12.1191901,20.460998 C16.1768944,25.3930851 20.4454718,27.4083089 27.1380211,31.5448634 C33.8305704,35.6283644 32.8293239,37.4845624 31.1957254,39.3406257 C29.5621268,41.1968238 27.0325845,49.1517465 31.8280775,51.6441822 L33.9887254,52.9699802 C40.5231197,52.3336079 46.3725775,49.2048 50.5357183,44.5378455 L50.5357183,44.5378455 Z" id="Shape" fill="#AEC225"></path>
                    <path d="M35.3587324,49.3107723 C21.3938662,49.3107723 10.0638451,37.9087208 10.0638451,23.8550733 C10.0638451,17.7563485 12.1717746,12.1878891 15.7025634,7.78620198 C10.0112606,12.5060752 6.37503521,19.6125465 6.37503521,27.5674693 C6.37503521,41.6211168 17.7050563,53.0231683 31.6699225,53.0231683 C39.5745915,53.0231683 46.6887535,49.3639604 51.3262254,43.6363406 C46.9522113,47.1894416 41.4189296,49.3107723 35.3587324,49.3107723 L35.3587324,49.3107723 Z" id="Shape" fill="#187782"></path>
                    <path d="M50.5884366,44.1666059 C46.3725775,47.4016554 41.1028873,49.3107723 35.3587324,49.3107723 C33.3035211,49.3107723 31.3010282,49.0456396 29.403838,48.5682931 C29.7727324,49.8410376 30.5632394,50.901703 31.8279437,51.5911287 C32.671169,52.1213941 33.3562394,52.5456871 33.9885915,52.9169267 L34.1467465,52.9169267 L35.0425563,52.8108198 L35.4114507,52.7577663 L36.3072606,52.5986059 L36.6234366,52.5455525 C37.6246831,52.3334733 38.6259296,52.0682059 39.5744577,51.7500198 L39.8906338,51.6439129 C40.1540915,51.5378059 40.4175493,51.4847525 40.6284225,51.3787802 L41.1027535,51.2196198 L41.7878239,50.9014337 C41.9459789,50.8483802 42.104,50.7422733 42.3147394,50.6893545 L42.9470915,50.3711683 L43.474007,50.1060356 L44.0536408,49.7878495 L44.685993,49.4166099 C44.8967324,49.310503 45.0548873,49.2045307 45.2656268,49.0453703 C45.5818028,48.8332911 45.8452606,48.6210772 46.1614366,48.4620515 L46.5830493,48.1438653 L47.2154014,47.6665188 L47.6370141,47.3483327 C47.8477535,47.1891723 48.0586268,47.0301465 48.2166479,46.8709861 C48.3220845,46.7648792 48.4801056,46.6589069 48.5855423,46.4997465 L49.1651761,45.9694812 C49.2706127,45.8633743 49.3759155,45.757402 49.5340704,45.651295 L50.1664225,45.0149228 L50.4298803,44.7497901 L50.4825986,44.6967366 C50.5357183,44.4317386 50.5883028,44.2727129 50.5884366,44.1666059 L50.5884366,44.1666059 L50.5884366,44.1666059 Z M10.6434789,18.4457743 C11.4867042,14.521299 13.2783239,10.9151446 15.7024296,7.83925545 L15.6497113,7.89230891 C15.3335352,8.15744158 15.0700775,8.36965545 14.8064859,8.63478812 L14.5430282,8.89992079 C14.3322887,9.112 14.0686972,9.32421386 13.8579577,9.58934653 L13.5417817,9.90753267 L12.9094296,10.543905 C12.803993,10.6500119 12.6986901,10.7559842 12.5932535,10.9151446 L11.9609014,11.7106772 C11.8554648,11.8167842 11.750162,11.9758099 11.6447254,12.1349703 L11.2231127,12.6652356 L10.8015,13.2485545 L10.3798873,13.8849267 C10.2744507,14.0440871 10.1691479,14.2031129 10.0637113,14.4151921 L9.74753521,14.8925386 L9.27320423,15.7411248 L9.1150493,16.0062574 C9.58951408,16.7487366 10.0638451,17.5441347 10.6434789,18.4457743 L10.6434789,18.4457743 Z" id="Shape" fill="#BFC302"></path>
                </g>
            </g>
        </g>
    </g>
</svg>