<?xml version="1.0" encoding="utf-8"?>
<!-- Generator: Adobe Illustrator 19.2.1, SVG Export Plug-In . SVG Version: 6.00 Build 0)  -->
<svg version="1.1" id="Layer_1" xmlns="http://www.w3.org/2000/svg" xmlns:xlink="http://www.w3.org/1999/xlink" x="0px" y="0px"
	 viewBox="0 0 211.3 66.7" style="enable-background:new 0 0 211.3 66.7;" xml:space="preserve">
<style type="text/css">
	.st0{opacity:0.1;enable-background:new    ;}
	.st1{fill:#EDE1C6;}
</style>
<g id="Layer_7">
	<g>
		<path class="st0" d="M190.3,62.3c-1.6-0.5-3.1-1.5-4.6-2.3c-4.2-2.4-8.1-5.4-11.2-9.2c-7.3-8.7-4.9-11.1-4.9-11.1
			c2-0.7,3.8-1.4,5.6-2.3c-4.1-1.3-7.6-1.2-9.2,0.8c-3.2,3.8,1.3,12.9,10.1,20.3s18.5,10.3,21.7,6.5c1.3-1.5,1.3-3.9,0.3-6.7
			C195.4,61.2,192.7,63.1,190.3,62.3z"/>
		<path class="st1" d="M202.6,0.9c-1.2-1.5-4.1-1-4.4,0.7c-1.6,8.9-6.7,27.2-23.1,35.7c-1.7,0.9-3.6,1.7-5.6,2.3
			c0,0-2.3,2.4,4.9,11.1c3.1,3.7,7,6.8,11.2,9.2c1.4,0.8,3,1.8,4.6,2.3c2.4,0.8,5.1-1.1,7.7-4.1c4.6-5.4,8.9-14.2,10.1-17.3
			C213.8,27.2,211.9,12.6,202.6,0.9z"/>
		<path class="st0" d="M36.1,37.4c1.7,0.9,3.6,1.7,5.6,2.3c0,0,2.3,2.4-4.9,11.1c-3.1,3.7-7,6.8-11.2,9.2c-1.4,0.8-3,1.8-4.6,2.3
			c-2.4,0.8-5.1-1.1-7.7-4.1c-1,2.8-1,5.2,0.3,6.7c3.2,3.8,12.9,0.9,21.7-6.5s13.3-16.5,10.1-20.3C43.7,36.2,40.3,36,36.1,37.4z"/>
		<path class="st1" d="M21,62.3c1.6-0.5,3.1-1.5,4.6-2.3c4.2-2.4,8.1-5.4,11.2-9.2c7.3-8.7,4.9-11.1,4.9-11.1
			c-2-0.7-3.8-1.4-5.6-2.3c-16.4-8.5-21.5-26.9-23-35.8c-0.3-1.7-3.2-2.2-4.4-0.7c-9.3,11.7-11.2,26.3-5.6,40
			C4.4,44,8.6,52.8,13.2,58.2C15.9,61.2,18.6,63.1,21,62.3z"/>
	</g>
</g>
</svg>
