<?xml version="1.0" encoding="utf-8"?>
<!-- Generator: Adobe Illustrator 19.2.1, SVG Export Plug-In . SVG Version: 6.00 Build 0)  -->
<svg version="1.1" id="Layer_1" xmlns="http://www.w3.org/2000/svg" xmlns:xlink="http://www.w3.org/1999/xlink" x="0px" y="0px"
	 viewBox="0 0 110.2 112.9" style="enable-background:new 0 0 110.2 112.9;" xml:space="preserve">
<style type="text/css">
	.st0{fill:#7B4A3D;}
	.st1{fill:#945243;}
	.st2{fill:#633D8F;}
	.st3{fill:#48267F;}
	.st4{fill:#D7D8D8;}
	.st5{fill:#CECDCE;}
</style>
<g id="Layer_3">
	<g>
		<path class="st0" d="M57.7,6.7c0.5,0,1-0.1,1.4-0.1C58.6,6.6,58.2,6.6,57.7,6.7z"/>
		<path class="st0" d="M63,7.6c0.1,0.1,0.2,0.2,0.3,0.3C63.3,7.8,63.2,7.7,63,7.6z"/>
		<path class="st0" d="M59.8,6.5c0.5-0.1,1-0.1,1.5-0.2C60.8,6.3,60.3,6.4,59.8,6.5z"/>
		<path class="st0" d="M53.4,6.6c0.5,0,0.9,0.1,1.4,0.1C54.3,6.7,53.9,6.6,53.4,6.6z"/>
		<path class="st0" d="M51.1,6.3c0.6,0.1,1.2,0.2,1.8,0.2C52.3,6.5,51.7,6.4,51.1,6.3z"/>
		<path class="st0" d="M39.8,51.9l3-1.1l0,0l13.9-5.2l10.6-5.2l0,0l4.7-2.3l3-1l0,0l12-3.8l-8.1-18.6c-2.4-0.3-4.7-0.9-7-1.7
			c-1.2-0.4-2.3-0.9-3.3-1.5l0,0l-13.8,5.9L49.9,6.1c0.2,0,0.3,0.1,0.5,0.1c-2-0.3-4-0.9-6-1.5c-3-1-5.6-2.7-8-4.7L1.9,14.9
			c-1.6,0.7-2.3,2.5-1.6,4.1l18.8,43.5l10.6-4.6L39.8,51.9z M71.3,17.2l6,13.9l-13.9,6l-6-13.9L71.3,17.2z M51.7,25.7l6,13.9
			l-13.9,6l-6-13.9L51.7,25.7z M43.1,5.9l6,13.9l-13.9,6l-6-13.9L43.1,5.9z M9.6,20.4l13.9-6l6,13.9l-13.9,6L9.6,20.4z M18.1,40.2
			l13.9-6l6,13.9l-13.9,6L18.1,40.2z"/>
		<path class="st0" d="M64.8,9.1C64.8,9.1,64.9,9.1,64.8,9.1C64.9,9.1,64.8,9.1,64.8,9.1z"/>
		<path class="st0" d="M57.2,6.7c-0.6,0-1.1,0-1.7,0C56,6.7,56.6,6.7,57.2,6.7z"/>
		<polygon class="st0" points="103.6,72 103.6,72 88.7,37.5 88.7,37.5 		"/>
		<path class="st0" d="M66.6,10.4C66.7,10.4,66.7,10.4,66.6,10.4C66.7,10.4,66.7,10.4,66.6,10.4z"/>
		<rect x="12" y="16.8" transform="matrix(0.918 -0.3966 0.3966 0.918 -8.0714 9.7674)" class="st1" width="15.2" height="15.2"/>
		<rect x="31.6" y="8.3" transform="matrix(0.918 -0.3966 0.3966 0.918 -3.0951 16.8368)" class="st1" width="15.2" height="15.2"/>
		<path class="st1" d="M54.8,17.4l13.7-5.9l0,0c-0.6-0.3-1.2-0.7-1.8-1.1c0,0-0.1,0-0.1-0.1c-0.6-0.4-1.2-0.8-1.7-1.2L64.8,9
			c-0.5-0.4-1-0.8-1.4-1.2c-0.1-0.1-0.2-0.2-0.3-0.3c-0.5-0.4-1-0.9-1.4-1.4c-0.1,0-0.2,0-0.3,0.1c-0.5,0.1-1,0.2-1.5,0.2
			c-0.2,0-0.5,0.1-0.7,0.1c-0.5,0.1-1,0.1-1.4,0.1c-0.2,0-0.3,0-0.5,0c-0.6,0-1.1,0-1.7,0c-0.2,0-0.4,0-0.7,0c-0.5,0-0.9,0-1.4-0.1
			c-0.2,0-0.3,0-0.5,0c-0.6-0.1-1.2-0.1-1.8-0.2c-0.2,0-0.5-0.1-0.7-0.1S50.2,6.1,50,6.1L54.8,17.4z"/>
		
			<rect x="20.5" y="36.5" transform="matrix(0.918 -0.3966 0.3966 0.918 -15.1933 14.7499)" class="st1" width="15.2" height="15.2"/>
		
			<rect x="40.1" y="28.1" transform="matrix(0.918 -0.3966 0.3966 0.918 -10.2501 21.8424)" class="st1" width="15.2" height="15.2"/>
		<rect x="59.7" y="19.6" transform="matrix(0.918 -0.3966 0.3966 0.918 -5.274 28.9119)" class="st1" width="15.2" height="15.2"/>
		<polygon class="st2" points="104.9,74.9 103.6,72 88.7,37.5 88.7,37.5 82.4,43.5 72.2,44.6 60,52.4 46.1,57.3 37.1,64.8 
			24.4,66.3 21.4,67.7 37.1,104.1 		"/>
		<polygon class="st3" points="104.9,74.9 37.1,104.1 39.3,112.9 110.2,82.2 		"/>
		<polygon class="st4" points="82.4,43.5 88.7,37.5 88.7,37.5 88.7,37.5 94.8,34.9 86.9,33.3 86.9,33.3 74.9,37.1 		"/>
		<polygon class="st4" points="67.2,40.3 56.6,45.5 42.7,50.8 46.1,57.3 60,52.4 72.2,44.6 		"/>
		<polygon class="st4" points="24.4,66.3 37.1,64.8 39.8,51.9 29.8,58 19.2,62.6 19.2,62.6 12.9,71.3 21.4,67.7 		"/>
		<polygon class="st5" points="42.7,50.8 42.7,50.8 39.8,51.9 37.1,64.8 46.1,57.3 		"/>
		<polygon class="st5" points="74.9,37.1 74.9,37.1 71.9,38 67.2,40.3 67.2,40.3 72.2,44.6 82.4,43.5 		"/>
	</g>
</g>
</svg>
