<?xml version="1.0" encoding="utf-8"?>
<!-- Generator: Adobe Illustrator 19.2.1, SVG Export Plug-In . SVG Version: 6.00 Build 0)  -->
<svg version="1.1" id="Layer_1" xmlns="http://www.w3.org/2000/svg" xmlns:xlink="http://www.w3.org/1999/xlink" x="0px" y="0px"
	 viewBox="0 0 258.1 63.6" style="enable-background:new 0 0 258.1 63.6;" xml:space="preserve">
<style type="text/css">
	.st0{opacity:0.1;enable-background:new    ;}
	.st1{fill:#C6C5C6;}
	.st2{fill:#BCBBBB;}
</style>
<g id="Layer_8">
	<g>
		<path class="st0" d="M212.3,59.4c-0.1,0-0.2-0.1-0.3-0.1c-0.9-0.4-1.9-1-2.9-1.6c0,0-0.1,0-0.1-0.1c-1.2-0.8-2.4-1.6-3.6-2.6
			c-3.8-3.2-6.5-6.9-7.4-9.9l5.1-5.1c-3.5-1.7-6.6-1.9-8.1-0.4c-2.8,2.8,0.2,10.2,6.5,16.5c6.4,6.4,13.8,9.3,16.5,6.5
			c1.4-1.4,1.3-4.1,0-7.2l-4.5,4.5C213.2,59.7,212.8,59.6,212.3,59.4z"/>
		<path class="st1" d="M212.3,59.4c0.5,0.2,0.9,0.4,1.3,0.5C213.2,59.7,212.8,59.6,212.3,59.4z"/>
		<path class="st1" d="M209.1,57.6c1,0.6,2,1.2,2.9,1.6C211.1,58.8,210.1,58.3,209.1,57.6z"/>
		<path class="st2" d="M207.5,56.5c0.5,0.4,1,0.7,1.5,1c0,0,0.1,0,0.1,0.1c1,0.6,2,1.2,2.9,1.6c0.1,0,0.2,0.1,0.3,0.1
			c0.5,0.2,0.9,0.4,1.3,0.5l4.5-4.5l15.7-15.7c-2-1-3.9-2.3-5.8-3.8L207.5,56.5z"/>
		<path class="st1" d="M248.6,9.6c-9.9-9.9-23.1-12.5-29.7-6c-4.8,4.8-4.6,13.1-0.4,21L203.2,40l-5.1,5.1c0.9,3,3.6,6.6,7.4,9.9
			c1.2,1,2.4,1.9,3.6,2.6c-0.5-0.3-1-0.7-1.5-1L228,36c1.9,1.5,3.8,2.8,5.8,3.8c7.9,4.1,16.1,4.2,20.8-0.5
			C261.1,32.7,258.4,19.5,248.6,9.6z"/>
		<path class="st0" d="M55,40l5.1,5.1c-0.9,3-3.6,6.6-7.4,9.9c-1.2,1-2.4,1.9-3.6,2.6c0,0-0.1,0-0.1,0.1c-1,0.6-2,1.2-2.9,1.6
			c-0.1,0-0.2,0.1-0.3,0.1c-0.5,0.2-0.9,0.4-1.3,0.5L40,55.4c-1.3,3.1-1.4,5.8,0,7.2c2.8,2.8,10.2-0.2,16.5-6.5s9.3-13.8,6.5-16.5
			C61.6,38,58.5,38.3,55,40z"/>
		<path class="st1" d="M50.7,56.5c-0.5,0.4-1,0.7-1.5,1c1.2-0.8,2.4-1.6,3.6-2.6c3.8-3.2,6.5-6.9,7.4-9.9L55,40L39.7,24.6
			c4.2-8,4.3-16.3-0.4-21c-6.5-6.5-19.8-3.8-29.7,6c-9.9,9.9-12.5,23.1-6,29.7c4.7,4.7,12.9,4.6,20.8,0.5c2-1,3.9-2.3,5.8-3.8
			L50.7,56.5z"/>
		<path class="st1" d="M49,57.6c-1,0.6-2,1.2-2.9,1.6C47.1,58.8,48.1,58.3,49,57.6z"/>
		<path class="st1" d="M45.8,59.4c-0.5,0.2-0.9,0.4-1.3,0.5C44.9,59.7,45.4,59.6,45.8,59.4z"/>
		<path class="st2" d="M45.8,59.4c0.1,0,0.2-0.1,0.3-0.1c0.9-0.4,1.9-1,2.9-1.6c0,0,0.1,0,0.1-0.1c0.5-0.3,1-0.7,1.5-1L30.2,36
			c-1.9,1.5-3.8,2.8-5.8,3.8l15.7,15.7l4.5,4.5C44.9,59.7,45.4,59.6,45.8,59.4z"/>
	</g>
</g>
</svg>
