<?xml version="1.0" encoding="utf-8"?>
<!-- Generator: Adobe Illustrator 19.2.1, SVG Export Plug-In . SVG Version: 6.00 Build 0)  -->
<svg version="1.1" id="Layer_1" xmlns="http://www.w3.org/2000/svg" xmlns:xlink="http://www.w3.org/1999/xlink" x="0px" y="0px"
	 viewBox="0 0 121 65.6" style="enable-background:new 0 0 121 65.6;" xml:space="preserve">
<style type="text/css">
	.st0{fill:#A5D6D0;}
	.st1{opacity:0.1;enable-background:new    ;}
	.st2{fill:#FFFFFF;}
</style>
<g id="Layer_5">
	<g>
		<path class="st0" d="M119.3,20.6c-1.8-5.4,1.3-16-4-19.7C110-2.7,96.8,6.2,87.5,9.4c-6.1,2.2-12.6,6.9-16.3,12.9
			c-0.5-0.3-1.1-0.6-1.7-0.6h-6.9c0.1,0.2,0.1,0.5,0.1,0.7c0,1.2-1,2.2-2.2,2.2s-2.2-1-2.2-2.2c0-0.2,0-0.5,0.1-0.7h-6.9
			c-0.6,0-1.2,0.2-1.7,0.6c-3.7-6.1-10.2-10.8-16.3-12.9C24.2,6.1,11-2.8,5.7,0.9c-5.3,3.6-2.2,14.3-4,19.7C0.2,25.1,0,30.9,0,32.8
			c0,1.8,0.3,7.7,1.7,12.2c1.8,5.4-1.3,16,4,19.7c5.3,3.6,18.5-5.3,27.8-8.5c6.1-2.2,12.6-6.9,16.3-12.9c0.5,0.3,1.1,0.6,1.7,0.6
			h6.9c-0.1-0.2-0.1-0.5-0.1-0.7c0-1.2,1-2.2,2.2-2.2s2.2,1,2.2,2.2c0,0.2,0,0.5-0.1,0.7h6.9c0.6,0,1.2-0.2,1.7-0.6
			c3.7,6.1,10.2,10.8,16.3,12.9c9.3,3.3,22.5,12.2,27.8,8.5c5.3-3.6,2.2-14.3,4-19.7c1.5-4.5,1.7-10.3,1.7-12.2
			C121,30.9,120.8,25,119.3,20.6z M20.9,16c2.5-2.2,19.4,6,23.2,9.2c-0.2,2.1-6.7-2.6-12.2-3.7c-1.6-0.3-3.4-0.7-5.1-1.2
			c-0.5,0.9-1.5,1.5-2.6,1.5c-1.6,0-3-1.3-3-3c0-0.3,0-0.5,0.1-0.8C20.4,17.4,20.1,16.7,20.9,16z M15.2,2.1c1.6,0,3,1.3,3,3
			c0,1.6-1.3,3-3,3c-1.6,0-3-1.3-3-3S13.5,2.1,15.2,2.1z M6.1,49.6c-1.6,0-3-1.3-3-3c0-1.6,1.3-3,3-3c1.6,0,3,1.3,3,3
			C9,48.2,7.7,49.6,6.1,49.6z M6.1,21.8c-1.6,0-3-1.3-3-3c0-1.6,1.3-3,3-3c1.6,0,3,1.3,3,3C9,20.5,7.7,21.8,6.1,21.8z M15.2,63.4
			c-1.6,0-3-1.3-3-3c0-1.6,1.3-3,3-3c1.6,0,3,1.3,3,3C18.1,62.1,16.8,63.4,15.2,63.4z M15.2,35.7c-1.6,0-3-1.3-3-3c0-1.7,1.3-3,3-3
			c1.1,0,2.1,0.6,2.6,1.6c1.9-1,8.4-1.1,13.7-0.9c0.5-0.4,1.2-0.7,1.9-0.7c0.9,0,1.6,0.4,2.2,1c3.8,0.3,7.1,0.5,8.6,1.7
			c-0.1,1-3.4,1.8-8,1.2c-0.4,1.2-1.5,2-2.8,2c-1.5,0-2.8-1.2-2.9-2.7C26,32.7,20.3,33,18.2,32.5v0.1C18.1,34.4,16.8,35.7,15.2,35.7
			z M27.2,46.6c0,1.6-1.3,3-3,3c-1.6,0-3-1.3-3-3c0-1.5,1.2-2.8,2.6-2.9c1.6-0.7,4.4-1.3,7.3-1.8c5.5-0.9,12.7-4.1,12.9-2.3
			c-2.8,2.1-11.6,5.6-17,6.5C27.2,46.3,27.2,46.4,27.2,46.6z M42.4,49.6c-1.6,0-3-1.3-3-3c0-1.6,1.3-3,3-3c1.6,0,3,1.3,3,3
			C45.4,48.2,44.1,49.6,42.4,49.6z M42.4,21.8c-1.6,0-3-1.3-3-3c0-1.6,1.3-3,3-3c1.6,0,3,1.3,3,3C45.4,20.5,44.1,21.8,42.4,21.8z
			 M53.9,34.9c-1.2,0-2.2-1-2.2-2.2c0-1.2,1-2.2,2.2-2.2s2.2,1,2.2,2.2C56.1,33.9,55.1,34.9,53.9,34.9z M67.3,34.9
			c-1.2,0-2.2-1-2.2-2.2c0-1.2,1-2.2,2.2-2.2s2.2,1,2.2,2.2C69.5,33.9,68.5,34.9,67.3,34.9z M100.3,16c0.8,0.7,0.5,1.4-0.5,2.1
			c0.1,0.3,0.1,0.5,0.1,0.8c0,1.6-1.3,3-3,3c-1.1,0-2.1-0.6-2.6-1.5c-1.7,0.5-3.5,0.9-5.1,1.2c-5.5,1-12,5.7-12.2,3.7
			C80.9,22,97.9,13.8,100.3,16z M78.8,15.9c1.6,0,3,1.3,3,3c0,1.6-1.3,3-3,3c-1.6,0-3-1.3-3-3C75.9,17.3,77.2,15.9,78.8,15.9z
			 M78.8,49.6c-1.6,0-3-1.3-3-3c0-1.6,1.3-3,3-3c1.6,0,3,1.3,3,3C81.8,48.2,80.4,49.6,78.8,49.6z M97,49.6c-1.6,0-3-1.3-3-3
			c0-0.2,0-0.3,0-0.5c-5.4-0.9-14.2-4.5-17-6.5c0.2-1.8,7.4,1.4,12.9,2.3c2.9,0.5,5.7,1.1,7.3,1.8c1.5,0.2,2.7,1.4,2.7,2.9
			C100,48.2,98.6,49.6,97,49.6z M106.1,63.4c-1.6,0-3-1.3-3-3c0-1.6,1.3-3,3-3c1.6,0,3,1.3,3,3S107.7,63.4,106.1,63.4z M106.1,35.7
			c-1.6,0-3-1.3-3-3v-0.1c-2.1,0.5-7.8,0.2-12.3,0.4c-0.1,1.5-1.4,2.7-2.9,2.7c-1.3,0-2.4-0.8-2.8-2c-4.6,0.6-7.9-0.1-8-1.2
			c1.5-1.2,4.8-1.5,8.6-1.7c0.5-0.6,1.3-1,2.2-1c0.7,0,1.4,0.3,1.9,0.7c5.3-0.2,11.8-0.2,13.7,0.9c0.5-0.9,1.5-1.6,2.6-1.6
			c1.6,0,3,1.3,3,3C109.1,34.5,107.7,35.7,106.1,35.7z M106.1,8c-1.6,0-3-1.3-3-3c0-1.6,1.3-3,3-3c1.6,0,3,1.3,3,3S107.7,8,106.1,8z
			 M115.2,49.6c-1.6,0-3-1.3-3-3c0-1.6,1.3-3,3-3c1.6,0,3,1.3,3,3C118.1,48.2,116.8,49.6,115.2,49.6z M115.2,21.8c-1.6,0-3-1.3-3-3
			c0-1.6,1.3-3,3-3c1.6,0,3,1.3,3,3C118.1,20.5,116.8,21.8,115.2,21.8z"/>
		<path class="st0" d="M21.4,18.1c0.3-1.3,1.5-2.2,2.8-2.2c1.6,0,3,1.3,3,3c0,0.5-0.1,1-0.4,1.4c1.7,0.5,3.5,0.9,5.1,1.2
			c5.5,1,12,5.7,12.2,3.7C40.3,22,23.3,13.8,20.9,16C20.1,16.7,20.4,17.4,21.4,18.1z"/>
		<path class="st1" d="M21.4,18.1c0.3-1.3,1.5-2.2,2.8-2.2c1.6,0,3,1.3,3,3c0,0.5-0.1,1-0.4,1.4c1.7,0.5,3.5,0.9,5.1,1.2
			c5.5,1,12,5.7,12.2,3.7C40.3,22,23.3,13.8,20.9,16C20.1,16.7,20.4,17.4,21.4,18.1z"/>
		<path class="st0" d="M31.3,41.9c-2.9,0.5-5.7,1.1-7.3,1.8c0.1,0,0.2,0,0.3,0c1.5,0,2.7,1.1,2.9,2.5c5.4-0.9,14.2-4.5,17-6.5
			C43.9,37.8,36.7,41,31.3,41.9z"/>
		<path class="st1" d="M31.3,41.9c-2.9,0.5-5.7,1.1-7.3,1.8c0.1,0,0.2,0,0.3,0c1.5,0,2.7,1.1,2.9,2.5c5.4-0.9,14.2-4.5,17-6.5
			C43.9,37.8,36.7,41,31.3,41.9z"/>
		<path class="st0" d="M30.4,33c0-0.1,0-0.2,0-0.3c0-0.9,0.4-1.7,1-2.2c-5.3-0.2-11.8-0.2-13.7,0.9c0.2,0.4,0.3,0.8,0.3,1.3
			C20.2,33.2,25.9,32.9,30.4,33z"/>
		<path class="st1" d="M30.4,33c0-0.1,0-0.2,0-0.3c0-0.9,0.4-1.7,1-2.2c-5.3-0.2-11.8-0.2-13.7,0.9c0.2,0.4,0.3,0.8,0.3,1.3
			C20.2,33.2,25.9,32.9,30.4,33z"/>
		<path class="st0" d="M36.1,33.7c4.6,0.6,7.9-0.1,8-1.2c-1.5-1.2-4.8-1.5-8.6-1.7c0.5,0.5,0.8,1.2,0.8,2
			C36.3,33.1,36.2,33.4,36.1,33.7z"/>
		<path class="st1" d="M36.1,33.7c4.6,0.6,7.9-0.1,8-1.2c-1.5-1.2-4.8-1.5-8.6-1.7c0.5,0.5,0.8,1.2,0.8,2
			C36.3,33.1,36.2,33.4,36.1,33.7z"/>
		<path class="st0" d="M89.3,21.5c1.6-0.3,3.4-0.7,5.1-1.2c-0.2-0.4-0.4-0.9-0.4-1.4c0-1.6,1.3-3,3-3c1.4,0,2.5,0.9,2.8,2.2
			c1-0.7,1.3-1.4,0.5-2.1c-2.5-2.2-19.4,6-23.2,9.2C77.3,27.3,83.8,22.6,89.3,21.5z"/>
		<path class="st1" d="M89.3,21.5c1.6-0.3,3.4-0.7,5.1-1.2c-0.2-0.4-0.4-0.9-0.4-1.4c0-1.6,1.3-3,3-3c1.4,0,2.5,0.9,2.8,2.2
			c1-0.7,1.3-1.4,0.5-2.1c-2.5-2.2-19.4,6-23.2,9.2C77.3,27.3,83.8,22.6,89.3,21.5z"/>
		<path class="st0" d="M97,43.6c0.1,0,0.2,0,0.3,0c-1.6-0.7-4.4-1.3-7.3-1.8c-5.5-0.9-12.7-4.1-12.9-2.3c2.8,2.1,11.6,5.6,17,6.5
			C94.3,44.7,95.5,43.6,97,43.6z"/>
		<path class="st1" d="M97,43.6c0.1,0,0.2,0,0.3,0c-1.6-0.7-4.4-1.3-7.3-1.8c-5.5-0.9-12.7-4.1-12.9-2.3c2.8,2.1,11.6,5.6,17,6.5
			C94.3,44.7,95.5,43.6,97,43.6z"/>
		<path class="st0" d="M85.7,30.8c-3.8,0.3-7.1,0.5-8.6,1.7c0.1,1,3.4,1.8,8,1.2c-0.1-0.3-0.2-0.6-0.2-0.9
			C84.9,32,85.2,31.3,85.7,30.8z"/>
		<path class="st1" d="M85.7,30.8c-3.8,0.3-7.1,0.5-8.6,1.7c0.1,1,3.4,1.8,8,1.2c-0.1-0.3-0.2-0.6-0.2-0.9
			C84.9,32,85.2,31.3,85.7,30.8z"/>
		<path class="st0" d="M89.8,30.5c0.6,0.5,1,1.3,1,2.2c0,0.1,0,0.2,0,0.3c4.5-0.2,10.2,0.1,12.3-0.4c0-0.5,0.1-0.9,0.3-1.3
			C101.6,30.3,95.1,30.3,89.8,30.5z"/>
		<path class="st1" d="M89.8,30.5c0.6,0.5,1,1.3,1,2.2c0,0.1,0,0.2,0,0.3c4.5-0.2,10.2,0.1,12.3-0.4c0-0.5,0.1-0.9,0.3-1.3
			C101.6,30.3,95.1,30.3,89.8,30.5z"/>
		<circle class="st2" cx="6.1" cy="18.9" r="3"/>
		<circle class="st2" cx="15.2" cy="5" r="3"/>
		<circle class="st2" cx="6.1" cy="46.6" r="3"/>
		<circle class="st2" cx="42.4" cy="18.9" r="3"/>
		<circle class="st2" cx="42.4" cy="46.6" r="3"/>
		<circle class="st2" cx="15.2" cy="60.4" r="3"/>
		<path class="st2" d="M24.2,15.9c-1.4,0-2.5,0.9-2.8,2.2c-0.1,0.3-0.1,0.5-0.1,0.8c0,1.6,1.3,3,3,3c1.1,0,2.1-0.6,2.6-1.5
			c0.2-0.4,0.4-0.9,0.4-1.4C27.2,17.3,25.9,15.9,24.2,15.9z"/>
		<path class="st2" d="M24.2,43.6c-0.1,0-0.2,0-0.3,0c-1.5,0.2-2.6,1.4-2.6,2.9c0,1.6,1.3,3,3,3c1.6,0,3-1.3,3-3c0-0.2,0-0.3,0-0.5
			C26.9,44.7,25.7,43.6,24.2,43.6z"/>
		<path class="st2" d="M17.8,31.4c-0.5-0.9-1.5-1.6-2.6-1.6c-1.6,0-3,1.3-3,3c0,1.7,1.3,3,3,3c1.6,0,3-1.3,3-3v-0.1
			C18.1,32.2,18,31.7,17.8,31.4z"/>
		<path class="st2" d="M30.4,32.7c0,0.1,0,0.2,0,0.3c0.1,1.5,1.4,2.7,2.9,2.7c1.3,0,2.4-0.8,2.8-2c0.1-0.3,0.2-0.6,0.2-0.9
			c0-0.8-0.3-1.5-0.8-2c-0.5-0.6-1.3-1-2.2-1c-0.7,0-1.4,0.3-1.9,0.7C30.8,31,30.4,31.8,30.4,32.7z"/>
		<path class="st2" d="M106.1,29.8c-1.1,0-2.1,0.6-2.6,1.6c-0.2,0.4-0.3,0.8-0.3,1.3v0.1c0,1.6,1.3,3,3,3c1.6,0,3-1.3,3-3
			C109.2,31.1,107.7,29.8,106.1,29.8z"/>
		<circle class="st2" cx="78.8" cy="46.6" r="3"/>
		<circle class="st2" cx="78.8" cy="18.9" r="3"/>
		<path class="st2" d="M97.3,43.7c-0.1,0-0.2,0-0.3,0c-1.5,0-2.7,1.1-2.9,2.5c0,0.2,0,0.3,0,0.5c0,1.6,1.3,3,3,3c1.6,0,3-1.3,3-3
			C100,45.1,98.8,43.8,97.3,43.7z"/>
		<circle class="st2" cx="115.2" cy="46.6" r="3"/>
		<circle class="st2" cx="106.1" cy="5" r="3"/>
		<circle class="st2" cx="106.1" cy="60.4" r="3"/>
		<circle class="st2" cx="115.2" cy="18.9" r="3"/>
		<path class="st2" d="M97,15.9c-1.6,0-3,1.3-3,3c0,0.5,0.1,1,0.4,1.4c0.5,0.9,1.5,1.5,2.6,1.5c1.6,0,3-1.3,3-3c0-0.3,0-0.5-0.1-0.8
			C99.5,16.9,98.4,15.9,97,15.9z"/>
		<path class="st2" d="M89.8,30.5c-0.5-0.4-1.2-0.7-1.9-0.7c-0.9,0-1.6,0.4-2.2,1c-0.5,0.5-0.8,1.2-0.8,2c0,0.3,0.1,0.6,0.2,0.9
			c0.4,1.2,1.5,2,2.8,2c1.5,0,2.8-1.2,2.9-2.7c0-0.1,0-0.2,0-0.3C90.9,31.8,90.5,31,89.8,30.5z"/>
		<path class="st2" d="M60.6,40.8c-1.2,0-2.2,1-2.2,2.2c0,0.2,0,0.5,0.1,0.7h4.1c0.1-0.2,0.1-0.5,0.1-0.7
			C62.8,41.7,61.8,40.8,60.6,40.8z"/>
		<circle class="st2" cx="53.9" cy="32.7" r="2.2"/>
		<path class="st2" d="M60.6,24.7c1.2,0,2.2-1,2.2-2.2c0-0.2,0-0.5-0.1-0.7h-4.1c-0.1,0.2-0.1,0.5-0.1,0.7
			C58.4,23.7,59.4,24.7,60.6,24.7z"/>
		<circle class="st2" cx="67.3" cy="32.7" r="2.2"/>
	</g>
</g>
</svg>
