<?xml version="1.0" encoding="UTF-8" standalone="no"?>
<svg width="57px" height="48px" viewBox="0 0 57 48" version="1.1" xmlns="http://www.w3.org/2000/svg" xmlns:xlink="http://www.w3.org/1999/xlink">
    <!-- Generator: Sketch 41.1 (35376) - http://www.bohemiancoding.com/sketch -->
    <title>Extra</title>
    <desc>Created with Sketch.</desc>
    <defs>
        <path d="M21.3416908,0.150235856 L5.01143337,37.707215 C4.65179509,38.6280866 3.71095785,39.1843341 2.7316841,39.0547064 C1.75265518,38.9250787 0.988332024,38.1433915 0.880122276,37.1610142 L0.134209466,32.3246919 L0.134209466,0.150235856 L21.3416908,0.150235856 L21.3416908,0.150235856 Z" id="path-1"></path>
        <polygon id="path-3" points="32.8955028 0.0933613784 4.12429773e-05 0.0933613784 4.12429773e-05 31.0524058 32.8955028 31.0524058 32.8955028 0.0933613784"></polygon>
    </defs>
    <g id="Pages" stroke="none" stroke-width="1" fill="none" fill-rule="evenodd">
        <g id="Create-monster" transform="translate(-251.000000, -893.000000)">
            <g id="Pick-one" transform="translate(180.000000, 432.000000)">
                <g id="Extra" transform="translate(50.000000, 454.000000)">
                    <g transform="translate(48.355339, 35.355339) rotate(-315.000000) translate(-48.355339, -35.355339) translate(31.855339, 1.855339)">
                        <g id="Group-7" transform="translate(2.693003, 21.225379)">
                            <g id="Group-3" fill="#F5CA85">
                                <path d="M27.5498592,3.72313415 L10.6422084,42.6080258 C10.2825701,43.5288973 9.3417329,44.0848998 8.36245916,43.9555171 L8.36245916,43.9555171 C7.38343023,43.8258894 6.61910708,43.0442023 6.51089733,42.0618249 L0.0369186201,0.0844908223 L27.5498592,3.72313415 Z" id="Fill-1"></path>
                            </g>
                            <g id="Group-6" transform="translate(5.630824, 4.900860)">
                                <mask id="mask-2" fill="white">
                                    <use xlink:href="#path-1"></use>
                                </mask>
                                <g id="Clip-5"></g>
                                <polygon id="Fill-4" fill="#E6B873" mask="url(#mask-2)" points="12.1332506 0.150235856 0.134209466 49.8339269 6.86279935 50.723923 27.2728227 2.15248211"></polygon>
                            </g>
                        </g>
                        <g id="Group-25" transform="translate(-0.000000, 0.151682)">
                            <g id="Group-10">
                                <mask id="mask-4" fill="white">
                                    <use xlink:href="#path-3"></use>
                                </mask>
                                <g id="Clip-9"></g>
                                <path d="M19.4889429,0.232594804 C27.893315,1.3441098 33.8399548,8.80811921 32.7713223,16.9040945 C32.272872,20.6802069 31.2101152,22.8824083 32.1240224,25.7070188 C32.9018106,28.1111356 29.4170649,29.9641506 26.8166035,29.6201103 C25.7533571,29.4794556 24.8174162,29.0101983 24.1047497,28.3336346 L24.0428106,28.3615695 C23.2180173,30.1614102 21.2344984,31.2917935 19.0994368,31.009259 C17.9852681,30.8619881 17.0104011,30.3535239 16.286473,29.6235409 C16.0644227,29.6034474 15.8418827,29.5796782 15.6186083,29.550273 C15.2450154,29.5007743 14.876074,29.4387785 14.5125186,29.3645304 C13.6174624,29.8950485 12.531203,30.1405816 11.40259,29.9913504 C9.25602196,29.7075906 7.62822419,28.0846709 7.31069467,26.1182009 C6.44868896,26.5830475 5.42632718,26.791334 4.36675299,26.6511694 C1.76629157,26.3071291 -0.838821406,23.7689738 0.256985912,21.4925244 C1.18998897,19.5537443 1.71341078,17.596586 2.33622888,12.8787733 C3.40510617,4.78304309 11.0845709,-0.87892019 19.4889429,0.232594804" id="Fill-8" fill="#F4F2E5" mask="url(#mask-4)"></path>
                            </g>
                            <path d="M18.5927606,6.9041352 L18.5927606,6.9041352 C18.4172257,6.49001255 18.6103875,6.01168863 19.0241306,5.83599281 L21.3126934,4.86439736 C21.7264365,4.68870154 22.2043221,4.88204046 22.3798569,5.29616311 L22.3798569,5.29616311 C22.5553918,5.7105308 22.36223,6.18860967 21.948242,6.36430549 L19.6599241,7.33590094 C19.246181,7.51159676 18.7682954,7.31825785 18.5927606,6.9041352" id="Fill-11" fill="#724A20"></path>
                            <path d="M25.8951559,12.2992467 L25.8951559,12.2992467 C25.8650432,11.8503279 26.2041168,11.4619348 26.6526241,11.4317945 L29.1328797,11.2646752 C29.5813871,11.2345349 29.9694243,11.5739194 29.999537,12.0228382 C30.0296496,12.4717569 29.6905761,12.8601501 29.2420687,12.8902904 L26.7618132,13.0574097 C26.3133058,13.08755 25.9252686,12.7481654 25.8951559,12.2992467" id="Fill-13" fill="#724A20"></path>
                            <path d="M17.9027398,12.1808419 L17.9027398,12.1808419 C18.1698367,11.8189134 18.6795487,11.74246 19.0411455,12.0100469 L21.0400881,13.4888814 C21.4014401,13.7564683 21.4780682,14.2664028 21.2107265,14.6283313 C20.9436296,14.9902598 20.4339176,15.0667132 20.0723208,14.7991262 L18.0733783,13.3202918 C17.7120262,13.0527048 17.6356429,12.5427704 17.9027398,12.1808419" id="Fill-15" fill="#724A20"></path>
                            <path d="M20.9530796,20.3145048 L20.9530796,20.3145048 C20.7391083,19.9187604 20.8862442,19.4245087 21.2816259,19.2103411 L23.4680994,18.0262934 C23.8634811,17.8123708 24.3572799,17.9596417 24.5712512,18.3553861 L24.5712512,18.3553861 C24.7852226,18.7511305 24.6380867,19.2453822 24.2427049,19.4595498 L22.0562315,20.6433525 C21.6608497,20.85752 21.1670509,20.7102492 20.9530796,20.3145048" id="Fill-17" fill="#724A20"></path>
                            <path d="M12.1842463,15.2861492 L12.1842463,15.2861492 C11.7357389,15.3162894 11.3477017,14.9769049 11.317589,14.5279862 L11.1506229,12.0454556 C11.1205102,11.5965369 11.4595837,11.2081438 11.9080911,11.1780035 L11.9080911,11.1780035 C12.3565985,11.1478632 12.7446357,11.4872477 12.7747484,11.9361665 L12.9417145,14.418697 C12.9718272,14.8676157 12.6327537,15.2560089 12.1842463,15.2861492" id="Fill-19" fill="#724A20"></path>
                            <path d="M8.66483441,5.0356089 L8.66483441,5.0356089 C8.93193132,4.67368041 9.4416433,4.59722699 9.80324013,4.86481394 L11.8021827,6.34364837 C12.1635347,6.61123531 12.2401628,7.12116977 11.9728211,7.48309826 L11.9728211,7.48309826 C11.7057242,7.84502676 11.1960122,7.92148017 10.8344154,7.65389323 L8.83547285,6.17505879 C8.47412084,5.90747185 8.39773749,5.39753739 8.66483441,5.0356089" id="Fill-21" fill="#724A20"></path>
                            <path d="M4.224489,15.0124606 L4.224489,15.0124606 C4.39537226,14.5961326 4.87080967,14.3974027 5.28651137,14.5684428 L7.58609093,15.5135736 C8.00179264,15.6843685 8.20058521,16.160487 8.02970194,16.57657 L8.02970194,16.57657 C7.85906349,16.9928981 7.38338127,17.1916279 6.96767956,17.020833 L4.6681,16.0754571 C4.2523983,15.9046622 4.05360573,15.4287887 4.224489,15.0124606" id="Fill-23" fill="#724A20"></path>
                        </g>
                    </g>
                </g>
            </g>
        </g>
    </g>
</svg>