<svg xmlns="http://www.w3.org/2000/svg" viewBox="0 0 87.1 117.6"><path class="st0" fill="#2F5A27" d="M33.8 67.2l-22.5 48.3 4.4 2.1 13.6-29.2c14.5 10.2 23.6 6.5 23.6 6.5s11.6-5.4 1.5-12.9c-14-6.5-25.1 6.4-25.1 6.4l9-19.2c-.8-.1-1.6-.3-2.4-.7-.8-.3-1.5-.8-2.1-1.3z"/><path class="st1" fill="#F198C0" d="M87 38c.2-2.8-1.1-5.3-3.2-6.8 1.5-2.1 2.1-4.9 1.1-7.5-.9-2.4-2.8-4.1-5.1-4.9.4-2.4-.2-4.9-1.9-6.8-1.8-2.1-4.6-2.9-7.1-2.6-.4-2.6-2-4.9-4.5-6.1-2.3-1.1-4.9-.9-7.1.2-1.3-2-3.6-3.3-6.1-3.5-2.8-.2-5.3 1.1-6.8 3.2-2.1-1.5-4.9-2.1-7.5-1.1-2.4.9-4.1 2.8-4.9 5.1-2.4-.4-4.9.2-6.8 1.9-2.1 1.8-2.9 4.6-2.6 7.1-2.6.4-4.9 2-6.1 4.5-1.1 2.3-.9 4.9.2 7.1-2 1.3-3.3 3.6-3.5 6.1-.2 2.8 1.1 5.3 3.2 6.8-1.5 2.1-2.1 4.9-1.1 7.5.9 2.4 2.8 4.1 5.1 4.9-.4 2.4.2 4.9 1.9 6.8 1.8 2.1 4.6 2.9 7.1 2.6.3 1.8 1.1 3.4 2.5 4.7.6.6 1.3 1 2 1.4.8.4 1.6.6 2.4.7 1.6.2 3.3-.1 4.7-.8 1.3 2 3.6 3.3 6.1 3.5 2.8.2 5.3-1.1 6.8-3.2 2.1 1.5 4.9 2.1 7.5 1.1 2.4-.9 4.1-2.8 4.9-5.1 2.4.4 4.9-.2 6.8-1.9 2.1-1.8 2.9-4.6 2.6-7.1 2.6-.4 4.9-2 6.1-4.5 1.1-2.3.9-4.9-.2-7.1 2-1.4 3.3-3.6 3.5-6.2zM77 48.1c-6.7 14.3-23.7 20.5-38 13.8s-20.5-23.7-13.8-38 23.7-20.5 38-13.8c14.2 6.7 20.4 23.7 13.8 38z"/><path class="st2" fill="#E06098" d="M63.1 10.1c-14.3-6.7-31.3-.5-38 13.8s-.5 31.3 13.8 38 31.3.5 38-13.8c6.7-14.3.5-31.3-13.8-38zm9.5 18.1c.6 1.7.3 3.4-.7 4.8 1.3 1 2.2 2.6 2.1 4.4-.1 1.6-1 3-2.2 3.9.7 1.4.8 3 .1 4.5-.7 1.6-2.2 2.6-3.9 2.9.2 1.6-.3 3.4-1.6 4.5-1.2 1.1-2.8 1.5-4.3 1.2-.5 1.5-1.6 2.7-3.1 3.3-1.7.6-3.4.3-4.8-.7-1 1.3-2.6 2.2-4.4 2.1-1.6-.1-3-1-3.9-2.2-1.4.7-3 .8-4.5.1-1.6-.7-2.6-2.2-2.9-3.9-1.6.2-3.4-.3-4.5-1.6-1.1-1.2-1.5-2.8-1.2-4.3-1.5-.5-2.7-1.6-3.3-3.1-.6-1.7-.3-3.4.7-4.8-1.3-1-2.2-2.6-2.1-4.4.1-1.6 1-3 2.2-3.9-.7-1.4-.8-3-.1-4.5.7-1.6 2.2-2.6 3.9-2.9-.2-1.6.3-3.4 1.6-4.5 1.2-1.1 2.8-1.5 4.3-1.2.5-1.5 1.6-2.7 3.1-3.3 1.7-.6 3.4-.3 4.8.7 1-1.3 2.6-2.2 4.4-2.1 1.6.1 3 1 3.9 2.2 1.4-.7 3-.8 4.5-.1 1.6.7 2.6 2.2 2.9 3.9 1.6-.2 3.4.3 4.5 1.6 1.1 1.2 1.5 2.8 1.2 4.3 1.5.4 2.7 1.5 3.3 3.1z"/><path class="st3" fill="#FFF" d="M69.3 25.1c.3-1.5-.1-3.1-1.2-4.3-1.2-1.3-2.9-1.9-4.5-1.6-.2-1.6-1.3-3.1-2.9-3.9-1.5-.7-3.1-.6-4.5.1-.9-1.3-2.3-2.1-3.9-2.2-1.8-.1-3.4.7-4.4 2.1-1.3-1-3.1-1.3-4.8-.7-1.5.6-2.6 1.8-3.1 3.3-1.5-.3-3.1.1-4.3 1.2-1.3 1.2-1.9 2.9-1.6 4.5-1.6.2-3.1 1.3-3.9 2.9-.7 1.5-.6 3.1.1 4.5-1.3.9-2.1 2.3-2.2 3.9-.1 1.8.7 3.4 2.1 4.4-1 1.3-1.3 3.1-.7 4.8.6 1.5 1.8 2.6 3.3 3.1-.3 1.5.1 3.1 1.2 4.3 1.2 1.3 2.9 1.9 4.5 1.6.2 1.6 1.3 3.1 2.9 3.9 1.5.7 3.1.6 4.5-.1.9 1.3 2.3 2.1 3.9 2.2 1.8.1 3.4-.7 4.4-2.1 1.3 1 3.1 1.3 4.8.7 1.5-.6 2.6-1.8 3.1-3.3 1.5.3 3.1-.1 4.3-1.2 1.3-1.2 1.9-2.9 1.6-4.5 1.6-.2 3.1-1.3 3.9-2.9.7-1.5.6-3.1-.1-4.5 1.3-.9 2.1-2.3 2.2-3.9.1-1.8-.7-3.4-2.1-4.4 1-1.3 1.3-3.1.7-4.8-.6-1.6-1.8-2.7-3.3-3.1zM61.9 41c-2.8 6-9.9 8.6-15.9 5.8s-8.6-9.9-5.8-15.9 9.9-8.6 15.9-5.8c6 2.9 8.6 10 5.8 15.9z"/><ellipse transform="rotate(-64.99 51.12 35.99)" class="st4" fill="#FCD26B" cx="51.1" cy="36" rx="11.9" ry="11.9"/><path class="st0" fill="#2F5A27" d="M9.3 72.2C-3 69.3.4 81.6.4 81.6s3 9.3 20.2 13.9c-.1.1 2.7-16.7-11.3-23.3z"/></svg>
