<?xml version="1.0" encoding="utf-8"?>
<!-- Generator: Adobe Illustrator 19.2.1, SVG Export Plug-In . SVG Version: 6.00 Build 0)  -->
<svg version="1.1" id="Layer_1" xmlns="http://www.w3.org/2000/svg" xmlns:xlink="http://www.w3.org/1999/xlink" x="0px" y="0px"
	 viewBox="0 0 53.7 106" style="enable-background:new 0 0 53.7 106;" xml:space="preserve">
<style type="text/css">
	.st0{fill:#F5C984;}
	.st1{fill:#E6B873;}
	.st2{fill:#F3F2E5;}
	.st3{fill:#724B20;}
</style>
<g id="Layer_4">
	<g>
		<path class="st0" d="M35.4,48.8c-0.1,0-0.2,0-0.3,0.1c-1.8,0.3-3.6-0.1-5.1-0.9c-0.4,0.1-0.7,0.1-1.1,0.2
			c-0.6,0.1-1.2,0.2-1.8,0.2c-1.2,1.3-2.8,2.1-4.6,2.4c-3.5,0.6-6.8-1.2-8.2-4.2c-1.1,1.1-2.6,1.9-4.4,2.2c-0.4,0.1-0.9,0.1-1.4,0.1
			l26,54.9c0.6,1.5,2.2,2.4,3.8,2.1c0.8-0.1,1.5-0.5,2-1.1c-0.5,0.6-1.2,1-2,1.1L35.4,48.8z"/>
		<path class="st0" d="M41.2,103.4c0,0.1,0,0.1-0.1,0.2C41.2,103.5,41.2,103.5,41.2,103.4z"/>
		<path class="st0" d="M41,104c0,0.1-0.1,0.2-0.2,0.3C40.9,104.2,41,104.1,41,104z"/>
		<path class="st0" d="M40.8,104.5c-0.1,0.1-0.2,0.3-0.3,0.4C40.6,104.7,40.7,104.6,40.8,104.5z"/>
		<polygon class="st0" points="41.3,102.8 48.7,42.4 48.7,42.4 		"/>
		<path class="st1" d="M46.6,43c-1.7,0.3-3.4,0-4.9-0.8l-0.1,0.1c-0.4,3.1-2.9,5.8-6.2,6.4l3,57.2c0.8-0.1,1.5-0.5,2-1.1
			c0,0,0,0,0-0.1c0.1-0.1,0.2-0.3,0.3-0.4c0-0.1,0.1-0.1,0.1-0.2c0.1-0.1,0.1-0.2,0.2-0.3c0.1-0.1,0.1-0.2,0.1-0.4
			c0-0.1,0-0.1,0.1-0.2c0-0.2,0.1-0.4,0.1-0.6l7.3-60.4C48,42.7,47.3,42.9,46.6,43z"/>
		<path class="st2" d="M53.1,34.4c-2.8-4-2.1-8-3.1-14.1C47.9,7.1,35.1-1.8,21.3,0.3C7.6,2.5-1.8,15,0.3,28.2
			c1.2,7.7,1.3,11,0.8,14.5c-0.6,3.7,3.6,6.2,7.5,6.3c0.5,0,0.9,0,1.4-0.1c1.7-0.3,3.2-1.1,4.4-2.2c1.4,2.9,4.7,4.7,8.2,4.2
			c1.8-0.3,3.4-1.2,4.6-2.4c0.6-0.1,1.2-0.1,1.8-0.2c0.4-0.1,0.7-0.1,1.1-0.2c1.5,0.8,3.2,1.1,5.1,0.9c0.1,0,0.2,0,0.3-0.1
			c3.3-0.7,5.8-3.3,6.2-6.4l0.1-0.1c1.4,0.7,3.1,1,4.9,0.8c0.7-0.1,1.4-0.3,2.1-0.6l0,0C52.2,40.9,55,37.3,53.1,34.4z M37.8,14.6
			l3.8-1.4c0.7-0.3,1.5,0.1,1.7,0.8c0.3,0.7-0.1,1.5-0.8,1.7l-3.8,1.4C38,17.4,37.2,17,37,16.3C36.8,15.6,37.1,14.8,37.8,14.6z
			 M33,29.3l2.9-2.9c0.5-0.5,1.4-0.5,1.9,0s0.5,1.4,0,1.9l-2.9,2.9c-0.5,0.5-1.4,0.5-1.9,0S32.5,29.8,33,29.3z M30.8,22.1
			c-0.3,0.7-1,1.1-1.7,0.8l-3.8-1.4c-0.7-0.3-1.1-1-0.8-1.7s1-1.1,1.7-0.8l3.8,1.4C30.6,20.7,31,21.4,30.8,22.1z M23.2,9.3l3.1-2.6
			c0.6-0.5,1.4-0.4,1.9,0.2s0.4,1.4-0.2,1.9l-3.1,2.6c-0.6,0.5-1.4,0.4-1.9-0.2C22.6,10.7,22.6,9.8,23.2,9.3z M14.5,21.1
			c0.7-0.3,1.5,0.1,1.7,0.8l1.4,3.8c0.3,0.7-0.1,1.5-0.8,1.7c-0.7,0.3-1.5-0.1-1.7-0.8l-1.4-3.8C13.5,22.1,13.8,21.3,14.5,21.1z
			 M6.6,12.9c0.3-0.7,1-1.1,1.7-0.8l3.8,1.4c0.7,0.3,1.1,1,0.8,1.7s-1,1.1-1.7,0.8l-3.8-1.4C6.7,14.4,6.3,13.6,6.6,12.9z M4.2,30.7
			c0.1-0.7,0.7-1.3,1.5-1.2l4.1,0.4c0.7,0.1,1.3,0.7,1.2,1.5c-0.1,0.7-0.7,1.3-1.5,1.2l-4.1-0.4C4.7,32.1,4.2,31.4,4.2,30.7z"/>
		<path class="st3" d="M24.9,11.4L28,8.8c0.6-0.5,0.6-1.3,0.2-1.9s-1.3-0.6-1.9-0.2l-3.1,2.6c-0.6,0.5-0.6,1.3-0.2,1.9
			C23.5,11.8,24.3,11.9,24.9,11.4z"/>
		<path class="st3" d="M38.7,17.1l3.8-1.4c0.7-0.3,1-1,0.8-1.7c-0.3-0.7-1-1-1.7-0.8l-3.8,1.4c-0.7,0.3-1,1-0.8,1.7
			C37.3,17,38.1,17.3,38.7,17.1z"/>
		<path class="st3" d="M24.4,19.8c-0.3,0.7,0.1,1.5,0.8,1.7l3.8,1.4c0.7,0.3,1.5-0.1,1.7-0.8c0.3-0.7-0.1-1.5-0.8-1.7L26.1,19
			C25.4,18.8,24.7,19.1,24.4,19.8z"/>
		<path class="st3" d="M34.9,31.2l2.9-2.9c0.5-0.5,0.5-1.4,0-1.9s-1.4-0.5-1.9,0L33,29.3c-0.5,0.5-0.5,1.4,0,1.9
			C33.5,31.7,34.4,31.7,34.9,31.2z"/>
		<path class="st3" d="M15.2,26.6c0.3,0.7,1,1,1.7,0.8c0.7-0.3,1-1,0.8-1.7l-1.4-3.8c-0.3-0.7-1-1-1.7-0.8c-0.7,0.3-1,1-0.8,1.7
			L15.2,26.6z"/>
		<path class="st3" d="M7.4,14.6l3.8,1.4c0.7,0.3,1.5-0.1,1.7-0.8c0.3-0.7-0.1-1.5-0.8-1.7l-3.8-1.4c-0.7-0.3-1.5,0.1-1.7,0.8
			C6.3,13.6,6.7,14.4,7.4,14.6z"/>
		<path class="st3" d="M9.5,32.5c0.7,0.1,1.4-0.5,1.5-1.2c0.1-0.7-0.5-1.4-1.2-1.5l-4.1-0.4c-0.7-0.1-1.4,0.5-1.5,1.2
			s0.5,1.4,1.2,1.5L9.5,32.5z"/>
	</g>
</g>
</svg>
