<?xml version="1.0" encoding="utf-8"?>
<!-- Generator: Adobe Illustrator 19.2.1, SVG Export Plug-In . SVG Version: 6.00 Build 0)  -->
<svg version="1.1" id="Layer_1" xmlns="http://www.w3.org/2000/svg" xmlns:xlink="http://www.w3.org/1999/xlink" x="0px" y="0px"
	 viewBox="0 0 104.1 89.4" style="enable-background:new 0 0 104.1 89.4;" xml:space="preserve">
<style type="text/css">
	.st0{fill:#3F231D;}
	.st1{fill:#FFFFFF;}
	.st2{fill:#42261F;}
	.st3{fill:#311710;}
</style>
<g id="Layer_2">
	<g>
		<path class="st0" d="M51.8,6.7c0,0.1,0,0.2,0,0.2l0,0C51.8,6.9,51.8,6.8,51.8,6.7z"/>
		<path class="st0" d="M50.8,10.2L50.8,10.2L50.8,10.2L50.8,10.2z"/>
		<path class="st0" d="M15.3,37.3c0.6,0.2,1.1,0.3,1.7,0.4C16.4,37.7,15.9,37.5,15.3,37.3z"/>
		<path class="st0" d="M51.9,3.3c0,0.2,0,0.5,0,0.7C52,3.8,51.9,3.5,51.9,3.3z"/>
		<path class="st0" d="M51.9,2.9c0-0.2-0.1-0.5-0.1-0.7C51.8,2.4,51.9,2.6,51.9,2.9z"/>
		<path class="st0" d="M51.7,1.8c0-0.2-0.1-0.5-0.2-0.7C51.6,1.3,51.7,1.5,51.7,1.8z"/>
		<path class="st0" d="M52,5.1c0-0.2,0-0.4,0-0.6C52,4.7,52,4.9,52,5.1L52,5.1L52,5.1z"/>
		<path class="st0" d="M19,38.1c0.4,0,0.9,0,1.3,0h0.1c-0.6,0-1.1,0-1.7-0.1l0,0C18.9,38,18.9,38,19,38.1z"/>
		<path class="st0" d="M23.5,37.7c0.1,0,0.2,0,0.3-0.1c-0.4,0.1-0.8,0.2-1.2,0.2c0.2,0,0.4-0.1,0.6-0.1
			C23.3,37.7,23.4,37.7,23.5,37.7z"/>
		<path class="st0" d="M25,37.3c0.1-0.1,0.3-0.1,0.4-0.2c-0.3,0.1-0.7,0.2-1.1,0.3c0.2,0,0.3-0.1,0.5-0.1
			C24.9,37.3,24.9,37.3,25,37.3z"/>
		<path class="st0" d="M21.9,38c0.1,0,0.1,0,0.2,0c-0.5,0.1-1,0.1-1.6,0.1c0.4,0,0.8,0,1.2-0.1C21.9,38,21.9,38,21.9,38z"/>
		<path class="st0" d="M26.4,36.8c0.2-0.1,0.5-0.2,0.7-0.3c-0.4,0.2-0.7,0.4-1.1,0.5c0.1,0,0.1,0,0.2-0.1
			C26.2,36.8,26.3,36.8,26.4,36.8z"/>
		<path class="st0" d="M27.8,36c0.4-0.2,0.8-0.5,1.2-0.8c-0.5,0.3-1,0.6-1.5,0.9l0,0C27.6,36.1,27.7,36.1,27.8,36z"/>
		<path class="st0" d="M18.6,38c-0.5-0.1-1.1-0.1-1.6-0.2c0.1,0,0.3,0.1,0.4,0.1C17.8,37.9,18.2,38,18.6,38z"/>
		<path class="st0" d="M59.4,0c-2.5,0-4.9,0.2-7.3,0.6c5.5,0.9,10.6,2.8,15.3,5.6c16.9,4.6,29.4,20.1,29.4,38.5S84.4,78.5,67.4,83.2
			c-4.6,2.7-9.8,4.7-15.3,5.6c2.4,0.4,4.9,0.6,7.4,0.6c24.7,0,44.6-20,44.6-44.6C104,20,84,0,59.4,0z"/>
		<path class="st1" d="M50.1,11.7L50.1,11.7C50.2,11.7,50.2,11.7,50.1,11.7c-0.2,0.4-0.5,0.8-0.8,1.2c0-0.1,0.1-0.1,0.1-0.2
			C49.7,12.5,49.9,12.1,50.1,11.7z"/>
		<path class="st1" d="M46.6,16.1c0.1-0.1,0.1-0.1,0.2-0.2c-0.4,0.4-0.8,0.7-1.3,1C45.9,16.7,46.2,16.4,46.6,16.1z"/>
		<path class="st1" d="M21.8,38c-0.4,0-0.8,0.1-1.2,0.1l0,0C21,38.1,21.4,38,21.8,38z"/>
		<path class="st1" d="M48.5,14.2c0.1-0.1,0.2-0.2,0.3-0.4c0.1-0.1,0.2-0.3,0.3-0.4c-0.2,0.3-0.5,0.6-0.7,0.9
			C48.4,14.3,48.4,14.3,48.5,14.2z"/>
		<path class="st1" d="M20.3,38.1c-0.4,0-0.9,0-1.3,0C19.5,38.1,19.9,38.1,20.3,38.1z"/>
		<path class="st1" d="M18.8,38L18.8,38c-0.1,0-0.1,0-0.2,0c-0.4,0-0.8-0.1-1.2-0.1C17.9,37.9,18.3,38,18.8,38z"/>
		<path class="st1" d="M51.5,8.1c0.1-0.4,0.2-0.8,0.2-1.2l0,0c-0.1,0.4-0.2,0.8-0.3,1.3C51.5,8.2,51.5,8.1,51.5,8.1z"/>
		<path class="st1" d="M89.3,44.6c0,16.4-8.8,30.7-22,38.5C84.2,78.5,96.7,63,96.7,44.6S84.3,10.7,67.3,6.1
			C80.4,13.9,89.3,28.3,89.3,44.6z"/>
		<path class="st1" d="M52,5.1L52,5.1L52,5.1c0,0.6-0.1,1.1-0.2,1.6C51.9,6.1,51.9,5.6,52,5.1z"/>
		<path class="st1" d="M47.6,15.2c0.1-0.1,0.2-0.2,0.3-0.3l0.1-0.1c-0.3,0.3-0.5,0.6-0.8,0.8C47.3,15.4,47.4,15.3,47.6,15.2z"/>
		<path class="st1" d="M29,35.3c-0.4,0.3-0.8,0.5-1.2,0.8C28.2,35.8,28.6,35.5,29,35.3z"/>
		<path class="st1" d="M50.7,10.5c0-0.1,0.1-0.2,0.1-0.3l0,0l0,0c-0.2,0.4-0.4,0.8-0.6,1.2C50.4,11.2,50.6,10.9,50.7,10.5z"/>
		<path class="st1" d="M23.3,37.8c-0.2,0-0.4,0.1-0.6,0.1c-0.2,0-0.3,0.1-0.5,0.1c-0.1,0-0.1,0-0.2,0C22.4,37.9,22.8,37.9,23.3,37.8
			z"/>
		<path class="st1" d="M26.1,36.9c-0.1,0-0.1,0-0.2,0.1c-0.2,0.1-0.4,0.1-0.6,0.2c-0.1,0.1-0.3,0.1-0.4,0.2
			C25.4,37.2,25.7,37,26.1,36.9z"/>
		<path class="st1" d="M24.8,37.4c-0.2,0-0.3,0.1-0.5,0.1c-0.2,0.1-0.4,0.1-0.6,0.2c-0.1,0-0.2,0.1-0.3,0.1
			C23.9,37.6,24.4,37.5,24.8,37.4z"/>
		<path class="st1" d="M27.6,36.2C27.5,36.2,27.5,36.2,27.6,36.2c-0.2,0.1-0.4,0.2-0.5,0.3c-0.2,0.1-0.5,0.2-0.7,0.3
			C26.8,36.6,27.2,36.4,27.6,36.2z"/>
		<path class="st1" d="M51.2,9.3c0-0.1,0.1-0.3,0.1-0.4c0-0.1,0-0.2,0.1-0.2c-0.1,0.4-0.2,0.7-0.3,1C51.1,9.6,51.1,9.5,51.2,9.3z"/>
		<path class="st2" d="M8.6,43c0.1-0.1,0.3-0.1,0.4-0.2C8.9,42.9,8.7,42.9,8.6,43z"/>
		<path class="st2" d="M49.5,12.8c0,0.1-0.1,0.1-0.1,0.2l-0.1,0.1C49.4,13,49.4,12.9,49.5,12.8z"/>
		<path class="st2" d="M50.2,11.7C50.1,11.7,50.1,11.7,50.2,11.7C50.1,11.7,50.1,11.7,50.2,11.7z"/>
		<path class="st2" d="M51.2,9.3c0-0.1,0.1-0.3,0.1-0.4C51.3,9.1,51.2,9.2,51.2,9.3z"/>
		<path class="st2" d="M48.5,14.2c0.1-0.1,0.2-0.2,0.3-0.4C48.6,14,48.5,14.1,48.5,14.2z"/>
		<path class="st2" d="M46.6,16.1c0.1-0.1,0.2-0.2,0.3-0.3l-0.1,0.1C46.7,16,46.6,16.1,46.6,16.1z"/>
		<path class="st2" d="M47.6,15.2c0.1-0.1,0.2-0.2,0.3-0.3C47.8,15,47.7,15.1,47.6,15.2z"/>
		<path class="st2" d="M50.8,10.3c0,0.1-0.1,0.2-0.1,0.3C50.8,10.4,50.8,10.4,50.8,10.3z"/>
		<path class="st2" d="M89.3,44.6c0-16.4-8.8-30.7-22-38.5C62.7,3.4,57.5,1.5,52,0.5c-0.2,0-0.4-0.1-0.5-0.1c0,0.2,0.1,0.4,0.1,0.5
			c0.1,0.2,0.1,0.5,0.2,0.7c0,0.1,0,0.3,0.1,0.4c0,0.2,0.1,0.5,0.1,0.7c0,0.1,0,0.3,0,0.4c0,0.2,0,0.5,0,0.7c0,0.1,0,0.3,0,0.4
			c0,0.2,0,0.4,0,0.6c0,0.5-0.1,1-0.2,1.6v0.1c0,0.1,0,0.1,0,0.2c-0.1,0.4-0.1,0.8-0.2,1.2c0-0.1,0-0.1,0.1-0.2
			C69,11,82.1,26.2,82.1,44.5c0,20.7-16.8,37.4-37.4,37.4C24,81.9,7.3,65.1,7.3,44.5c0-0.3,0-0.7,0-1c0.1,0,0.1-0.1,0.2-0.1
			c-2.4,1-5,1.4-7.5,1.1c0,24.7,20,44.6,44.6,44.6c2.5,0,5-0.2,7.4-0.6c5.5-0.9,10.7-2.8,15.3-5.6C80.4,75.3,89.3,61,89.3,44.6z"/>
		<path class="st3" d="M7.2,44.6C7.2,65.3,24,82,44.6,82C65.3,82,82,65.2,82,44.6c0-18.3-13.1-33.5-30.4-36.8c0,0.1,0,0.1-0.1,0.2
			v0.1c0,0.2-0.1,0.3-0.1,0.5c0,0.1,0,0.2-0.1,0.2c0,0.1-0.1,0.3-0.1,0.4c-0.1,0.1-0.1,0.3-0.2,0.4c-0.1,0.1-0.1,0.3-0.2,0.4l0,0
			l0,0c0,0.1-0.1,0.2-0.1,0.3c-0.1,0.3-0.3,0.7-0.5,1c0,0.1-0.1,0.1-0.1,0.2l0,0l0,0c-0.2,0.4-0.4,0.7-0.6,1.1
			c-0.1,0.1-0.1,0.2-0.2,0.3c-0.1,0.1-0.1,0.2-0.2,0.3c-0.1,0.1-0.2,0.3-0.3,0.4c-0.1,0.1-0.2,0.2-0.3,0.4l-0.1,0.1
			c-0.1,0.1-0.2,0.3-0.4,0.4l-0.1,0.1c-0.1,0.1-0.2,0.2-0.3,0.3s-0.2,0.2-0.4,0.3c-0.1,0.1-0.2,0.2-0.3,0.3s-0.2,0.2-0.3,0.3
			c-0.3,0.3-0.7,0.6-1.1,0.8c-3.1,2.2-6.8,3.1-10.3,2.8c1.1,5.8-1.1,11.9-6.2,15.5c-0.4,0.3-0.8,0.5-1.2,0.8c-0.1,0-0.2,0.1-0.2,0.1
			c-0.4,0.2-0.8,0.4-1.2,0.6c-0.1,0-0.1,0.1-0.2,0.1c-0.4,0.2-0.8,0.3-1.2,0.4c-0.1,0-0.1,0-0.2,0.1c-0.4,0.1-0.9,0.3-1.3,0.3
			c-0.1,0-0.2,0-0.3,0.1c-0.4,0.1-0.9,0.2-1.3,0.2h-0.1c-0.4,0-0.8,0.1-1.3,0.1c0,0,0,0-0.1,0h-0.1c-0.4,0-0.9,0-1.3,0
			c-0.1,0-0.2,0-0.2,0c-0.4,0-0.9-0.1-1.3-0.2c-0.1,0-0.3-0.1-0.4-0.1l0,0c-0.6-0.1-1.1-0.3-1.7-0.4c-0.2-0.1-0.4-0.1-0.5-0.2
			c-1.1,1.8-2.5,3.4-4.3,4.7c-0.5,0.3-1,0.6-1.4,0.9c-0.1,0.1-0.3,0.1-0.4,0.2C8.4,42.8,8,43,7.6,43.1c-0.1,0-0.1,0.1-0.2,0.1
			C7.2,44,7.2,44.3,7.2,44.6z"/>
	</g>
</g>
</svg>
