<?xml version="1.0" encoding="utf-8"?>
<!-- Generator: Adobe Illustrator 19.2.1, SVG Export Plug-In . SVG Version: 6.00 Build 0)  -->
<svg version="1.1" id="Layer_1" xmlns="http://www.w3.org/2000/svg" xmlns:xlink="http://www.w3.org/1999/xlink" x="0px" y="0px"
	 viewBox="0 0 190.9 73.5" style="enable-background:new 0 0 190.9 73.5;" xml:space="preserve">
<g>
	<path class="st0" d="M154.1,21.9c0.1,0.1,0.2,0.1,0.3,0.2C154.3,22,154.2,22,154.1,21.9z"/>
	<path class="st0" d="M38.4,33.6C38.4,33.6,38.4,33.6,38.4,33.6c7.4-0.2,15,6.2,13.7,13.5c-0.8,5.4-5.9,12.4-13.3,12.6
		c0,0,0.1,0,0.1,0c7.4-0.2,12.4-7.3,13.3-12.6C53.4,39.8,45.9,33.4,38.4,33.6z"/>
	<path class="st0" d="M157.4,40.2c1.6,1.5,2.6,3.6,2.2,5.8c-0.5,3.3-3.7,7.7-8.2,7.8c-2.5,0.1-4.8-0.7-6.3-2.2
		c1.5,1.5,3.8,2.3,6.4,2.3c4.5-0.1,7.7-4.5,8.2-7.8C160.1,43.8,159.1,41.7,157.4,40.2z"/>
	<path class="st0" d="M45.2,40.6c1.6,1.5,2.6,3.6,2.2,5.8c-0.5,3.3-3.7,7.7-8.2,7.8c-2.5,0.1-4.8-0.7-6.3-2.2
		c1.5,1.5,3.8,2.3,6.4,2.3c4.5-0.1,7.7-4.5,8.2-7.8C47.9,44.2,46.9,42.1,45.2,40.6z"/>
	<path class="st0" d="M150.6,33.2C150.6,33.2,150.6,33.2,150.6,33.2c7.4-0.2,15,6.2,13.7,13.5c-0.8,5.4-5.9,12.4-13.3,12.6
		c0,0,0.1,0,0.1,0c7.4-0.2,12.4-7.3,13.3-12.6C165.6,39.4,158.1,33,150.6,33.2z"/>
	<path class="st1" fill="#FFFFFF" d="M42.2,20.7C33,28.8,22.4,34.3,13.7,37.8c-1.7,4-2.6,8.3-2.5,12.6c0.3,15.1,12.4,23.4,27.5,23.1
		c15.1-0.3,25.4-14.7,27.2-25.6C68.1,34.5,55.7,22.7,42.2,20.7z M52.2,47.1c-0.9,5.3-5.9,12.4-13.3,12.6c0,0-0.1,0-0.1,0
		c0,0,0,0,0,0c-7.4,0.2-13.4-3.8-13.5-11.3c-0.1-7.5,5.6-14.6,13-14.8c0,0,0.1,0,0.1,0c0,0,0,0,0,0C45.9,33.4,53.4,39.8,52.2,47.1z"
		/>
	<path class="st2" fill="#21B6C4" d="M52.1,47.1c1.3-7.3-6.3-13.7-13.7-13.5c0,0-0.1,0-0.1,0c-7.4,0.2-13.1,7.3-13,14.8c0.1,7.5,6.1,11.5,13.5,11.3
		c0,0,0,0,0,0C46.2,59.5,51.3,52.5,52.1,47.1z M47.5,46.5c-0.5,3.3-3.7,7.7-8.2,7.8c-2.6,0.1-4.9-0.7-6.4-2.3c-1.2-1.2-2-2.8-2-4.8
		c-0.1-4.6,3.4-9,8-9.1c2.3-0.1,4.7,0.9,6.3,2.5C46.9,42.1,47.9,44.2,47.5,46.5z"/>
	<path class="st3" fill="#010101" d="M47.4,46.4c0.4-2.2-0.6-4.3-2.2-5.8c-1.7-1.6-4-2.5-6.3-2.5c-4.6,0.1-8.1,4.5-8,9.1c0,2,0.8,3.7,2,4.8
		c1.5,1.5,3.8,2.2,6.3,2.2C43.7,54.1,46.9,49.7,47.4,46.4z"/>
	<path class="st1" fill="#FFFFFF" d="M154.1,21.9c-1-0.6-2-1.3-3-1.9c-0.4,0-0.9,0-1.3,0c-15.1,0.3-26.7,14.9-26.4,30c0.3,15.1,12.4,23.4,27.5,23.1
		c15.1-0.3,25.4-14.7,27.2-25.6c0.7-4.1-0.2-11.2-1.9-14.8c-0.9-0.4-1.7-0.7-2.6-1.1c-7.7-2.9-14.1-6.3-19.3-9.5
		C154.3,22,154.2,22,154.1,21.9z M164.4,46.7c-0.9,5.3-5.9,12.4-13.3,12.6c0,0-0.1,0-0.1,0c0,0,0,0,0,0c-7.4,0.2-13.4-3.8-13.5-11.3
		c-0.1-7.5,5.6-14.6,13-14.8c0,0,0.1,0,0.1,0c0,0,0,0,0,0C158.1,33,165.6,39.4,164.4,46.7z"/>
	<path class="st2" fill="#21B6C4" d="M164.3,46.7c1.3-7.3-6.3-13.7-13.7-13.5c0,0-0.1,0-0.1,0c-7.4,0.2-13.1,7.3-13,14.8
		c0.1,7.5,6.1,11.5,13.5,11.3c0,0,0,0,0,0C158.4,59.1,163.5,52.1,164.3,46.7z M159.7,46.1c-0.5,3.3-3.7,7.7-8.2,7.8
		c-2.6,0.1-4.9-0.7-6.4-2.3c-1.2-1.2-2-2.8-2-4.8c-0.1-4.6,3.4-9,8-9.1c2.3-0.1,4.7,0.9,6.3,2.5C159.1,41.7,160.1,43.8,159.7,46.1z"
		/>
	<path class="st3" fill="#010101" d="M159.6,46c0.4-2.2-0.6-4.3-2.2-5.8c-1.7-1.6-4-2.5-6.3-2.5c-4.6,0.1-8.1,4.5-8,9.1c0,2,0.8,3.7,2,4.8
		c1.5,1.5,3.8,2.2,6.3,2.2C155.9,53.7,159.1,49.3,159.6,46z"/>
	<path class="st4" d="M51.2,11.3l-9.4-8.9C32.4,18.2,0,33.9,0,33.9L4.5,41C37.6,30.7,51.2,11.3,51.2,11.3z"/>
	<path class="st4" d="M190.9,28.4c0,0-33.5-13.4-43.9-28.4l-8.8,9.5c0,0,4.3,4.8,12.9,10.5c0,0,0,0,0,0c1,0.7,2,1.3,3,1.9
		c0.1,0.1,0.2,0.1,0.3,0.2c6.4,3.9,13,6.8,19.3,9.5c4.1,1.6,8.5,3,13.3,4.2L190.9,28.4z"/>
	<path class="st1" fill="#FFFFFF" d="M151.1,20C151.1,20,151.1,20,151.1,20c0.9,0.6,1.9,1.3,3,1.9C153.1,21.3,152.1,20.7,151.1,20z"/>
	<path class="st4" d="M151.1,20C151.1,20,151.1,20,151.1,20c0.9,0.6,1.9,1.3,3,1.9C153.1,21.3,152.1,20.7,151.1,20z"/>
	<path class="st1" fill="#FFFFFF" d="M173.6,31.6c-6.2-2.7-12.9-5.6-19.3-9.5C159.5,25.3,166,28.6,173.6,31.6z"/>
	<path class="st4" d="M173.6,31.6c-6.2-2.7-12.9-5.6-19.3-9.5C159.5,25.3,166,28.6,173.6,31.6z"/>
</g>
</svg>
