<?xml version="1.0" encoding="utf-8"?>
<!-- Generator: Adobe Illustrator 19.2.1, SVG Export Plug-In . SVG Version: 6.00 Build 0)  -->
<svg version="1.1" id="Layer_1" xmlns="http://www.w3.org/2000/svg" xmlns:xlink="http://www.w3.org/1999/xlink" x="0px" y="0px"
	 viewBox="0 0 182.9 56.6" style="enable-background:new 0 0 182.9 56.6;" xml:space="preserve">
<path class="st0" fill="#FFFFFF" d="M174.1,8.8c-8.1-7-18.9-10.1-29.4-8.4c-15.9,2.6-21.9,19.5-19.6,35c2,13.1,12.2,21.1,26.1,21.1
	c2,0,3.9-0.2,5.9-0.5c15.4-2.3,25.5-16.7,25.9-28.7C183.2,20.7,180,14.1,174.1,8.8z"/>
<path class="st0" fill="#FFFFFF" d="M48.9,13.1C43.3,6.5,35.2,2.7,26.6,2.5C12.4,2.5,0,16,0,31.4c0,14,10.7,23.5,26.6,23.5
	c15.4,0,25.4-14.6,27.2-24.5C55,24.5,53.2,18.3,48.9,13.1z"/>
<path class="st1" fill="#FAD036" d="M49,30c-1.6,8.8-10.2,20.3-22.5,20.3s-22-6.9-22-19.2s9.7-24,22-24S51.3,17.9,49,30z"/>
<path class="st2" fill="#010101" d="M24.8,14.7c-4.7,8.7-4.8,19.1-0.3,27.8c1.1,2.3,3.6,2.3,4.7,0c2.7-5.6,6-16.3,0.2-27.8
	C28.2,12.6,25.9,12.6,24.8,14.7z"/>
<path class="st1" fill="#FAD036" d="M177.7,27.3c-0.4,9.6-8.5,21.9-21.6,23.9s-24.5-3.9-26.5-17s3-27,16.1-29.1C162.2,2.4,178.2,14.1,177.7,27.3z"
	/>
<path class="st2" fill="#010101" d="M148.6,13.6c-3.6,10-2,21.1,4.2,29.7c1.5,2.2,4.2,1.9,5-0.8c2-6.4,3.8-18.3-4.3-29.6
	C152,10.7,149.5,11.1,148.6,13.6z"/>
</svg>
