<?xml version="1.0" encoding="utf-8"?>
<!-- Generator: Adobe Illustrator 19.2.1, SVG Export Plug-In . SVG Version: 6.00 Build 0)  -->
<svg version="1.1" id="Layer_1" xmlns="http://www.w3.org/2000/svg" xmlns:xlink="http://www.w3.org/1999/xlink" x="0px" y="0px"
	 viewBox="0 0 187.2 67.8" style="enable-background:new 0 0 187.2 67.8;" xml:space="preserve">
<path class="st0" style="enable-background:new; opacity:0.2;" fill="#FFFFFF" d="M51.5,7C37.7-5.4,13.9,2.3,4.2,18.2s-2,34.2,14,43.7c13.6,8,32.2,3.9,41.9-9.2C71.3,37.9,61.7,16,51.5,7z
	 M55.3,45.8L42.2,44l-21.6-3L7.5,39.2c0,0-1.6-8,0.1-11.7l14.2-1l20.3-1.4l13.8-1C55.9,24.1,61.1,38.1,55.3,45.8z"/>
<path class="st1" fill="#FFFFFF" d="M19,34.6c0.1-2.9,1.1-5.7,2.8-8.1l-14.2,1c-1.8,3.7-0.1,11.7-0.1,11.7L20.7,41C19.5,39.1,18.9,36.9,19,34.6z"/>
<path class="st1" fill="#FFFFFF" d="M45.8,34.9c-0.1,4.4-1.4,7.3-3.6,9.1l13.1,1.8c5.8-7.7,0.6-21.7,0.6-21.7l-13.8,1
	C44.5,27.8,45.9,31.3,45.8,34.9z"/>
<path class="st2" fill="#010101" d="M45.8,34.9c0-3.6-1.3-7.1-3.7-9.8l-20.3,1.4c-1.7,2.4-2.6,5.2-2.8,8.1c-0.1,2.3,0.4,4.5,1.6,6.4l21.6,3
	C44.4,42.2,45.8,39.3,45.8,34.9z"/>
<g class="st3" style="opacity:0.8;">
	<path class="st0" style="enable-background:new; opacity:0.2;" fill="#FFFFFF" d="M167.1,65.4c5.9-2.3,11.1-6.2,14.9-11.3c11.6-15.5,1.5-38.3-9-47.7c-14.5-12.9-39.2-4.8-49.2,11.7
		s-2.1,35.6,14.6,45.5c5.9,3.4,12.7,4.8,19.5,4.1L167.1,65.4z"/>
</g>
<path class="st1" fill="#FFFFFF" d="M169,13c-11.5-10.3-31.3-3.9-39.4,9.4c-2.6,4.3-3.8,9.2-3.5,14.2l12.4-0.3c0-3.8,1.2-7.5,3.4-10.5
	c5.3-6.6,16.4-8.6,21.9-2.2c2.7,3.4,4.2,7.6,4.2,12l11.7-0.3C179,26.7,175.2,18.8,169,13z"/>
<path class="st2" fill="#010101" d="M163.8,23.5c-5.5-6.4-16.6-4.3-21.9,2.2c-2.2,3.1-3.4,6.7-3.4,10.5l29.5-0.8C168.1,31.1,166.6,26.9,163.8,23.5z
	"/>
</svg>
