<?xml version="1.0" encoding="utf-8"?>
<!-- Generator: Adobe Illustrator 19.2.1, SVG Export Plug-In . SVG Version: 6.00 Build 0)  -->
<svg version="1.1" id="Layer_1" xmlns="http://www.w3.org/2000/svg" xmlns:xlink="http://www.w3.org/1999/xlink" x="0px" y="0px"
	 viewBox="0 0 87.9 84.7" style="enable-background:new 0 0 87.9 84.7;" xml:space="preserve">
<path class="st0" fill="#FFFFFF" d="M87.3,44.8c-3.2,17.2-20.1,39.9-44.2,39.9S0,71.1,0,47S19,0,43.1,0S91.8,21.1,87.3,44.8z"/>
<path class="st1" fill="#21B6C4" d="M65.5,43.1c-1.6,8.5-9.9,19.6-21.7,19.6S22.6,56,22.6,44.2S31.9,21,43.8,21S67.7,31.4,65.5,43.1z"/>
<path class="st2" fill="#010101" d="M58,41.9C57,47.1,51.9,54,44.6,54s-13.1-4.1-13.1-11.4s5.8-14.2,13.1-14.2S59.3,34.7,58,41.9z"/>
</svg>
