<?xml version="1.0" encoding="UTF-8" standalone="no"?>
<svg width="54px" height="53px" viewBox="0 0 54 53" version="1.1" xmlns="http://www.w3.org/2000/svg" xmlns:xlink="http://www.w3.org/1999/xlink">
    <!-- Generator: Sketch 41.1 (35376) - http://www.bohemiancoding.com/sketch -->
    <title>Eye</title>
    <desc>Created with Sketch.</desc>
    <defs></defs>
    <g id="Pages" stroke="none" stroke-width="1" fill="none" fill-rule="evenodd">
        <g id="Create-monster" transform="translate(-253.000000, -666.000000)">
            <g id="Pick-one" transform="translate(180.000000, 432.000000)">
                <g id="Eyes" transform="translate(73.000000, 234.000000)">
                    <g id="Eye">
                        <path d="M53.5578506,28.2195556 C51.5767663,38.8463827 41.2530072,52.7945432 26.4817301,52.7945432 C11.7098024,52.7945432 0.0659710843,44.4041852 0.0659710843,29.5478272 C0.0659710843,14.6921235 11.7078506,0.573839506 26.4797783,0.573839506 C41.2510554,0.573839506 56.2799711,13.6177284 53.5578506,28.2195556" id="Fill-4" fill="#F1F3F4"></path>
                        <path d="M40.1807494,27.1563494 C39.2067976,32.3797938 34.1327494,39.2357691 26.8720265,39.2357691 C19.6113036,39.2357691 13.8873036,35.111584 13.8873036,27.8093617 C13.8873036,20.5071395 19.6100024,13.5674111 26.8707253,13.5674111 C34.1314482,13.5674111 41.5190386,19.9791025 40.1807494,27.1563494" id="Fill-6" fill="#15B2C5"></path>
                        <path d="M35.5874964,26.4247531 C34.987641,29.6440123 31.8601952,33.868963 27.3860024,33.868963 C22.911159,33.868963 19.3842434,31.3269259 19.3842434,26.8271605 C19.3842434,22.3267407 22.9105084,18.0500988 27.3853518,18.0500988 C31.8595446,18.0500988 36.4118096,22.0015432 35.5874964,26.4247531" id="Fill-8" fill="#13110D"></path>
                    </g>
                </g>
            </g>
        </g>
    </g>
</svg>