<?xml version="1.0" encoding="utf-8"?>
<!-- Generator: Adobe Illustrator 19.2.1, SVG Export Plug-In . SVG Version: 6.00 Build 0)  -->
<svg version="1.1" id="Layer_1" xmlns="http://www.w3.org/2000/svg" xmlns:xlink="http://www.w3.org/1999/xlink" x="0px" y="0px"
	 viewBox="0 0 148.2 74.5" style="enable-background:new 0 0 148.2 74.5;" xml:space="preserve">
<path class="st0" fill="#010101" d="M35.9,55.5C34.6,62.6,27.7,72,17.8,72S0,66.4,0,56.4s7.8-19.4,17.8-19.4S37.8,45.8,35.9,55.5z"/>
<path class="st1" fill="#FFFFFF" d="M25.6,50.6c-0.3,1.6-1.6,2.9-3.3,3c-1.8,0-3.2-1-3.2-2.8c0-1.8,1.4-3.4,3.2-3.5C24.1,47.3,25.9,48.9,25.6,50.6z
	"/>
<path class="st0" fill="#010101" d="M85.9,29.1c6.9,5.9,12.7,19.3,6.5,30.1c-5.5,10-17.6,14.1-28.1,9.6c-11.5-5-16.2-20.7-10-31.5
	S76.4,21,85.9,29.1z"/>
<path class="st1" fill="#FFFFFF" d="M80.2,37.3c1.3,1.1,2.4,3.6,1.2,5.7s-3.2,3-5.3,1.8c-2.2-1.1-3-3.8-1.9-6C75.4,36.8,78.4,35.8,80.2,37.3z"/>
<path class="st0" fill="#010101" d="M57.8,19.9c-1.2,6.3-7.3,14.5-16.1,14.5S26,29.4,26,20.7S32.9,3.6,41.7,3.6S59.4,11.3,57.8,19.9z"/>
<path class="st1" fill="#FFFFFF" d="M48.1,16.2c-0.3,1.7-1.8,3-3.5,3.2c-1.9,0-3.4-1.1-3.4-3c0-2,1.5-3.6,3.4-3.8C46.5,12.6,48.5,14.3,48.1,16.2z"
	/>
<path class="st0" fill="#010101" d="M113.6,51.3c-1.2,7.1,2,18.3,11.3,21.7s18.6,0.9,22-8.4s-0.6-20.9-9.9-24.3S115.3,41.5,113.6,51.3z"/>
<path class="st1" fill="#FFFFFF" d="M135,52.1c-0.3,1.6,0.6,3.2,2.1,3.9c1.7,0.6,3.4,0.2,4-1.5c0.7-1.7-0.1-3.7-1.8-4.4
	C137.6,49.5,135.3,50.3,135,52.1z"/>
<path class="st0" fill="#010101" d="M106.4,0.3c-6.2,1.4-14.3,7.8-14,16.5s5.5,15.5,14.2,15.2s16.9-7.5,16.6-16.2S115-1.6,106.4,0.3z"/>
<path class="st1" fill="#FFFFFF" d="M108.9,7.4c-1.4,0.3-2.5,1.6-2.6,3c0,1.6,1,2.9,2.6,2.8c1.7,0,3-1.3,3.1-3C111.9,8.6,110.5,7,108.9,7.4z"/>
</svg>
