<?xml version="1.0" encoding="utf-8"?>
<!-- Generator: Adobe Illustrator 19.2.1, SVG Export Plug-In . SVG Version: 6.00 Build 0)  -->
<svg version="1.1" id="Layer_1" xmlns="http://www.w3.org/2000/svg" xmlns:xlink="http://www.w3.org/1999/xlink" x="0px" y="0px"
	 viewBox="0 0 177.1 58.5" style="enable-background:new 0 0 177.1 58.5;" xml:space="preserve">
<path class="st0" fill="#FFFFFF" d="M44.7,37.3c-0.7,3.8-4.5,8.8-9.8,8.8s-9.5-3-9.5-8.4c0-1.7,0.5-3.5,1.3-5L1.3,29.2C0.7,32.5,1,35.9,2.3,39
	c4.9,12.3,15.3,22.7,37.4,18.6c17.3-3.2,22.6-13.2,26-19.4l-20.9-3C44.8,36,44.8,36.7,44.7,37.3z"/>
<path class="st1" fill="#010101" d="M34.9,46.2c5.3,0,9.1-5,9.8-8.8c0.1-0.7,0.1-1.3,0.1-2l-18.1-2.5c-0.8,1.5-1.3,3.3-1.3,5
	C25.3,43.1,29.5,46.2,34.9,46.2z"/>
<path class="st0" fill="#FFFFFF" d="M152.4,32.4c0.6,1.5,0.8,3.2,0.7,4.8c-0.5,5.2-4.9,7.7-10,7.1c-4.9-0.5-8-5.2-8.5-8.9l-18.3,3.1
	c3,5.8,8.4,12.6,20.9,16.3c20.9,6.1,33.2-4.7,37.8-14.3c1.8-3.8,2.2-8.1,1.2-12.2L152.4,32.4z"/>
<path class="st1" fill="#010101" d="M143.1,44.4c5.2,0.5,9.5-2,10-7.1c0.2-1.6-0.1-3.3-0.7-4.8l-17.8,3C135.1,39.2,138.2,43.9,143.1,44.4z"/>
<polygon class="st2" style="opacity:0.2;enable-background:new;" points="109.8,24.4 111.4,32.3 177.1,18.1 174.7,1.3 "/>
<polygon class="st2" style="opacity:0.2;enable-background:new;" points="68.3,22.9 67.2,31.7 0,19.9 4.4,0 "/>
</svg>
