<?xml version="1.0" encoding="utf-8"?>
<!-- Generator: Adobe Illustrator 19.2.1, SVG Export Plug-In . SVG Version: 6.00 Build 0)  -->
<svg version="1.1" id="Layer_1" xmlns="http://www.w3.org/2000/svg" xmlns:xlink="http://www.w3.org/1999/xlink" x="0px" y="0px"
	 viewBox="0 0 197.2 85.1" style="enable-background:new 0 0 197.2 85.1;" xml:space="preserve">
<g>
	<path class="st0" fill="#010101" d="M197.2,28.7c-12.7-2.4-25.5-4.3-38.4-5.6c-19.8,0.7-39.5,2.8-59,6.3c-18.2-1.5-36.2-2.2-54.5-1.9
		C30,30.8,15.1,34.6,0.2,39C0,45.9,0,49.4,0,56.3c7.5-1.6,15-3.1,22.6-4.4c2.6-9.4,10.8-17.1,20.7-17.1c8.7,0,17.5,5.5,20.9,13.1
		c12.4,0.5,24.8,1.6,37.1,3.3c9.9-1,19.7-1.8,29.5-2.2c0-0.1,0.1-0.2,0.1-0.3c5.4-11.5,16.1-17.5,27.6-12.1
		c6.4,3,11.3,8.8,13.5,15.3c7.5,1.3,14.9,2.7,22.3,4.4C195.5,45.3,196.1,39.7,197.2,28.7z"/>
	<path class="st0" fill="#010101" d="M99.3,20.2c10.8-1.5,21.4-2.8,32.3-3.8c11.4-0.4,22.6-0.5,34-0.4c-0.2-6-0.4-9-0.7-15
		c-10.8-0.7-16.1-0.9-26.9-1c-13.7,1.6-27.2,3.8-40.6,6.7C84.7,6.2,72,6.2,59.3,6.7C48.8,9,38.4,11.2,28.1,14.1
		c-0.3,4.4-0.4,6.5-0.6,10.9c12.6-2.5,25.2-4.4,37.9-5.8C76.7,19.2,87.9,19.5,99.3,20.2z"/>
	<path class="st1" fill="#FFFFFF" d="M43.3,34.8c-9.9,0-18.1,7.7-20.7,17.1c-0.6,2.1-0.9,4.3-0.9,6.5c0,12.1,9.5,18.9,21.6,18.9s20.5-11.3,22.2-20
		c0.6-3.3,0.1-6.5-1.2-9.5C60.9,40.4,52,34.8,43.3,34.8z M51.5,51.9c-0.6,3.1-3.6,7.1-7.9,7.1s-7.7-2.4-7.7-6.7s3.4-8.4,7.7-8.4
		S52.2,47.7,51.5,51.9z"/>
	<path class="st0" fill="#010101" d="M43.5,43.9c-4.3,0-7.7,4.1-7.7,8.4s3.4,6.7,7.7,6.7s7.3-4,7.9-7.1C52.2,47.7,47.9,43.9,43.5,43.9z"/>
	<path class="st1" fill="#FFFFFF" d="M158.5,36.6c-11.5-5.4-22.2,0.6-27.6,12.1c0,0.1-0.1,0.2-0.1,0.3c-5.2,11.4,2.2,21.3,9.6,26.6
		c10.3,7.4,25.4,3.5,30.8-8c2.4-5,2.4-10.6,0.7-15.7C169.9,45.4,165,39.6,158.5,36.6z M158.4,54.6c-1.7,3.7-6.8,6-10.1,3.6
		c-2.4-1.8-4.7-6-3-9.7s5.2-5.7,9-3.9S160.1,50.9,158.4,54.6z"/>
	<path class="st0" fill="#010101" d="M154.2,44.5c-3.7-1.8-7.2,0.2-9,3.9s0.6,8,3,9.7c3.3,2.4,8.4,0.2,10.1-3.6C160.1,50.9,158,46.3,154.2,44.5z"/>
	<path class="st2" fill="#010101" d="M96.5,59.5c-7.9,0-19.8,2.8-22,12.4c-0.3,1.2,0.5,2.5,1.7,2.7c0.3,0.1,0.6,0.1,0.9,0
		c3.7-0.6,10.7,10,19.5,10.4s16-10.5,19.6-10.1c1.2,0.1,2.4-0.8,2.5-2c0-0.2,0-0.3,0-0.5C118,67.8,114.9,59.4,96.5,59.5z"/>
</g>
</svg>
