<?xml version="1.0" encoding="utf-8"?>
<!-- Generator: Adobe Illustrator 19.2.1, SVG Export Plug-In . SVG Version: 6.00 Build 0)  -->
<svg version="1.1" id="Layer_1" xmlns="http://www.w3.org/2000/svg" xmlns:xlink="http://www.w3.org/1999/xlink" x="0px" y="0px"
	 viewBox="0 0 175.6 27.4" style="enable-background:new 0 0 175.6 27.4;" xml:space="preserve">
<path class="st0" fill="#010101" d="M49.2,22.2l-9.9,1c-0.8-8.1-8-13.9-16.1-13.1c-8.1,0.8-13.9,8-13.1,16.1c0,0.1,0,0.1,0,0.2l-9.9,1
	C-1.3,13.8,8.4,1.6,22,0.1C35.5-1.3,47.7,8.4,49.2,22C49.2,22.1,49.2,22.1,49.2,22.2z"/>
<path class="st0" fill="#010101" d="M175.5,26.8l-10-0.8c0.8-8.1-5.1-15.2-13.2-16c-8.1-0.8-15.2,5.1-16,13.2c0,0.1,0,0.3,0,0.4l-10-0.8
	c1.1-13.6,13-23.7,26.6-22.6C166.5,1.3,176.6,13.2,175.5,26.8z"/>
</svg>
