<?xml version="1.0" encoding="utf-8"?>
<!-- Generator: Adobe Illustrator 19.2.1, SVG Export Plug-In . SVG Version: 6.00 Build 0)  -->
<svg version="1.1" id="Layer_1" xmlns="http://www.w3.org/2000/svg" xmlns:xlink="http://www.w3.org/1999/xlink" x="0px" y="0px"
	 viewBox="0 0 176.9 68" style="enable-background:new 0 0 176.9 68;" xml:space="preserve">
<path class="st0" fill="#FFFFFF" d="M57.9,47.7c-1,9.9-10.6,20.5-23.1,20.3s-22.2-7.3-22-19.8s10.1-24.2,22.6-24S59.2,35.3,57.9,47.7z"/>
<path class="st1" fill="#010101" d="M43.4,46.9c0.2,3.1-3.8,6.9-8.3,6.9s-8-2.5-7.9-6.7c0.1-4.4,3.7-8,8.1-8.1C39.8,39,43,41.8,43.4,46.9z"/>
<path class="st0" fill="#FFFFFF" d="M122.1,48.8c1.1,10.4,11.5,19.6,23.7,18.9s21.5-8.3,20.7-20.6s-11.2-23.7-23.4-22.5
	C128.9,26,120.6,35.6,122.1,48.8z"/>
<path class="st1" fill="#010101" d="M136.5,47.6c0.7,4,4,6.4,8.2,6.1c3.8-0.1,6.8-3,7.2-6.8c0.2-4-3.5-8.3-7.7-8S135.6,42.8,136.5,47.6z"/>
<g class="st2" style="opacity:0.5">
	<path d="M175.5,22.5c-1.3-4.2-4.5-14.8-17-19.1c-10.6-3.6-22.1-3.5-32.7,0.4l-2,1.4l4.1,11.6l5-2c7-2.9,14.7-3,21.8-0.5
		c5.5,2,10,6,12.6,11.2l1.2,3l4.3-1l4-1L175.5,22.5z"/>
	<path d="M19.6,4.3c-9.3,4-16.1,12.1-18.4,21.9L0,30.4l4,0.7l4.9,1.4l1-3.3c0.4-0.8,4.9-10.2,14.5-14.3c12.4-5.3,22.4-0.7,23.5-0.1
		l3.6,1.6l5.8-12.7L53.8,2C53.7,1.9,38.3-3.7,19.6,4.3z"/>
</g>
</svg>
