<?xml version="1.0" encoding="utf-8"?>
<!-- Generator: Adobe Illustrator 19.2.1, SVG Export Plug-In . SVG Version: 6.00 Build 0)  -->
<svg version="1.1" id="Layer_1" xmlns="http://www.w3.org/2000/svg" xmlns:xlink="http://www.w3.org/1999/xlink" x="0px" y="0px"
	 viewBox="0 0 424.8 549.2" style="enable-background:new 0 0 424.8 549.2;" xml:space="preserve">
<style type="text/css">
	.st0{fill:#1F1D1E;}
	.st1{filter:url(#Adobe_OpacityMaskFilter);}
	.st2{fill:#FFFFFF;}
	.st3{mask:url(#mask-2_1_);fill:#010101;fill-opacity:0.1792;}
	.st4{fill:#7C522C;}
	.st5{fill:#AD6F36;}
	.st6{filter:url(#Adobe_OpacityMaskFilter_1_);}
	.st7{mask:url(#mask-4_1_);fill:#8C6237;}
	.st8{filter:url(#Adobe_OpacityMaskFilter_2_);}
	.st9{mask:url(#mask-6_1_);fill:#8C6237;}
	.st10{filter:url(#Adobe_OpacityMaskFilter_3_);}
	.st11{mask:url(#mask-8_1_);fill:#8C6237;}
	.st12{fill:#8C6237;}
	.st13{filter:url(#Adobe_OpacityMaskFilter_4_);}
	.st14{mask:url(#mask-10_1_);fill:#8C6237;}
	.st15{filter:url(#Adobe_OpacityMaskFilter_5_);}
	.st16{mask:url(#mask-12_1_);fill:#8C6237;}
	.st17{fill:#4661AA;}
</style>
<g id="Pages">
	<g id="Home-_x28_with-bonus-round_x29_" transform="translate(-614.000000, -172.000000)">
		<g id="Picure-frame-with-Harry" transform="translate(614.000000, 172.000000)">
			<g id="Rope" transform="translate(102.000000, 0.000000)">
				<path id="Fill-1" class="st0" d="M99.5,5.7c0-3.1-2.6-5.7-5.7-5.7c-3.1,0-5.7,2.5-5.7,5.7s2.6,5.7,5.7,5.7
					C96.9,11.4,99.5,8.8,99.5,5.7"/>
				<path id="Fill-3" class="st0" d="M1.8,88.5c-0.4,0-0.7-0.1-1.1-0.3c-0.8-0.6-1-1.7-0.4-2.6c2-2.8,49.7-69.4,92.9-81.7
					c0.4-0.1,0.8-0.1,1.2,0.1c1.5,0.6,37.7,15.2,89.9,81.1c0.6,0.8,0.5,1.9-0.3,2.6c-0.8,0.6-1.9,0.5-2.6-0.3
					c-48.1-60.8-83-77.7-87.8-79.8C51.8,20,3.8,87,3.3,87.7C3,88.2,2.4,88.5,1.8,88.5"/>
				<g id="Group-7" transform="translate(3.000000, 7.558100)">
					<g id="Clip-6">
					</g>
					<defs>
						<filter id="Adobe_OpacityMaskFilter" filterUnits="userSpaceOnUse" x="0.5" y="0.4" width="184.7" height="84.6">
							<feColorMatrix  type="matrix" values="1 0 0 0 0  0 1 0 0 0  0 0 1 0 0  0 0 0 1 0"/>
						</filter>
					</defs>
					<mask maskUnits="userSpaceOnUse" x="0.5" y="0.4" width="184.7" height="84.6" id="mask-2_1_">
						<g class="st1">
							<polygon id="path-1_1_" class="st2" points="92.8,85 185.2,85 185.2,0.4 0.5,0.4 0.5,85 							"/>
						</g>
					</mask>
					<path id="Fill-5" class="st3" d="M1.2,84.7c-0.8-0.6-1-1.7-0.4-2.6c2-2.8,49.7-69.4,92.9-81.7c0.4-0.1,0.8-0.1,1.2,0.1
						c1.5,0.6,37.7,15.2,89.9,81.1c0.6,0.8,0.5,1.9-0.3,2.6c-0.8,0.6-1.9,0.5-2.6-0.3c-48.1-60.8-83-77.7-87.8-79.8
						C52.2,16.5,4.3,83.5,3.8,84.2C3.4,84.7,2.9,85,2.3,85C1.9,85,1.6,84.9,1.2,84.7z"/>
				</g>
			</g>
			<rect id="White" x="22" y="94" class="st2" width="389" height="431.7"/>
			<g id="Frame" transform="translate(0.000000, 59.000000)">
				<path id="Frame-ouside" class="st4" d="M0,490.2h424.8V0H0V490.2z M30.1,455.5h364.5V34.8H30.1V455.5z"/>
				<path id="Frameinside" class="st5" d="M41.2,442.7h342.4V47.5H41.2V442.7z M30.1,455.5h364.5V34.8H30.1V455.5z"/>
			</g>
			<g id="Wood-effect" transform="translate(279.000000, 515.000000)">
				<g id="Group-3" transform="translate(24.765363, 4.538585)">
					<g id="Clip-2">
					</g>
					<defs>
						<filter id="Adobe_OpacityMaskFilter_1_" filterUnits="userSpaceOnUse" x="0.4" y="0.2" width="117.2" height="18.4">
							<feColorMatrix  type="matrix" values="1 0 0 0 0  0 1 0 0 0  0 0 1 0 0  0 0 0 1 0"/>
						</filter>
					</defs>
					<mask maskUnits="userSpaceOnUse" x="0.4" y="0.2" width="117.2" height="18.4" id="mask-4_1_">
						<g class="st6">
							<polygon id="path-3_1_" class="st2" points="117.6,18.7 117.6,0.2 0.4,0.2 0.4,18.7 							"/>
						</g>
					</mask>
					<path id="Fill-1_1_" class="st7" d="M117,0.3c-16,3.6-31.8,7.8-48,9.9c-9.8,1.3-18.8,1.3-28.6,0.4c-8.7-0.8-17.5-1.6-26.3-1.3
						C10.8,9.3,1.4,8.9,0.4,13.8c-0.1,0.4,0.3,0.8,0.6,0.9c18.2,6.4,38.5,3.4,57.2,1.4c11-1.2,22-1.7,33-3c4-0.5,8-1.1,12-1.5
						c3.8-0.4,8.1-1.2,11.9-0.1c0.5,0.1,0.3-0.5,0-0.6c-6.3-2.1-14.4,0.1-20.7,0.9c-10.6,1.4-21.4,1.7-32,2.7
						c-19.7,2-41.2,5.8-60.4-0.7c2-4.7,14.3-3.6,17.6-3.6c8.4,0.1,16.7,1,25.1,1.6c8.9,0.7,17.6,0.1,26.5-1.1
						c15.6-2.1,31.2-5.7,46.4-9.8C117.9,0.9,117.4,0.2,117,0.3"/>
				</g>
				<g id="Group-6" transform="translate(0.000000, 0.392244)">
					<g id="Clip-5">
					</g>
					<defs>
						<filter id="Adobe_OpacityMaskFilter_2_" filterUnits="userSpaceOnUse" x="0" y="0.4" width="139.4" height="27.9">
							<feColorMatrix  type="matrix" values="1 0 0 0 0  0 1 0 0 0  0 0 1 0 0  0 0 0 1 0"/>
						</filter>
					</defs>
					<mask maskUnits="userSpaceOnUse" x="0" y="0.4" width="139.4" height="27.9" id="mask-6_1_">
						<g class="st8">
							<polygon id="path-5_1_" class="st2" points="0,0.4 0,28.3 139.4,28.3 139.4,0.4 							"/>
						</g>
					</mask>
					<path id="Fill-4" class="st9" d="M139,21.7c0.4,0,0.6-0.5,0.1-0.5c-19.4-0.5-38.4-0.2-57.7,2.6c-16.7,2.5-33.2,3.8-50,2.4
						c-7-0.6-14.3-1.5-20.9-4.1c-3.6-1.4-14.4-8.7-5.7-11c4.9-1.4,10.5-0.6,15.5-0.5c10.2,0.2,20.4,0.3,30.6-0.2
						c11.4-0.5,23.4,0,34.6-2.3c11.1-2.3,21.5-6.9,33-6.7c0.4,0,0.9-0.7,0.3-0.7C109-0.5,99.3,3.6,90,6C78.1,9.1,65.6,8.8,53.5,9.3
						C42.3,9.8,31.2,9.9,20,9.6C14.7,9.4,8.9,8.7,3.8,10.3c-4.2,1.3-5,4.5-2,7.9c3.6,4.2,9.6,5.9,14.7,7c14.6,3.4,30.7,3.6,45.6,2.2
						c13.7-1.3,27.2-4.3,41-5.2C115.1,21.5,127,22,139,21.7"/>
				</g>
				<g id="Group-9" transform="translate(78.290503, 26.099561)">
					<g id="Clip-8">
					</g>
					<defs>
						<filter id="Adobe_OpacityMaskFilter_3_" filterUnits="userSpaceOnUse" x="0.4" y="0.2" width="62" height="7.3">
							<feColorMatrix  type="matrix" values="1 0 0 0 0  0 1 0 0 0  0 0 1 0 0  0 0 0 1 0"/>
						</filter>
					</defs>
					<mask maskUnits="userSpaceOnUse" x="0.4" y="0.2" width="62" height="7.3" id="mask-8_1_">
						<g class="st10">
							<polygon id="path-7_1_" class="st2" points="0.4,7.5 62.5,7.5 62.5,0.2 0.4,0.2 							"/>
						</g>
					</mask>
					<path id="Fill-7" class="st11" d="M51.8,0.2c-5.4,0-10.7,0.8-16,1.1C24.4,1.9,10.5,0,0.6,6.9C0.2,7.2,0.8,7.6,1.1,7.4
						c10.9-5,22.4-4.4,34.1-5c8.9-0.4,18.3-2.8,27,0.3c0.2,0.1,0.4,0,0.2-0.2C59.8,0,55,0.2,51.8,0.2"/>
				</g>
			</g>
			<g id="Wood-effect_1_" transform="translate(0.000000, 59.000000)">
				<g id="Group-3_1_" transform="translate(0.000000, 3.789531)">
					<path id="Fill-1_2_" class="st12" d="M112.5,6.5c18.9,1.6,37.8,3.2,56.8,3c17.9-0.2,34.4-4.6,51.6-8.7c0.4-0.1,0.6-0.9,0.1-0.8
						c-8.7,1.7-17.3,4.1-26,5.8c-9.7,2-19.3,2.5-29.2,2.5c-19,0-37.9-1.8-56.8-3.3C73,2.1,36.1,0.7,0.2,5.6C0,5.6-0.1,6,0.1,5.9
						C37.6,2.2,75.1,3.4,112.5,6.5"/>
				</g>
				<path id="Fill-4_1_" class="st12" d="M101.4,16.2c30,2.1,59.9,6,89.8,0.5c8.4-1.6,16.7-3.6,25.1-5.2c8.8-1.7,17.5-2.5,26.4-3.2
					c0.5,0,0.3-1-0.2-1.1c-15.2-0.9-30.6,3.7-45.3,6.7c-14.9,3.1-29.6,4.4-44.9,4.1c-16.1-0.3-32.1-2-48.2-3.2
					c-15-1.1-29.9-1.2-44.9-0.3c-17.9,1-35.7,2.8-53.6,3.8c-0.2,0-0.1,0.4,0.1,0.4C37.7,18.1,69.4,14,101.4,16.2"/>
				<g id="Group-8" transform="translate(5.907692, 18.875246)">
					<g id="Clip-7">
					</g>
					<defs>
						<filter id="Adobe_OpacityMaskFilter_4_" filterUnits="userSpaceOnUse" x="0" y="0" width="249.7" height="13.2">
							<feColorMatrix  type="matrix" values="1 0 0 0 0  0 1 0 0 0  0 0 1 0 0  0 0 0 1 0"/>
						</filter>
					</defs>
					<mask maskUnits="userSpaceOnUse" x="0" y="0" width="249.7" height="13.2" id="mask-10_1_">
						<g class="st13">
							<polygon id="path-9_1_" class="st2" points="0,13.2 249.7,13.2 249.7,0 0,0 							"/>
						</g>
					</mask>
					<path id="Fill-6" class="st14" d="M249,12c-16-4.1-32.4-5.5-49-6.3c-16.5-0.8-32.9-1.3-49.4-1.2C117.9,4.8,85.4,0,52.6,0
						c-17.5,0-35.3,0.9-52.4,5.1c-0.5,0.1,0,0.8,0.4,0.7c30.1-6.5,62.6-5.9,93.2-3.3c16,1.4,31.8,3.1,47.9,3.3
						c17.5,0.2,34.9,0.3,52.3,1c18.6,0.8,37.1,2.1,55.3,6.4C250.1,13.4,249.6,12.2,249,12"/>
				</g>
				<g id="Group-11" transform="translate(8.861538, 0.018103)">
					<g id="Clip-10">
					</g>
					<defs>
						<filter id="Adobe_OpacityMaskFilter_5_" filterUnits="userSpaceOnUse" x="0.3" y="0.9" width="125.1" height="2.3">
							<feColorMatrix  type="matrix" values="1 0 0 0 0  0 1 0 0 0  0 0 1 0 0  0 0 0 1 0"/>
						</filter>
					</defs>
					<mask maskUnits="userSpaceOnUse" x="0.3" y="0.9" width="125.1" height="2.3" id="mask-12_1_">
						<g class="st15">
							<polygon id="path-11_1_" class="st2" points="125.4,0.9 0.3,0.9 0.3,3.2 125.4,3.2 							"/>
						</g>
					</mask>
					<path id="Fill-9" class="st16" d="M0.6,2c9.6,1.4,19.5,0.6,29.2,0.1c10.5-0.6,20.8-0.3,31.3-0.2C71.5,2,82,1.9,92.4,2.6
						c11,0.8,21.8,1,32.7-0.4c0.6-0.1-0.1-0.7-0.4-0.6c-11.3,1-22.2,0.9-33.5,0.2C80.8,1.1,70.3,1.2,59.9,1.1
						C50,1,40.3,0.7,30.4,1.3c-10,0.6-19.9,1-29.9,0.4C0.2,1.6,0.3,2,0.6,2"/>
				</g>
			</g>
			<g id="Harry" transform="translate(103.000000, 152.000000)">
				<g id="Group-40" transform="translate(67.942790, 42.922543)">
					<path id="Fill-30_1_" class="st17" d="M76.6,90.4"/>
					<path id="Fill-32_1_" class="st17" d="M87.8,86.2"/>
					<path id="Fill-32_3_" class="st17" d="M87.8,86.2"/>
				</g>
			</g>
		</g>
	</g>
</g>
<rect x="41.2" y="106.5" class="st2" width="342.4" height="395.2"/>
</svg>
