<?xml version="1.0" encoding="UTF-8" standalone="no"?>
<svg width="76px" height="51px" viewBox="0 0 76 51" version="1.1" xmlns="http://www.w3.org/2000/svg" xmlns:xlink="http://www.w3.org/1999/xlink">
    <!-- Generator: Sketch 41.1 (35376) - http://www.bohemiancoding.com/sketch -->
    <title>gamepad</title>
    <desc>Created with Sketch.</desc>
    <defs></defs>
    <g id="Styles" stroke="none" stroke-width="1" fill="none" fill-rule="evenodd">
        <g transform="translate(-118.000000, -2929.000000)" id="gamepad">
            <g transform="translate(118.000000, 2929.000000)">
                <g id="Layer_1">
                    <path d="M66.1431762,7.63515 C66.0245861,7.3989 65.7875564,7.1625 65.5505267,7.04445 L64.4243723,6.5718 L64.0687525,5.27205 C64.0687525,5.15385 64.0094574,5.09475 63.9501624,4.9767 C63.8908673,4.8585 63.1203327,3.3816 60.9866139,2.5545 C59.0306297,1.7865 54.111097,0.0732 51.1475485,0.0732 C50.1399842,0.0732 49.3101545,0.2505 48.7766495,0.6639 C48.3617347,0.8412 46.5836356,2.43615 44.8646812,2.43615 L30.6394376,2.43615 C28.9797782,2.43615 27.1423842,0.90015 26.7274693,0.6639 C26.1348198,0.25035 25.3642851,0.0732 24.3565703,0.0732 C21.3930218,0.0732 16.4733386,1.7865 14.517505,2.5545 C12.3837861,3.3816 11.6132515,4.8585 11.5539564,4.9767 C11.4946614,5.0358 11.4946614,5.154 11.4353663,5.27205 L11.0797465,6.63075 L10.2499168,7.1034 C10.0128871,7.2216 9.83500198,7.39875 9.71641188,7.63515 C9.42008713,8.28495 2.01106535,23.2314 0.232966337,36.93735 C-0.418978218,42.0771 0.292261386,45.858 2.4259802,48.28005 C4.50055446,50.58405 7.22707327,50.9385 8.35322772,50.9385 L9.24235248,50.9385 C10.7834218,50.9385 12.9764356,49.75695 20.2077228,42.01785 C20.9189624,41.24985 21.4524673,40.8363 21.8080871,40.48185 C22.8749465,39.4185 25.0681109,39.06405 26.6683248,39.06405 L49.3101545,39.06405 C50.9105188,39.06405 53.1628277,39.4185 54.1703921,40.48185 C54.5260119,40.8363 55.0595168,41.24985 55.7707564,42.01785 C63.0018931,49.75695 65.1950574,50.9385 66.7361267,50.9385 L67.6252515,50.9385 C68.6921109,50.9385 71.4779248,50.64315 73.552499,48.28005 C75.5673267,45.858 76.2785663,42.018 75.6266218,36.93735 C73.8485228,23.23155 66.439501,8.2851 66.1431762,7.63515 Z" id="Shape" fill="#FFFFFF"></path>
                    <path d="M65.5505267,7.0446 L64.4243723,6.57195 L64.0687525,5.2722 C64.0687525,5.154 64.0094574,5.0949 63.9501624,4.97685 C63.8908673,4.85865 63.1203327,3.38175 60.9866139,2.55465 C59.0306297,1.78665 54.111097,0.07335 51.1475485,0.07335 C50.1399842,0.07335 49.3101545,0.25065 48.7766495,0.66405 C48.3617347,0.84135 46.5836356,2.4363 44.8646812,2.4363 L30.6394376,2.4363 C28.9797782,2.4363 27.1423842,0.9003 26.7274693,0.66405 C26.1348198,0.2505 25.3642851,0.07335 24.3565703,0.07335 C21.3930218,0.07335 16.4733386,1.78665 14.517505,2.55465 C12.3837861,3.38175 11.6132515,4.85865 11.5539564,4.97685 C11.4946614,5.03595 11.4946614,5.15415 11.4353663,5.2722 L11.0797465,6.6309 L10.2499168,7.10355 C10.0128871,7.22175 9.83500198,7.3989 9.71641188,7.6353 C9.65711683,7.8126 9.00517228,8.994 8.17534257,10.94355 L13.6876752,8.1669 C21.5116119,4.4451 24.2972752,6.5718 24.5344554,6.7491 C24.7123406,6.98535 25.7792,8.4033 28.3278337,10.88445 C30.7580277,13.30665 31.8841822,13.6611 32.3583921,13.6611 L42.7902574,13.6611 C43.3237624,13.6611 44.4499168,13.24755 46.7615208,10.88445 C49.2510099,8.40315 50.3178693,7.04445 50.495604,6.7491 C50.7919287,6.51285 53.6963327,4.3269 61.9350337,8.4624 C61.8164436,8.3442 65.4320871,10.1757 67.8622812,11.4162 C66.9137109,9.2304 66.2616158,7.81245 66.1431762,7.6353 C66.0245861,7.39905 65.7875564,7.16265 65.5505267,7.0446 Z" id="Shape" fill="#D9D9D9"></path>
                    <path d="M56.0076356,20.15955 C54.8814812,20.15955 53.9330614,21.10485 53.9330614,22.2273 C53.9330614,23.34975 54.8814812,24.29505 56.0076356,24.29505 C57.1337901,24.29505 58.0822099,23.34975 58.0822099,22.2273 C58.0822099,21.10485 57.1337901,20.15955 56.0076356,20.15955 L56.0076356,20.15955 Z M60.7494337,15.43335 C59.6232792,15.43335 58.6748594,16.37865 58.6748594,17.5011 C58.6748594,18.62355 59.6232792,19.56885 60.7494337,19.56885 C61.8755881,19.56885 62.8240079,18.62355 62.8240079,17.5011 C62.8240079,16.37865 61.8755881,15.43335 60.7494337,15.43335 L60.7494337,15.43335 Z M51.2658376,15.43335 C50.1396832,15.43335 49.1912634,16.37865 49.1912634,17.5011 C49.1912634,18.62355 50.1396832,19.56885 51.2658376,19.56885 C52.3919921,19.56885 53.3404119,18.62355 53.3404119,17.5011 C53.3404119,16.37865 52.3919921,15.43335 51.2658376,15.43335 L51.2658376,15.43335 Z M56.0076356,10.7073 C54.8814812,10.7073 53.9330614,11.6526 53.9330614,12.77505 C53.9330614,13.8975 54.8814812,14.8428 56.0076356,14.8428 C57.1337901,14.8428 58.0822099,13.8975 58.0822099,12.77505 C58.0820594,11.65245 57.1337901,10.7073 56.0076356,10.7073 L56.0076356,10.7073 Z" id="Shape" fill="#597583"></path>
                    <path d="M37.9297188,5.9811 C39.2337584,5.9811 40.3006178,7.04445 40.3006178,8.3442 C40.3006178,9.64395 39.2337584,10.7073 37.9297188,10.7073 C36.6256792,10.7073 35.5588198,9.64395 35.5588198,8.3442 C35.5588198,7.04445 36.6256792,5.9811 37.9297188,5.9811 L37.9297188,5.9811 Z" id="Shape" fill="#B8C4CB"></path>
                    <path d="M33.5435406,29.6118 L31.4098218,29.6118 L31.4098218,31.7976 C31.4098218,32.27025 31.054202,32.6247 30.5799921,32.6247 L28.683303,32.6247 C28.2090931,32.6247 27.8534733,32.27025 27.8534733,31.7976 L27.8534733,29.6118 L25.7197545,29.6118 C25.2455446,29.6118 24.8899248,29.25735 24.8899248,28.7847 L24.8899248,26.89425 C24.8899248,26.4216 25.2455446,26.06715 25.7197545,26.06715 L27.8534733,26.06715 L27.8534733,23.94045 C27.8534733,23.4678 28.2090931,23.11335 28.683303,23.11335 L30.5799921,23.11335 C31.054202,23.11335 31.4098218,23.4678 31.4098218,23.94045 L31.4098218,26.06715 L33.5435406,26.06715 C34.0177505,26.06715 34.3733703,26.4216 34.3733703,26.89425 L34.3733703,28.7847 C34.3733703,29.25735 34.0177505,29.6118 33.5435406,29.6118 L33.5435406,29.6118 Z" id="Shape" fill="#4F6B79"></path>
                    <path d="M45.0422653,21.9318 C48.3022891,21.9318 50.9695129,24.59025 50.9695129,27.83955 C50.9695129,31.08885 48.3022891,33.7473 45.0422653,33.7473 C41.7822416,33.7473 39.1150178,31.08885 39.1150178,27.83955 C39.1151683,24.5904 41.7823921,21.9318 45.0422653,21.9318 L45.0422653,21.9318 Z" id="Shape" fill="#2D4552"></path>
                    <path d="M45.0422653,23.7042 C47.3538693,23.7042 49.1912634,25.53555 49.1912634,27.83955 C49.1912634,30.14355 47.3538693,31.9749 45.0422653,31.9749 C42.7306614,31.9749 40.8932673,30.14355 40.8932673,27.83955 C40.8932673,25.59465 42.7306614,23.7042 45.0422653,23.7042 L45.0422653,23.7042 Z" id="Shape" fill="#4F6B79"></path>
                    <path d="M18.9626772,11.298 C22.222701,11.298 24.8899248,13.95645 24.8899248,17.20575 C24.8899248,20.45505 22.222701,23.1135 18.9626772,23.1135 C15.7026535,23.1135 13.0354297,20.45505 13.0354297,17.20575 C13.0354297,13.95645 15.7026535,11.298 18.9626772,11.298 L18.9626772,11.298 Z" id="Shape" fill="#2D4552"></path>
                    <path d="M18.9626772,13.0704 C21.2742812,13.0704 23.1116752,14.90175 23.1116752,17.20575 C23.1116752,19.50975 21.2742812,21.3411 18.9626772,21.3411 C16.6510733,21.3411 14.8136792,19.50975 14.8136792,17.20575 C14.8136792,14.96085 16.6510733,13.0704 18.9626772,13.0704 L18.9626772,13.0704 Z" id="Shape" fill="#4F6B79"></path>
                    <path d="M45.0422653,25.47645 C46.346305,25.47645 47.4131644,26.5398 47.4131644,27.83955 C47.4131644,29.1393 46.346305,30.20265 45.0422653,30.20265 C43.7382257,30.20265 42.6713663,29.1393 42.6713663,27.83955 C42.6713663,26.5398 43.7383762,25.47645 45.0422653,25.47645 L45.0422653,25.47645 Z M18.9626772,14.84265 C20.2667168,14.84265 21.3335762,15.906 21.3335762,17.20575 C21.3335762,18.5055 20.2667168,19.56885 18.9626772,19.56885 C17.6586376,19.56885 16.5917782,18.5055 16.5917782,17.20575 C16.5917782,15.906 17.6586376,14.84265 18.9626772,14.84265 L18.9626772,14.84265 Z" id="Shape" fill="#3F5966"></path>
                </g>
            </g>
        </g>
    </g>
</svg>