<svg width="158" height="183" viewBox="0 0 158 183" xmlns="http://www.w3.org/2000/svg" xmlns:xlink="http://www.w3.org/1999/xlink"><title>Green Monster</title><defs><path id="a" d="M.01 181.992h119.024V.04H.01V181.99z"/><path d="M.26 10.452c-.62 7.032 4.202 17.315 35.904 16.3 29.76-.95 33.698-14.232 31.49-20.714C65.685.252 60.868.016 55.785.515c-1.64.162-3.386.54-5.278 1.003-9.285 2.27-18.933 2.514-28.308.675-1.736-.34-3.61-.734-5.603-1.188C14.33.49 12.365.252 10.658.252 3.248.252.765 4.736.26 10.452z" id="c"/></defs><g fill="none" fill-rule="evenodd"><path d="M42.91 63.407l-3.476 46.977s-6.617-7.92-10.16 1.174c-3.543 9.096 9.585 43.64 3.818 48.267-4.284 3.437-13.567 3.747-18.056-3.417-4.265-6.804-6.913-27.45-6.913-27.45l-5.887 3.366c-.983-14.34 4.204-23.546 4.204-23.546l-5.618.772c1.88-10.28 5.303-16.316 7.723-19.488 1.852-2.427 3.544-4.975 5.06-7.636 3.943-6.916 13.148-19.02 29.304-19.02M115.295 63.407l3.475 46.977s6.617-7.92 10.16 1.174c3.544 9.096-9.585 43.64-3.818 48.267 4.284 3.437 13.567 3.747 18.056-3.417 4.265-6.804 6.913-27.45 6.913-27.45l5.888 3.366c.984-14.34-4.204-23.546-4.204-23.546l5.62.772c-1.88-10.28-5.304-16.316-7.725-19.488-1.853-2.427-3.545-4.975-5.06-7.636-3.943-6.916-13.15-19.02-29.305-19.02" fill="#8F9424"/><g transform="translate(18.755 .08)"><mask id="b" fill="#fff"><use xlink:href="#a"/></mask><path d="M108.91 168.964c-.83 4.378-2.115 13.028-11.87 13.028-9.756 0-13.138-7.26-13.138-12.615 0-2.227-.225-4.88-.488-7.218 0 0-13.944-2.913-24.66-2.262-12.896.784-22.222 2.26-22.222 2.26-.263 2.34-.488 4.992-.488 7.22 0 5.354-3.382 12.614-13.138 12.614-8.63 0-10.988-8.66-11.87-13.028C6.687 147.414.34 124.774.014 81.66-.414 25.223 37.67 16.104 37.67 16.104c-.196-4.06-3.447-9.334-3.447-9.334 6.14-.837 10.666 3.69 10.666 3.69.975-5.428-.976-10.42-.976-10.42 8.38 2.476 15.956 12.105 15.956 12.105s5.294-8.538 12.14-9.5c0 0-2.247 9.577-2.04 11.41 0 0 9.455-8.155 14.918-6.168 0 0-2.76 4.465-3.336 8.066 0 0 37.482 5.36 37.482 65.708 0 0-3.162 50.577-10.125 87.304" fill="#C0C301" mask="url(#b)"/></g><path d="M118.497 45.908c-3.736-3.386-8.965-4.91-13.98-4.072-7.568 1.26-10.415 9.532-9.316 17.053.936 6.39 5.777 10.292 12.395 10.292.9 0 1.834-.072 2.795-.22 7.332-1.13 12.094-8.152 12.302-14.01.116-3.276-1.374-6.488-4.195-9.044M59.02 47.994c-2.57-3.182-6.623-5.158-10.575-5.158-6.736 0-12.646 6.585-12.646 14.093 0 6.848 5.082 11.45 12.646 11.45 7.336 0 12.054-7.118 12.934-11.93.532-2.913-.306-5.917-2.36-8.456" fill="#FEFEFE"/><path d="M59.073 56.217c-.783 4.285-4.86 9.91-10.697 9.91-5.835 0-10.435-3.384-10.435-9.375 0-5.99 4.6-11.683 10.436-11.683 5.835 0 11.772 5.26 10.697 11.147" fill="#FDD200"/><path d="M47.57 48.782c-1.32 2.556-2.99 7.59-.13 13.572.528 1.108 1.702 1.112 2.222-.005 1.27-2.73 2.838-7.927.076-13.547-.518-1.053-1.635-1.057-2.17-.02" fill="#13110D"/><path d="M120.206 54.928c-.167 4.698-4.018 10.698-10.24 11.657-6.224.96-11.657-1.893-12.59-8.282-.935-6.388 1.427-13.17 7.64-14.205 7.805-1.3 15.42 4.374 15.19 10.83" fill="#FDD200"/><path d="M106.4 48.222c-1.007 2.942-2.004 8.584 1.977 14.494.738 1.095 1.99.907 2.37-.37.93-3.12 1.79-8.918-2.03-14.458-.717-1.038-1.91-.86-2.317.334" fill="#13110D"/><path d="M96.356 74.51c-10.342 2.974-21.088 3.304-31.526.913-1.933-.443-4.018-.955-6.24-1.546-13.47-3.58-17.502 3.172-18.2 12.354-.698 9.183 4.59 21.1 39.967 21.244 32.46.133 37.21-17.016 35.586-25.94-1.29-7.092-8.047-8.997-13.707-8.34-1.828.213-3.772.71-5.88 1.316" fill="#8F9424"/><g transform="translate(44.045 76.752)"><mask id="d" fill="#fff"><use xlink:href="#c"/></mask><path fill="#1D1C1B" mask="url(#d)" d="M-7.7 31.043h83.043v-37.95H-7.7"/><path d="M8.806-2.132s-.594 6.095 1.413 6.756c2.59.855 13.59 3.016 24.01 2.645 10.675-.38 25.676-1.275 25.914-3.104.42-3.242.553-9.718.553-9.718l-51.145.795-.746 2.625zM60.49 29.965s4.47-5.837 2.464-6.498c-2.592-.854-10.827-1.62-28.723-1.463-16.266.144-28.63.244-28.868 2.072-.42 3.242 3.948 7.856 3.948 7.856l50.435.66.746-2.627z" fill="#FEFEFE" mask="url(#d)"/></g><g><path d="M78.06 98.772s13.383-.036 18.907.26c0 0-.617-6.054-5.696-8.482-3.07-1.466-6.868-1.697-6.868-1.697l-6.343 9.92z" fill="#AE1917"/><path d="M90.273 90.104c-3.01-1.028-6.158-1.57-9.183-1.774-9.99-.687-21.682 7.1-21.283 19.236.277 8.5 7.82 14.422 15.217 10.495 3.738-1.992 5.68-6.3 5.766-10.587.054-2.708-.79-5.366-.665-8.044.147-3.27 2.027-6.08 4.646-7.662.1-.06.207-.122.317-.183 1.354-.747 2.877-1.084 4.404-1.06l1.78.025-.428-.19-.318-.154-.25-.102z" fill="#CF1417"/><path d="M83.796 88.604s-7.344 1.64-9.393 9.218c-.11.406-.378 2.377-.44 2.794-.2 1.285-.263 2.697-.595 4.72-.528 3.213-5.298 4.31-5.91.55-.488-2.98 1.483-9.202 4.422-12.34 2.94-3.14 6.115-4.968 8.312-5.258 0 0 2.25.037 3.604.316" fill="#AE1917"/></g></g></svg>