<?xml version="1.0" encoding="utf-8"?>
<!-- Generator: Adobe Illustrator 19.2.1, SVG Export Plug-In . SVG Version: 6.00 Build 0)  -->
<svg version="1.1" id="Layer_1" xmlns="http://www.w3.org/2000/svg" xmlns:xlink="http://www.w3.org/1999/xlink" x="0px" y="0px"
	 viewBox="0 0 1314.5 44.1" style="enable-background:new 0 0 1314.5 44.1;" xml:space="preserve" preserveAspectRatio="none">
<g id="Pages">
	<g id="Start-Page" transform="translate(0.000000, -868.000000)">
		<g id="Section-01" transform="translate(-896.000000, 65.000000)">
			<g id="Lines" transform="translate(850.000000, 803.000000)">
				<path fill="#8E9537" d="M26.5,44.1C142.6,39.4,260.6,36,379,33.6c114,0.4,226.4,1.6,339.9,3.7
					c117.5-2.9,236.2-4.3,354.8-4.8c135.1,2.6,267.4,6.5,400.3,11.5c-0.1-9.2-0.4-13.7-1.4-22.9c-111.2-5.8-222.3-10.8-335.8-15.1
					c-136.1-0.3-270.3,0.5-405.9,2.6C585.9,4,438.3,1.3,291.1,0.3C195.2,2,99.7,4.5,5,7.7C12.9,22.3,17.2,29.6,26.5,44.1"/>
				<path fill="#502971" d="M1365.9,18.3c-20.2-0.8-40.5-1.4-60.7-2.5c-25.1-1.4-50.1-2.1-75.2-1.3
					c-63.5,1.9-127.1,3.6-190.7,3.8c-28.8,0.1-57.7-2-86.5-3.5c-17.5-0.9-35-0.7-52.5-0.2c-63.5,1.7-127.1,3.5-190.7,3.7
					c-28.8,0.1-57.7-2-86.5-3.5c-17.5-0.9-35-0.7-52.5-0.2c-63.4,1.7-126.8,3.5-190.1,3.7c-29,0.1-58-1.9-87-3.5
					c-18.2-1-36.4-0.7-54.6-0.2c-63.2,1.7-126.4,3-189.6,3.9c-1,0-2.1-0.1-3.1-0.1c0-5.4,0.1-10.8-0.1-16.2
					c-0.1-1.8,0.3-2.4,2.1-2.1c0.8,0.1,1.7,0,2.6,0c436.8,0,873.7,0,1310.5-0.1c3.9,0,5.1,0.8,4.7,4.7
					C1365.6,9.2,1365.9,13.8,1365.9,18.3"/>
			</g>
		</g>
	</g>
</g>
</svg>
