<?xml version="1.0" encoding="UTF-8" standalone="no"?>
<svg width="76px" height="46px" viewBox="0 0 76 46" version="1.1" xmlns="http://www.w3.org/2000/svg" xmlns:xlink="http://www.w3.org/1999/xlink">
    <!-- Generator: Sketch 41.1 (35376) - http://www.bohemiancoding.com/sketch -->
    <title>Hat</title>
    <desc>Created with Sketch.</desc>
    <defs>
        <polygon id="path-1" points="75.9591349 44.6433821 75.9591349 0.118476744 7.53968243e-06 0.118476744 7.53968243e-06 44.6433821 75.9591349 44.6433821"></polygon>
    </defs>
    <g id="Styles" stroke="none" stroke-width="1" fill="none" fill-rule="evenodd">
        <g transform="translate(-329.000000, -2929.000000)" id="Hat">
            <g transform="translate(329.000000, 2929.000000)">
                <path d="M5.90925635,35.0475681 C5.84984365,41.9692691 4.72145476,44.6777674 4.72145476,44.6777674 L11.2542881,45.8815615 C11.2542881,45.8815615 7.69088333,41.3672957 7.69088333,35.0475681 L5.90925635,35.0475681 Z" id="Fill-1" fill="#2B414D"></path>
                <g id="Group-5" transform="translate(0.000000, 0.034385)">
                    <mask id="mask-2" fill="white">
                        <use xlink:href="#path-1"></use>
                    </mask>
                    <g id="Clip-4"></g>
                    <path d="M39.9394778,0.524797342 C38.8705016,-0.0169634551 37.0887238,-0.0169634551 36.0197476,0.524797342 L0.801739683,17.4379734 C-0.267236508,17.9795814 -0.267236508,18.9426777 0.801739683,19.4842857 L5.90927143,21.9371096 L5.90927143,33.8093887 L7.69089841,33.8093887 L7.69089841,22.7927708 L22.326327,29.8212957 C19.4885413,31.3886578 17.7871365,33.3865249 17.7871365,35.5547907 C17.7871365,40.5504518 26.8143984,44.6433821 37.9796127,44.6433821 C49.144827,44.6433821 58.1720889,40.5504518 58.1720889,35.5547907 C58.1720889,33.3865249 56.4708349,31.3886578 53.6328984,29.8212957 L75.1574857,19.4844385 C76.2264619,18.9426777 76.2264619,17.9797342 75.1574857,17.4379734 L39.9394778,0.524797342 Z" id="Fill-3" fill="#5F6060" mask="url(#mask-2)"></path>
                </g>
                <path d="M56.390296,21.7457741 C56.390296,17.4723588 48.1945103,13.981402 38.0390103,13.981402 C27.9427722,13.981402 19.7469865,17.4121462 19.6877246,21.6855615 C19.6877246,21.6855615 17.7278595,35.6493887 17.7872722,35.6493887 C17.7872722,31.5564585 26.2799706,26.5607973 38.0391611,26.5607973 C48.9668754,26.5607973 57.1032484,31.7370963 58.1722246,35.5891761 C58.171923,35.5891761 56.390296,21.7457741 56.390296,21.7457741" id="Fill-6" fill="#2A2A2A"></path>
                <path d="M39.1673992,13.9812492 L39.1673992,26.62101 C49.5011373,26.9821329 57.1030976,31.9175814 58.1720738,35.6493887 L56.3904468,21.7457741 C56.390296,17.5926312 48.7884865,14.2823123 39.1673992,13.9812492" id="Fill-8" fill="#3D3D3D"></path>
                <path d="M6.79999444,32.0380066 C8.58162143,32.0380066 10.0664865,33.542711 10.0664865,35.3484784 C10.0664865,37.154093 8.58177222,38.6589502 6.79999444,38.6589502 C5.01821667,38.6589502 3.53350238,37.2144585 3.53350238,35.3484784 C3.53365317,33.542711 5.01836746,32.0380066 6.79999444,32.0380066" id="Fill-10" fill="#3D3D3D"></path>
            </g>
        </g>
    </g>
</svg>