<?xml version="1.0" encoding="UTF-8" standalone="no"?>
<svg width="179px" height="106px" viewBox="0 0 179 106" version="1.1" xmlns="http://www.w3.org/2000/svg" xmlns:xlink="http://www.w3.org/1999/xlink">
    <!-- Generator: Sketch 41.1 (35376) - http://www.bohemiancoding.com/sketch -->
    <title>Icon 3</title>
    <desc>Created with Sketch.</desc>
    <defs></defs>
    <g id="Styles" stroke="none" stroke-width="1" fill="none" fill-rule="evenodd">
        <g transform="translate(-895.000000, -2699.000000)" id="Icon-3">
            <g transform="translate(895.000000, 2699.000000)">
                <ellipse id="Oval-1" fill="#268894" opacity="0.18" cx="87.5" cy="89" rx="87.5" ry="17"></ellipse>
                <path d="M99,28.2086738 C100.685439,26.0889917 102.887445,25.0778537 105.171775,25.2500425 C107.523347,25.4266303 108.847441,23.9636538 110.656052,23.2447341 C114.787955,21.602656 117.471964,18.915505 119.704134,15.2033906 C120.993037,13.0591999 123.560158,11.9827056 126.154931,11.7256792 C127.832829,11.5591462 128.37139,10.7535036 128.724566,9.19563471 C129.946855,3.80687881 133.995178,0.385725785 139.277101,0.0250090634 C144.293829,-0.316854868 148.98943,2.87115198 150.732685,8.05315562 C151.266848,9.63993214 152.017817,10.3161189 153.660523,10.7315087 C159.373547,12.1737472 163.220773,15.8029093 164.860966,21.4939383 C165.375019,23.2799259 166.004074,23.8122031 167.895009,23.4269777 C171.505946,22.6910905 174.717205,23.863734 177.469084,26.2479836 C178.055406,26.7557521 179.038265,27.2635205 178.654924,28.2294118 C178.326257,29.0564209 177.362251,28.5957844 176.682923,28.7139286 C176.479312,28.7497489 176.265019,28.7214697 176.055753,28.7214697 C151.246738,28.7214697 126.438351,28.7246118 101.629964,28.7082727 C100.835633,28.7076443 99.9740608,28.9696981 99,28.2086738" id="Fill-5" fill="#FDFEFE"></path>
                <path d="M10,58.7087605 C17.954,59.3477605 22.354,52.0927605 30.269,51.3367605 C35.154,50.8697605 41.325,49.7257605 44.898,43.9657605 C49.292,36.8847605 59.946,37.5437605 64.055,44.8767605 C65.519,47.4907605 68.101,47.7427605 69.758,49.1477605 C75.345,53.8907605 82.105,55.3097605 88.527,57.7877605 C89.354,58.1067605 90.237,58.8637605 89.967,60.4587605 L10.559,60.4587605 C10.373,59.8757605 10.186,59.2917605 10,58.7087605" id="Fill-8" fill="#FDFDFD"></path>
                <g id="earth-globe" transform="translate(50.000000, 2.000000)">
                    <g id="Layer_1">
                        <path d="M60.7903122,68.6334493 C42.7326408,79.021588 19.6157957,72.9151325 9.21681919,55.0867563 C-1.11186625,37.25838 5.1415422,14.3060632 23.1992136,3.91792459 C24.1829319,3.35636024 24.5342089,2.02275628 23.9720586,1.04006321 C23.4099084,0.0573701386 22.0749131,-0.293540752 21.0911948,0.268023604 C0.995974123,11.8493305 -5.96016672,37.3986375 5.56311027,57.1923998 C12.729946,69.5459246 25.3072323,76.7755088 38.6573638,77.7582018 L38.6573638,83.5137464 L30.5771009,83.5137464 C28.8205375,83.5137464 27.4152511,84.9175682 27.4152511,86.6723008 C27.4152511,88.4270335 28.8205375,89.8308553 30.5771009,89.8308553 L50.9534859,89.8308553 C52.7100492,89.8308553 54.1153356,88.4270335 54.1153356,86.6723008 C54.1153356,84.9175682 52.7100492,83.5137464 50.9534859,83.5137464 L42.3110727,83.5137464 L42.8732229,83.5137464 L42.8732229,77.8984592 C49.6887816,77.7580236 56.5746314,75.9330731 62.8983309,72.2831721 C63.8818708,71.6515682 64.2333262,70.388182 63.671176,69.405489 C63.1090258,68.4227959 61.7740305,68.071885 60.7903122,68.6334493 Z" id="Shape" fill="#4D4D4D"></path>
                        <path d="M75.6692491,35.7368209 C75.6692491,54.3372367 60.5625542,69.4281872 41.9427326,69.4281872 C23.3229111,69.4281872 8.21621622,54.3374149 8.21621622,35.7368209 C8.21621622,17.1362268 23.3229111,2.04545455 41.9427326,2.04545455 C60.5625542,2.04545455 75.6692491,17.136405 75.6692491,35.7368209 Z" id="Shape" fill="#258A96"></path>
                        <path d="M67.4810567,58.1977912 C69.7997703,49.2134743 71.9076107,36.2281674 65.2326342,37.702207 C58.8386436,39.1060288 50.8987844,40.6502862 47.1046717,41.2116724 C43.3105591,41.7730585 38.7432445,37.9829001 33.6141365,35.2454743 C32.9115825,32.367613 32.8412915,30.8235338 36.8462774,27.8754545 C40.9215544,24.8573357 42.8186999,30.7533159 44.4346811,28.9985833 C47.1046717,25.769811 45.2778173,22.7516922 48.7208314,15.7325833 C52.163667,8.85390999 52.5151224,9.90682088 54.9742398,4.50218722 C51.1096577,2.95792979 46.8236858,2.04545455 42.3268408,2.04545455 C29.2578736,2.04545455 17.9452915,9.48569217 12.3243243,20.2949595 C13.2377516,22.1901278 14.5024558,24.155514 16.2590192,26.3313753 C21.6692915,32.8591377 27.3607281,35.5263456 36.2841271,41.0011971 C45.2075262,46.4058308 43.8725309,48.8625635 41.6943994,51.3191179 C39.516268,53.7758506 36.143545,64.3044248 42.5375356,67.6032367 L45.4183994,69.3579694 C54.1309253,68.515712 61.9302023,64.3746427 67.4810567,58.1977912 L67.4810567,58.1977912 Z" id="Shape" fill="#AEC225"></path>
                        <path d="M46.8611458,65.1862628 C28.2413242,65.1862628 13.1346294,50.0953123 13.1346294,31.4948965 C13.1346294,23.4230549 15.9452021,16.0530351 20.6529204,10.2272727 C13.0645167,16.4741638 8.21621622,25.8797876 8.21621622,36.4083618 C8.21621622,55.0087777 23.3229111,70.0997282 41.9427326,70.0997282 C52.4822913,70.0997282 61.9678406,65.2566589 68.1511364,57.6759856 C62.3191176,62.3786193 54.9414087,65.1862628 46.8611458,65.1862628 L46.8611458,65.1862628 Z" id="Shape" fill="#187782"></path>
                        <path d="M67.6221741,58.3075896 C62.0010285,62.5892727 54.974775,65.116045 47.3159018,65.116045 C44.5756201,65.116045 41.9056295,64.7651341 39.3760426,64.1333519 C39.8679018,65.8178668 40.9219112,67.2216886 42.6081835,68.1341638 C43.7324839,68.8359856 44.6459112,69.39755 45.4890473,69.8888965 L45.6999206,69.8888965 L46.8943337,69.7484608 L47.3861929,69.678243 L48.580606,69.4675896 L49.0021741,69.3973717 C50.3371694,69.1166787 51.6721647,68.7655896 52.9368689,68.3444608 L53.358437,68.2040252 C53.709714,68.0635896 54.060991,67.9933717 54.3421553,67.8531143 L54.9745966,67.6424608 L55.8880239,67.2213321 C56.0988971,67.1511143 56.3095919,67.0106787 56.5905778,66.9406391 L57.433714,66.5195104 L58.136268,66.1685995 L58.9091131,65.7474707 L59.7522492,65.2561242 C60.0332351,65.1156886 60.2441084,64.9754311 60.5250943,64.7647777 C60.9466624,64.4840846 61.2979393,64.2032133 61.7195074,63.9927381 L62.2816577,63.5716094 L63.1247938,62.9398272 L63.686944,62.5186985 C63.96793,62.308045 64.2490943,62.0975698 64.4597891,61.8869163 C64.6003713,61.7464806 64.8110661,61.6062232 64.9516483,61.3955698 L65.7244933,60.693748 C65.8650755,60.5533123 66.0054793,60.4130549 66.2163525,60.2726193 L67.0594886,59.4303618 L67.4107656,59.0794509 L67.4810567,59.0092331 C67.551883,58.6585005 67.6219957,58.4480252 67.6221741,58.3075896 L67.6221741,58.3075896 L67.6221741,58.3075896 Z M14.3622304,24.2653123 C15.4865309,19.0711539 17.8753572,14.2983024 21.107498,10.2272727 L21.037207,10.2974905 C20.6156389,10.6484014 20.2643619,10.9292727 19.9129065,11.2801836 L19.5616295,11.6310945 C19.2806436,11.9117876 18.9291882,12.1926589 18.6482023,12.5435698 L18.2266342,12.9646985 L17.383498,13.8069559 C17.2429159,13.9473915 17.1025121,14.087649 16.96193,14.2983024 L16.1187938,15.3512133 C15.9782116,15.491649 15.8378079,15.7021242 15.6972257,15.9127777 L15.1350755,16.6145995 L14.5729253,17.3866391 L14.010775,18.2288965 C13.8701929,18.43955 13.7297891,18.6500252 13.589207,18.9307183 L13.1676389,19.5625005 L12.5351976,20.6856292 L12.3243243,21.0365401 C12.956944,22.0192331 13.5893854,23.0719658 14.3622304,24.2653123 L14.3622304,24.2653123 Z" id="Shape" fill="#BFC302"></path>
                    </g>
                </g>
            </g>
        </g>
    </g>
</svg>