<?xml version="1.0" encoding="UTF-8" standalone="no"?>
<svg width="175px" height="173px" viewBox="0 0 175 173" version="1.1" xmlns="http://www.w3.org/2000/svg" xmlns:xlink="http://www.w3.org/1999/xlink">
    <!-- Generator: Sketch 41.1 (35376) - http://www.bohemiancoding.com/sketch -->
    <title>Icon 4</title>
    <desc>Created with Sketch.</desc>
    <defs>
        <polygon id="path-1" points="24.5119533 0.000110344827 0 0.000110344827 0 23.9656276 24.5119533 23.9656276"></polygon>
        <polygon id="path-3" points="24.5119533 0.000110344827 0 0.000110344827 0 23.9656276 24.5119533 23.9656276"></polygon>
        <polygon id="path-5" points="24.5119533 0.000110344827 0 0.000110344827 0 23.9656276 24.5119533 23.9656276"></polygon>
    </defs>
    <g id="Styles" stroke="none" stroke-width="1" fill="none" fill-rule="evenodd">
        <g transform="translate(-89.000000, -2632.000000)" id="Icon-4">
            <g transform="translate(89.000000, 2632.000000)">
                <ellipse id="Oval-1" fill="#268894" opacity="0.18" cx="87.5" cy="156" rx="87.5" ry="17"></ellipse>
                <g id="padlock" transform="translate(41.000000, 36.000000)">
                    <g id="Layer_1">
                        <path d="M6.92091244,42.8941188 L87.1057281,42.8941188 C90.8590138,42.8941188 93.9300415,45.982396 93.9300415,49.7572475 L93.9300415,102.946059 C93.9300415,106.720693 90.8592304,109.809188 87.1057281,109.809188 L6.92091244,109.809188 C3.16762673,109.809188 0.0965990783,106.720911 0.0965990783,102.946059 L0.0965990783,49.7572475 C0.0965990783,45.9826139 3.16762673,42.8941188 6.92091244,42.8941188 Z" id="Shape" fill="#FCD200"></path>
                        <path d="M6.92091244,39.4625545 L87.1057281,39.4625545 C90.8590138,39.4625545 93.9300415,42.5508317 93.9300415,46.3256832 L93.9300415,49.7572475 C93.9300415,53.5318812 90.8592304,56.6203762 87.1057281,56.6203762 L6.92091244,56.6203762 C3.16762673,56.6203762 0.0965990783,53.532099 0.0965990783,49.7572475 L0.0965990783,46.3256832 C0.0965990783,42.5510495 3.16762673,39.4625545 6.92091244,39.4625545 Z" id="Shape" fill="#E5A300"></path>
                        <path d="M17.1571659,44.609901 C12.8920783,44.609901 9.47992166,46.1540396 9.47992166,48.0414653 C9.47992166,49.9288911 12.8920783,51.4730297 17.1571659,51.4730297 C21.4222535,51.4730297 24.8344101,49.9288911 24.8344101,48.0414653 C24.8346267,46.1540396 21.42247,44.609901 17.1571659,44.609901 Z M76.8694747,44.609901 C72.6043871,44.609901 69.1922304,46.1540396 69.1922304,48.0414653 C69.1922304,49.9288911 72.6043871,51.4730297 76.8694747,51.4730297 C81.1345622,51.4730297 84.5467189,49.9288911 84.5467189,48.0414653 C84.5467189,46.1540396 81.1345622,44.609901 76.8694747,44.609901 Z M47.0134286,70.3464158 C54.0935346,70.3464158 59.8089078,76.094297 59.8089078,83.2146733 C59.8089078,90.3350495 54.0935346,96.0829307 47.0134286,96.0829307 C39.9333226,96.0829307 34.2179493,90.3350495 34.2179493,83.2146733 C34.2179493,76.094297 39.933106,70.3464158 47.0134286,70.3464158 Z" id="Shape" fill="#E5A300"></path>
                        <path d="M47.0134286,73.7779802 C52.217,73.7779802 56.3967512,77.981505 56.3967512,83.2146733 C56.3967512,88.4478416 52.217,92.6513663 47.0134286,92.6513663 C41.8098571,92.6513663 37.630106,88.4478416 37.630106,83.2146733 C37.6298894,77.981505 41.8098571,73.7779802 47.0134286,73.7779802 Z" id="Shape" fill="#E4E7E7"></path>
                        <path d="M47.0134286,78.9251089 C47.9516959,78.9251089 48.7195069,79.6972871 48.7195069,80.6408911 L48.7195069,85.7882376 C48.7195069,86.7318416 47.9516959,87.5040198 47.0134286,87.5040198 C46.0751613,87.5040198 45.3073502,86.7318416 45.3073502,85.7882376 L45.3073502,80.6408911 C45.3073502,79.6972871 46.0749447,78.9251089 47.0134286,78.9251089 Z" id="Shape" fill="#232E5D"></path>
                        <path d="M47.0134286,0 C27.2229631,0 11.186,16.1281782 11.186,36.0309901 L11.186,46.3256832 C11.186,48.2131089 13.8303456,49.7572475 17.1571659,49.7572475 C20.4839862,49.7572475 23.1283318,48.2131089 23.1283318,46.3256832 L23.1283318,36.0309901 C23.1283318,22.7338416 33.7912673,12.0102574 47.013212,12.0102574 C60.2351567,12.0102574 70.8980922,22.7338416 70.8980922,36.0309901 L70.8980922,46.3256832 C70.8980922,48.2131089 73.5424378,49.7572475 76.8692581,49.7572475 C80.1960783,49.7572475 82.840424,48.2131089 82.840424,46.3256832 L82.840424,36.0309901 C82.8406406,16.1281782 66.8036774,0 47.0134286,0 Z" id="Shape" fill="#E4E7E7"></path>
                        <path d="M47.0134286,6.86312871 C30.9764654,6.86312871 18.0103134,19.9030297 18.0103134,36.0312079 L18.0103134,49.7572475 C20.9106682,49.4997822 23.1285484,48.1272871 23.1285484,46.3256832 L23.1285484,36.0309901 C23.1285484,22.7338416 33.7914839,12.0102574 47.0134286,12.0102574 C60.2353733,12.0102574 70.8983088,22.7338416 70.8983088,36.0309901 L70.8983088,46.3256832 C70.8983088,48.0414653 73.1161889,49.4997822 76.0165438,49.7572475 L76.0165438,36.0312079 C76.0163272,19.9028119 63.0503917,6.86312871 47.0134286,6.86312871 Z" id="Shape" fill="#CDCFCF"></path>
                    </g>
                </g>
                <g id="Star" transform="translate(109.000000, 13.000000)">
                    <mask id="mask-2" fill="white">
                        <use xlink:href="#path-1"></use>
                    </mask>
                    <g id="Clip-2"></g>
                    <path d="M11.3533485,19.4657655 C9.18528018,20.9303172 7.04160795,22.4359724 4.91543725,23.9656276 C5.35774864,21.0036966 5.91832794,18.0152828 6.11986071,15.0293517 C6.16414488,14.9689379 6.17634292,14.8773517 6.11800449,14.8133517 C4.21882332,12.7330759 2.06799137,10.8839724 -0.000106069878,8.9830069 C2.66967276,8.5145931 5.34051228,8.05445517 8.01002593,7.58548966 C8.07605443,7.63293793 8.17469942,7.63266207 8.23754582,7.54024828 C9.8463607,5.17942069 11.159771,2.56728276 12.4471941,0.000110344827 C13.7319655,2.34548966 14.9347979,4.76893793 16.340489,7.03293793 C16.3792045,7.09528276 16.4287921,7.13169655 16.4810316,7.14907586 C16.499859,7.17445517 16.5239899,7.19597241 16.5579322,7.20617931 C19.1412641,7.97252414 21.8540012,8.36893793 24.5121124,8.78962759 C22.6421004,10.9570759 20.7407979,13.0950069 18.8896133,15.2806621 C18.8490416,15.3283862 18.8275624,15.3799724 18.8188117,15.4312828 C18.7124766,15.4950069 18.6390232,15.6161103 18.6756173,15.774731 C19.2571454,18.2839724 19.6586199,20.8403862 19.9227339,23.406731 C17.2187476,22.0773517 14.540218,20.6864552 11.8054713,19.4260414 C11.7410339,19.3962483 11.6805741,19.4094897 11.6346988,19.4420414 C11.5543509,19.3995586 11.4554407,19.3968 11.3533485,19.4657655" id="Fill-1" stroke="#FCD200" fill="#FCD200" mask="url(#mask-2)"></path>
                </g>
                <g id="Star" transform="translate(55.500000, 27.000000) scale(-1, 1) translate(-55.500000, -27.000000) translate(43.000000, 15.000000)">
                    <mask id="mask-4" fill="white">
                        <use xlink:href="#path-3"></use>
                    </mask>
                    <g id="Clip-2"></g>
                    <path d="M11.3533485,19.4657655 C9.18528018,20.9303172 7.04160795,22.4359724 4.91543725,23.9656276 C5.35774864,21.0036966 5.91832794,18.0152828 6.11986071,15.0293517 C6.16414488,14.9689379 6.17634292,14.8773517 6.11800449,14.8133517 C4.21882332,12.7330759 2.06799137,10.8839724 -0.000106069878,8.9830069 C2.66967276,8.5145931 5.34051228,8.05445517 8.01002593,7.58548966 C8.07605443,7.63293793 8.17469942,7.63266207 8.23754582,7.54024828 C9.8463607,5.17942069 11.159771,2.56728276 12.4471941,0.000110344827 C13.7319655,2.34548966 14.9347979,4.76893793 16.340489,7.03293793 C16.3792045,7.09528276 16.4287921,7.13169655 16.4810316,7.14907586 C16.499859,7.17445517 16.5239899,7.19597241 16.5579322,7.20617931 C19.1412641,7.97252414 21.8540012,8.36893793 24.5121124,8.78962759 C22.6421004,10.9570759 20.7407979,13.0950069 18.8896133,15.2806621 C18.8490416,15.3283862 18.8275624,15.3799724 18.8188117,15.4312828 C18.7124766,15.4950069 18.6390232,15.6161103 18.6756173,15.774731 C19.2571454,18.2839724 19.6586199,20.8403862 19.9227339,23.406731 C17.2187476,22.0773517 14.540218,20.6864552 11.8054713,19.4260414 C11.7410339,19.3962483 11.6805741,19.4094897 11.6346988,19.4420414 C11.5543509,19.3995586 11.4554407,19.3968 11.3533485,19.4657655" id="Fill-1" stroke="#FCD200" fill="#FCD200" mask="url(#mask-4)"></path>
                </g>
                <g id="Star" transform="translate(87.500000, 12.000000) scale(-1, 1) translate(-87.500000, -12.000000) translate(75.000000, 0.000000)">
                    <mask id="mask-6" fill="white">
                        <use xlink:href="#path-5"></use>
                    </mask>
                    <g id="Clip-2"></g>
                    <path d="M11.3533485,19.4657655 C9.18528018,20.9303172 7.04160795,22.4359724 4.91543725,23.9656276 C5.35774864,21.0036966 5.91832794,18.0152828 6.11986071,15.0293517 C6.16414488,14.9689379 6.17634292,14.8773517 6.11800449,14.8133517 C4.21882332,12.7330759 2.06799137,10.8839724 -0.000106069878,8.9830069 C2.66967276,8.5145931 5.34051228,8.05445517 8.01002593,7.58548966 C8.07605443,7.63293793 8.17469942,7.63266207 8.23754582,7.54024828 C9.8463607,5.17942069 11.159771,2.56728276 12.4471941,0.000110344827 C13.7319655,2.34548966 14.9347979,4.76893793 16.340489,7.03293793 C16.3792045,7.09528276 16.4287921,7.13169655 16.4810316,7.14907586 C16.499859,7.17445517 16.5239899,7.19597241 16.5579322,7.20617931 C19.1412641,7.97252414 21.8540012,8.36893793 24.5121124,8.78962759 C22.6421004,10.9570759 20.7407979,13.0950069 18.8896133,15.2806621 C18.8490416,15.3283862 18.8275624,15.3799724 18.8188117,15.4312828 C18.7124766,15.4950069 18.6390232,15.6161103 18.6756173,15.774731 C19.2571454,18.2839724 19.6586199,20.8403862 19.9227339,23.406731 C17.2187476,22.0773517 14.540218,20.6864552 11.8054713,19.4260414 C11.7410339,19.3962483 11.6805741,19.4094897 11.6346988,19.4420414 C11.5543509,19.3995586 11.4554407,19.3968 11.3533485,19.4657655" id="Fill-1" stroke="#FCD200" fill="#FCD200" mask="url(#mask-6)"></path>
                </g>
            </g>
        </g>
    </g>
</svg>