<?xml version="1.0" encoding="UTF-8" standalone="no"?>
<svg width="177px" height="125px" viewBox="0 0 177 125" version="1.1" xmlns="http://www.w3.org/2000/svg" xmlns:xlink="http://www.w3.org/1999/xlink">
    <!-- Generator: Sketch 41.1 (35376) - http://www.bohemiancoding.com/sketch -->
    <title>Icon 5</title>
    <desc>Created with Sketch.</desc>
    <defs>
        <polygon id="path-1" points="40.1996033 0.000179310344 0 0.000179310344 0 38.9441448 40.1996033 38.9441448"></polygon>
        <polygon id="path-3" points="24.5119533 0.000110344827 0 0.000110344827 0 23.9656276 24.5119533 23.9656276"></polygon>
        <polygon id="path-5" points="40.1996033 0.000179310344 0 0.000179310344 0 38.9441448 40.1996033 38.9441448"></polygon>
    </defs>
    <g id="Styles" stroke="none" stroke-width="1" fill="none" fill-rule="evenodd">
        <g transform="translate(-289.000000, -2680.000000)" id="Icon-5">
            <g transform="translate(289.000000, 2680.000000)">
                <g id="cup" transform="translate(15.000000, 2.000000)">
                    <g id="Layer_1">
                        <path d="M92.9838059,11.3794156 L83.2123376,11.3794156 L83.2123376,8.12830143 C83.2125443,3.65768405 79.5482954,0 75.069654,0 L22.9557764,0 C18.477135,0 14.8128861,3.65768405 14.8128861,8.12830143 L14.8128861,11.379622 L5.04162447,11.379622 C2.35448101,11.379622 0.155890295,13.5742737 0.155890295,16.2566029 L0.155890295,26.0105646 C0.155890295,29.1805712 2.11010127,32.8382552 5.04162447,35.7645263 L15.8716582,44.1365633 C19.2917342,57.3855811 30.3659409,67.6272202 44.1272911,69.57793 L44.1272911,78.031281 L40.870135,78.031281 C38.1829916,78.031281 35.9844008,80.2259327 35.9844008,82.9082618 L35.9844008,84.5339221 L34.3558228,84.5339221 C31.6686793,84.5339221 29.4700886,86.7285738 29.4700886,89.410903 L29.4700886,91.0365633 L68.5555485,91.0365633 L68.5555485,89.410903 C68.5555485,86.7285738 66.3569578,84.5339221 63.6698143,84.5339221 L62.0412363,84.5339221 L62.0412363,82.9082618 C62.0412363,80.2259327 59.8426456,78.031281 57.1555021,78.031281 L53.898346,78.031281 L53.898346,69.57793 C67.6596962,67.6272202 78.733903,57.3855811 82.1539789,44.1365633 L92.9840127,35.7645263 C95.9153291,32.8384616 97.8697468,29.1805712 97.8697468,26.0105646 L97.8697468,16.2563965 C97.8695401,13.5740673 95.6709494,11.3794156 92.9838059,11.3794156 L92.9838059,11.3794156 Z M8.29857384,32.1064295 C6.01852321,29.7491498 5.04141772,27.3920766 5.04141772,26.0103582 L5.04141772,16.2563965 L14.8128861,16.2563965 L14.8128861,37.1458319 L8.29857384,32.1064295 L8.29857384,32.1064295 Z M92.9838059,26.0103582 C92.9838059,27.3920766 92.0067004,29.7493562 89.7266498,32.1064295 L83.1308776,37.1458319 L83.1308776,16.2563965 L92.902346,16.2563965 L92.902346,26.0103582 L92.9838059,26.0103582 L92.9838059,26.0103582 Z" id="Shape" fill="#FCD200"></path>
                        <path d="M19.6986203,91.0361505 L78.3268101,91.0361505 C81.0139536,91.0361505 83.2125443,93.2308022 83.2125443,95.9131314 L83.2125443,99.1644519 C83.2125443,101.846781 81.0139536,104.041433 78.3268101,104.041433 L19.6986203,104.041433 C17.0114768,104.041433 14.8128861,101.846781 14.8128861,99.1644519 L14.8128861,95.9131314 C14.8128861,93.2308022 17.0114768,91.0361505 19.6986203,91.0361505 L19.6986203,91.0361505 Z" id="Shape" fill="#E4E7E7"></path>
                        <path d="M60.4126582,21.7836827 L54.7941983,27.6360185 C54.7941983,27.6360185 49.0942785,21.1333773 49.0128186,21.1333773 C48.9313586,21.1333773 43.3128987,27.6360185 43.3128987,27.6360185 L37.6944388,21.8649967 C36.8802532,20.8083278 36.0658608,20.8896418 36.0658608,21.7836827 L37.6944388,35.6830059 C37.6944388,36.5770469 38.4273713,37.3086662 39.3230169,37.3086662 L58.8657468,37.3086662 C59.7613924,37.3086662 60.4943249,36.5770469 60.4943249,35.6830059 L62.122903,21.8649967 C62.0412363,20.4830719 60.9826709,21.2146913 60.4126582,21.7836827 L60.4126582,21.7836827 Z M58.7840802,40.6410944 L39.2413502,40.6410944 C38.3457046,40.6410944 37.6127722,41.3727138 37.6127722,42.2667547 C37.6127722,43.1607956 38.3457046,43.892415 39.2413502,43.892415 L58.7840802,43.892415 C59.6797257,43.892415 60.4126582,43.1607956 60.4126582,42.2667547 C60.4126582,41.3727138 59.6797257,40.6410944 58.7840802,40.6410944 L58.7840802,40.6410944 Z" id="Shape" fill="#E5A300"></path>
                        <path d="M36.2285738,81.2821888 C36.065654,81.7698662 35.9841941,82.3388576 35.9841941,82.9078491 L35.9841941,84.5335094 L62.0412363,84.5335094 L62.0412363,82.9078491 C62.0412363,82.3388576 61.9597764,81.7698662 61.7968565,81.2821888 L36.2285738,81.2821888 L36.2285738,81.2821888 Z M29.7142616,87.7848299 C29.5513418,88.2725074 29.4698819,88.8414988 29.4698819,89.4104902 L29.4698819,91.0361505 L68.5553418,91.0361505 L68.5553418,89.4104902 C68.5553418,88.8414988 68.4738819,88.2725074 68.310962,87.7848299 C68.3111688,87.7848299 29.7142616,87.7848299 29.7142616,87.7848299 L29.7142616,87.7848299 Z" id="Shape" fill="#E3BD59"></path>
                        <path d="M14.8128861,99.1642455 C14.8128861,101.846575 17.0114768,104.041226 19.6986203,104.041226 L78.3268101,104.041226 C81.0139536,104.041226 83.2125443,101.846575 83.2125443,99.1642455 L83.2125443,97.5385853 L14.8128861,97.5385853 L14.8128861,99.1642455 L14.8128861,99.1642455 Z" id="Shape" fill="#D2D5D5"></path>
                        <path d="M22.9557764,35.520378 L22.9557764,8.12830143 C22.9557764,3.65768405 26.6200253,0 31.0984599,0 L22.9555696,0 C18.4769283,0 14.8126793,3.65768405 14.8126793,8.12830143 L14.8126793,35.520378 C14.8126793,54.5404176 30.1211477,69.9027732 49.0124051,69.9027732 C50.3966034,69.9027732 51.7810084,69.8214592 53.0837468,69.6588312 C36.065654,67.6268075 22.9557764,53.1584928 22.9557764,35.520378 L22.9557764,35.520378 Z" id="Shape" fill="#E5A300"></path>
                    </g>
                </g>
                <ellipse id="Oval-1" fill="#268894" opacity="0.18" cx="87.5" cy="108" rx="87.5" ry="17"></ellipse>
                <path d="M174.57178,45.5828351 L171.138484,43.2966235 C167.911467,41.1432387 166.677464,36.5304167 168.399315,33.0506007 L170.222775,29.3528753 C171.944626,25.8718351 170.175643,22.8168199 166.300407,22.5652448 L162.198081,22.2971429 C158.322845,22.0535252 154.947087,18.6704217 154.69796,14.7988586 L154.429858,10.6910231 C154.183792,6.81945999 151.126941,5.05598595 147.6459,6.77477633 L143.951848,8.59456401 C140.47142,10.3164149 135.858598,9.08302367 133.705825,5.85233435 L131.423286,2.42577147 C129.267453,-0.808590489 125.742953,-0.808590489 123.586508,2.42577147 L121.303969,5.85600697 C119.147523,9.09036893 114.538374,10.3243723 111.054273,8.59823664 L107.356548,6.77477633 C103.879793,5.05292543 100.822329,6.82007209 100.576263,10.6910231 L100.311833,14.8062039 C100.058422,18.6814396 96.6832759,22.0608704 92.8080402,22.3044882 L88.690411,22.5652448 C84.8121147,22.8168199 83.0572102,25.8718351 84.7723279,29.3528753 L86.5994609,33.0487644 C88.3213118,36.5273561 87.0842479,41.1438508 83.8572312,43.2972356 L80.4202625,45.5828351 C77.1932458,47.7319352 77.1932458,51.2588832 80.4202625,53.4085954 L83.8572312,55.6984796 C87.0915931,57.8512523 88.3255965,62.4646865 86.6068061,65.9481751 L84.7760005,69.6459004 C83.0572102,73.1226559 84.81946,76.1801196 88.690411,76.433531 L92.8221186,76.6863303 C96.6930696,76.9397417 100.068828,80.3191725 100.318567,84.1907356 L100.578711,88.2967348 C100.82845,92.1756432 103.885301,93.9372809 107.362669,92.2148179 L111.046316,90.3987028 C114.534089,88.6731793 119.146911,89.9059584 121.296011,93.1409325 L123.585896,96.5742285 C125.742341,99.8085905 129.266229,99.8085905 131.422674,96.5742285 L133.708885,93.1409325 C135.865331,89.9059584 140.475092,88.6725672 143.95552,90.3987028 L147.652634,92.2221631 C151.133674,93.944014 154.186853,92.1793158 154.432919,88.3040801 L154.701021,84.1907356 C154.954432,80.3191725 158.329578,76.9397417 162.204814,76.6863303 L166.303468,76.433531 C170.178704,76.1801196 171.940341,73.1226559 170.225836,69.6459004 L168.398703,65.9481751 C166.676852,62.467747 167.910243,57.8506402 171.137872,55.6984796 L174.571168,53.4085954 C177.798797,51.2588832 177.798797,47.7313231 174.57178,45.5828351 Z" id="Shape" fill="#CF1518"></path>
                <g id="Star" transform="translate(95.000000, 37.000000)">
                    <mask id="mask-2" fill="white">
                        <use xlink:href="#path-1"></use>
                    </mask>
                    <g id="Clip-2"></g>
                    <path d="M18.6194915,31.631869 C15.0638595,34.0117655 11.548237,36.4584552 8.06131708,38.9441448 C8.78670777,34.1310069 9.70605783,29.2748345 10.0365716,24.4226966 C10.1091976,24.3245241 10.1292024,24.1756966 10.0335274,24.0716966 C6.91887025,20.6912483 3.39150585,17.6864552 -0.000173954599,14.5973862 C4.37826332,13.8362138 8.75844014,13.0884897 13.1364425,12.3264207 C13.2447293,12.4035241 13.406507,12.4030759 13.5095751,12.2529034 C16.1480315,8.41655862 18.3020244,4.17183448 20.4133983,0.000179310344 C22.5204234,3.81142069 24.4930686,7.74952414 26.7984019,11.4285241 C26.8618953,11.5298345 26.9432191,11.5890069 27.0288918,11.6172483 C27.0597687,11.6584897 27.0993434,11.6934552 27.1550088,11.7100414 C31.3916731,12.9553517 35.840562,13.5995241 40.1998643,14.2831448 C37.1330447,17.8052483 34.0149085,21.2793862 30.9789658,24.8310759 C30.9124282,24.9086276 30.8772024,24.9924552 30.8628511,25.0758345 C30.6884616,25.1793862 30.5679981,25.3761793 30.6280124,25.6339379 C31.5817185,29.7114552 32.2401367,33.8656276 32.6732836,38.0359379 C28.238746,35.8756966 23.8459575,33.6154897 19.360973,31.5673172 C19.2552956,31.5189034 19.1561415,31.5404207 19.0809061,31.5933172 C18.9491355,31.5242828 18.7869228,31.5198 18.6194915,31.631869" id="Fill-1" stroke="#FCD200" fill="#FCD200" mask="url(#mask-2)"></path>
                </g>
                <g id="Star" transform="translate(136.000000, 25.000000)">
                    <mask id="mask-4" fill="white">
                        <use xlink:href="#path-3"></use>
                    </mask>
                    <g id="Clip-2"></g>
                    <path d="M11.3533485,19.4657655 C9.18528018,20.9303172 7.04160795,22.4359724 4.91543725,23.9656276 C5.35774864,21.0036966 5.91832794,18.0152828 6.11986071,15.0293517 C6.16414488,14.9689379 6.17634292,14.8773517 6.11800449,14.8133517 C4.21882332,12.7330759 2.06799137,10.8839724 -0.000106069878,8.9830069 C2.66967276,8.5145931 5.34051228,8.05445517 8.01002593,7.58548966 C8.07605443,7.63293793 8.17469942,7.63266207 8.23754582,7.54024828 C9.8463607,5.17942069 11.159771,2.56728276 12.4471941,0.000110344827 C13.7319655,2.34548966 14.9347979,4.76893793 16.340489,7.03293793 C16.3792045,7.09528276 16.4287921,7.13169655 16.4810316,7.14907586 C16.499859,7.17445517 16.5239899,7.19597241 16.5579322,7.20617931 C19.1412641,7.97252414 21.8540012,8.36893793 24.5121124,8.78962759 C22.6421004,10.9570759 20.7407979,13.0950069 18.8896133,15.2806621 C18.8490416,15.3283862 18.8275624,15.3799724 18.8188117,15.4312828 C18.7124766,15.4950069 18.6390232,15.6161103 18.6756173,15.774731 C19.2571454,18.2839724 19.6586199,20.8403862 19.9227339,23.406731 C17.2187476,22.0773517 14.540218,20.6864552 11.8054713,19.4260414 C11.7410339,19.3962483 11.6805741,19.4094897 11.6346988,19.4420414 C11.5543509,19.3995586 11.4554407,19.3968 11.3533485,19.4657655" id="Fill-1" stroke="#FCD200" fill="#FCD200" mask="url(#mask-4)"></path>
                </g>
                <g id="Star" transform="translate(95.000000, 37.000000)">
                    <mask id="mask-6" fill="white">
                        <use xlink:href="#path-5"></use>
                    </mask>
                    <g id="Clip-2"></g>
                </g>
            </g>
        </g>
    </g>
</svg>