<?xml version="1.0" encoding="UTF-8" standalone="no"?>
<svg width="175px" height="153px" viewBox="0 0 175 153" version="1.1" xmlns="http://www.w3.org/2000/svg" xmlns:xlink="http://www.w3.org/1999/xlink">
    <!-- Generator: Sketch 41.1 (35376) - http://www.bohemiancoding.com/sketch -->
    <title>Icon 1</title>
    <desc>Created with Sketch.</desc>
    <defs>
        <polygon id="path-1" points="0.170919835 82.18405 55.4145822 82.18405 55.4145822 0.183507754 0.170919835 0.183507754 0.170919835 82.18405"></polygon>
        <path d="M7.38146465,0.473307548 C6.86424242,2.22938813 5.33944444,5.99676068 1.67858586,6.56833521 L1.67858586,6.56833521 C-3.1210101,7.3173559 4.97848485,11.6813999 4.97848485,11.6813999 L4.97848485,11.6813999 C4.97848485,11.6813999 11.580404,7.11658018 8.13484848,0.484972334 L8.13484848,0.484972334 C8.05176768,0.324846629 7.88242424,0.244253559 7.7240404,0.244253559 L7.7240404,0.244253559 C7.57025253,0.244253559 7.42671717,0.319897932 7.38146465,0.473307548 L7.38146465,0.473307548 Z" id="path-3"></path>
        <path d="M1.46646465,0.452805802 C-2.3619697,6.88681923 3.82984848,11.8015826 3.88818182,11.8478883 L3.88818182,11.8478883 L3.89383838,11.8454139 C4.09111111,11.7517421 9.45318182,9.1808939 8.90272727,7.69699167 L8.90272727,7.69699167 L8.89813131,7.68461993 C8.76767677,7.35447113 8.34060606,7.07946495 7.49318182,6.89848402 L7.49318182,6.89848402 C3.89242424,6.12931507 2.61757576,2.26968466 2.21560606,0.48143755 L2.21560606,0.48143755 C2.17848485,0.316716626 2.02717172,0.232588772 1.86489899,0.232588772 L1.86489899,0.232588772 C1.71429293,0.232588772 1.55449495,0.30505184 1.46646465,0.452805802 L1.46646465,0.452805802 Z" id="path-5"></path>
        <path d="M20.6690909,0.060798281 C17.7580808,0.274299221 16.2032323,1.96286543 15.3816162,3.51710986 L15.3816162,3.51710986 C14.6176263,3.01764491 13.1242929,2.3573473 11.6157576,3.4739855 L11.6157576,3.4739855 C10.1121717,4.58708891 10.1779293,6.13072898 10.3914646,7.04305667 L10.3914646,7.04305667 C6.38060606,9.58491969 1.05,15.2494107 0.499191919,27.5200591 L0.499191919,27.5200591 C0.231919192,33.4687467 0.345050505,38.3297814 0.648383838,42.503654 L0.648383838,42.503654 C3.97090909,44.0868837 11.380303,46.9415751 21.6077273,46.9415751 L21.6077273,46.9415751 C29.6778788,46.9415751 36.115404,45.2233167 40.1577273,43.7468375 L40.1577273,43.7468375 C41.3940404,35.9688993 42.1131313,29.7010207 42.1131313,29.7010207 L42.1131313,29.7010207 C42.8481313,15.6778265 37.4549495,9.77509106 33.6883838,7.37921461 L33.6883838,7.37921461 C33.7364646,6.21308944 33.5109091,3.78504647 30.9636869,2.83913833 L30.9636869,2.83913833 C29.0644949,2.13324201 27.5930808,2.77021005 26.6311111,3.52170508 L26.6311111,3.52170508 C25.800303,1.9992737 24.154596,0.0417104486 21.1845455,0.0417104486 L21.1845455,0.0417104486 C21.0169697,0.0417104486 20.8455051,0.047719581 20.6690909,0.060798281 L20.6690909,0.060798281 Z" id="path-7"></path>
        <path d="M4.36510101,0.148814397 C4.29191919,0.148814397 4.21767677,0.150581789 4.14378788,0.154470051 L4.14378788,0.154470051 C1.82813131,0.274652699 0.0427777778,2.25377814 0.164040404,4.56623368 L0.164040404,4.56623368 L1.86631313,4.47751061 C1.79419192,3.10247972 2.85585859,1.92610368 4.23252525,1.85434757 L4.23252525,1.85434757 C5.60883838,1.78294494 6.78752525,2.84302659 6.85964646,4.21805748 L6.85964646,4.21805748 L8.56191919,4.12933441 C8.44489899,1.89110932 6.58459596,0.148814397 4.36580808,0.148814397 L4.36580808,0.148814397 L4.36510101,0.148814397 L4.36510101,0.148814397 Z" id="path-9"></path>
        <path d="M0.114545455,3.85786301 L1.80409091,4.08444265 C1.98792929,2.72036959 3.24863636,1.75926189 4.61505051,1.94307064 L4.61505051,1.94307064 C5.98111111,2.1268794 6.94343434,3.38596938 6.75994949,4.75004244 L6.75994949,4.75004244 L8.44949495,4.97732904 C8.75813131,2.68254741 7.13964646,0.564858447 4.8420202,0.256271824 L4.8420202,0.256271824 C4.65252525,0.230821381 4.46444444,0.218449637 4.27848485,0.218449637 L4.27848485,0.218449637 C2.20712121,0.218449637 0.397727273,1.75219232 0.114545455,3.85786301 L0.114545455,3.85786301 Z" id="path-11"></path>
        <path d="M0.273636364,1.3944722 C0.273636364,1.3944722 0.0562121212,3.29477196 1.47282828,6.23924684 L1.47282828,6.23924684 C1.67964646,6.66907655 2.90464646,6.36614558 3.00611111,5.91581413 L3.00611111,5.91581413 L3.65237374,0.0975600322 L0.273636364,1.3944722 Z" id="path-13"></path>
        <path d="M0.296969697,6.28696642 C0.341515152,6.7680505 1.57252525,7.24913457 1.84545455,6.83096965 L1.84545455,6.83096965 C3.71742424,3.96567392 3.75030303,1.96286543 3.75030303,1.96286543 L3.75030303,1.96286543 L0.417525253,0.156590921 L0.296969697,6.28696642 Z" id="path-15"></path>
        <path d="M0.350353535,0.600913242 C0.115606061,1.01589686 0.228383838,1.34498523 0.503080808,1.53657051 L0.503080808,1.53657051 C0.909292929,1.82076712 1.21510101,1.77021972 1.46080808,1.52278485 L1.46080808,1.52278485 C1.70651515,1.27499651 1.73409091,0.890412033 1.35757576,0.596318023 L1.35757576,0.596318023 C1.13414141,0.421699705 0.937222222,0.351357507 0.77530303,0.351357507 L0.77530303,0.351357507 C0.579090909,0.351004029 0.433434343,0.454573194 0.350353535,0.600913242 L0.350353535,0.600913242 Z" id="path-17"></path>
        <path d="M0.793333333,0.00565565404 C0.166515152,0.0459521891 -0.0201515152,0.378575342 0.0452525253,0.678325007 L0.0452525253,0.678325007 C0.146363636,1.14456299 0.450050505,1.31458609 0.782727273,1.27534999 L0.782727273,1.27534999 C1.27520202,1.21773301 1.46964646,0.976307279 1.4880303,0.628131077 L1.4880303,0.628131077 C1.50535354,0.296568359 1.29217172,0.0031813054 0.859444444,0.0031813054 L0.859444444,0.0031813054 C0.837878788,0.0031813054 0.815959596,0.00388826215 0.793333333,0.00565565404 L0.793333333,0.00565565404 Z" id="path-19"></path>
        <path d="M0.727575758,0.21562181 C0.204343434,0.563091056 0.209292929,0.944494225 0.41540404,1.17142734 L0.41540404,1.17142734 C0.736767677,1.52490572 1.08464646,1.52101746 1.35333333,1.32130218 L1.35333333,1.32130218 C1.75106061,1.02544077 1.79878788,0.719328499 1.64040404,0.408621005 L1.64040404,0.408621005 C1.53929293,0.209966156 1.35686869,0.0781187215 1.13449495,0.0781187215 L1.13449495,0.0781187215 C1.0089899,0.0781187215 0.871111111,0.120182648 0.727575758,0.21562181 L0.727575758,0.21562181 Z" id="path-21"></path>
        <path d="M0.0735353535,0.837036798 C-0.0243939394,1.45703787 0.259494949,1.7115423 0.566363636,1.71437013 L0.566363636,1.71437013 C1.04434343,1.71755144 1.27732323,1.45951222 1.3119697,1.12618211 L1.3119697,1.12618211 C1.36358586,0.63414021 1.17020202,0.391654042 0.834343434,0.297628794 L0.834343434,0.297628794 C0.773888889,0.280661832 0.712727273,0.271824872 0.652979798,0.271824872 L0.652979798,0.271824872 C0.380757576,0.271824872 0.13469697,0.450684932 0.0735353535,0.837036798 L0.0735353535,0.837036798 Z" id="path-23"></path>
        <path d="M0.561414141,0.219156594 C0.219191919,0.288438356 -0.018030303,0.592783239 0.131161616,1.04594252 L0.131161616,1.04594252 C0.327020202,1.64190706 0.696111111,1.73982057 0.970454545,1.60161053 L0.970454545,1.60161053 C1.39717172,1.38704915 1.48661616,1.0512447 1.36535354,0.739123288 L1.36535354,0.739123288 C1.21580808,0.354538813 0.994848485,0.201482675 0.727575758,0.201482675 L0.727575758,0.201482675 C0.673484848,0.201482675 0.618333333,0.207491808 0.561414141,0.219156594 L0.561414141,0.219156594 Z" id="path-25"></path>
        <path d="M0.662525253,0.351357507 C0.353888889,0.513957561 0.211767677,0.872738114 0.482929293,1.26580607 L0.482929293,1.26580607 C0.839646465,1.78294494 1.22111111,1.77234059 1.44525253,1.56272791 L1.44525253,1.56272791 C1.79419192,1.23682084 1.78464646,0.889351598 1.58030303,0.624242815 L1.58030303,0.624242815 C1.38444444,0.369738383 1.18646465,0.262280956 0.987424242,0.262280956 L0.987424242,0.262280956 C0.879242424,0.262280956 0.770707071,0.29409401 0.662525253,0.351357507 L0.662525253,0.351357507 Z" id="path-27"></path>
        <path d="M11.2540909,0.309647059 C10.7948485,0.492041902 10.5707071,1.01165512 10.7538384,1.47047005 L10.7538384,1.47047005 C10.7658586,1.50086919 10.9171717,1.87732366 11.2155556,2.43016385 L11.2155556,2.43016385 C11.1140909,2.72602525 10.8740404,3.31032501 10.4087879,3.87695085 L10.4087879,3.87695085 C9.56489899,4.90663336 8.38126263,5.41246092 6.89040404,5.38100134 L6.89040404,5.38100134 C4.76141414,5.33610959 2.94707071,3.88154607 1.64252525,1.17566908 L1.64252525,1.17566908 C1.46116162,0.799214612 1.00863636,0.641209777 0.632121212,0.821837228 L0.632121212,0.821837228 C0.25489899,1.00317164 0.0968686869,1.45456352 0.278585859,1.831018 L0.278585859,1.831018 C1.59833333,4.56941499 3.23272727,5.88753586 4.74161616,6.47430997 L4.74161616,6.47430997 C5.49747475,6.76840398 6.22186869,6.87904271 6.85893939,6.89247489 L6.85893939,6.89247489 C9.70171717,6.95256621 11.3661616,5.3997357 12.1849495,3.96885522 L12.1849495,3.96885522 C12.3062121,4.13463658 12.4341919,4.30289229 12.5713636,4.47150148 L12.5713636,4.47150148 C14.2096465,6.48986301 16.2216162,7.61533817 18.3916162,7.72951168 L18.3916162,7.72951168 C18.4071717,7.72986516 18.4227273,7.73057212 18.4382828,7.73127908 L18.4382828,7.73127908 C20.1755556,7.81081171 21.9220202,7.20247542 23.3570202,6.01832286 L23.3570202,6.01832286 C24.6573232,4.9451625 25.6440404,3.59063336 26.2107576,2.10213591 L26.2107576,2.10213591 C26.3864646,1.64084663 26.1538384,1.1247682 25.6917677,0.949442922 L25.6917677,0.949442922 C25.230404,0.773764169 24.7128283,1.00564598 24.5374747,1.46764222 L24.5374747,1.46764222 C24.0743434,2.68360784 23.2937374,3.75111254 22.2161616,4.64011066 L22.2161616,4.64011066 C21.1244444,5.54077357 19.8121212,6.00489068 18.520303,5.94550631 L18.520303,5.94550631 C18.5082828,5.94515283 18.4969697,5.94444588 18.485303,5.9440924 L18.485303,5.9440924 C14.4440404,5.73165189 12.4363131,0.857538544 12.4158081,0.80840505 L12.4158081,0.80840505 C12.2761616,0.459168413 11.9399495,0.246020951 11.5846465,0.246020951 L11.5846465,0.246020951 C11.474697,0.246020951 11.3626263,0.266169218 11.2540909,0.309647059 L11.2540909,0.309647059 Z" id="path-29"></path>
        <path d="M0.405151515,0.710138061 C-0.0452525253,3.38702981 2.02858586,5.59344185 5.00994949,5.71221058 L5.00994949,5.71221058 C8.68318182,5.85855063 9.11343434,1.2979726 9.11343434,1.2979726 L9.11343434,1.2979726 C7.41717172,0.482144507 5.62227273,0.243546602 4.10560606,0.243546602 L4.10560606,0.243546602 C1.9829798,0.243900081 0.405151515,0.710138061 0.405151515,0.710138061 L0.405151515,0.710138061 Z" id="path-31"></path>
        <path d="M0.337626263,1.58959226 C-0.0533838384,2.79283266 2.20712121,3.33683589 3.27055556,3.68253774 L3.27055556,3.68253774 C4.33434343,4.02823959 5.16126263,2.62280956 5.43030303,1.79602364 L5.43030303,1.79602364 C5.6989899,0.969237712 2.84949495,0.0431243621 2.84949495,0.0431243621 L2.84949495,0.0431243621 C2.84949495,0.0431243621 0.728989899,0.386351867 0.337626263,1.58959226 L0.337626263,1.58959226 Z" id="path-33"></path>
    </defs>
    <g id="Styles" stroke="none" stroke-width="1" fill="none" fill-rule="evenodd">
        <g transform="translate(-487.000000, -2648.000000)" id="Icon-1">
            <g transform="translate(487.000000, 2642.000000)">
                <ellipse id="Oval-1" fill="#268894" opacity="0.18" cx="87.5" cy="142" rx="87.5" ry="17"></ellipse>
                <g id="shopping-bag" transform="translate(27.000000, 0.000000)">
                    <g id="Layer_1">
                        <polygon id="Shape" fill="#E5A300" points="11.4631423 50.1100079 96.3347391 50.1100079 96.3347391 123.346618 11.5361502 123.346618"></polygon>
                        <g id="Page-1" transform="translate(63.000000, 49.000000) rotate(12.000000) translate(-63.000000, -49.000000) translate(26.000000, 7.000000)">
                            <path d="M54.4531673,24.3272259 C54.4531673,24.3272259 62.1645485,15.7049325 56.6848581,6.98924804 C56.4249387,6.57569087 55.7864939,6.7088554 55.7192544,7.19251073 C55.3405085,9.91798873 53.9974817,15.8881985 49.404912,17.7955716 C43.3835576,20.2962521 54.4531673,24.3272259 54.4531673,24.3272259" id="Fill-1" fill="#EDE1C6"></path>
                            <path d="M18.2127177,23.3584869 C18.2127177,23.3584869 10.5013365,14.7361935 15.9810269,6.02050905 C16.2409462,5.60695188 16.879391,5.74011641 16.9466305,6.22377174 C17.3253765,8.94924974 18.6684033,14.9194595 23.2609729,16.8268327 C29.2823273,19.3275131 18.2127177,23.3584869 18.2127177,23.3584869" id="Fill-3" fill="#EDE1C6"></path>
                            <path d="M19.5345365,28.7414543 L17.9216698,49.9126369 C17.9216698,49.9126369 14.850477,46.3426849 13.2058644,50.4415594 C11.5612518,54.5406537 17.6546958,70.1085981 14.9779014,72.1937437 C12.9895956,73.7427153 8.68119563,73.8824721 6.59743178,70.6542211 C4.61794431,67.5877013 3.38889401,58.2826649 3.38889401,58.2826649 L0.656764798,59.7999934 C0.200197413,53.3373386 2.60781326,49.188802 2.60781326,49.188802 L2.2045745e-05,49.5364361 C0.872592645,44.9042442 2.46142951,42.1836006 3.58488069,40.7539497 C4.4444443,39.6600668 5.22971375,38.5119073 5.93363439,37.3125476 C7.7632108,34.1957065 12.0358967,28.7414543 19.5345365,28.7414543" id="Fill-5" fill="#D0422A"></path>
                            <g id="Group-9" transform="translate(53.130246, 28.602906)" fill="#D0422A">
                                <path d="M0.00112433301,0.138548245 L1.61399106,21.3097309 C1.61399106,21.3097309 4.68518384,17.7397788 6.32979644,21.8386533 C7.97440904,25.9377476 1.88096503,41.505692 4.55775943,43.5908376 C6.5460652,45.1398092 10.8544652,45.279566 12.938229,42.051315 C14.9177165,38.9847952 16.1467668,29.6797588 16.1467668,29.6797588 L18.878896,31.1970874 C19.3354634,24.7344325 16.9278476,20.5858959 16.9278476,20.5858959 L19.5356388,20.9335301 C18.6630682,16.3013382 17.0742313,13.5806945 15.9507801,12.1510436 C15.0912165,11.0571607 14.3059471,9.90900123 13.6020264,8.70964148 C11.77245,5.5928004 7.49976414,0.138548245 0.00112433301,0.138548245" id="Fill-7"></path>
                            </g>
                            <g id="Group-12" transform="translate(6.200631, 0.452081)">
                                <mask id="mask-2" fill="white">
                                    <use xlink:href="#path-1"></use>
                                </mask>
                                <g id="Clip-11"></g>
                                <path d="M50.7155316,76.3127468 C50.3303924,78.2856035 49.7342755,82.184072 45.2062998,82.184072 C40.6785447,82.184072 39.1086672,78.9118723 39.1086672,76.4986497 C39.1086672,75.4950814 39.0041703,74.3001165 38.8820369,73.2460072 C38.8820369,73.2460072 32.4102879,71.9332598 27.4365473,72.2268371 C21.450907,72.5799648 17.1224454,73.2460072 17.1224454,73.2460072 C17.0005324,74.3001165 16.8960356,75.4950814 16.8960356,76.4986497 C16.8960356,78.9118723 15.326158,82.184072 10.7981824,82.184072 C6.79335232,82.184072 5.69834015,78.2807691 5.28917112,76.3127468 C3.27000131,66.6005258 0.323807907,56.3971782 0.172574094,36.9681217 C-0.025617156,11.5328174 17.6506614,7.42317543 17.6506614,7.42317543 C17.559833,5.59381122 16.0505812,3.21640684 16.0505812,3.21640684 C18.8999938,2.83976657 21.0013943,4.87942526 21.0013943,4.87942526 C21.4542139,2.43368067 20.5485746,0.183507754 20.5485746,0.183507754 C24.4385464,1.29980448 27.9546223,5.63951786 27.9546223,5.63951786 C27.9546223,5.63951786 30.4116206,1.79159032 33.5895148,1.357597 C33.5895148,1.357597 32.5463102,5.67401758 32.6419887,6.50069243 C32.6419887,6.50069243 37.0306352,2.82504376 39.5663368,3.72027857 C39.5663368,3.72027857 38.2848177,5.73268908 38.0178437,7.35527471 C38.0178437,7.35527471 55.4145822,9.77113419 55.4145822,36.9681217 C55.4145822,36.9681217 53.9472174,59.7607912 50.7155316,76.3127468" id="Fill-10" fill="#E84C0F" mask="url(#mask-2)"></path>
                            </g>
                            <path d="M27.6944164,25.9179707 C27.4095854,27.4324426 25.9252453,29.4200221 23.8011378,29.4200221 C21.6772507,29.4200221 20.0030968,28.224398 20.0030968,26.1071698 C20.0030968,23.9901615 21.6770302,21.9781904 23.8009173,21.9781904 C25.9248044,21.9781904 28.0857284,23.83722 27.6944164,25.9179707" id="Fill-13" fill="#13110D"></path>
                            <path d="M25.4785103,24.8704317 C25.4271438,25.1437926 25.159288,25.5024139 24.7759124,25.5024139 C24.3927574,25.5024139 24.0905102,25.2866258 24.0905102,24.904492 C24.0905102,24.5225779 24.3925369,24.1595617 24.7759124,24.1595617 C25.159288,24.1595617 25.5490567,24.4948902 25.4785103,24.8704317" id="Fill-15" fill="#FEFEFE"></path>
                            <path d="M38.1710175,19.622233 C39.6507279,20.8802643 40.8976353,23.7393463 39.5678359,26.0497289 C38.2380366,28.3601115 35.6110656,28.9925332 33.5627954,28.1071868 C31.1113085,27.0473642 30.0901496,23.7011109 31.4199489,21.3907283 C32.7497483,19.0805654 36.1379589,17.893731 38.1710175,19.622233" id="Fill-17" fill="#13110D"></path>
                            <path d="M36.935133,21.3582722 C37.2133503,21.5947161 37.4479171,22.1324284 37.1976979,22.5668612 C36.9476991,23.001294 36.5045796,23.2030184 36.0687352,22.9536096 C35.6328909,22.7044206 35.4157403,22.1251768 35.665739,21.690744 C35.9157378,21.2563112 36.5528598,21.0332716 36.935133,21.3582722" id="Fill-19" fill="#FEFEFE"></path>
                            <path d="M32.1501481,17.677064 C31.8983857,19.0148621 30.5871048,20.770832 28.7107914,20.770832 C26.834478,20.770832 25.3554289,19.7145253 25.3554289,17.8442888 C25.3554289,15.9740523 26.8342575,14.1965475 28.7105709,14.1965475 C30.5868843,14.1965475 32.4958254,15.8389101 32.1501481,17.677064" id="Fill-21" fill="#13110D"></path>
                            <path d="M30.0847263,16.8878334 C30.0293915,17.1816304 29.7414741,17.5670604 29.3294391,17.5670604 C28.9176246,17.5670604 28.5926703,17.3352311 28.5926703,16.9245306 C28.5926703,16.5138301 28.9174041,16.1235657 29.3294391,16.1235657 C29.7414741,16.1235657 30.1605637,16.4841647 30.0847263,16.8878334" id="Fill-23" fill="#FEFEFE"></path>
                            <path d="M44.3189806,24.5802605 C44.0581795,26.0989075 44.7570296,28.4769711 46.7486422,29.2126722 C48.7400344,29.9483732 50.7270174,29.4071451 51.465109,27.4219828 C52.2032005,25.4368205 51.3348186,22.97042 49.3434265,22.2347189 C47.3518138,21.4990179 44.6774445,22.4935767 44.3189806,24.5802605" id="Fill-25" fill="#13110D"></path>
                            <path d="M48.9026218,24.7539897 C48.8554439,25.0291085 48.9819865,25.4600254 49.3428753,25.5931899 C49.7035437,25.7265742 50.0635507,25.6285686 50.1973684,25.2688486 C50.3309656,24.9091286 50.1737795,24.4623901 49.8128906,24.3290059 C49.4520018,24.1958413 48.9676567,24.376031 48.9026218,24.7539897" id="Fill-27" fill="#FEFEFE"></path>
                            <path d="M42.7755139,14.1257681 C41.4421872,14.4195651 39.7237214,15.7826338 39.7841267,17.6517715 C39.8447525,19.5211291 40.951449,20.9606684 42.8268805,20.9002389 C44.7023121,20.8400292 46.4368713,19.3095161 46.3762455,17.4401586 C46.3158402,15.5708011 44.6075154,13.7220994 42.7755139,14.1257681" id="Fill-29" fill="#13110D"></path>
                            <path d="M43.3038402,15.6431406 C43.0573688,15.6974172 42.73991,15.9492432 42.7511534,16.2946799 C42.7621762,16.6401166 42.9667608,16.9060062 43.3133199,16.895019 C43.659879,16.8838121 43.9804241,16.6010023 43.9691808,16.2555656 C43.9579375,15.9101289 43.6424629,15.5684278 43.3038402,15.6431406" id="Fill-31" fill="#FEFEFE"></path>
                            <path d="M53.6102041,32.7985117 L53.6099836,32.7980722 C53.4547816,32.4827404 53.1717142,32.2447582 52.8339734,32.1454342 C52.2034651,31.9582127 51.5449587,32.2783789 51.3033373,32.889046 C50.9307642,33.8330639 50.0502571,35.6945106 48.3401687,37.5526612 C45.2101138,40.9531911 40.9208936,42.6775179 35.5917755,42.6775179 C30.2708145,42.6775179 26.0404564,40.9584649 23.0186461,37.568263 C21.3702857,35.7186824 20.5462157,33.8644872 20.2020817,32.9235457 C19.9767741,32.309143 19.3281883,31.9727158 18.687098,32.1434565 L18.415274,32.2146533 L18.415274,32.2524492 C18.1968007,32.3711107 18.0151437,32.5530583 17.8991831,32.7743399 C17.7356037,33.0854966 17.7109124,33.4531274 17.8308413,33.7831821 C18.2265624,34.8733293 19.1769545,37.0254967 21.0940525,39.1917276 C23.5157776,41.9281928 27.9967958,45.1902843 35.5917755,45.1902843 C43.1761733,45.1902843 47.7429494,41.9363233 50.2380869,39.2068899 C52.2160312,37.0432959 53.2261672,34.8953037 53.652091,33.8075736 C53.7799563,33.4810348 53.7645243,33.1136238 53.6102041,32.7985117" id="Fill-33" fill="#D0422A"></path>
                        </g>
                        <g id="Page-1" transform="translate(33.500000, 55.500000) rotate(-14.000000) translate(-33.500000, -55.500000) translate(5.000000, 32.000000)">
                            <g id="Group-6" transform="translate(44.925810, 4.595219)">
                                <mask id="mask-4" fill="white">
                                    <use xlink:href="#path-3"></use>
                                </mask>
                                <g id="Clip-5"></g>
                                <polygon id="Fill-4" fill="#EDE0C6" mask="url(#mask-4)" points="2.75025758 -3.70911931 13.164702 0.497980338 7.46889394 14.5932841 -2.94555051 10.386538"></polygon>
                            </g>
                            <g id="Group-9" transform="translate(16.996517, 3.181305)">
                                <mask id="mask-6" fill="white">
                                    <use xlink:href="#path-5"></use>
                                </mask>
                                <g id="Clip-8"></g>
                                <polygon id="Fill-7" fill="#EDE0C6" mask="url(#mask-6)" points="-3.83762626 0.493632554 6.50646465 -3.47628311 11.9314646 10.654015 1.58737374 14.6242842"></polygon>
                            </g>
                            <g id="Group-12" transform="translate(13.461163, -0.000000)">
                                <mask id="mask-8" fill="white">
                                    <use xlink:href="#path-7"></use>
                                </mask>
                                <g id="Clip-11"></g>
                                <polygon id="Fill-10" fill="#4F2A72" mask="url(#mask-8)" points="0.318676768 -2.83058415 45.4644343 -0.465106849 41.931202 66.9460476 -3.21455556 64.5805703"></polygon>
                            </g>
                            <g id="Group-15" transform="translate(20.531870, 16.613484)">
                                <mask id="mask-10" fill="white">
                                    <use xlink:href="#path-9"></use>
                                </mask>
                                <g id="Clip-14"></g>
                                <polygon id="Fill-13" fill="#020303" mask="url(#mask-10)" points="-1.28934343 -1.92306377 10.6163131 -1.29917443 10.1888889 6.86158088 -1.71712121 6.23733806"></polygon>
                            </g>
                            <g id="Group-18" transform="translate(42.097527, 17.673919)">
                                <mask id="mask-12" fill="white">
                                    <use xlink:href="#path-11"></use>
                                </mask>
                                <g id="Clip-17"></g>
                                <polygon id="Fill-16" fill="#020303" mask="url(#mask-12)" points="-1.35612626 -1.85229739 10.5587222 -1.22805458 10.1358939 6.83549417 -1.77895455 6.21125136"></polygon>
                            </g>
                            <g id="Group-21" transform="translate(30.430860, 28.985227)">
                                <mask id="mask-14" fill="white">
                                    <use xlink:href="#path-13"></use>
                                </mask>
                                <g id="Clip-20"></g>
                                <polygon id="Fill-19" fill="#FEFEFE" mask="url(#mask-14)" points="-1.32402525 -1.9330672 5.5105202 -1.57499361 4.98870202 8.37683664 -1.84584343 8.01876304"></polygon>
                            </g>
                            <g id="Group-24" transform="translate(35.733891, 28.985227)">
                                <mask id="mask-16" fill="white">
                                    <use xlink:href="#path-15"></use>
                                </mask>
                                <g id="Clip-23"></g>
                                <polygon id="Fill-22" fill="#FEFEFE" mask="url(#mask-16)" points="-1.25515657 -1.70111469 5.69358081 -1.33703196 5.15408586 8.95519796 -1.79465152 8.59111523"></polygon>
                            </g>
                            <g id="Group-27" transform="translate(27.249042, 24.036530)">
                                <mask id="mask-18" fill="white">
                                    <use xlink:href="#path-17"></use>
                                </mask>
                                <g id="Clip-26"></g>
                                <polygon id="Fill-25" fill="#371E57" mask="url(#mask-18)" points="-1.41343434 -1.53402546 3.53888889 -1.27492581 3.28257576 3.6193358 -1.67010101 3.35988268"></polygon>
                            </g>
                            <g id="Group-30" transform="translate(26.541971, 26.864357)">
                                <mask id="mask-20" fill="white">
                                    <use xlink:href="#path-19"></use>
                                </mask>
                                <g id="Clip-29"></g>
                                <polygon id="Fill-28" fill="#371E57" mask="url(#mask-20)" points="-1.60869192 -1.89718915 3.37686364 -1.63596863 3.12443939 3.17911383 -1.86111616 2.91789331"></polygon>
                            </g>
                            <g id="Group-33" transform="translate(29.016719, 26.864357)">
                                <mask id="mask-22" fill="white">
                                    <use xlink:href="#path-21"></use>
                                </mask>
                                <g id="Clip-32"></g>
                                <polygon id="Fill-31" fill="#371E57" mask="url(#mask-22)" points="-1.34544949 -1.82228708 3.61571212 -1.56248047 3.35798485 3.35334333 -1.60317677 3.09318324"></polygon>
                            </g>
                            <g id="Group-36" transform="translate(39.622780, 26.864357)">
                                <mask id="mask-24" fill="white">
                                    <use xlink:href="#path-23"></use>
                                </mask>
                                <g id="Clip-35"></g>
                                <polygon id="Fill-34" fill="#371E57" mask="url(#mask-24)" points="-1.57726263 -1.61585571 3.21490909 -1.36453258 2.954 3.60961515 -1.83781818 3.35829202"></polygon>
                            </g>
                            <g id="Group-39" transform="translate(42.451062, 26.864357)">
                                <mask id="mask-26" fill="white">
                                    <use xlink:href="#path-25"></use>
                                </mask>
                                <g id="Clip-38"></g>
                                <polygon id="Fill-37" fill="#371E57" mask="url(#mask-26)" points="-1.55587374 -1.68902573 3.31301515 -1.43381434 3.05175253 3.54810991 -1.81713636 3.293252"></polygon>
                            </g>
                            <g id="Group-42" transform="translate(40.683386, 24.390008)">
                                <mask id="mask-28" fill="white">
                                    <use xlink:href="#path-27"></use>
                                </mask>
                                <g id="Clip-41"></g>
                                <polygon id="Fill-40" fill="#371E57" mask="url(#mask-28)" points="-1.30157576 -1.6282628 3.61892929 -1.37057706 3.35908081 3.58589675 -1.56142424 3.32785753"></polygon>
                            </g>
                            <g id="Group-45" transform="translate(22.653083, 24.743486)">
                                <mask id="mask-30" fill="white">
                                    <use xlink:href="#path-29"></use>
                                </mask>
                                <g id="Clip-44"></g>
                                <polygon id="Fill-43" fill="#371E57" mask="url(#mask-30)" points="-1.36959596 -2.28173828 28.1728788 -0.73385646 27.6111111 9.98184056 -1.93136364 8.43395874"></polygon>
                            </g>
                            <g id="Group-48" transform="translate(30.430860, 21.915659)">
                                <mask id="mask-32" fill="white">
                                    <use xlink:href="#path-31"></use>
                                </mask>
                                <g id="Clip-47"></g>
                                <polygon id="Fill-46" fill="#694691" mask="url(#mask-32)" points="-1.26137879 -1.82677626 11.0137222 -1.18344561 10.5442273 7.77228257 -1.73087374 7.12895192"></polygon>
                            </g>
                            <g id="Group-54" transform="translate(0.380355, 34.287403)">
                                <mask id="mask-34" fill="white">
                                    <use xlink:href="#path-33"></use>
                                </mask>
                                <g id="Clip-53"></g>
                            </g>
                        </g>
                        <path d="M7.07319368,67.7043881 L7.07319368,138.595093 C7.07319368,142.040705 9.85343874,143.946764 13.2922411,143.946764 L94.5054545,143.946764 C97.9442569,143.946764 100.724502,142.040705 100.724502,138.595093 L100.724502,67.7043881 C100.724502,67.7777267 7.14638735,67.7043881 7.07319368,67.7043881 Z M20.2428538,56.0480158 L11.4631423,50.1100079 L11.4631423,64.7719604 L20.2430395,64.7719604 L20.2428538,56.0480158 L20.2428538,56.0480158 Z M96.3345534,50.1100079 L87.5546561,55.9748634 L87.5546561,64.7719604 L96.3345534,64.7719604 L96.3345534,50.1100079 Z" id="Shape" fill="#FCD200"></path>
                        <path d="M20.2428538,67.7043881 L20.2428538,55.9746772 L7,67.7043881 L20.2428538,67.7043881 Z M87.5548419,55.9746772 L87.5548419,67.704202 L100.870889,67.704202 L87.5548419,55.9746772 Z" id="Shape" fill="#E5A300"></path>
                        <path d="M27.8520237,84.5655683 C25.6571423,84.5655683 23.8278577,86.3982891 23.8278577,88.597703 C23.8278577,90.7971168 25.5837628,92.6298376 27.8520237,92.6298376 C30.0469051,92.6298376 31.8761897,90.7971168 31.8761897,88.597703 C31.9493834,86.3984752 30.1200988,84.5655683 27.8520237,84.5655683 Z M76.8726522,84.5655683 C74.6777708,84.5655683 72.8484862,86.3982891 72.8484862,88.597703 C72.8484862,90.7971168 74.6043913,92.6298376 76.8726522,92.6298376 C79.0675336,92.6298376 80.8968182,90.7971168 80.8968182,88.597703 C80.9698261,86.3984752 79.1407273,84.5655683 76.8726522,84.5655683 Z" id="Shape" fill="#E5A300"></path>
                        <path d="M52.4354387,118.288301 C37.8756561,118.288301 26.0959328,105.385731 26.0959328,89.4773941 C26.0959328,88.3776871 26.9006917,87.497996 27.9250316,87.497996 C28.9493715,87.497996 29.7541304,88.3776871 29.7541304,89.4773941 C29.7541304,103.186317 39.9241502,114.256166 52.435253,114.256166 C64.9463557,114.256166 75.1163755,103.112978 75.1163755,89.4773941 C75.1163755,88.3776871 75.9211344,87.497996 76.9454743,87.497996 C77.9698142,87.497996 78.7745731,88.3776871 78.7745731,89.4773941 C78.7749447,105.385731 66.9222134,118.288301 52.4354387,118.288301 Z" id="Shape" fill="#CBA94F"></path>
                        <path d="M52.4354387,116.015549 C37.8756561,116.015549 26.0959328,104.066008 26.0959328,89.3307168 C26.0959328,88.3043485 26.9006917,87.497996 27.9250316,87.497996 C28.9493715,87.497996 29.7541304,88.3043485 29.7541304,89.3307168 C29.7541304,102.013271 39.9241502,112.350107 52.435253,112.350107 C64.9463557,112.350107 75.1163755,102.013457 75.1163755,89.3307168 C75.1163755,88.3043485 75.9211344,87.497996 76.9454743,87.497996 C77.9698142,87.497996 78.7745731,88.3043485 78.7745731,89.3307168 C78.7749447,104.066194 66.9222134,116.015549 52.4354387,116.015549 Z" id="Shape" fill="#FFFFFF"></path>
                    </g>
                </g>
            </g>
        </g>
    </g>
</svg>