<?xml version="1.0" encoding="UTF-8" standalone="no"?>
<svg width="1300px" height="43px" viewBox="0 0 1300 43" version="1.1" xmlns="http://www.w3.org/2000/svg" xmlns:xlink="http://www.w3.org/1999/xlink" preserveAspectRatio="none">
    <!-- Generator: Sketch 41.1 (35376) - http://www.bohemiancoding.com/sketch -->
    <title>Fill 1</title>
    <desc>Created with Sketch.</desc>
    <defs></defs>
    <g id="Pages" stroke="none" stroke-width="1" fill="none" fill-rule="evenodd">
        <g id="How-to-play" transform="translate(0.000000, -1986.000000)" fill="#431F5D">
            <g id="Section-02--&amp;-03" transform="translate(-48.000000, 729.000000)">
                <path d="M21.5140952,1300.82934 C137.606775,1296.05447 255.643769,1292.69448 374.030888,1290.33812 C488.074961,1290.75332 600.442902,1291.97382 713.920814,1294.04191 C831.413996,1291.15266 950.143792,1289.71928 1068.68735,1289.28953 C1203.806,1291.93283 1336.06405,1295.74769 1469,1300.82934 C1468.91806,1291.6763 1468.63498,1287.09317 1467.57715,1277.92161 C1356.34153,1272.09022 1245.24745,1267.09717 1131.78444,1262.8261 C995.652659,1262.49288 861.442846,1263.33255 725.839981,1265.38213 C580.850772,1260.68925 433.306392,1257.99173 286.089789,1257 C190.177748,1258.70975 94.6977763,1261.16793 0,1264.36395 C7.94114455,1278.97021 12.2469434,1286.26408 21.5140952,1300.82934" id="Fill-1"></path>
            </g>
        </g>
    </g>
</svg>
