<?xml version="1.0" encoding="utf-8"?>
<!-- Generator: Adobe Illustrator 19.2.1, SVG Export Plug-In . SVG Version: 6.00 Build 0)  -->
<svg fill="#FFFFFF" version="1.1" id="Layer_1" xmlns="http://www.w3.org/2000/svg" xmlns:xlink="http://www.w3.org/1999/xlink" x="0px" y="0px" viewBox="0 0 498 8" style="enable-background:new 0 0 498 8;" xml:space="preserve" preserveAspectRatio="none">
<g id="Pages">
	<g id="Connect" transform="translate(-399.000000, -1162.000000)">
		<g id="Your-connections" transform="translate(156.000000, 1162.000000)">
			<path id="Line" class="st0" d="M243,8l121.2-1.7c3.1,0,6.1-0.1,9.2-0.1h119.7c2.9,0,5.8,0,8.7-0.1L591.9,5
				c9.4-0.1,18.9,0,28.2,0.2L680.2,7c7.9,0.2,15.9,0.3,23.9,0.3L740.2,7V1.2l-34.5,0.6c-9,0.2-18.1,0.1-27.1-0.1l-60.8-1.5
				c-11.1-0.3-22.3-0.3-33.4,0l-79.7,2.1c-8.7,0.2-17.4,0.3-26.1,0.2l-96.9-1.3c-6-0.1-12-0.1-18,0l-83.8,1.2L243,3.2V8"/>
		</g>
	</g>
</g>
</svg>
