<?xml version="1.0" encoding="UTF-8" standalone="no"?>
<svg width="516px" height="259px" viewBox="0 0 516 259" version="1.1" xmlns="http://www.w3.org/2000/svg" xmlns:xlink="http://www.w3.org/1999/xlink">
    <!-- Generator: Sketch 41.1 (35376) - http://www.bohemiancoding.com/sketch -->
    <title>Lines</title>
    <desc>Created with Sketch.</desc>
    <defs></defs>
    <g id="Pages" stroke="none" stroke-width="1" fill="none" fill-rule="evenodd">
        <g id="Start-Page" transform="translate(-784.000000, -1727.000000)" fill="#23C1D4">
            <g id="Section-03" transform="translate(126.000000, 1602.000000)">
                <g id="Monsters" transform="translate(658.000000, 49.000000)">
                    <g id="Lines" transform="translate(0.000000, 76.000000)">
                        <path d="M0,0 L377.241486,8.62841767 C386.800691,8.84760064 396.371915,8.9559178 405.946145,8.9559178 L778.649939,8.9559178 C787.722318,8.9559178 796.794697,9.05531472 805.855056,9.25155993 L1086.2664,15.3287899 C1115.5871,15.9646753 1144.98594,15.5721849 1174.14136,14.1551416 L1361.28961,5.05777429 C1385.95542,3.8586396 1410.80154,3.39223864 1435.63263,3.66239439 L1547.95404,4.88574116 L1547.95404,34.1976394 L1440.60005,31.2756247 C1412.47237,30.511033 1384.23651,30.6932607 1356.18395,31.8210335 L1166.848,39.4325442 C1132.24434,40.8241011 1097.38525,40.775677 1062.80563,39.2885461 L814.563819,28.6148455 C787.551028,27.4526661 760.348916,27.1684928 733.221931,27.7648744 L431.555557,34.3964333 C412.932989,34.8067642 394.27436,34.8003926 375.654796,34.3811415 L114.809621,28.4976081 L0,24.4261571 L0,0 Z" id="Fill-63"></path>
                        <path d="M23,58.4501068 L404.238261,56.0072363 L715.962685,58.4501068 L1086.87544,66.2119872 C1098.94691,66.4655768 1111.05143,66.2680573 1123.03274,65.6245259 L1289.16035,56.7017404 C1297.76994,56.2391624 1306.44265,56.0072363 1315.12737,56.0072363 L1570.95404,56.0072363 L1570.95404,76.3632167 L1324.46119,76.3632167 C1309.59198,76.3632167 1294.77086,77.0424291 1280.27729,78.3906592 L1098.43304,95.2919593 C1075.45008,97.4277189 1051.71584,97.8813767 1028.34222,96.6287206 L679.907566,77.9561162 C671.319007,77.4960868 662.664336,77.2641607 654.000649,77.2641607 L323.10072,77.2641607 C318.64717,77.2641607 314.190616,77.325328 309.746082,77.4476627 L23,85.3191345 L23,58.4501068 Z" id="Fill-65"></path>
                        <path d="M0,118.51947 L390.265564,106.480973 C397.799335,106.247773 405.369167,106.362462 412.836826,106.822491 L762.554655,128.353394 C768.778205,128.73569 775.073877,128.879688 781.363539,128.78284 L1031.04178,124.914006 C1033.46089,124.87705 1035.87698,124.80314 1038.28406,124.694823 L1353.71377,110.450479 C1357.38299,110.284817 1361.07324,110.201986 1364.7665,110.201986 L1557,110.450479 L1547.95404,134.861344 L1242.16467,142.690763 C1240.06712,142.744285 1237.96956,142.771046 1235.869,142.771046 L806.284785,142.771046 L532.331389,138.849964 C525.34755,138.750567 518.411793,138.35298 511.632301,137.666121 L397.976636,126.147547 C386.899859,125.024871 375.432419,124.680805 364.067153,125.129366 L0,139.513885 L0,118.51947 Z" id="Fill-67"></path>
                        <path d="M23,173.021629 L432.30584,166.601607 C436.290595,166.539165 440.28136,166.530245 444.266115,166.576121 L1007.9196,172.957913 C1011.70301,172.999966 1015.49244,172.994868 1019.27585,172.940072 L1468.36914,166.507307 L1570.95404,166.507307 L1570.95404,189.306158 L1167.85972,189.306158 L655.154606,198.81768 C645.850834,198.989713 636.529032,198.868652 627.270337,198.455773 L420.183291,189.204213 C409.575308,188.730166 398.883184,188.640964 388.236135,188.936606 L23,199.076366 L23,173.021629 Z" id="Fill-69"></path>
                        <path d="M0,233.467878 L393.586193,224.617729 L868.258841,224.617729 L1187.35476,218.053709 C1189.74081,218.005284 1192.13286,218.014205 1194.51891,218.083018 L1451.68885,225.480443 C1457.3204,225.642281 1462.96697,225.47662 1468.53541,224.984733 L1547.95404,217.979798 L1547.95404,248.955958 L1377.16552,248.955958 C1373.22284,248.955958 1369.28616,248.795393 1365.38555,248.475539 L1191.27941,234.215903 C1185.20612,233.718919 1179.04868,233.608053 1172.9273,233.88458 L844.497562,248.767358 C841.72987,248.892242 838.953163,248.939391 836.176456,248.904985 L385.063746,243.470012 C382.515426,243.439428 379.964101,243.476384 377.421792,243.579603 L0,258.912216 L0,233.467878 Z" id="Fill-71"></path>
                    </g>
                </g>
            </g>
        </g>
    </g>
</svg>