<?xml version="1.0" encoding="UTF-8" standalone="no"?>
<svg viewBox="0 0 476 414" preserveAspectRatio="none" version="1.1" xmlns="http://www.w3.org/2000/svg" xmlns:xlink="http://www.w3.org/1999/xlink">
    <!-- Generator: Sketch 40.3 (33839) - http://www.bohemiancoding.com/sketch -->
    <title>Group 6</title>
    <desc>Created with Sketch.</desc>
    <defs></defs>
    <g id="Pages" stroke="none" stroke-width="1" fill="none" fill-rule="evenodd">
        <g id="Start-Page" transform="translate(-164.000000, -971.000000)" fill="#E15D29">
            <g id="Section-02" transform="translate(-99.000000, 868.000000)">
                <g id="2nd-Green-Section" transform="translate(27.000000, 0.000000)">
                    <g id="Orange" transform="translate(196.000000, 102.000000)">
                        <g id="Why-Play" transform="translate(0.000000, 1.000000)">
                            <g id="Group-6" transform="translate(40.000000, 0.000000)">
                                <path d="M257.903721,362.863233 C256.817514,359.93526 254.889376,357.725235 252.584686,356.234284 L252.584686,355.528694 C257.835169,351.727722 260.632272,343.81343 257.903721,336.351929 C256.817514,333.416091 254.889376,331.199326 252.584686,329.715115 L252.584686,329.003907 C257.835169,325.201812 260.632272,317.302126 257.903721,309.832761 C256.817514,306.904788 254.889376,304.688022 252.584686,303.210553 L252.584686,302.510581 C257.835169,298.703991 260.632272,290.789699 257.903721,283.33494 C256.817514,280.39236 254.889376,278.175595 252.584686,276.691384 L252.584686,275.985794 C257.835169,272.178081 260.632272,264.263789 257.903721,256.80903 C256.817514,253.873192 254.889376,251.664291 252.584686,250.173339 L252.584686,249.480108 C257.835169,245.666777 260.632272,237.765968 257.903721,230.316827 C256.817514,227.368629 254.889376,225.151864 252.584686,223.667653 C256.485376,221.298085 259.785514,217.729687 260.912272,212.837747 C263.579031,201.149449 254.723307,190.359991 244.770755,192.370023 C239.828272,193.367736 235.939169,196.583339 233.032962,200.856202 C231.763307,197.808009 229.721238,195.231707 226.9531,193.867716 C220.334479,190.585825 213.293928,194.140739 210.158893,200.65621 C208.895031,197.69453 206.875169,195.211483 204.158203,193.867716 C197.552134,190.585825 190.504824,194.140739 187.363997,200.643851 C186.095307,197.69453 184.098617,195.211483 181.380686,193.867716 C174.768824,190.585825 167.716686,194.140739 164.587445,200.65621 C163.31779,197.69453 161.304686,195.211483 158.598341,193.867716 C151.9691,190.585825 144.939169,194.140739 141.804134,200.643851 C140.534479,197.69453 138.521376,195.211483 135.815031,193.867716 C129.191583,190.585825 122.150066,194.140739 119.015997,200.664075 C117.752134,197.701272 115.749652,195.211483 113.032686,193.867716 C106.426617,190.585825 99.3609621,194.140739 96.2326862,200.643851 C94.963031,197.69453 92.9615138,195.211483 90.2503414,193.867716 C83.6317207,190.585825 76.5902034,194.140739 73.4503414,200.664075 C72.1797207,197.69453 70.1724103,195.211483 67.467031,193.867716 C60.8426172,190.585825 53.8068931,194.140739 50.667031,200.643851 C49.3915827,197.69453 47.3948931,195.211483 44.6731,193.867716 C38.1519965,190.633014 31.2244103,194.047485 28.0324103,200.370828 C25.1561345,196.356381 21.3809621,193.321671 16.6161345,192.370023 C6.66261722,190.359991 -2.16896898,201.149449 0.473651708,212.837747 C1.60620343,217.729687 4.90634136,221.298085 8.81378964,223.148573 L8.81378964,223.854163 C6.63461722,225.338373 4.81558274,227.495591 3.79116895,230.316827 C1.11475516,237.625524 3.74578964,245.393754 8.81378964,249.28124 L8.81378964,250.359849 C6.63461722,251.8508 4.81558274,253.993412 3.79116895,256.80903 C1.11475516,264.124469 3.74578964,271.89944 8.81378964,275.786926 L8.81378964,276.877894 C6.63461722,278.362104 4.81558274,280.519322 3.79116895,283.33494 C1.11475516,290.649255 3.74578964,298.417485 8.81378964,302.311712 L8.81378964,303.390321 C6.63461722,304.874531 4.81558274,307.037367 3.79116895,309.832761 C1.11475516,317.168424 3.74578964,324.91643 8.81378964,328.809533 L8.81378964,329.894883 C6.63461722,331.385835 4.81558274,333.536311 3.79116895,336.351929 C1.11475516,343.679727 3.74578964,351.441216 8.81378964,355.328702 L8.81378964,356.414052 C6.63461722,357.905004 4.81558274,360.054356 3.79116895,362.863233 C1.11475516,370.192155 3.74578964,377.960385 8.81378964,381.841129 C4.90634136,383.903968 1.60620343,387.458883 0.473651708,392.350823 C-2.16896898,404.052604 6.66261722,414.835321 16.6161345,412.838771 C21.5171,411.847799 25.4071689,407.467075 28.3075827,402.907706 C31.6308931,408.891737 38.3402724,412.012961 44.6731,408.878254 C47.3948931,407.540105 49.3915827,405.044699 50.667031,402.088637 C53.8068931,408.599614 60.8426172,412.146664 67.467031,408.878254 C70.1724103,407.540105 72.1797207,405.044699 73.4503414,402.088637 C76.5902034,408.599614 83.6317207,412.146664 90.2503414,408.878254 C92.9615138,407.540105 94.963031,405.044699 96.2326862,402.088637 C99.3609621,408.599614 106.426617,412.146664 113.032686,408.878254 C115.749652,407.540105 117.752134,405.044699 119.015997,402.088637 C122.150066,408.599614 129.191583,412.153405 135.815031,408.878254 C138.521376,407.540105 140.534479,405.044699 141.804134,402.088637 C144.939169,408.599614 151.9691,412.146664 158.598341,408.878254 C161.304686,407.540105 163.31779,405.044699 164.587445,402.088637 C167.716686,408.599614 174.768824,412.146664 181.380686,408.878254 C184.098617,407.540105 186.095307,405.044699 187.363997,402.088637 C190.504824,408.599614 197.552134,412.146664 204.158203,408.878254 C206.875169,407.540105 208.895031,405.044699 210.158893,402.088637 C213.293928,408.599614 220.334479,412.146664 226.9531,408.878254 C229.549376,407.587295 231.500686,405.231209 232.781928,402.429073 C235.710341,407.141245 239.702755,411.814093 244.770755,412.838771 C254.723307,414.835321 263.579031,404.052604 260.912272,392.350823 C259.785514,387.458883 256.485376,383.903968 252.584686,382.060221 C257.835169,378.240149 260.632272,370.325857 257.903721,362.863233 Z" id="Path"></path>
                                <path d="M471.248548,360.739682 C470.162341,357.811709 468.234203,355.601685 465.929514,354.110733 L465.929514,353.405143 C471.179997,349.604171 473.9771,341.689879 471.248548,334.228379 C470.162341,331.292541 468.234203,329.075775 465.929514,327.591564 L465.929514,326.880357 C471.179997,323.078261 473.9771,315.178576 471.248548,307.70921 C470.162341,304.781237 468.234203,302.564471 465.929514,301.087002 L465.929514,300.38703 C471.179997,296.58044 473.9771,288.666148 471.248548,281.211389 C470.162341,278.26881 468.234203,276.052044 465.929514,274.567833 L465.929514,273.862243 C471.179997,270.05453 473.9771,262.140238 471.248548,254.685479 C470.162341,251.749641 468.234203,249.54074 465.929514,248.049788 L465.929514,247.356558 C471.179997,243.543226 473.9771,235.642417 471.248548,228.193276 C470.162341,225.245079 468.234203,223.028313 465.929514,221.544102 C469.830203,219.174534 473.130341,215.606137 474.2571,210.714197 C476.923859,199.025898 468.068134,188.23644 458.115583,190.246472 C453.1731,191.244186 449.283997,194.459788 446.37779,198.732651 C445.108134,195.684458 443.066066,193.108156 440.297928,191.744166 C433.679307,188.462274 426.638755,192.017188 423.503721,198.532659 C422.239859,195.57098 420.219997,193.087932 417.503031,191.744166 C410.896962,188.462274 403.849652,192.017188 400.708824,198.5203 C399.440134,195.57098 397.443445,193.087932 394.725514,191.744166 C388.113652,188.462274 381.061514,192.017188 377.932272,198.532659 C376.662617,195.57098 374.649514,193.087932 371.943169,191.744166 C365.313928,188.462274 358.283997,192.017188 355.148962,198.5203 C353.879307,195.57098 351.866203,193.087932 349.159859,191.744166 C342.53641,188.462274 335.494893,192.017188 332.360824,198.540524 C331.096962,195.577721 329.094479,193.087932 326.377514,191.744166 C319.771445,188.462274 312.70579,192.017188 309.577514,198.5203 C308.307859,195.57098 306.306341,193.087932 303.595169,191.744166 C296.976548,188.462274 289.935031,192.017188 286.795169,198.540524 C285.524548,195.57098 283.517238,193.087932 280.811859,191.744166 C274.187445,188.462274 267.151721,192.017188 264.011859,198.5203 C262.73641,195.57098 260.739721,193.087932 258.017928,191.744166 C251.496824,188.509463 244.569238,191.923934 241.377238,198.247277 C238.500962,194.232831 234.72579,191.19812 229.960962,190.246472 C220.007445,188.23644 211.175859,199.025898 213.818479,210.714197 C214.951031,215.606137 218.251169,219.174534 222.158617,221.025022 L222.158617,221.730612 C219.979445,223.214822 218.16041,225.37204 217.135997,228.193276 C214.459583,235.501973 217.090617,243.270203 222.158617,247.157689 L222.158617,248.236298 C219.979445,249.72725 218.16041,251.869861 217.135997,254.685479 C214.459583,262.000918 217.090617,269.775889 222.158617,273.663375 L222.158617,274.754343 C219.979445,276.238553 218.16041,278.395771 217.135997,281.211389 C214.459583,288.525704 217.090617,296.293934 222.158617,300.188161 L222.158617,301.26677 C219.979445,302.750981 218.16041,304.913816 217.135997,307.70921 C214.459583,315.044873 217.090617,322.792879 222.158617,326.685982 L222.158617,327.771332 C219.979445,329.262284 218.16041,331.41276 217.135997,334.228379 C214.459583,341.556177 217.090617,349.317665 222.158617,353.205151 L222.158617,354.290501 C219.979445,355.781453 218.16041,357.930805 217.135997,360.739682 C214.459583,368.068604 217.090617,375.836834 222.158617,379.717578 C218.251169,381.780417 214.951031,385.335332 213.818479,390.227272 C211.175859,401.929053 220.007445,412.71177 229.960962,410.71522 C234.861928,409.724248 238.751997,405.343524 241.65241,400.784155 C244.975721,406.768186 251.6851,409.88941 258.017928,406.754704 C260.739721,405.416555 262.73641,402.921148 264.011859,399.965086 C267.151721,406.476063 274.187445,410.023113 280.811859,406.754704 C283.517238,405.416555 285.524548,402.921148 286.795169,399.965086 C289.935031,406.476063 296.976548,410.023113 303.595169,406.754704 C306.306341,405.416555 308.307859,402.921148 309.577514,399.965086 C312.70579,406.476063 319.771445,410.023113 326.377514,406.754704 C329.094479,405.416555 331.096962,402.921148 332.360824,399.965086 C335.494893,406.476063 342.53641,410.029854 349.159859,406.754704 C351.866203,405.416555 353.879307,402.921148 355.148962,399.965086 C358.283997,406.476063 365.313928,410.023113 371.943169,406.754704 C374.649514,405.416555 376.662617,402.921148 377.932272,399.965086 C381.061514,406.476063 388.113652,410.023113 394.725514,406.754704 C397.443445,405.416555 399.440134,402.921148 400.708824,399.965086 C403.849652,406.476063 410.896962,410.023113 417.503031,406.754704 C420.219997,405.416555 422.239859,402.921148 423.503721,399.965086 C426.638755,406.476063 433.679307,410.023113 440.297928,406.754704 C442.894203,405.463744 444.845514,403.107658 446.126755,400.305522 C449.055169,405.017694 453.047583,409.690542 458.115583,410.71522 C468.068134,412.71177 476.923859,401.929053 474.2571,390.227272 C473.130341,385.335332 469.830203,381.780417 465.929514,379.936671 C471.179997,376.116598 473.9771,368.202306 471.248548,360.739682 Z" id="Path"></path>
                                <path d="M259.834755,171.859604 C258.748548,168.931631 256.82041,166.721607 254.515721,165.230655 L254.515721,164.525065 C259.766203,160.724093 262.563307,152.809801 259.834755,145.3483 C258.748548,142.412462 256.82041,140.195697 254.515721,138.711486 L254.515721,138.000278 C259.766203,134.198183 262.563307,126.298497 259.834755,118.829132 C258.748548,115.901159 256.82041,113.684393 254.515721,112.206924 L254.515721,111.506952 C259.766203,107.700362 262.563307,99.7860701 259.834755,92.3313108 C258.748548,89.3887313 256.82041,87.1719657 254.515721,85.6877551 L254.515721,84.9821653 C259.766203,81.1744517 262.563307,73.2601602 259.834755,65.8054009 C258.748548,62.8695628 256.82041,60.660662 254.515721,59.1697101 L254.515721,58.4764793 C259.766203,54.663148 262.563307,46.7623391 259.834755,39.3131976 C258.748548,36.3650004 256.82041,34.1482347 254.515721,32.6640242 C258.41641,30.2944556 261.716548,26.7260584 262.843307,21.8341184 C265.510066,10.1458199 256.654341,-0.64363807 246.70179,1.36639424 C241.759307,2.36410731 237.870203,5.57970958 234.963997,9.85257312 C233.694341,6.80437991 231.652272,4.22807802 228.884134,2.8640874 C222.265514,-0.417804368 215.224962,3.13711023 212.089928,9.65258108 C210.826066,6.69090128 208.806203,4.20785411 206.089238,2.8640874 C199.483169,-0.417804368 192.435859,3.13711023 189.295031,9.64022202 C188.026341,6.69090128 186.029652,4.20785411 183.311721,2.8640874 C176.699859,-0.417804368 169.647721,3.13711023 166.518479,9.65258108 C165.248824,6.69090128 163.235721,4.20785411 160.529376,2.8640874 C153.900134,-0.417804368 146.870203,3.13711023 143.735169,9.64022202 C142.465514,6.69090128 140.45241,4.20785411 137.746066,2.8640874 C131.122617,-0.417804368 124.0811,3.13711023 120.947031,9.66044594 C119.683169,6.69764259 117.680686,4.20785411 114.963721,2.8640874 C108.357652,-0.417804368 101.291997,3.13711023 98.1637207,9.64022202 C96.8940655,6.69090128 94.8925483,4.20785411 92.1813758,2.8640874 C85.5627552,-0.417804368 78.5212379,3.13711023 75.3813758,9.66044594 C74.1107552,6.69090128 72.1034448,4.20785411 69.3980655,2.8640874 C62.7736517,-0.417804368 55.7379276,3.13711023 52.5980655,9.64022202 C51.3226172,6.69090128 49.3259276,4.20785411 46.6041345,2.8640874 C40.083031,-0.370615236 33.1554448,3.04385552 29.9634448,9.36719919 C27.0871689,5.35275233 23.3119965,2.31804173 18.5471689,1.36639424 C8.59365171,-0.64363807 -0.237934499,10.1458199 2.40468619,21.8341184 C3.53723791,26.7260584 6.83737585,30.2944556 10.7448241,32.1449437 L10.7448241,32.8505336 C8.56565171,34.3347442 6.74661722,36.4919616 5.72220343,39.3131976 C3.04578964,46.6218952 5.67682412,54.3901252 10.7448241,58.2776108 L10.7448241,59.3562195 C8.56565171,60.8471714 6.74661722,62.9897827 5.72220343,65.8054009 C3.04578964,73.1208399 5.67682412,80.8958111 10.7448241,84.7832968 L10.7448241,85.8742646 C8.56565171,87.3584751 6.74661722,89.5156926 5.72220343,92.3313108 C3.04578964,99.6456262 5.67682412,107.413856 10.7448241,111.308083 L10.7448241,112.386692 C8.56565171,113.870902 6.74661722,116.033738 5.72220343,118.829132 C3.04578964,126.164795 5.67682412,133.912801 10.7448241,137.805904 L10.7448241,138.891254 C8.56565171,140.382206 6.74661722,142.532682 5.72220343,145.3483 C3.04578964,152.676098 5.67682412,160.437587 10.7448241,164.325073 L10.7448241,165.410423 C8.56565171,166.901375 6.74661722,169.050727 5.72220343,171.859604 C3.04578964,179.188526 5.67682412,186.956756 10.7448241,190.8375 C6.83737585,192.900339 3.53723791,196.455254 2.40468619,201.347194 C-0.237934499,213.048975 8.59365171,223.831692 18.5471689,221.835142 C23.4481345,220.84417 27.3382034,216.463446 30.2386172,211.904077 C33.5619276,217.888108 40.2713069,221.009332 46.6041345,217.874625 C49.3259276,216.536476 51.3226172,214.04107 52.5980655,211.085008 C55.7379276,217.595985 62.7736517,221.143035 69.3980655,217.874625 C72.1034448,216.536476 74.1107552,214.04107 75.3813758,211.085008 C78.5212379,217.595985 85.5627552,221.143035 92.1813758,217.874625 C94.8925483,216.536476 96.8940655,214.04107 98.1637207,211.085008 C101.291997,217.595985 108.357652,221.143035 114.963721,217.874625 C117.680686,216.536476 119.683169,214.04107 120.947031,211.085008 C124.0811,217.595985 131.122617,221.149776 137.746066,217.874625 C140.45241,216.536476 142.465514,214.04107 143.735169,211.085008 C146.870203,217.595985 153.900134,221.143035 160.529376,217.874625 C163.235721,216.536476 165.248824,214.04107 166.518479,211.085008 C169.647721,217.595985 176.699859,221.143035 183.311721,217.874625 C186.029652,216.536476 188.026341,214.04107 189.295031,211.085008 C192.435859,217.595985 199.483169,221.143035 206.089238,217.874625 C208.806203,216.536476 210.826066,214.04107 212.089928,211.085008 C215.224962,217.595985 222.265514,221.143035 228.884134,217.874625 C231.48041,216.583666 233.431721,214.22758 234.712962,211.425444 C237.641376,216.137616 241.63379,220.810464 246.70179,221.835142 C256.654341,223.831692 265.510066,213.048975 262.843307,201.347194 C261.716548,196.455254 258.41641,192.900339 254.515721,191.056592 C259.766203,187.23652 262.563307,179.322228 259.834755,171.859604 Z" id="Path"></path>
                                <path d="M472.248548,170.736053 C471.162341,167.80808 469.234203,165.598056 466.929514,164.107104 L466.929514,163.401514 C472.179997,159.600542 474.9771,151.68625 472.248548,144.22475 C471.162341,141.288912 469.234203,139.072146 466.929514,137.587935 L466.929514,136.876728 C472.179997,133.074632 474.9771,125.174947 472.248548,117.705581 C471.162341,114.777608 469.234203,112.560842 466.929514,111.083373 L466.929514,110.383401 C472.179997,106.576811 474.9771,98.6625193 472.248548,91.20776 C471.162341,88.2651806 469.234203,86.0484149 466.929514,84.5642044 L466.929514,83.8586145 C472.179997,80.050901 474.9771,72.1366094 472.248548,64.6818501 C471.162341,61.746012 469.234203,59.5371112 466.929514,58.0461594 L466.929514,57.3529285 C472.179997,53.5395973 474.9771,45.6387883 472.248548,38.1896468 C471.162341,35.2414496 469.234203,33.024684 466.929514,31.5404734 C470.830203,29.1709049 474.130341,25.6025077 475.2571,20.7105677 C477.923859,9.02226911 469.068134,-1.76718883 459.115583,0.242843479 C454.1731,1.24055655 450.283997,4.45615882 447.37779,8.72902236 C446.108134,5.68082915 444.066066,3.10452726 441.297928,1.74053664 C434.679307,-1.54135513 427.638755,2.01355947 424.503721,8.52903032 C423.239859,5.56735052 421.219997,3.08430335 418.503031,1.74053664 C411.896962,-1.54135513 404.849652,2.01355947 401.708824,8.51667127 C400.440134,5.56735052 398.443445,3.08430335 395.725514,1.74053664 C389.113652,-1.54135513 382.061514,2.01355947 378.932272,8.52903032 C377.662617,5.56735052 375.649514,3.08430335 372.943169,1.74053664 C366.313928,-1.54135513 359.283997,2.01355947 356.148962,8.51667127 C354.879307,5.56735052 352.866203,3.08430335 350.159859,1.74053664 C343.53641,-1.54135513 336.494893,2.01355947 333.360824,8.53689518 C332.096962,5.57409183 330.094479,3.08430335 327.377514,1.74053664 C320.771445,-1.54135513 313.70579,2.01355947 310.577514,8.51667127 C309.307859,5.56735052 307.306341,3.08430335 304.595169,1.74053664 C297.976548,-1.54135513 290.935031,2.01355947 287.795169,8.53689518 C286.524548,5.56735052 284.517238,3.08430335 281.811859,1.74053664 C275.187445,-1.54135513 268.151721,2.01355947 265.011859,8.51667127 C263.73641,5.56735052 261.739721,3.08430335 259.017928,1.74053664 C252.496824,-1.49416599 245.569238,1.92030476 242.377238,8.24364843 C239.500962,4.22920157 235.72579,1.19449097 230.960962,0.242843479 C221.007445,-1.76718883 212.175859,9.02226911 214.818479,20.7105677 C215.951031,25.6025077 219.251169,29.1709049 223.158617,31.021393 L223.158617,31.7269828 C220.979445,33.2111934 219.16041,35.3684109 218.135997,38.1896468 C215.459583,45.4983445 218.090617,53.2665744 223.158617,57.1540601 L223.158617,58.2326688 C220.979445,59.7236206 219.16041,61.8662319 218.135997,64.6818501 C215.459583,71.9972891 218.090617,79.7722604 223.158617,83.659746 L223.158617,84.7507138 C220.979445,86.2349244 219.16041,88.3921418 218.135997,91.20776 C215.459583,98.5220754 218.090617,106.290305 223.158617,110.184532 L223.158617,111.263141 C220.979445,112.747352 219.16041,114.910187 218.135997,117.705581 C215.459583,125.041244 218.090617,132.78925 223.158617,136.682353 L223.158617,137.767703 C220.979445,139.258655 219.16041,141.409131 218.135997,144.22475 C215.459583,151.552548 218.090617,159.314036 223.158617,163.201522 L223.158617,164.286872 C220.979445,165.777824 219.16041,167.927176 218.135997,170.736053 C215.459583,178.064975 218.090617,185.833205 223.158617,189.713949 C219.251169,191.776788 215.951031,195.331703 214.818479,200.223643 C212.175859,211.925424 221.007445,222.708141 230.960962,220.711591 C235.861928,219.720619 239.751997,215.339895 242.65241,210.780526 C245.975721,216.764557 252.6851,219.885781 259.017928,216.751075 C261.739721,215.412926 263.73641,212.91752 265.011859,209.961457 C268.151721,216.472434 275.187445,220.019484 281.811859,216.751075 C284.517238,215.412926 286.524548,212.91752 287.795169,209.961457 C290.935031,216.472434 297.976548,220.019484 304.595169,216.751075 C307.306341,215.412926 309.307859,212.91752 310.577514,209.961457 C313.70579,216.472434 320.771445,220.019484 327.377514,216.751075 C330.094479,215.412926 332.096962,212.91752 333.360824,209.961457 C336.494893,216.472434 343.53641,220.026225 350.159859,216.751075 C352.866203,215.412926 354.879307,212.91752 356.148962,209.961457 C359.283997,216.472434 366.313928,220.019484 372.943169,216.751075 C375.649514,215.412926 377.662617,212.91752 378.932272,209.961457 C382.061514,216.472434 389.113652,220.019484 395.725514,216.751075 C398.443445,215.412926 400.440134,212.91752 401.708824,209.961457 C404.849652,216.472434 411.896962,220.019484 418.503031,216.751075 C421.219997,215.412926 423.239859,212.91752 424.503721,209.961457 C427.638755,216.472434 434.679307,220.019484 441.297928,216.751075 C443.894203,215.460115 445.845514,213.104029 447.126755,210.301893 C450.055169,215.014065 454.047583,219.686913 459.115583,220.711591 C469.068134,222.708141 477.923859,211.925424 475.2571,200.223643 C474.130341,195.331703 470.830203,191.776788 466.929514,189.933042 C472.179997,186.112969 474.9771,178.198678 472.248548,170.736053 Z" id="Path"></path>
                            </g>
                        </g>
                    </g>
                </g>
            </g>
        </g>
    </g>
</svg>
