<?xml version="1.0" encoding="UTF-8" standalone="no"?>
<svg width="690px" height="443px" viewBox="0 0 690 443" version="1.1" xmlns="http://www.w3.org/2000/svg" xmlns:xlink="http://www.w3.org/1999/xlink">
    <!-- Generator: Sketch 41.2 (35397) - http://www.bohemiancoding.com/sketch -->
    <title>macbook</title>
    <desc>Created with Sketch.</desc>
    <defs></defs>
    <g id="Pages" stroke="none" stroke-width="1" fill="none" fill-rule="evenodd">
        <g id="You've-connected" transform="translate(-137.000000, -344.000000)">
            <g id="First-Section" transform="translate(137.000000, 344.000000)">
                <g id="Laptop">
                    <g id="macbook">
                        <g id="Layer_1">
                            <path d="M689.888744,399.664659 L689.888744,410.444916 C689.888744,428.232272 675.336191,442.785688 657.549889,442.785688 L32.3388556,442.785688 C14.5525535,442.784319 0,428.232272 0,410.444916 L0,399.664659 L689.888744,399.664659 L689.888744,399.664659 L689.888744,399.664659 Z" id="Shape" fill="#E4E7E7"></path>
                            <path d="M296.436089,388.884401 L393.451287,388.884401 C402.613347,388.884401 409.620031,395.8915 409.620031,405.054103 C409.620031,414.216706 402.613347,421.223805 393.451287,421.223805 L296.436089,421.223805 C287.274029,421.223805 280.267345,414.216706 280.267345,405.054103 C280.267345,396.430718 287.274029,388.884401 296.436089,388.884401 L296.436089,388.884401 Z" id="Shape" fill="#C8CBCB"></path>
                            <path d="M86.2355799,0.799247203 L603.651796,0.799247203 C615.509787,0.799247203 625.211033,10.5010681 625.211033,22.3597616 L625.211033,399.664659 L64.6763428,399.664659 L64.6763428,22.3583931 C64.6777113,10.5010681 74.3789574,0.799247203 86.2355799,0.799247203 L86.2355799,0.799247203 Z" id="Shape" fill="#424242"></path>
                            <polygon id="Shape" fill="#FFFFFF" points="97.0151984 33.1386503 592.872177 33.1386503 592.872177 367.323887 97.0151984 367.323887"></polygon>
                        </g>
                    </g>
                </g>
            </g>
        </g>
    </g>
</svg>