<?xml version="1.0" encoding="UTF-8" standalone="no"?>
<svg width="34px" height="33px" viewBox="0 0 34 33" version="1.1" xmlns="http://www.w3.org/2000/svg" xmlns:xlink="http://www.w3.org/1999/xlink">
    <!-- Generator: Sketch 41.1 (35376) - http://www.bohemiancoding.com/sketch -->
    <title>Close</title>
    <desc>Created with Sketch.</desc>
    <defs></defs>
    <g id="Pages" stroke="none" stroke-width="1" fill="none" fill-rule="evenodd">
        <g id="Nav" transform="translate(-317.000000, -25.000000)" fill="#431F5D">
            <path d="M350.930433,47.9455981 C349.797229,45.8063439 347.519826,44.1704849 345.703507,42.6102757 C343.761986,40.9424718 341.743145,39.3636573 339.729447,37.7811569 C342.03221,34.8648697 344.375229,31.9714003 346.669834,29.0370344 C347.109106,29.0175516 347.430978,28.5432929 347.353658,28.1067713 C347.5709,27.5593202 346.865618,26.9723768 346.336434,27.1940603 C345.317792,26.5971122 344.197534,26.0821326 343.148389,25.5976936 C342.724723,25.4019873 342.237393,25.8214834 342.38423,26.2035933 C339.864048,28.7523388 337.253778,31.2171851 334.617261,33.6574584 C333.516333,32.7321098 332.430301,31.7892091 331.371935,30.8161188 C331.366969,30.8115552 331.362358,30.8062896 331.357393,30.801726 C331.355087,30.6258537 331.278122,30.4484016 331.09688,30.2999105 C331.044565,30.2570833 330.987816,30.2205749 330.934436,30.1793273 L330.93621,30.1770456 C330.929471,30.1735351 330.922909,30.1693226 330.91617,30.1656367 C330.714534,30.0104758 330.511302,29.8575967 330.303814,29.7110364 C329.306276,28.5889284 328.348284,27.3302649 327.218804,26.4258034 C327.199829,25.8787033 326.622054,25.3431877 326.006684,25.7126601 C323.932867,26.9581596 321.398675,28.244029 319.799244,30.0896359 C319.748702,30.147909 319.710219,30.2079373 319.679539,30.2691943 C319.253036,30.2691943 318.911479,30.8931727 319.273607,31.2584326 C322.151662,34.1615557 325.461894,36.614993 328.694984,39.1133639 C325.099234,42.4263293 321.547818,45.7794891 318.180837,49.3027291 C318.16665,49.3151911 318.151576,49.3199302 318.137743,49.3343229 C317.829703,49.647102 317.526806,49.9649711 317.229407,50.2875794 C316.718312,50.8329242 317.143397,51.5565987 317.701664,51.6608584 C318.724562,53.3154981 320.291895,54.5457272 321.8931,55.6279919 C322.978777,56.3620221 324.959135,57.7054625 326.325896,57.0388325 C326.580379,57.0837659 326.849582,57.0109246 326.983828,56.7457118 C329.229133,52.3106384 331.920271,48.1929076 334.818187,44.2164715 C336.445993,45.6318757 338.061562,47.061497 339.691496,48.4668964 C340.170138,48.8795471 345.470659,54.428479 346.380947,52.5823455 C346.505972,52.6160456 346.636494,52.631667 346.765598,52.6081471 C347.594309,52.4587784 348.25029,51.4256598 348.703217,50.8139679 C349.171395,50.18174 349.654115,49.5133547 350.064303,48.8261886 C350.621151,49.1986449 351.203714,48.4616308 350.930433,47.9455981 L350.930433,47.9455981 Z M320.840054,49.1017572 C320.798911,49.2121601 320.789866,49.3276531 320.797492,49.4419175 C320.59426,49.5531981 320.455403,49.7443408 320.401669,49.9611097 C320.191166,49.9793639 319.988643,50.0485193 319.813963,50.1780541 C319.789135,50.1678738 319.76484,50.1573425 319.740012,50.1471623 C320.104801,49.7976993 320.471009,49.4489384 320.840054,49.1017572 L320.840054,49.1017572 Z M326.053501,55.6325554 C325.905245,55.5634 325.750959,55.513552 325.595786,55.4642305 C325.850801,55.3764698 326.084891,55.250972 326.297876,55.0908965 C326.217896,55.2718591 326.131886,55.4508908 326.053501,55.6325554 L326.053501,55.6325554 Z M329.878907,38.0202169 C328.064717,36.5688309 326.226585,35.1460549 324.382424,33.7318794 C324.964455,34.1287332 325.564574,34.497679 326.181718,34.8408233 C327.397386,35.9186999 328.6526,36.9569086 329.919518,37.9828309 C329.905686,37.9954684 329.892208,38.0079304 329.878907,38.0202169 L329.878907,38.0202169 Z" id="Close"></path>
        </g>
    </g>
</svg>