<?xml version="1.0" encoding="UTF-8" standalone="no"?>
<svg width="47px" height="27px" viewBox="0 0 47 27" version="1.1" xmlns="http://www.w3.org/2000/svg" xmlns:xlink="http://www.w3.org/1999/xlink">
    <!-- Generator: Sketch 41.1 (35376) - http://www.bohemiancoding.com/sketch -->
    <title>Burger</title>
    <desc>Created with Sketch.</desc>
    <defs></defs>
    <g id="Pages" stroke="none" stroke-width="1" fill="none" fill-rule="evenodd">
        <g id="Mob---Home" transform="translate(-296.000000, -25.000000)">
            <g id="Burger" transform="translate(205.000000, 20.000000)">
                <g id="Group-14" fill="#431E5D">
                    <g transform="translate(0.005081, 0.181818)">
                        <path d="M0,2.78868619 L42.0132071,0.0269184471 C42.8242392,-0.0265803882 43.6391533,-0.000269485601 44.4430682,0.105266468 L82.0911953,5.04469992 C82.7611783,5.13240293 83.4389255,5.16543773 84.1160257,5.14321964 L110.994605,4.25566519 C111.255028,4.24718723 111.515128,4.23023131 111.774257,4.20538213 L145.731169,0.937568022 C146.126171,0.899563384 146.523438,0.880561066 146.921028,0.880561066 L167.615515,0.937568022 L166.641691,6.53769748 L133.722589,8.3338551 C133.496781,8.34613352 133.270973,8.35227273 133.044842,8.35227273 L86.7988692,8.35227273 L57.3070005,7.4527322 C56.5551703,7.42992942 55.8085161,7.33871829 55.0786843,7.18114522 L42.8433261,4.53865356 C41.6508793,4.28109906 40.4163766,4.20216635 39.1928731,4.30507122 L0,7.60504309 L0,2.78868619 Z" id="Fill-67"></path>
                        <path d="M2.6947832,15.9887671 L46.8727171,14.3423648 C47.3028068,14.3263517 47.7335453,14.3240642 48.163635,14.3358288 L109.000896,15.9724272 C109.409255,15.9832115 109.818261,15.9819043 110.22662,15.9678521 L158.698964,14.3181818 L169.771341,14.3181818 L169.771341,20.1649034 L126.263842,20.1649034 L70.9256307,22.6041148 C69.9214393,22.6482324 68.9153019,22.6171867 67.9159757,22.5113045 L45.5642843,20.1387597 C44.4193245,20.0171913 43.2652828,19.9943155 42.1161064,20.0701324 L2.6947832,22.6704545 L2.6947832,15.9887671 Z" id="Fill-69"></path>
                        <path d="M0,29.8618257 L42.4812527,27.7979678 L93.7144744,27.7979678 L128.155709,26.267236 C128.413244,26.2559434 128.671427,26.2580236 128.928962,26.2740709 L156.686291,27.9991531 C157.294125,28.0368939 157.903581,27.9982615 158.504604,27.8835532 L167.076558,26.25 L167.076558,33.4736515 L148.642705,33.4736515 C148.217156,33.4736515 147.792256,33.4362078 147.371248,33.3616177 L128.579312,30.0362656 C127.923798,29.9203686 127.259202,29.8945146 126.598499,29.9590009 L91.1498293,33.4296701 C90.8511018,33.4587929 90.5514013,33.4697882 90.2517007,33.4617646 L41.5613926,32.194327 C41.2863428,32.1871949 41.0109686,32.1958128 40.7365674,32.2198838 L0,35.7954545 L0,29.8618257 Z" id="Fill-71"></path>
                    </g>
                </g>
                <polygon id="Rectangle-4" fill="#431F5D" points="92 5 138 5 136 11 91 11"></polygon>
                <polygon id="Rectangle-4" fill="#431F5D" points="92 26 137 26 136 32 92 32"></polygon>
            </g>
        </g>
    </g>
</svg>