<svg width="400" height="496" viewBox="0 0 400 496" xmlns="http://www.w3.org/2000/svg" xmlns:xlink="http://www.w3.org/1999/xlink"><title>Monsters</title><defs><path id="a" d="M42.905.288H.175v73.75h42.73V.29z"/><path id="c" d="M0 .32v184.238h82.16V.318H0z"/><path id="e" d="M82.638 184.558V.318H.478v184.24z"/><path d="M7.53.338C5.182 2.765 2.77 5.463.538 8.324V44.88c8.895 4.13 22.09 2.932 31.715 1.19V.338H7.53z" id="g"/><path d="M.037 41.89c9.464 2.097 20.45 4.888 27.854 1.34V6.265c-1.332-1.814-2.835-3.243-4.476-4.117-1.126-.6-2.896-1.28-5.18-2.008H.037v41.75z" id="i"/><path id="k" d="M0 215.395h177.576V.462H0z"/><path d="M.194 3.896C.224 1.82 2.216.278 4.276.82c6.35 1.666 19.82 4.536 37.268 4.536 17.24 0 30.647-2.962 37.12-4.732.29-.08.58-.117.863-.117 1.732 0 3.22 1.404 3.238 3.177v.067c0 .13-.01.26-.027.39-2.48 18.99-25.622 27.185-41.877 27.184-15.99-.002-39.22-8.12-40.657-27.13-.005-.066-.008-.134-.01-.2v-.098z" id="m"/><path d="M20.312.208c-3.054.195-6.276.308-9.645.308C6.942.516 3.4.386.067.163v17.824h20.245V.207z" id="o"/></defs><g transform="translate(-69)" fill="none" fill-rule="evenodd"><ellipse fill="#18A0B0" opacity=".701" cx="378.5" cy="483.5" rx="70.5" ry="12.5"/><ellipse fill="#18A0B0" opacity=".701" cx="206.5" cy="425.5" rx="101.5" ry="12.5"/><path d="M316.587 76.887s24.98-42.614-7.183-73.49c-1.526-1.464-4.158-.33-3.98 1.726 1.01 11.578.998 37.41-17.014 49.49-23.615 15.84 28.177 22.274 28.177 22.274" fill="#EDE1C6"/><g transform="translate(140.15 .48)"><mask id="b" fill="#fff"><use xlink:href="#a"/></mask><path d="M7.966 74.04S-15.168 30.494 18.292.887c1.588-1.404 4.17-.168 3.902 1.878-1.504 11.53-2.6 37.34 14.88 50.108C59.99 69.61 7.966 74.04 7.966 74.04" fill="#EDE1C6" mask="url(#b)"/></g><g transform="translate(69 130.224)"><mask id="d" fill="#fff"><use xlink:href="#c"/></mask><path d="M30.89 174.358c9.37 13.08 27.987 12.05 36.414 5.457 11.342-8.872-16.748-72.366-10.093-89.427 6.656-17.06 20.337-2.678 20.337-2.678L82.16.32S26.436 9.88 7.196 47.234c0 0 10.768-1.358 12.698-1.323 0 0-14.497 10.355-19.895 42.14l11.24-1.706s-9.95 17.346-7.254 43.922l11.646-6.54s6.353 38.206 15.257 50.63" fill="#232E5D" mask="url(#d)"/></g><g transform="translate(307.51 130.224)"><mask id="f" fill="#fff"><use xlink:href="#e"/></mask><path d="M51.75 174.358c-9.372 13.08-27.99 12.05-36.415 5.457-11.343-8.872 16.747-72.366 10.092-89.427-6.655-17.06-20.335-2.678-20.335-2.678L.48.32S56.2 9.88 75.44 47.234c0 0-10.767-1.358-12.696-1.323 0 0 14.496 10.355 19.895 42.14L71.4 86.347s9.948 17.346 7.253 43.922l-11.647-6.54s-6.353 38.206-15.256 50.63" fill="#232E5D" mask="url(#f)"/></g><path d="M233.852 261.22c-6.423-1.008-9.086 1.767-9.132 4.79-.07 4.697 2.59 7.006 6.042 7.37 5.105.54 7.633-1.34 8.635-4.64 1.002-3.3-.66-6.756-5.545-7.52" fill="#44413E"/><path d="M347.82 123.018l14.792.973c-6.912-16.057-23.876-27.594-23.876-27.594 4.052-3.414 13.44-4.25 13.44-4.25-7.996-11.188-27.572-18.843-29.96-19.747l-.142-.18c5.246-4.893 14.404-9.032 14.404-9.032-13.006-8.517-33.006-11.284-33.006-11.284 1.44-5.963 9.344-14.93 9.344-14.93-20.65-.604-39.007 5.202-39.007 5.202 1.154-6.687 6.698-14.98 6.698-14.98-10.97-3.69-29.956 11.458-29.956 11.458-.413-3.407 4.1-21.196 4.1-21.196-13.748 1.79-24.378 17.647-24.378 17.647s-15.21-17.885-32.038-22.485c0 0 3.918 9.273 1.96 19.353 0 0-9.093-8.406-21.42-6.854 0 0 6.53 9.797 6.923 17.336 0 0-.58.13-1.62.427-8.29-1.725-21.618-3.597-35.585-1.877 0 0 6.344 3.623 11.877 13.1 0 0-20.794-.2-33.106 7.864 0 0 8.778 3.967 13.73 8.636 0 0-20.524 7.492-28.592 18.78 0 0 8.888.793 12.724 4.025 0 0-15.05 5.653-24.613 28.31l14.862-1.692s-3.787 15.803-5.29 44.188c-.094 1.755-.167 3.473-.223 5.16-5.747 9.34-15.43 27.12-15.935 41.617l16.15-6.458s-9.565 15.98-12.198 35.94l16.777-7.635c-1.303 2.38-7.166 24.367-6.573 40.187 0 0 5.165-2.41 11.408-5.028 4.08 22.03 8.807 40.4 12.727 58.362 1.77 8.11 6.507 24.196 23.833 24.196 19.588 0 30.898-7.977 32.313-23.43.376-4.12.376-9.062.903-13.405 0 0 12.87-2.745 38.763-4.2 21.518-1.21 42.355 2.98 42.355 2.98.528 4.344.02 10.508.447 14.625 1.617 15.645 14.484 23.43 34.072 23.43s22.167-16.066 23.833-24.196c2.36-11.51 4.498-23.755 6.428-36.154l11.813 6.465c-.765-14.94-5.526-27.956-7.918-33.652.1-.75.198-1.5.296-2.25l13.92 6.792c.494-10.89-4.034-24-8.43-33.976 5.99 3.163 10.852 6.125 10.852 6.125 1.856-18.5-5.94-36.586-9.316-42.85 3.42-33.64 1.437-73.842 1.437-73.842" fill="#26358A"/><path d="M205.515 139.198c-10.21-.653-20.49.388-30.23 3.365-11.402 3.485-20.757 9.65-20.954 20.97-.222 12.804 4.44 14.742 11.984 20.6 7.542 5.86 3.544 11.108 2.158 17.798-1.595 7.69 12.212 8.79 12.255 1.425.038-6.543-5.056-13.63 5.86-14.974 9.617-1.182 51.18-8.818 63.52-7.5 12.343 1.316 24.893 8.152 37.235 4.897 12.34-3.255 17.483-11.047 17.483-20.172s-6.36-20.444-21.94-21.494c-15.58-1.05-51.422-3.254-51.422-3.254l-25.948-1.658z" fill="#4560AA"/><path d="M194.175 145.424s-37.376 3.797-32.75 23.327c4.63 19.532 36.627 13.43 48.653 10.5 12.026-2.93 32.08-4.66 43.137-3.306 11.055 1.352 28.024 8.188 37.537 2.084 9.513-6.103 10.54-19.774 0-25.39-10.54-5.615-79.655-11.115-96.577-7.214" fill="#1D1C1B"/><g><g transform="translate(170.063 134.83)"><mask id="h" fill="#fff"><use xlink:href="#g"/></mask><path d="M30.51 51.295c1.432-.685 2.082-2.267 1.57-3.71C26.915 33.05 23.992 17.87 23.66 2.653c-.016-.756-.587-1.413-1.388-1.586L19.17.394c-.99-.214-2.008.197-2.494 1.008C7.65 16.466.79 30.824.54 47.848c-.017 1.025.518 1.994 1.413 2.567 2.1 1.344 6.658 3.403 15.11 3.673 5.58.178 10.117-1.197 13.448-2.793" fill="#FEFEFE" mask="url(#h)"/></g><g transform="translate(261.425 135.598)"><mask id="j" fill="#fff"><use xlink:href="#i"/></mask><path d="M27.89 43.817c.084-15.615-5.9-28.807-13.852-42.693-.42-.73-1.3-1.116-2.158-.942L9.19.726C8.493.866 8 1.44 7.98 2.116 7.645 16.085 4.936 29.98.164 43.195c-.407 1.13.196 2.36 1.38 2.757 3.208 1.07 8.363 2.406 14.126 2.406 5.594 0 9.16-1.484 11.168-2.725.648-.402 1.048-1.082 1.052-1.818" fill="#FEFEFE" mask="url(#j)"/></g></g><g><path d="M174.253 213.518c-4.873.544-6.193 3.083-5.56 5.28.98 3.418 3.417 4.563 5.997 4.143 3.816-.62 5.234-2.484 5.234-5.073 0-2.59-1.963-4.764-5.67-4.35M280.506 194.67c-7.003.78-8.898 4.43-7.99 7.587 1.41 4.91 4.91 6.555 8.617 5.95 5.484-.892 7.52-3.57 7.52-7.29s-2.82-6.843-8.147-6.248M297.012 188.54c-3.548.397-4.51 2.245-4.048 3.844.713 2.488 2.487 3.322 4.365 3.016 2.777-.453 3.81-1.81 3.81-3.693 0-1.885-1.43-3.468-4.128-3.166" fill="#4560AA"/><path d="M268.763 97.97c-2.637 13.357-16.382 30.89-36.05 30.89-19.666 0-35.17-10.547-35.17-29.22 0-18.676 15.502-36.423 35.17-36.423 19.665 0 39.674 16.397 36.05 34.752" fill="#FEFEFE"/><path d="M250.953 96.632c-1.297 6.567-8.053 15.185-17.72 15.185-9.667 0-17.287-5.184-17.287-14.364s7.62-17.902 17.286-17.902c9.667 0 19.502 8.06 17.72 17.082" fill="#15B2C5"/><path d="M244.837 95.713c-.798 4.046-4.962 9.357-10.92 9.357-5.956 0-10.653-3.195-10.653-8.85 0-5.66 4.696-11.034 10.653-11.034 5.957 0 12.018 4.967 10.92 10.527" fill="#13110D"/></g><g><path d="M328.21 384.068s4.463 1.507 8.286 5.055c4.916 4.562 9 12.972 15.713 14.646 6.007 1.497 13.873-2.486 20.537-9.325 7.247-7.437 16.878-7.188 16.878-7.188s.81 3.5 4.168 5.007c6.97 3.13 10.91 13.235 21.518 9.645 5.943-2.01 7.925-6.816 10.83-14.946 2.308-6.452 5.6-9.233 5.6-9.233l-30.562-8.078-61.596 3.998-11.373 10.418z" fill="#AE1917"/><g transform="translate(291 196.143)"><mask id="l" fill="#fff"><use xlink:href="#k"/></mask><path d="M168.36 140.86c-11.8 7.99-23.003 10.206-32.594 9.704 10.34-12.957 21.65-36.59 21.65-77.998 0-76.273-70.62-72.062-70.62-72.062h-.223s-70.62-4.21-70.62 72.062c0 43.745 12.623 67.65 23.39 80.09-9.003-.135-19.195-2.705-29.895-9.83-4.986-3.32-11.297 1.83-8.938 7.333 3.718 8.672 10.265 18.66 21.758 26.175 1.493.977 2.205 2.794 1.71 4.507-2.36 8.162-8.09 17.303-.025 21.882 16.616 9.434 29.016-13.675 44.904-10.705 14.185 2.65 12.418 27.936 31.03 22.65 13.746-3.903 2.78-24.952 17.148-28.417 13.798-3.328 24.387 16.837 39.117 9.35 7.844-3.985 5.326-11.715 1.846-19.475-.758-1.69-.267-3.69 1.204-4.814 9.24-7.057 14.69-15.767 17.896-23.413 2.25-5.362-3.92-10.3-8.738-7.04" fill="#CF1417" mask="url(#l)"/></g><path d="M436.574 259.043c-9.435-2.185-19.03-3.723-28.65-4.8-9.27.19-18.4.748-27.624 1.694-9.55-1.322-19.2-1.978-28.833-2.175-10.982 1.21-21.73 2.955-32.535 5.28.007-4.188.03-6.285.116-10.48 9.04-2.67 18.07-4.954 27.29-6.908 11.065-.153 21.972.23 32.993 1.17 11.785-2.148 23.776-3.382 35.74-3.836 7.796.782 15.556 1.907 23.252 3.37-.645 6.683-.995 10.02-1.748 16.685M419.15 234.68c-6.893-.097-13.686-.025-20.574.222-6.563.604-13.02 1.355-19.545 2.276-6.868-.373-13.645-.57-20.524-.6-7.698.844-15.36 2.02-22.955 3.525.14-2.635.215-3.954.38-6.59 6.26-1.735 12.582-3.113 18.936-4.452 7.654-.34 15.323-.36 22.98-.06 8.13-1.716 16.338-3.06 24.59-4.025 6.494.057 9.75.18 16.27.617.2 3.636.29 5.454.444 9.09" fill="#AE1917"/><path d="M358.564 259.68c-.982 5.234-6.1 12.106-13.423 12.106s-13.096-4.134-13.096-11.452 5.772-14.273 13.096-14.273c7.323 0 14.774 6.426 13.424 13.62" fill="#FEFEFE"/><path d="M350.077 257.612c-.35 1.864-2.172 4.31-4.78 4.31s-4.663-1.47-4.663-4.077c0-2.606 2.055-5.083 4.663-5.083 2.607 0 5.26 2.29 4.78 4.85" fill="#13110D"/><path d="M403.978 270.702c-4.53-3.26-9.018-9.33-5.76-16.27 3.26-6.937 9.75-10.568 16.692-7.312 6.944 3.256 10.974 11.82 7.716 18.758-3.258 6.94-12.424 9.304-18.648 4.824" fill="#FEFEFE"/><path d="M408.712 261.363c-1.47-1.058-2.847-3.624-1.79-5.876 1.058-2.252 3.165-3.43 5.418-2.374 2.254 1.057 3.563 3.837 2.505 6.09-1.058 2.25-4.112 3.614-6.133 2.16" fill="#13110D"/><path d="M389.243 270.324c.878.082 1.614-.666 1.496-1.54-.374-2.766-2.224-7.86-13.392-7.81-4.76.022-11.994 1.676-13.338 7.515-.22.95.59 1.83 1.553 1.677 2.246-.355 6.47 6.238 11.785 6.453 5.403.22 9.68-6.506 11.895-6.296M419.348 277.63c2.158-.466 4.213 1.103 4.467 3.372.527 4.696.076 9.732-2.178 14.053-3.977 7.624-9.787 11.986-16.7 16.234-7.71 4.738-17.81 6.507-26.717 6.78-13.09.404-21.537-3.108-30.784-8.448-9.267-5.35-14.122-16.402-14.302-27.482-.046-2.828 2.393-5.01 5.086-4.55 3.972.682 9.35 1.595 11.837 1.978 8.245 1.27 16.886 2.574 25.06 2.636 11.37.086 23.692-.72 35.282-2.74 1.888-.33 5.93-1.185 8.948-1.835" fill="#AE1917"/><g><g transform="translate(337.014 281.454)"><mask id="n" fill="#fff"><use xlink:href="#m"/></mask><path d="M78.663.624c2.22-.607 4.373 1.234 4.075 3.516C80.26 23.13 57.116 31.326 40.86 31.324 24.87 31.322 1.64 23.204.203 4.194.035 1.973 2.118.253 4.275.82c6.353 1.668 19.823 4.54 37.27 4.54 17.24 0 30.646-2.963 37.118-4.734" fill="#1D1C1B" mask="url(#n)"/></g><g transform="translate(367.89 286.294)"><mask id="p" fill="#fff"><use xlink:href="#o"/></mask><path d="M13.072 16.76c2.587-9.78 4.878-19.745 7.24-29.64-6.85-.168-13.432-.594-20.244-1.32C1.215-3.267 4.9 7.187 8.758 17.35c.172.456.706.717 1.325.615.775-.127 1.163-.193 1.938-.328.5-.088.94-.453 1.052-.876" fill="#FEFEFE" mask="url(#p)"/></g></g></g><g><path d="M321.578 258.924H307.12v-4.836c0-6.648-5.42-12.088-12.048-12.088h-77.107c-6.626 0-12.048 5.44-12.048 12.088v4.836H191.46c-3.976 0-7.23 3.264-7.23 7.253v14.506c0 4.715 2.892 10.154 7.23 14.506l16.024 12.45c5.06 19.704 21.445 34.936 41.806 37.837v12.572h-4.82c-3.975 0-7.228 3.263-7.228 7.252v2.417h-2.41c-3.975 0-7.228 3.263-7.228 7.253v2.417h57.83v-2.417c0-3.99-3.253-7.254-7.23-7.254h-2.408V365.3c0-3.99-3.253-7.253-7.23-7.253h-4.818v-12.573c20.36-2.9 36.746-18.133 41.806-37.837l16.024-12.45c4.338-4.352 7.23-9.792 7.23-14.507v-14.506c0-3.99-3.254-7.253-7.23-7.253zm-125.3 30.825c-3.373-3.507-4.82-7.012-4.82-9.067v-14.506h14.46v31.067l-9.64-7.495zm125.3-9.067c0 2.055-1.446 5.56-4.82 9.066L307 297.243v-31.067h14.458v14.506h.12z" fill="#FCD200"/><path d="M213.146 377.39h86.746c3.976 0 7.23 3.263 7.23 7.253v4.835c0 3.99-3.254 7.253-7.23 7.253h-86.746c-3.976 0-7.23-3.263-7.23-7.252v-4.835c0-3.99 3.254-7.253 7.23-7.253z" fill="#E4E7E7"/><path d="M273.386 274.397l-8.313 8.703s-8.434-9.67-8.554-9.67c-.122 0-8.435 9.67-8.435 9.67l-8.313-8.582c-1.204-1.572-2.41-1.45-2.41-.12l2.41 20.67c0 1.33 1.085 2.418 2.41 2.418h28.915c1.325 0 2.41-1.088 2.41-2.418l2.41-20.55c-.12-2.055-1.688-.967-2.53-.12zm-2.41 28.045H242.06c-1.324 0-2.408 1.088-2.408 2.417 0 1.33 1.084 2.417 2.41 2.417h28.914c1.326 0 2.41-1.088 2.41-2.418s-1.084-2.418-2.41-2.418z" fill="#E5A300"/><path d="M237.604 362.883c-.242.726-.362 1.572-.362 2.418v2.42h38.554v-2.42c0-.845-.12-1.69-.362-2.417h-37.83zm-9.64 9.67c-.24.726-.36 1.573-.36 2.42v2.417h57.83v-2.418c0-.846-.12-1.693-.362-2.418h-57.107z" fill="#E3BD59"/><path d="M205.917 389.478c0 3.99 3.253 7.253 7.23 7.253h86.745c3.976 0 7.23-3.263 7.23-7.252v-2.418H205.916v2.418z" fill="#D2D5D5"/><path d="M217.965 294.826v-40.738c0-6.648 5.422-12.088 12.048-12.088h-12.048c-6.627 0-12.048 5.44-12.048 12.088v40.738c0 28.287 22.65 51.134 50.6 51.134 2.05 0 4.098-.12 6.025-.363-25.18-3.022-44.577-24.54-44.577-50.77z" fill="#E5A300"/></g></g></svg>