<?xml version="1.0" encoding="utf-8"?>
<!-- Generator: Adobe Illustrator 19.2.1, SVG Export Plug-In . SVG Version: 6.00 Build 0)  -->
<svg version="1.1" id="Layer_1" xmlns="http://www.w3.org/2000/svg" xmlns:xlink="http://www.w3.org/1999/xlink" x="0px" y="0px"
	 viewBox="0 0 329.7 375.8" style="enable-background:new 0 0 329.7 375.8;" xml:space="preserve">
<style type="text/css">
	.st0{fill:none;}
</style>
<title>Monster_Assets</title>
<g id="Monster_01">
	<path id="Shade" class="st0" d="M79.7,320.1c5.1,1.9,9.7,4.7,13.7,8.3c8.1,7.5,14.9,21.4,26,24.2c9.9,2.5,22.9-4.1,33.9-15.4
		c12-12.3,27.9-11.9,27.9-11.9c1,3.6,3.5,6.6,6.9,8.3c11.5,5.2,18,21.9,35.5,15.9c9.8-3.3,13.1-11.3,17.9-24.7
		c3.8-10.7,9.2-15.3,9.2-15.3l-50.5-13.4l-101.7,6.6L79.7,320.1z"/>
	<path id="Colour" class="st0" d="M296.3,242.3c-19.5,13.2-38,16.9-53.8,16c17.1-21.4,35.8-60.5,35.8-128.9
		c0-126.1-116.6-119.1-116.6-119.1h-0.4c0,0-116.6-7-116.6,119.1c0,72.3,20.8,111.8,38.6,132.4c-14.9-0.2-31.7-4.5-49.4-16.2
		c-8.2-5.5-18.7,3-14.8,12.1c7.4,17.7,19.9,32.7,35.9,43.3c2.5,1.6,3.6,4.6,2.8,7.5c-3.9,13.5-13.4,28.6,0,36.2
		c27.4,15.6,47.9-22.6,74.2-17.7c23.4,4.4,20.5,46.2,51.2,37.4c22.7-6.5,4.6-41.2,28.3-47c22.8-5.5,40.3,27.8,64.6,15.5
		c13-6.6,8.8-19.4,3-32.2c-1.3-2.8-0.4-6.1,2-8c13.1-10.1,23.3-23.4,29.6-38.7C314.4,245.1,304.2,236.9,296.3,242.3z"/>
</g>
<g id="Monster_02">
	<g id="Shade-2">
		<path class="st0" d="M26.9,170.1c-3.2,5.5-6.8,10.7-10.7,15.7c-5.1,6.5-12.3,18.9-16.3,40l11.9-1.6c0,0-10.9,18.9-8.8,48.3
			l12.4-6.9c0,0,5.6,42.3,14.5,56.3c9.5,14.7,29,14,38,7c12.1-9.5-15.5-80.3-8-99s21.4-2.4,21.4-2.4l7.3-96.3
			C54.6,131.1,35.3,155.9,26.9,170.1z"/>
		<path class="st0" d="M329.7,225.7c-4-21.1-11.2-33.5-16.3-40c-3.9-5-7.5-10.2-10.7-15.7c-8.3-14.2-27.7-39-61.7-39l7.3,96.3
			c0,0,13.9-16.2,21.4,2.4s-20.2,89.5-8,99c9,7,28.6,7.7,38-7c9-14,14.6-56.3,14.6-56.3l12.4,6.9c2.1-29.4-8.8-48.3-8.8-48.3
			L329.7,225.7z"/>
	</g>
	<path id="Colour-2" class="st0" d="M267.1,347.8c-1.8,9-4.4,26.7-25,26.7s-27.7-14.9-27.7-25.9c-0.1-4.9-0.4-9.9-1-14.8
		c0,0-29.4-6-51.9-4.6c-27.2,1.6-46.8,4.6-46.8,4.6c-0.6,4.9-0.9,9.9-1,14.8c0,11-7.1,25.9-27.7,25.9c-18.2,0-23.1-17.8-25-26.7
		c-9.2-44.2-22.5-90.6-23.2-179C36.9,53,117.1,34.3,117.1,34.3c-0.4-8.3-7.3-19.1-7.3-19.1c12.9-1.7,22.5,7.6,22.5,7.6
		c2-11.1-2-21.4-2-21.4c17.6,5.1,33.6,24.8,33.6,24.8S175,8.6,189.4,6.7c0,0-4.7,19.6-4.3,23.4c0,0,19.9-16.7,31.4-12.6
		c0,0-5.8,9.2-7,16.5c0,0,78.9,11,78.9,134.8C288.4,168.7,281.8,272.4,267.1,347.8z"/>
</g>
<g id="Monster_03">
	<g id="Shade-3">
		<path class="st0" d="M50.3,182.5c0,0-49.6,13.3-28.2,59.5c0,0-27.5,25.6,0.4,57.7c0,0-10.1,36.3,15.8,43.6s34.8-22.2,34.2-34.9
			c0,0,13.5-2.8,19-16.1S90.5,253,90.5,253l11-68.7L50.3,182.5z"/>
		<path class="st0" d="M307.3,241.6c13.8-61.4-28.9-58.7-28.9-58.7l-51.3,2.1l11.9,68.5c0,0-5.9,26-0.3,39.3s19.2,16,19.2,16
			c-0.4,12.7,8.9,42.1,34.7,34.5s15.2-43.8,15.2-43.8C335.1,266.8,307.3,241.6,307.3,241.6z"/>
	</g>
	<path id="Colour-3" class="st0" d="M229.7,39.3c-0.1-6.9-2.1-21-17.3-25.8c-11.3-3.6-19.8,0.6-25.2,5.3c-5.6-9.2-16.8-20.9-36-18.5
		c-17,2.1-25.6,12.5-29.9,21.9c-4.6-2.7-13.6-6.1-22.1,0.9s-7.6,16-6.1,21.3c-22.7,16.1-52.2,51-51.7,123.2
		c0.7,89.4,13.7,136.4,22.6,181.1c1.8,9.1,6.7,27,24.4,27c20,0,27-15.1,27-26.2c0.1-5,0.4-10,1-15c0,0,19.2-3.1,45.6-4.7
		c22-1.3,50.6,4.7,50.6,4.7c0.6,5,0.9,10,1,15c0,11.1,6.9,26.2,27,26.2s22.7-18,24.4-27c14.3-76.2,20.8-181.1,20.8-181.1
		C285.9,85.1,252.5,52.2,229.7,39.3z"/>
</g>
<g id="Eye_01">
	<path id="Background" class="st0" d="M203.9,127c-3.2,17.2-20.1,39.9-44.2,39.9s-43.1-13.6-43.1-37.7s19-47,43.1-47
		S208.4,103.3,203.9,127z"/>
	<path id="Colour-4" class="st0" d="M182.1,125.3c-1.6,8.5-9.9,19.6-21.7,19.6s-21.2-6.7-21.2-18.5s9.3-23.1,21.2-23.1
		S184.3,113.7,182.1,125.3z"/>
	<path id="Centre" class="st0" d="M174.6,124.1c-1,5.2-6.1,12.1-13.4,12.1s-13.1-4.1-13.1-11.4s5.8-14.2,13.1-14.2
		S175.9,116.9,174.6,124.1z"/>
</g>
<g id="Eye_02">
	<path id="Background-2" class="st0" d="M129.7,138.2c-1,9.9-10.6,20.5-23.1,20.3s-22.2-7.3-22-19.8s10.1-24.2,22.6-24
		S131,125.8,129.7,138.2z"/>
	<path id="Centre-2" class="st0" d="M115.2,137.4c0.2,3.1-3.8,6.9-8.3,6.9s-8-2.5-7.9-6.7c0.1-4.4,3.7-8,8.1-8.1
		C111.5,129.5,114.8,132.4,115.2,137.4z"/>
	<path id="Background-3" class="st0" d="M193.8,139.3c1.1,10.4,11.5,19.6,23.7,18.9s21.5-8.3,20.7-20.6s-11.2-23.8-23.4-22.5
		C200.7,116.5,192.4,126.1,193.8,139.3z"/>
	<path id="Centre-3" class="st0" d="M208.3,138.1c0.7,4,4,6.4,8.2,6.1c3.8-0.1,6.8-3,7.2-6.8c0.2-4-3.4-8.3-7.7-8
		S207.4,133.4,208.3,138.1z"/>
	<g id="Eyebrows">
		<path class="st0" d="M247.2,113c-1.3-4.2-4.5-14.8-17-19.1c-10.6-3.6-22.2-3.5-32.7,0.4l-2,1.4l4.2,11.6l5-2
			c7-2.9,14.7-3,21.8-0.5c5.5,2,10,6,12.6,11.2l1.2,3l4.3-1l4-1L247.2,113z"/>
		<path class="st0" d="M91.3,94.8c-9.2,4-16.1,12.1-18.4,21.9l-1.1,4.2l4,0.7l4.9,1.4l1-3.3c0.4-0.8,4.9-10.2,14.5-14.3
			c12.4-5.3,22.4-0.7,23.5-0.1l3.6,1.6l5.8-12.7l-3.6-1.5C125.5,92.5,110.1,86.8,91.3,94.8z"/>
	</g>
</g>
<path id="Mouth_01" class="st0" d="M241.6,183.6L241.6,183.6c-0.7-1.4-2-2.5-3.5-3c-2.8-0.9-5.9,0.6-6.9,3.4
	c-3.2,7.8-7.7,15-13.4,21.2c-14.2,15.5-33.7,23.3-57.8,23.3s-43.3-7.8-57-23.2c-5.5-6.2-9.9-13.4-12.8-21.1c-1-2.8-4-4.3-6.9-3.5
	l-1.2,0.3v0.2c-2.5,1.3-3.6,4.3-2.7,7c3.4,9.1,8.4,17.4,14.8,24.6c11,12.5,31.3,27.3,65.8,27.3s55.1-14.8,66.4-27.2
	c6.6-7.2,11.8-15.5,15.5-24.6C242.4,186.7,242.3,185,241.6,183.6z"/>
<g id="Mouth_02">
	<path id="Background-4" class="st0" d="M205.6,184.5c-3.7,0.4-7.5,1.1-11.1,2.1c-19.5,4.7-39.9,5.1-59.6,1.4
		c-3.7-0.7-7.6-1.5-11.8-2.4c-25.5-5.6-33.1,5-34.4,19.4s8.8,35.5,75.6,33.4c62.7-2,70.9-29.2,66.3-42.5
		C226.4,184,216.2,183.5,205.6,184.5z"/>
	<path id="Tooth" class="st0" d="M111.7,180.2c1,12.1,5.6,23,11.5,34.3c0.4,0.7,1.1,1.1,1.9,0.9l2.4-0.5c0.6-0.1,1.1-0.7,1.1-1.3
		c0.5-10.7,2.3-21.3,5.4-31.6L111.7,180.2z"/>
	<path id="Tooth-2" class="st0" d="M206,180c-0.4,12.1-3.8,23.9-10,34.2c-0.5,0.8-1.5,1.1-2.3,0.7l-1.6-0.8c-0.4-0.2-0.6-0.6-0.7-1
		c-0.6-10-2.1-20-4.6-29.7L206,180z"/>
	<g id="Outline">
		<path class="st0" d="M239.5,193.3c-2.7-14.5-16.9-18.5-28.9-17.1c-4.2,0.6-8.3,1.5-12.4,2.7c-21.6,6.1-44.4,6.7-66.3,1.9
			c-4.1-0.9-8.5-2-13.1-3.2c-28.4-7.3-36.8,6.5-38.3,25.3s9.7,43.3,84.1,43.6C232.9,246.8,242.9,211.6,239.5,193.3z M164.2,238.3
			c-66.7,2.1-76.9-19-75.6-33.4s8.9-25,34.4-19.4c4.2,0.9,8.1,1.7,11.8,2.4c19.7,3.8,40.1,3.3,59.6-1.4c3.7-0.9,7.4-1.6,11.1-2.1
			c10.7-1,20.8-0.5,25,11.3C235.2,209.2,226.9,236.4,164.2,238.3L164.2,238.3z"/>
	</g>
</g>
</svg>
