<?xml version="1.0" encoding="utf-8"?>
<!-- Generator: Adobe Illustrator 19.2.1, SVG Export Plug-In . SVG Version: 6.00 Build 0)  -->
<svg version="1.1" id="Layer_1" xmlns="http://www.w3.org/2000/svg" xmlns:xlink="http://www.w3.org/1999/xlink" x="0px" y="0px"
	 viewBox="0 0 329.7 375.8" style="enable-background:new 0 0 329.7 375.8;" xml:space="preserve">
<g id="Monster_Full">
	<g id="Body03">
		<path class="st0" fill="#F4F4F4" d="M79.7,320.1c5.1,1.9,9.7,4.7,13.7,8.3c8.1,7.5,14.9,21.4,26,24.2c9.9,2.5,22.9-4.1,33.9-15.4
			c12-12.3,27.9-11.9,27.9-11.9c1,3.6,3.5,6.6,6.9,8.3c11.5,5.2,18,21.9,35.5,15.9c9.8-3.3,13.1-11.3,17.9-24.7
			c3.8-10.7,9.2-15.3,9.2-15.3l-50.5-13.3l-101.7,6.6L79.7,320.1z"/>
		<path class="st0" fill="#F4F4F4" d="M296.3,242.3c-19.5,13.2-38,16.9-53.8,16c17.1-21.4,35.8-60.5,35.8-128.9c0-126.1-116.6-119.1-116.6-119.1
			h-0.4c0,0-116.6-7-116.6,119.1c0,72.3,20.8,111.8,38.6,132.4c-14.9-0.2-31.7-4.5-49.4-16.2c-8.2-5.5-18.7,3-14.8,12.1
			c7.4,17.7,19.9,32.7,35.9,43.3c2.5,1.6,3.6,4.6,2.8,7.4c-3.9,13.5-13.4,28.6,0,36.2c27.4,15.6,47.9-22.6,74.2-17.7
			c23.4,4.4,20.5,46.2,51.3,37.4c22.7-6.4,4.6-41.2,28.3-47c22.8-5.5,40.3,27.8,64.6,15.5c13-6.6,8.8-19.4,3-32.2
			c-1.3-2.8-0.4-6.1,2-8c13.1-10.1,23.3-23.4,29.6-38.7C314.4,245.1,304.2,236.9,296.3,242.3z"/>
	</g>
	<g id="Body02">
		<path class="st0" fill="#F4F4F4" d="M26.9,170.1c-3.2,5.5-6.8,10.7-10.7,15.7c-5.1,6.5-12.3,18.9-16.3,40l11.8-1.6c0,0-10.9,18.9-8.8,48.3
			l12.4-6.9c0,0,5.6,42.3,14.5,56.3c9.5,14.7,29,14.1,38,7c12.1-9.5-15.5-80.3-8-99s21.4-2.4,21.4-2.4l7.3-96.3
			C54.6,131.1,35.3,155.9,26.9,170.1z"/>
		<path class="st0" fill="#F4F4F4" d="M329.7,225.7c-4-21.1-11.2-33.5-16.3-40c-3.9-5-7.5-10.2-10.7-15.7c-8.3-14.2-27.7-39-61.7-39l7.3,96.3
			c0,0,13.9-16.2,21.4,2.4s-20.2,89.5-8,99c9,7,28.6,7.7,38-7c9-14,14.6-56.3,14.6-56.3l12.4,6.9c2.1-29.4-8.8-48.3-8.8-48.3
			L329.7,225.7z"/>
		<path class="st0" fill="#F4F4F4" d="M267.1,347.8c-1.8,9-4.4,26.7-25,26.7s-27.7-14.9-27.7-25.9c-0.1-4.9-0.4-9.9-1-14.8c0,0-29.4-6-51.9-4.6
			c-27.2,1.6-46.8,4.6-46.8,4.6c-0.6,4.9-0.9,9.9-1,14.8c0,11-7.1,25.9-27.7,25.9c-18.2,0-23.1-17.8-25-26.7
			c-9.2-44.2-22.5-90.6-23.2-179C37,53,117.1,34.3,117.1,34.3c-0.4-8.3-7.3-19.1-7.3-19.1c12.9-1.7,22.5,7.6,22.5,7.6
			c2-11.1-2-21.4-2-21.4c17.6,5.1,33.6,24.8,33.6,24.8S175,8.7,189.4,6.7c0,0-4.7,19.6-4.3,23.4c0,0,19.9-16.7,31.4-12.7
			c0,0-5.8,9.2-7,16.5c0,0,78.9,11,78.9,134.8C288.4,168.7,281.8,272.4,267.1,347.8z"/>
	</g>
	<g id="Body01">
		<path class="st0" fill="#F4F4F4" d="M50.3,182.5c0,0-49.6,13.3-28.2,59.5c0,0-27.5,25.6,0.4,57.7c0,0-10.1,36.3,15.8,43.6s34.8-22.2,34.2-34.9
			c0,0,13.5-2.8,19-16.2S90.5,253,90.5,253l11-68.7L50.3,182.5z"/>
		<path class="st0" fill="#F4F4F4" d="M307.3,241.6c13.8-61.4-28.9-58.7-28.9-58.7l-51.3,2.1l11.9,68.6c0,0-5.9,26-0.3,39.3s19.2,15.9,19.2,15.9
			c-0.4,12.7,8.9,42.1,34.7,34.5s15.2-43.8,15.2-43.8C335.1,266.8,307.3,241.6,307.3,241.6z"/>
		<path class="st0" fill="#F4F4F4" d="M229.7,39.3c-0.1-6.9-2.1-21-17.3-25.8c-11.3-3.6-19.8,0.6-25.2,5.3c-5.6-9.2-16.8-20.9-36-18.5
			c-17,2.2-25.6,12.5-29.9,21.9c-4.6-2.7-13.6-6.1-22.1,0.9s-7.6,16-6.1,21.3c-22.7,16.2-52.2,51-51.7,123.2
			c0.7,89.4,13.7,136.4,22.6,181.2c1.8,9.1,6.7,27,24.4,27c20,0,27-15.1,27-26.2c0.1-5,0.4-10,1-15c0,0,19.2-3.1,45.6-4.7
			c22-1.3,50.7,4.7,50.7,4.7c0.6,5,0.9,10,1,15c0,11.1,6.9,26.2,27,26.2s22.7-17.9,24.4-27c14.3-76.2,20.8-181.2,20.8-181.2
			C285.9,85.1,252.5,52.2,229.7,39.3z"/>
	</g>
	<g id="Mouth10">
		<path class="st1" style="opacity:0.2;enable-background:new;" fill="#010101" d="M200.5,157.1c-21.6,6.1-44.4,6.8-66.4,1.9c-4.1-0.9-8.5-2-13.1-3.2c-28.4-7.3-36.8,6.5-38.3,25.3
			s9.7,43.3,84.1,43.6c68.3,0.3,78.3-34.9,74.9-53.2c-2.7-14.6-16.9-18.4-28.9-17.1C208.6,155,204.5,155.9,200.5,157.1z"/>
		<g>
			<defs>
				<path id="SVGID_1_" d="M196.7,164.8c-19.5,4.7-39.9,5.1-59.6,1.4c-3.7-0.7-7.6-1.5-11.8-2.4c-25.5-5.7-33.1,5-34.4,19.4
					s8.8,35.5,75.6,33.4c62.7-2,70.9-29.2,66.3-42.5c-4.2-11.9-14.3-12.3-25-11.3C204,163.2,200.3,163.9,196.7,164.8z"/>
			</defs>
			<clipPath id="SVGID_2_">
				<use xlink:href="#SVGID_1_"  style="overflow:visible;"/>
			</clipPath>
			<g class="st2" style="clip-path:url(#SVGID_2_);">
				<rect x="74.1" y="147.3" class="st3" fill="#231F20" width="174.8" height="77.8"/>
				<path class="st4" fill="#FFFFFF" d="M130.2,194.4c0.7-14.9,3.9-29.7,9.6-43.5c-10.7-0.8-15.9-1.3-26.2-2.1c-2.2,17.4,3.4,31.5,11.2,46.4
					c0.4,0.7,1.1,1.1,1.9,0.9l2.4-0.5C129.8,195.6,130.2,195,130.2,194.4z"/>
				<path class="st4" fill="#FFFFFF" d="M197.6,195c7.7-13.1,11.5-28.4,9.5-43.6c-8.4,1-12.8,1.5-21.6,2.6c4.2,12.9,6.7,26.3,7.5,39.8
					c0,0.4,0.3,0.8,0.7,1l1.6,0.8C196.1,196,197.1,195.8,197.6,195z"/>
			</g>
		</g>
	</g>
	<g id="Mouth09">
		<path class="st1" style="opacity:0.2;enable-background:new;" fill="#010101" d="M231.7,221.5c-3.8-18.2-7.5-36.5-11.1-54.8c-0.5-2.3-2.6-4-5-3.8c-38,2.9-76,4.3-114.1,4.3
			c-2.4,0-4.4,1.7-4.7,4.1c-2.3,16.8-4.6,33.6-7,50.3c-0.2,1.3,0.2,2.7,1.1,3.7c0.9,1,2.2,1.6,3.6,1.7c44.2,2,88.5,2.1,132.7,0.2
			c1.4-0.1,2.8-0.7,3.7-1.8C231.7,224.2,232,222.8,231.7,221.5z"/>
		<path class="st4" fill="#FFFFFF" d="M105.8,177.5c-1.7,13.3-3.5,26.5-5.2,39.8c-0.2,1.6,1,3.1,2.7,3.3c0.1,0,0.2,0,0.2,0
			c38.3,1.5,76.5,1.6,114.7,0.1c1.7,0,3-1.4,2.9-3.1c0-0.1,0-0.3,0-0.4c-2.9-14.6-5.8-29.1-8.5-43.7c-0.3-1.5-1.6-2.5-3.1-2.4
			c-33.5,2.4-67.1,3.7-100.6,3.8C107.2,175,106,176.1,105.8,177.5z"/>
		<path class="st5" fill="none" stroke="#231F20" stroke-width="3" stroke-miterlimit="10" d="M128.6,188.3"/>
		<g>
			<defs>
				<path id="SVGID_3_" d="M106.1,175c-2,15.2-4,30.4-6,45.5c40.4,2,118.1,5,121.6,0.1c2.2-3.1-6.7-33.1-9.7-49.6
					C176.7,173.6,141.4,174.9,106.1,175z"/>
			</defs>
			<clipPath id="SVGID_4_">
				<use xlink:href="#SVGID_3_"  style="overflow:visible;"/>
			</clipPath>
			<g class="st6" style="clip-path:url(#SVGID_4_);">
				<path class="st3" fill="#231F20" d="M99.8,202.6c0-2.1,0-3.2,0-5.4c40.3-0.4,80.4-2.4,120.4-6l0.5,5.3C180.5,200.2,140.2,202.2,99.8,202.6z"/>
			</g>
		</g>
		<path class="st1" style="opacity:0.2;enable-background:new;" fill="#010101" d="M79.7,182l-1.8,29.5c0,0.6,0.4,1.1,1,1.2l3.2,0.2c0.6,0,1.1-0.4,1.2-0.9c1.5-10.1,3-20.1,4.5-30.2
			c0.1-0.6-0.3-1.2-0.9-1.2c-0.1,0-0.2,0-0.2,0l-5.9,0.4C80.2,181,79.8,181.4,79.7,182z"/>
		<path class="st1" style="opacity:0.2;enable-background:new;" fill="#010101" d="M246.5,208.3c-3.4-12.7-6.7-25.3-10-38c-0.2-0.7-0.9-1.2-1.6-1.1l-3.7,0.9c-0.7,0.2-1.1,0.9-0.9,1.6
			c2.3,13.3,4.6,26.6,6.9,39.8c0.1,0.8,0.8,1.3,1.6,1.2c0.1,0,0.2,0,0.3-0.1l6.7-2.8C246.4,209.6,246.7,208.9,246.5,208.3z"/>
		<path class="st1" style="opacity:0.2;enable-background:new;" fill="#010101" d="M145.1,146.2l4.5,11.8c0.1,0.4,0.6,0.7,1,0.7h19.5c0.5,0,0.9-0.3,1-0.8l4.1-15.1c0.2-0.5-0.1-1.1-0.6-1.3
			c-0.2-0.1-0.3-0.1-0.5,0l-28.1,3.3c-0.6,0-1,0.5-0.9,1.1C145,146,145,146.1,145.1,146.2z"/>
	</g>
	<path id="Mouth08" class="st7" fill="#231F20" style="opacity:0.2;enable-background:new;" d="M245,162.6L245,162.6c-0.7-1.4-2-2.5-3.5-3c-2.8-0.9-5.9,0.6-6.9,3.4c-3.2,7.8-7.7,15-13.4,21.2
		c-14.2,15.5-33.7,23.3-57.8,23.3s-43.3-7.8-57-23.2c-5.5-6.2-9.9-13.4-12.8-21.1c-1-2.8-4-4.3-6.9-3.6l-1.2,0.3v0.2
		c-2.5,1.3-3.6,4.3-2.7,7c3.4,9,8.4,17.4,14.8,24.6c11,12.4,31.3,27.3,65.8,27.3c34.4,0,55.1-14.8,66.4-27.2
		c6.6-7.2,11.8-15.5,15.5-24.6C245.8,165.7,245.7,164,245,162.6z"/>
	<g id="Mouth07">
		<path class="st8" fill="#231F20" style="opacity:0.1;enable-background:new;" d="M242.6,171.1c-2.7-14.6-16.9-18.4-28.9-17.1c-4.2,0.6-8.3,1.5-12.4,2.7c-21.6,6.1-44.4,6.8-66.4,1.9
			c-4.1-0.9-8.5-2-13.1-3.2c-28.4-7.3-36.8,6.5-38.3,25.3c-1,13.1,4,28.8,32.1,37.3c0.6,6.6,4.8,36.1,31.4,36.1
			c30,0,30.6-30.1,30.6-30.1l0,0C237,221.1,245.8,188.5,242.6,171.1z"/>
		<g>
			<defs>
				<path id="SVGID_5_" d="M197.6,164.4c-19.5,4.7-39.9,5.1-59.6,1.4c-3.7-0.7-7.6-1.5-11.8-2.4c-25.5-5.7-33.1,5-34.4,19.4
					s8.8,35.5,75.6,33.4c62.7-2,70.9-29.2,66.3-42.5c-4.2-11.9-14.3-12.3-25-11.3C204.9,162.8,201.2,163.5,197.6,164.4z"/>
			</defs>
			<clipPath id="SVGID_6_">
				<use xlink:href="#SVGID_5_"  style="overflow:visible;"/>
			</clipPath>
			<g class="st9" style="clip-path:url(#SVGID_6_);">
				<rect x="75" y="147.1" class="st3" fill="#231F20" width="174.8" height="77.8"/>
				<path class="st4" fill="#FFFFFF" d="M109.8,156.9c0,0-1.2,12.5,3,13.9c5.5,1.8,28.6,6.2,50.5,5.4c22.5-0.8,54-2.6,54.5-6.4
					c0.9-6.7,1.2-19.9,1.2-19.9l-107.7,1.6L109.8,156.9z"/>
				<path class="st4" fill="#FFFFFF" d="M218.6,222.8c0,0,9.4-12,5.2-13.3c-5.5-1.8-22.8-3.3-60.5-3c-34.2,0.3-60.3,0.5-60.8,4.2
					c-0.9,6.7,8.3,16.1,8.3,16.1l106.2,1.3L218.6,222.8z"/>
			</g>
		</g>
		<path class="st10" fill="#AC2329" d="M162.8,206.5c0,0,28.2-0.1,39.8,0.5c0,0-1.3-12.4-12-17.4c-4.6-1.9-9.5-3.1-14.5-3.5L162.8,206.5z"/>
		<path class="st11" fill="#CF242F" d="M188.6,188.7c-6.3-2-12.8-3.2-19.3-3.6c-21-1.4-45.7,14.6-44.8,39.4c0.6,17.4,16.5,29.6,32,21.5
			c7.9-4.1,12-12.9,12.1-21.7c0.1-5.6-1.7-11-1.4-16.5c0.4-6.6,4.1-12.5,9.8-15.7l0.7-0.4c2.9-1.5,6-2.3,9.3-2.2l3.8,0.1l-0.9-0.4
			l-0.7-0.3L188.6,188.7z"/>
		<path class="st10" fill="#AC2329" d="M174.9,185.6c0,0-15.5,3.4-19.8,18.9c-0.2,0.8-0.8,4.9-0.9,5.7c-0.4,2.6-0.5,5.5-1.2,9.7
			c-1.1,6.6-11.2,8.8-12.5,1.1c-1-6.1,3.1-18.9,9.3-25.3s12.9-10.2,17.5-10.8C169.9,185,172.4,185.2,174.9,185.6z"/>
	</g>
	<path id="Mouth06" class="st4" fill="#FFFFFF" d="M85.7,157.1c20.8,1.6,102.3,7,151.7,0.4c2.2-0.3,4.3,1.3,4.6,3.5c0.1,0.4,0,0.8,0,1.2
		c-2.9,16.4-16.9,63.8-80.2,63.8c-64.4,0-77.7-48.2-80.3-64.3c-0.4-2.2,1.1-4.3,3.4-4.7C85,157.1,85.3,157.1,85.7,157.1z"/>
	<g id="Mouth05">
		<path class="st12" fill="#3E3E3E" d="M123.2,171.5c-3-2.1-5.1-1.3-5.9,0.3c-1.2,2.5-0.5,4.4,1.2,5.4c2.5,1.5,4.2,1.2,5.6-0.4
			S125.5,173.1,123.2,171.5z"/>
		<path class="st12" fill="#3E3E3E" d="M116.4,185c-3.7,0.4-4.7,2.4-4.2,4.2c0.7,2.7,2.6,3.6,4.5,3.3c2.9-0.5,3.9-2,3.9-4S119.2,184.7,116.4,185z"
			/>
		<path class="st12" fill="#3E3E3E" d="M130.6,185.5c-3,2.2-2.8,4.4-1.5,5.7c2,2,4,1.8,5.5,0.6c2.2-1.9,2.4-3.7,1.4-5.4S132.8,183.9,130.6,185.5z"
			/>
		<path class="st12" fill="#3E3E3E" d="M189.1,186.1c-0.4,3.7,1.4,5.1,3.2,5c2.8-0.1,4.1-1.7,4.2-3.7c0.2-2.9-1.1-4.3-3.1-4.7
			S189.4,183.3,189.1,186.1z"/>
		<path class="st12" fill="#3E3E3E" d="M206.1,186.5c1.3,3.4,3.5,3.9,5.1,3c2.4-1.4,2.8-3.4,2-5.2c-1.2-2.7-2.9-3.3-4.9-2.8S205,183.8,206.1,186.5z
			"/>
		<path class="st12" fill="#3E3E3E" d="M197.1,173.7c2.2,2.9,4.5,2.7,5.7,1.4c1.9-2,1.8-4.1,0.5-5.6c-1.9-2.2-3.7-2.4-5.5-1.3
			S195.3,171.4,197.1,173.7z"/>
		<path class="st4" fill="#FFFFFF" d="M137.2,204.6c0,0-0.7,11.2,8.5,28.1c1.3,2.5,8.4,0.3,8.9-2.4l2-34.3L137.2,204.6z"/>
		<path class="st4" fill="#FFFFFF" d="M188.8,205.2c0,0,0.4,11.8-9.7,29.1c-1.5,2.5-8.8,0.1-9.2-2.7l-1.2-36L188.8,205.2z"/>
		<path class="st12" fill="#3E3E3E" d="M239.1,171.7c-2.8-0.9-5.7,0.6-6.6,3.4c-2.4,7.4-6.8,14.1-12.6,19.3c-5.7,5.5-13.3,8.6-21.2,8.8h-0.2
			c-13.4,0-23.5-8.9-29.7-16.7c-1.5,0.3-3.1,0.5-4.6,0.5c-3.3,0.1-6.5-0.4-9.6-1.2c-0.9,2.8-2.3,5.4-4,7.8
			c-4.6,6.3-11.4,9.6-20.2,9.9c-12.5,0.4-23.6-7.6-32-23.1c-1.2-2.2-3.9-2.9-6-1.8c-2.2,1.2-2.9,3.9-1.8,6
			c8.6,15.7,18.5,22.9,27.6,25.9c4,1.3,8.3,1.9,12.5,1.8c16.7-0.5,26-10.2,30.3-18.8c0.8,0.9,1.6,1.9,2.4,2.8
			c10.2,11.3,22.4,17.3,35.1,17.3h0.3c10.5-0.2,20.6-4.3,28.3-11.6c7.1-6.5,12.5-14.7,15.5-23.8
			C243.5,175.5,241.9,172.6,239.1,171.7C239.2,171.7,239.1,171.7,239.1,171.7z"/>
		<path class="st13" fill="#FFFFFF" style="opacity:0.2;enable-background:new;" d="M168.7,186.5c17.1-3.7,18.1-26.6,18.1-26.6c-24.5-10.2-51.2-0.8-51.2-0.8c-1.5,12.8,6.6,23.2,18.9,26.7
			c3.1,0.9,6.4,1.3,9.6,1.2C165.7,187,167.2,186.8,168.7,186.5z"/>
	</g>
	<g id="Mouth04">
		<g class="st14" style="opacity:0.3;">
			<path class="st15" fill="#010101" d="M250.4,185.8c-0.2-4.4-1.6-17.7-12.2-25.6c2.7-6.5,0.3-10.4-3.3-11.6c-6-1.9-9.9,0.4-11.7,4.4
				c-0.1,0.2-0.2,0.4-0.3,0.7c-15.9-4.1-39.2-5.8-60.1-5.8c-17.3,0-33.1,1.2-41.6,3c-7.7,1-31.5,5.2-42.3,20.6
				c-4.7,6.7-6.3,15-4.5,23c0.9,4.2,2.6,8.1,5,11.7c-2.7,4-2.2,7.4,0.2,10.5c2.8,3.6,7.8,4.6,12.3,0.1l0-0.1
				c6.3,3.1,14,4.7,23.1,4.7c10-0.2,19.9-1.6,29.5-4.3c11.8-3.1,31.4-4.8,41-3.5c2.4,0.3,5.7,1.1,9.3,2c12.8,3.1,28.7,6.9,41.5-2
				C245.5,207.3,250.8,196.8,250.4,185.8z"/>
			<path class="st15" fill="#010101" d="M74.6,221.2c-3-2.2-5.6-1.6-7.3,0.3c-2.5,2.8-2.5,5.2-0.8,7.3s4.6,2.7,7.2,0.1
				C77.1,225.5,76.5,222.6,74.6,221.2z"/>
			<path class="st15" fill="#010101" d="M255.5,159.2c3.4-3.4,2.8-6.3,0.9-7.7c-3-2.2-5.6-1.6-7.3,0.3c-2.6,2.8-2.4,5.2-0.8,7.3
				S252.8,161.9,255.5,159.2z"/>
			<path class="st15" fill="#010101" d="M256.6,208.8c-2.7-2-5.1-1.5-6.6,0.3c-2.3,2.6-2.2,4.8-0.7,6.7s4.2,2.4,6.5,0.1
				C258.9,212.7,258.3,210.1,256.6,208.8z"/>
			<path class="st15" fill="#010101" d="M69.5,164.4c2.4,0.1,4.5-1.7,4.2-5c-0.4-4.4-2.8-5.6-4.9-5.1c-3.2,0.8-4.4,3-4,5.3
				C65.3,163,67,164.3,69.5,164.4z"/>
		</g>
		<path class="st15" fill="#010101" d="M112.9,184.5c0.4-3.4,2.8-6.1,6-7.1c13.2-3.9,26.9-6.1,40.7-6.4c18.7-0.5,37.3,2.5,47.1,4.4
			c4.1,0.8,7,4.4,6.9,8.6l0,0c-0.1,4.7-4,8.4-8.7,8.3c-0.3,0-0.7,0-1-0.1c-13.9-1.9-36.8-4.2-46.1-3.3c-7.9,0.8-24.3,2.9-34.5,5.3
			c-4.6,1.1-9.2-1.8-10.2-6.4c-0.2-1-0.3-2-0.2-3L112.9,184.5z"/>
		<g>
			<defs>
				<path id="SVGID_7_" d="M112.9,184.5c0.4-3.4,2.8-6.1,6-7.1c13.2-3.9,26.9-6.1,40.7-6.4c18.7-0.5,37.3,2.5,47.1,4.4
					c4.1,0.8,7,4.4,6.9,8.6l0,0c-0.1,4.7-4,8.4-8.7,8.3c-0.3,0-0.7,0-1-0.1c-13.9-1.9-36.8-4.2-46.1-3.3c-7.9,0.8-24.3,2.9-34.5,5.3
					c-4.6,1.1-9.2-1.8-10.2-6.4c-0.2-1-0.3-2-0.2-3L112.9,184.5z"/>
			</defs>
			<clipPath id="SVGID_8_">
				<use xlink:href="#SVGID_7_" style="overflow:visible;"/>
			</clipPath>
			<g class="st16" style="clip-path:url(#SVGID_8_);">
				<path class="st4" fill="#FFFFFF" d="M213.4,194.5c0,0-2.3-7.3-10.2-8s-11.3,7.1-11.3,7.1s-0.5-9.8-9.8-10.9s-10.8,9.2-10.8,9.2
					s-2.9-11.3-10.9-11.1s-10.5,11.6-10.5,11.6s-2.1-9-9-7.8s-8.1,9.1-8.4,9.9s-1.5-6-7.4-6.2s-10.2,6.1-10.2,6.1
					c5.7,2.1,11.3,4.6,16.8,7.4c20.9-3.9,42.4-3.3,63.1,1.7C200.7,200.1,206.9,197.1,213.4,194.5z"/>
			</g>
		</g>
	</g>
	<g id="Mouth03">
		<path class="st7" fill="#231F20" style="opacity:0.2;enable-background:new;" d="M138.7,160c-9.9-0.7-19.9,0.5-29.4,3.4c-11.1,3.6-20.2,9.9-20.4,21.5c-0.2,13.1,4.3,15.1,11.7,21.1
			s3.5,11.4,2.1,18.2c-1.5,7.9,11.9,9,11.9,1.5c0-6.7-4.9-14,5.7-15.3c9.3-1.2,49.8-9,61.8-7.7c12,1.3,24.2,8.3,36.2,5
			s17-11.3,17-20.7s-6.2-20.9-21.3-22s-50-3.3-50-3.3L138.7,160z"/>
		<path class="st3" fill="#231F20" d="M127.7,166.4c0,0-36.3,3.9-31.8,23.9s35.6,13.8,47.3,10.8s31.2-4.8,41.9-3.4s27.2,8.4,36.5,2.1
			s10.2-20.2,0-26S144.2,162.4,127.7,166.4z"/>
		<path class="st4" fill="#FFFFFF" d="M135.5,205.1c1.3-0.7,1.9-2.2,1.4-3.6c-4.8-14-7.3-28.6-7.7-43.3c0-0.8-0.6-1.4-1.3-1.6l-2.8-0.7
			c-0.9-0.2-1.8,0.2-2.3,1c-8.3,14.5-14.5,28.3-14.8,44.8c0,1,0.5,1.9,1.3,2.5c1.9,1.3,6.1,3.3,13.8,3.5
			C127.4,208,131.7,207,135.5,205.1z"/>
		<path class="st4" fill="#FFFFFF" d="M212.9,201.1c1.2-14.5-3-27.1-9-40.6c-0.3-0.7-1.1-1.1-1.8-1l-2.4,0.3c-0.6,0.1-1.1,0.6-1.2,1.2
			c-1.4,12.9-4.8,25.6-10,37.5c-0.5,1,0,2.2,1,2.6c0,0,0,0,0,0c3.9,1.7,8,2.8,12.2,3.2c3.4,0.4,6.9-0.2,10-1.7
			C212.4,202.4,212.8,201.8,212.9,201.1z"/>
		<path class="st7" fill="#231F20" style="opacity:0.2;enable-background:new;" d="M108.3,236.1c-4.7,0.6-6,3.2-5.4,5.4c1,3.5,3.3,4.7,5.8,4.2c3.7-0.6,5.1-2.5,5.1-5.2S111.9,235.7,108.3,236.1
			z"/>
		<path class="st7" fill="#231F20" style="opacity:0.2;enable-background:new;" d="M211.7,216.8c-6.8,0.8-8.7,4.5-7.8,7.8c1.4,5,4.8,6.7,8.4,6.1c5.3-0.9,7.3-3.7,7.3-7.5
			S216.8,216.2,211.7,216.8z"/>
		<path class="st7" fill="#231F20" style="opacity:0.2;enable-background:new;" d="M227.7,210.5c-3.4,0.4-4.4,2.3-3.9,3.9c0.7,2.6,2.4,3.4,4.2,3.1c2.7-0.5,3.7-1.8,3.7-3.8
			S230.3,210.2,227.7,210.5z"/>
	</g>
	<g id="Mouth02">
		<path class="st7" fill="#231F20" style="opacity:0.2;enable-background:new;" d="M229.4,155.3c3.4-0.7,6.6,1.5,7.3,4.9c0,0.2,0.1,0.4,0.1,0.7c0.9,7.8,0.1,16.1-3.6,23.2
			c-6.6,12.6-16.2,19.8-27.6,26.8c-12.7,7.8-29.4,10.8-44.1,11.2c-21.6,0.7-35.6-5.1-50.8-14s-23.3-27.1-23.6-45.4
			c-0.2-4,3-7.4,7-7.6c0.5,0,0.9,0,1.4,0.1c6.6,1.1,15.4,2.6,19.5,3.3c13.6,2.1,27.9,4.2,41.4,4.4c19.5,0.2,39-1.3,58.3-4.5
			C217.8,157.8,224.5,156.4,229.4,155.3z"/>
		<g>
			<defs>
				<path id="SVGID_9_" d="M223.4,162.7c2.8-0.8,5.8,0.9,6.6,3.7c0.2,0.7,0.2,1.4,0.2,2.1c-4.1,31.4-42.3,44.9-69.2,44.9
					c-26.4,0-64.8-13.4-67.2-44.8c-0.2-3,2-5.5,5-5.7c0.6,0,1.2,0,1.8,0.2c20.1,5.1,40.8,7.6,61.6,7.5
					C182.8,170.6,203.4,168,223.4,162.7z"/>
			</defs>
			<clipPath id="SVGID_10_">
				<use xlink:href="#SVGID_9_"  style="overflow:visible;"/>
			</clipPath>
			<g class="st17" style="clip-path:url(#SVGID_10_);">
				<path class="st3" fill="#231F20" d="M223.4,162.7c2.8-0.8,5.8,0.9,6.6,3.7c0.2,0.7,0.2,1.4,0.2,2.1c-4.1,31.4-42.3,44.9-69.2,44.9
					c-26.4,0-64.8-13.4-67.2-44.8c-0.2-3,2-5.5,5-5.7c0.6,0,1.2,0,1.8,0.2c20.1,5.1,40.8,7.6,61.6,7.5
					C182.8,170.6,203.4,168,223.4,162.7z"/>
				<path class="st4" fill="#FFFFFF" d="M166,197.3c4.3-16.2,8.1-32.6,12-49c-11.3-0.3-22.2-1-33.4-2.2c1.9,18.1,8,35.3,14.3,52.2
					c0.4,0.8,1.3,1.2,2.2,1l3.2-0.5C165.1,198.6,165.8,198.1,166,197.3z"/>
			</g>
		</g>
	</g>
	<g id="Mouth01">
		<path class="st18" fill="#231F20" style="opacity:0.3;enable-background:new;" d="M227.4,180.8l-0.6,0.3c-7.3,3.4-15.1,5.3-23.1,5.7c-15.3,0.7-27.1-2.2-35-14.7c3.1-2.4,5.8-5.9,10.2-6.9
			c6.2-1.4,9.2-9.9,4.6-16.2s-21.4-5.7-21.4-5.7c-0.7-0.1-18.9,0.5-20.5,10.8s5.2,14.5,10,15.3c1.8,0.5,3.6,1.3,5.1,2.4
			c-5.9,7-13.7,12.3-22.4,15.1c-11,3.7-23.6,1.8-37.3-5.5l-0.7-0.4c-2.2-1.2-4.9-0.3-6,1.8c-0.6,1.1-0.7,2.5-0.2,3.7l0.3,0.8
			c3.8,8.7,9.3,16.7,16.2,23.3c10.2,10.1,28,21.8,55.4,21.8c1,0,2,0,2.9,0c28.8-0.9,45.9-13.2,55.2-23.4
			c10.2-11.1,13.4-22.1,13.6-22.5l0.2-0.7c0.7-2.3-0.6-4.8-2.9-5.6C229.7,180.2,228.5,180.3,227.4,180.8z"/>
		<path class="st3" fill="#231F20" d="M160.6,177c-6.1,7.7-24.9,25.8-59.3,10.8c-1.3-0.6-2.8,0-3.3,1.3c-0.3,0.8-0.3,1.6,0.2,2.3
			c7.2,12.2,26.7,36.4,66.4,35.2c38.7-1.2,55.4-23.8,61.4-35.5c0.6-1.2,0.1-2.8-1.1-3.4c-0.7-0.4-1.6-0.4-2.3,0
			c-12.6,6.3-41.1,16.2-57.9-10.6c-0.8-1.2-2.3-1.5-3.5-0.8C161,176.5,160.8,176.7,160.6,177z"/>
		<g>
			<defs>
				<path id="SVGID_11_" d="M160.5,177.1c-6.2,7.8-24.8,25.4-58.6,10.9c-1.4-0.6-3,0-3.6,1.4c-0.4,0.8-0.3,1.7,0.2,2.5
					c7.5,12.4,26.9,36,66.1,34.8c38.2-1.2,54.9-23.1,61.1-35c0.7-1.3,0.2-3-1.1-3.7c-0.8-0.4-1.7-0.4-2.4,0
					c-12.8,6.3-40.7,15.7-57.3-10.6c-0.8-1.2-2.5-1.6-3.7-0.8C160.9,176.7,160.7,176.9,160.5,177.1z"/>
			</defs>
			<clipPath id="SVGID_12_">
				<use xlink:href="#SVGID_11_"  style="overflow:visible;"/>
			</clipPath>
			<g class="st19" style="clip-path:url(#SVGID_12_);">
				<path class="st20" fill="#CD2530" d="M164.7,204.6c-8.9,0.2-31.4-0.8-41.3,13l-0.8,4.3l41.1,8l37.3-10.6C201,219.3,186.3,204.1,164.7,204.6z"/>
				<path class="st4" fill="#FFFFFF" d="M128.1,183.5c1.3,9.2,3.4,18.2,6.4,27c0.7,2,2.2,3.6,4.8,3.2c1.3-0.2,2.2-2.2,2.3-5
					c0.5-9.4,2-18.7,4.4-27.8C138.8,181.8,135.3,182.3,128.1,183.5z"/>
				<path class="st4" fill="#FFFFFF" d="M194.2,183.9c-1.8,9.2-4.4,18.2-7.9,26.8c-0.8,2-2.4,3.5-5,2.9c-1.3-0.3-2.1-2.3-2-5.2
					c-0.1-9.5-1-18.9-2.9-28.2C183.5,181.6,187.1,182.3,194.2,183.9z"/>
			</g>
		</g>
	</g>
	<g id="Eyes10">
		<path class="st4" fill="#FFFFFF" d="M237.3,97.2c-8.1-7-18.9-10.1-29.4-8.3c-15.9,2.6-21.9,19.6-19.6,35c2,13.1,12.2,21.1,26.1,21.1
			c2,0,3.9-0.2,5.9-0.4c15.4-2.3,25.5-16.7,25.9-28.7C246.4,109.1,243.3,102.5,237.3,97.2z"/>
		<path class="st4" fill="#FFFFFF" d="M128.1,101.5c-5.5-6.6-13.6-10.4-22.2-10.6c-14.2,0-26.6,13.5-26.6,28.9c0,14,10.7,23.5,26.6,23.5
			c15.4,0,25.4-14.6,27.2-24.5C134.2,112.9,132.5,106.7,128.1,101.5z"/>
		<path class="st21" fill="#FACF38" d="M128.3,118.4c-1.7,8.8-10.2,20.3-22.5,20.3s-22-6.9-22-19.2s9.7-24,22-24S130.5,106.3,128.3,118.4z"/>
		<path class="st15" fill="#010101" d="M104,103.1c-4.7,8.7-4.8,19.1-0.3,27.8c1.1,2.3,3.6,2.3,4.7,0c2.7-5.6,6-16.3,0.2-27.8
			C107.5,101,105.2,101,104,103.1z"/>
		<path class="st21" fill="#FACF38" d="M240.9,115.7c-0.3,9.6-8.5,21.9-21.6,23.9s-24.5-3.9-26.5-17s3-27,16.1-29.1
			C225.4,90.9,241.4,102.5,240.9,115.7z"/>
		<path class="st15" fill="#010101" d="M211.9,102c-3.6,10-2,21.1,4.2,29.7c1.6,2.2,4.2,1.9,5-0.8c2-6.4,3.8-18.3-4.3-29.7
			C215.3,99.2,212.8,99.5,211.9,102z"/>
	</g>
	<g id="Eyes09">
		<path class="st15" fill="#010101" d="M122.7,123.4c-1.3,7.1-8.3,16.4-18.2,16.4s-17.8-5.6-17.8-15.5s7.8-19.4,17.8-19.4S124.5,113.6,122.7,123.4z
			"/>
		<path class="st4" fill="#FFFFFF" d="M112.3,118.5c-0.3,1.6-1.6,2.9-3.3,3c-1.8,0-3.2-1-3.2-2.8c0-1.8,1.4-3.4,3.2-3.5
			C110.8,115.1,112.6,116.7,112.3,118.5z"/>
		<path class="st15" fill="#010101" d="M172.7,97c6.9,5.9,12.7,19.3,6.5,30.1c-5.5,10-17.6,14.1-28.1,9.7c-11.5-5-16.2-20.7-10-31.5
			S163.2,88.9,172.7,97z"/>
		<path class="st4" fill="#FFFFFF" d="M166.9,105.1c1.3,1.1,2.4,3.6,1.2,5.7s-3.2,3-5.3,1.8c-2.1-1.1-3-3.7-1.9-5.9
			C162.1,104.6,165.1,103.6,166.9,105.1z"/>
		<path class="st15" fill="#010101" d="M144.5,87.7c-1.2,6.3-7.3,14.5-16.1,14.5s-15.7-5-15.7-13.7s6.9-17.1,15.7-17.1S146.1,79.1,144.5,87.7z"/>
		<path class="st4" fill="#FFFFFF" d="M134.8,84c-0.3,1.7-1.8,3-3.5,3.2c-1.9,0-3.4-1.1-3.4-3c0-2,1.5-3.6,3.4-3.8C133.2,80.5,135.2,82.2,134.8,84z
			"/>
		<path class="st15" fill="#010101" d="M200.3,119.1c-1.2,7.1,2,18.3,11.3,21.7s18.6,0.9,22-8.4s-0.6-20.9-9.9-24.3S202,109.3,200.3,119.1z"/>
		<path class="st4" fill="#FFFFFF" d="M221.8,119.9c-0.3,1.6,0.6,3.2,2.1,3.9c1.7,0.6,3.4,0.2,4-1.5c0.7-1.7-0.1-3.7-1.8-4.4
			C224.3,117.3,222.1,118.2,221.8,119.9z"/>
		<path class="st15" fill="#010101" d="M193.1,68.1c-6.2,1.4-14.3,7.8-14,16.5s5.4,15.5,14.2,15.2s16.9-7.5,16.6-16.2S201.7,66.2,193.1,68.1z"/>
		<path class="st4" fill="#FFFFFF" d="M195.6,75.2c-1.4,0.3-2.5,1.6-2.6,3.1c0.1,1.6,1,2.9,2.6,2.8c1.7,0,3-1.3,3.1-3
			C198.7,76.5,197.2,74.9,195.6,75.2z"/>
	</g>
	<g id="Eyes08">
		<path class="st15" fill="#010101" d="M124.3,127.5l-10,1c-0.6-8.1-7.7-14.1-15.8-13.5c-8.1,0.6-14.1,7.7-13.5,15.8c0,0.3,0,0.5,0.1,0.8l-10,1
			c-1.7-13.5,7.9-25.8,21.5-27.5s25.8,7.9,27.5,21.5C124.2,126.8,124.2,127.1,124.3,127.5z"/>
		<path class="st15" fill="#010101" d="M250.5,132.1l-10-0.8c0.8-8.1-5.1-15.2-13.2-16c-8.1-0.8-15.2,5.1-16,13.2c0,0.1,0,0.3,0,0.4l-10-0.8
			c1.1-13.6,13-23.7,26.6-22.6C241.5,106.5,251.6,118.5,250.5,132.1L250.5,132.1z"/>
	</g>
	<g id="Eyes07">
		<path class="st4" fill="#FFFFFF" d="M131.4,125.4c-1,9.9-10.6,20.5-23.1,20.3s-22.2-7.3-22-19.8s10.1-24.2,22.6-24S132.7,113,131.4,125.4z"/>
		<path class="st15" fill="#010101" d="M116.9,124.5c0.2,3.1-3.8,6.9-8.3,6.9s-8-2.5-7.9-6.7c0.1-4.4,3.7-8,8.1-8.1
			C113.3,116.7,116.5,119.5,116.9,124.5z"/>
		<path class="st4" fill="#FFFFFF" d="M195.5,126.4c1.1,10.4,11.5,19.6,23.7,18.9s21.5-8.3,20.7-20.6s-11.2-23.8-23.4-22.5
			C202.4,103.7,194.1,113.2,195.5,126.4z"/>
		<path class="st15" fill="#010101" d="M210,125.2c0.7,4,4,6.4,8.2,6.2c3.8-0.1,6.8-3,7.2-6.8c0.2-4-3.4-8.3-7.7-8S209.1,120.5,210,125.2z"/>
		<g class="st22" style="opacity:0.5;">
			<path class="st15" fill="#010101" d="M248.9,100.1c-1.3-4.2-4.5-14.8-17-19.1c-10.6-3.6-22.2-3.5-32.7,0.4l-2,1.4l4.2,11.6l5-2
				c7-2.9,14.7-3,21.8-0.5c5.5,2,10,6,12.6,11.2l1.2,3l4.3-1l4-1L248.9,100.1z"/>
			<path class="st15" fill="#010101" d="M93.1,82c-9.3,4-16.1,12.1-18.4,21.9l-1.1,4.2l4,0.7l4.9,1.4l1-3.3c0.4-0.8,4.9-10.2,14.5-14.3
				c12.4-5.3,22.4-0.7,23.5-0.1L125,94l5.8-12.7l-3.6-1.6C127.2,79.6,111.8,73.9,93.1,82z"/>
		</g>
	</g>
	<g id="Eyes06">
		<path class="st4" fill="#FFFFFF" d="M205.6,99.1c-3.2,17.2-20.1,39.9-44.2,39.9s-43.1-13.6-43.1-37.7s19-47,43.1-47
			C185.6,54.3,210.1,75.4,205.6,99.1z"/>
		<path class="st23" fill="#23B5C3" d="M183.8,97.4c-1.6,8.5-9.9,19.6-21.7,19.6s-21.2-6.7-21.2-18.6s9.3-23.1,21.2-23.1S186,85.7,183.8,97.4z"/>
		<path class="st15" fill="#010101" d="M176.3,96.2c-1,5.2-6.1,12.1-13.4,12.1s-13.1-4.1-13.1-11.4s5.8-14.2,13.1-14.2S177.7,89,176.3,96.2z"/>
	</g>
	<g id="Eyes05">
		<path class="st4" fill="#FFFFFF" d="M118.2,122.1c-0.7,3.8-4.5,8.8-9.8,8.8s-9.5-3-9.5-8.4c0-1.7,0.5-3.5,1.3-5L74.9,114
			c-0.6,3.3-0.3,6.7,0.9,9.8c4.9,12.3,15.3,22.7,37.4,18.6c17.3-3.2,22.6-13.2,26-19.4l-20.9-2.9
			C118.4,120.8,118.4,121.5,118.2,122.1z"/>
		<path class="st15" fill="#010101" d="M108.4,131c5.3,0,9.1-5,9.8-8.8c0.1-0.7,0.1-1.3,0.1-2l-18.1-2.6c-0.8,1.5-1.3,3.3-1.3,5
			C98.9,128,103.1,131,108.4,131z"/>
		<path class="st4" fill="#FFFFFF" d="M226,117.3c0.6,1.5,0.8,3.2,0.7,4.8c-0.5,5.2-4.9,7.7-10,7.1c-4.9-0.5-7.9-5.2-8.5-8.9l-18.3,3.1
			c3,5.8,8.4,12.6,20.9,16.3c20.9,6.1,33.2-4.7,37.8-14.3c1.8-3.8,2.2-8.1,1.2-12.2L226,117.3z"/>
		<path class="st15" fill="#010101" d="M216.7,129.2c5.2,0.5,9.5-2,10-7.1c0.2-1.6-0.1-3.3-0.7-4.8l-17.8,3.1C208.7,124,211.8,128.7,216.7,129.2z"
			/>
		<polygon class="st1" style="opacity:0.2;enable-background:new;" fill="#010101" points="183.4,109.2 185,117.2 250.7,103 248.3,86.1 		"/>
		<polygon class="st1" style="opacity:0.2;enable-background:new;" fill="#010101" points="141.8,107.7 140.8,116.5 73.6,104.7 78,84.8 		"/>
	</g>
	<g id="Eyes04">
		<circle class="st15" fill="#010101" cx="92.2" cy="119.6" r="8.7"/>
		<circle class="st15" fill="#010101" cx="230.9" cy="119.6" r="8.7"/>
	</g>
	<g id="Eyes03">
		<path class="st4" fill="#FFFFFF" d="M108.5,92.7c-9.2,8.1-19.8,13.6-28.5,17.1c-1.7,4-2.6,8.3-2.5,12.6c0.3,15.1,12.4,23.4,27.5,23.1
			s25.4-14.7,27.2-25.6C134.4,106.5,122,94.7,108.5,92.7z M118.5,119.1c-0.9,5.3-5.9,12.4-13.3,12.6s-13.4-3.9-13.5-11.3
			s5.5-14.6,13-14.8S119.7,111.7,118.5,119.1L118.5,119.1z"/>
		<path class="st23" fill="#23B5C3" d="M104.6,105.5c-7.4,0.2-13.1,7.3-13,14.8s6.1,11.5,13.5,11.3s12.5-7.2,13.3-12.6
			C119.7,111.7,112,105.4,104.6,105.5z M113.8,118.4c-0.5,3.3-3.7,7.7-8.2,7.8s-8.2-2.4-8.3-7s3.4-9,8-9.1S114.5,113.9,113.8,118.4z
			"/>
		<path class="st15" fill="#010101" d="M105.2,110.1c-4.6,0.1-8.1,4.5-8,9.1s3.8,7.1,8.3,7s7.7-4.5,8.2-7.8C114.5,113.9,109.8,110,105.2,110.1z"/>
		<path class="st4" fill="#FFFFFF" d="M217.4,92c-0.4,0-0.9,0-1.3,0c-15.1,0.3-26.7,14.9-26.4,30s12.4,23.4,27.5,23.1s25.4-14.7,27.2-25.6
			c0.7-4.1-0.2-11.2-1.9-14.8C234.5,101.2,225.6,97.6,217.4,92z M230.7,118.7c-0.9,5.3-5.9,12.4-13.3,12.6s-13.4-3.9-13.5-11.3
			s5.6-14.6,13-14.8S231.9,111.4,230.7,118.7L230.7,118.7z"/>
		<path class="st23" fill="#23B5C3" d="M216.8,105.2c-7.4,0.2-13.1,7.3-13,14.8s6.1,11.5,13.5,11.3s12.5-7.2,13.3-12.6
			C231.9,111.4,224.2,105,216.8,105.2z M226,118c-0.5,3.3-3.7,7.7-8.2,7.8s-8.2-2.4-8.3-7s3.4-9,8-9.1S226.7,113.5,226,118z"/>
		<path class="st15" fill="#010101" d="M217.4,109.7c-4.6,0.1-8.1,4.5-8,9.1s3.8,7.1,8.3,7s7.7-4.5,8.2-7.8C226.7,113.5,222,109.6,217.4,109.7z"/>
		<path class="st1" style="opacity:0.2;enable-background:new;" fill="#010101" d="M117.5,83.2c0,0-13.6,19.4-46.7,29.7l-4.5-7.1c0,0,32.4-15.7,41.8-31.4L117.5,83.2z"/>
		<path class="st1" style="opacity:0.2;enable-background:new;" fill="#010101" d="M204.5,81.5c0,0,16.3,18,48.7,26.3l4-7.4c0,0-33.5-13.4-43.9-28.4L204.5,81.5z"/>
	</g>
	<g id="Eyes02">
		<path class="st13" fill="#FFFFFF" style="opacity:0.2;enable-background:new;" d="M119.5,84.1c-13.9-12.4-37.7-4.7-47.3,11.3s-2,34.2,14,43.7c13.6,8,32.2,3.9,41.9-9.2
			C139.3,115,129.6,93.2,119.5,84.1z M123.3,123l-13.1-1.8l-21.6-3l-13.2-1.8c0,0-1.6-8,0.2-11.7l14.2-1l20.3-1.4l13.8-1
			C123.9,101.2,129.1,115.3,123.3,123L123.3,123z"/>
		<path class="st4" fill="#FFFFFF" d="M87,111.8c0.1-2.9,1.1-5.7,2.8-8.1l-14.2,1c-1.8,3.7-0.2,11.7-0.2,11.7l13.2,1.8
			C87.5,116.2,86.9,114,87,111.8z"/>
		<path class="st4" fill="#FFFFFF" d="M113.8,112c0,4.4-1.4,7.3-3.6,9.1l13.1,1.8c5.8-7.7,0.6-21.7,0.6-21.7l-13.8,1
			C112.5,104.9,113.8,108.4,113.8,112z"/>
		<path class="st15" fill="#010101" d="M113.8,112c0-3.6-1.3-7.1-3.7-9.8l-20.3,1.4c-1.7,2.4-2.6,5.2-2.8,8.1c-0.1,2.2,0.4,4.5,1.6,6.4l21.6,3
			C112.4,119.4,113.8,116.5,113.8,112z"/>
		<g class="st24" style="opacity:0.8;">
			<path class="st13" fill="#FFFFFF" style="opacity:0.2;enable-background:new;" d="M235.1,142.5c5.9-2.3,11.1-6.2,14.9-11.3c11.6-15.5,1.5-38.3-9-47.7c-14.4-12.9-39.2-4.8-49.2,11.7
				s-2.1,35.7,14.6,45.5c5.9,3.4,12.7,4.8,19.5,4.1L235.1,142.5z"/>
		</g>
		<path class="st4" fill="#FFFFFF" d="M237,90.1c-11.6-10.3-31.3-3.9-39.4,9.4c-2.6,4.3-3.8,9.2-3.5,14.2l12.4-0.3c0-3.8,1.2-7.5,3.4-10.5
			c5.3-6.6,16.4-8.6,21.9-2.2c2.7,3.4,4.2,7.6,4.2,12l11.7-0.3C247,103.9,243.2,96,237,90.1z"/>
		<path class="st15" fill="#010101" d="M231.8,100.7c-5.5-6.4-16.6-4.3-21.9,2.2c-2.2,3.1-3.4,6.7-3.4,10.5l29.5-0.8
			C236,108.3,234.6,104.1,231.8,100.7z"/>
	</g>
	<g id="Eyes01">
		<g class="st25" style="opacity:0.1;">
			<path class="st15" fill="#010101" d="M257.5,114.2c-15.6-3.6-31.4-6.2-47.3-7.9c-15.3,0.3-30.4,1.2-45.6,2.8c-15.8-2.1-31.7-3.3-47.6-3.6
				c-18.1,2-36,4.9-53.7,8.7c0-6.9,0-10.4,0.2-17.3c14.9-4.4,29.8-8.2,45.1-11.4c18.3-0.2,36.3,0.4,54.5,1.9
				c19.5-3.5,39.2-5.6,59-6.3c12.9,1.3,25.7,3.2,38.4,5.6C259.3,97.7,258.8,103.2,257.5,114.2z"/>
			<path class="st15" fill="#010101" d="M228.8,73.9c-11.4-0.2-22.6,0-34,0.4c-10.8,1-21.5,2.2-32.3,3.8c-11.3-0.6-22.5-0.9-33.9-1
				c-12.7,1.4-25.4,3.3-37.9,5.8c0.2-4.4,0.3-6.5,0.6-10.9c10.3-2.9,20.8-5.1,31.3-7.4c12.7-0.6,25.3-0.6,38-0.1
				c13.4-2.8,27-5.1,40.6-6.7c10.7,0.1,16.1,0.3,26.9,1C228.3,64.9,228.5,67.9,228.8,73.9z"/>
		</g>
		<path class="st4" fill="#FFFFFF" d="M128.7,115.2c-1.6,8.7-10.1,20-22.2,20s-21.6-6.8-21.6-18.9s9.5-23.6,21.6-23.6S130.9,103.3,128.7,115.2z"/>
		<path class="st15" fill="#010101" d="M114.7,109.8c-0.6,3.1-3.6,7.1-7.9,7.1s-7.7-2.4-7.7-6.7s3.4-8.4,7.7-8.4S115.5,105.6,114.7,109.8z"/>
		<path class="st4" fill="#FFFFFF" d="M203.7,133.5c-7.5-5.4-14.9-15.4-9.5-26.9s16.1-17.5,27.6-12.1s18.1,19.5,12.7,31S214,140.9,203.7,133.5z"/>
		<path class="st15" fill="#010101" d="M211.5,116c-2.4-1.8-4.7-6-3-9.7s5.2-5.7,8.9-3.9s5.9,6.3,4.1,10.1S214.8,118.4,211.5,116z"/>
		<path class="st26" fill="#010101" style="opacity:0.1;enable-background:new;" d="M179.4,132.8c1.2,0.1,2.4-0.8,2.5-2c0-0.2,0-0.3,0-0.5c-0.6-4.6-3.7-13-22.1-12.9c-7.9,0-19.8,2.8-22,12.4
			c-0.3,1.2,0.5,2.5,1.7,2.7c0.3,0.1,0.6,0.1,0.9,0c3.7-0.6,10.7,10,19.5,10.4S175.7,132.5,179.4,132.8z"/>
	</g>
</g>
</svg>
