<?xml version="1.0" encoding="UTF-8" standalone="no"?>
<svg width="465px" height="469px" viewBox="0 0 465 469" version="1.1" xmlns="http://www.w3.org/2000/svg" xmlns:xlink="http://www.w3.org/1999/xlink">
    <!-- Generator: Sketch 42 (36781) - http://www.bohemiancoding.com/sketch -->
    <title>Group 4</title>
    <desc>Created with Sketch.</desc>
    <defs>
        <polygon id="path-1" points="0.0171774929 339.206274 221.78835 339.206274 221.78835 0.072635339 0.0171774929 0.072635339 0.0171774929 339.206274"></polygon>
        <path d="M0.486754645,19.4811159 C-0.668181377,32.5878828 8.31288433,51.752735 67.3818881,49.8642409 C122.829437,48.0902561 130.168812,23.3353524 126.057948,11.2546249 C122.386933,0.469851508 113.409407,0.0299905218 103.939817,0.960605501 C100.882998,1.26141952 97.6297067,1.96755999 94.1038331,2.83001469 C76.804573,7.06049588 58.8273964,7.51580653 41.3608697,4.0868902 C38.1252788,3.45254522 34.6365755,2.71914064 30.9204251,1.87304441 C26.7024748,0.91334771 23.0367698,0.469851508 19.8587045,0.469851508 C6.05345777,0.468942705 1.42574861,8.82721025 0.486754645,19.4811159 L0.486754645,19.4811159 Z" id="path-3"></path>
        <polygon id="path-5" points="0.4629806 234.965796 150.104735 234.965796 150.104735 0.524652235 0.4629806 0.524652235 0.4629806 234.965796"></polygon>
        <path d="M4.30329548,0.543240366 C2.99171687,2.0452414 1.64581847,3.70875046 0.391373122,5.47208574 L0.391373122,29.2733551 C5.59998284,31.864716 13.2583727,31.0604463 18.8069255,29.9350331 L18.8069255,0.543240366 L4.30329548,0.543240366 L4.30329548,0.543240366 Z" id="path-7"></path>
        <path d="M0.23856115,26.9447237 C5.57671359,28.2231873 11.9219531,30.1574229 16.4119957,28.3772687 L16.4119957,3.13660039 C15.8547009,2.47921029 15.2566304,1.94748451 14.6234024,1.57376823 C13.9690819,1.18765073 12.9408654,0.750839861 11.6141619,0.281649864 L0.23856115,0.281649864 L0.23856115,26.9447237 L0.23856115,26.9447237 Z" id="path-9"></path>
    </defs>
    <g id="Pages" stroke="none" stroke-width="1" fill="none" fill-rule="evenodd">
        <g id="Start-Page" transform="translate(-208.000000, -288.000000)">
            <g id="Section-01" transform="translate(-896.000000, 65.000000)">
                <g id="Group-2" transform="translate(0.000000, 223.000000)">
                    <g id="Group-4" transform="translate(1104.000000, 0.000000)">
                        <g id="Monsters" transform="translate(0.000000, 72.000000)">
                            <ellipse id="Oval-1" fill="#431F5D" opacity="0.701375933" cx="291.089286" cy="384.5" rx="119.089286" ry="12.5"></ellipse>
                            <g id="Green-Monster" transform="translate(145.000000, 0.000000)">
                                <g id="Group-23" transform="translate(0.000000, 0.149953)">
                                    <path d="M78.4198019,118.031174 L71.9450801,205.589866 C71.9450801,205.589866 59.6160274,190.825441 53.0138644,207.777356 C46.4117014,224.73018 70.8733349,289.115286 60.1275623,297.738925 C52.1456711,304.145082 34.8499511,304.723081 26.4848513,291.371846 C18.5383604,278.68949 13.6044383,240.206198 13.6044383,240.206198 L2.63652866,246.481488 C0.80367617,219.753571 10.4688534,202.596266 10.4688534,202.596266 L8.85008446e-05,204.033994 C3.50295193,184.876412 9.8812078,173.624513 14.3912108,167.711837 C17.8418588,163.187812 20.9942589,158.439312 23.8200908,153.479062 C31.1647759,140.58859 48.3171246,118.031174 78.4198019,118.031174" id="Fill-1" fill="#8F9424"></path>
                                    <g id="Group-5" transform="translate(213.287035, 117.458173)" fill="#8F9424">
                                        <path d="M0.00451354307,0.573000727 L6.47923533,88.1316923 C6.47923533,88.1316923 18.808288,73.3672676 25.410451,90.3191828 C32.012614,107.272007 7.55098056,171.657113 18.2967531,180.280751 C26.2786443,186.686909 43.5743643,187.264908 51.9394642,173.913673 C59.885955,161.231317 64.8198771,122.748025 64.8198771,122.748025 L75.7877868,129.023314 C77.6206393,102.295398 67.955462,85.138093 67.955462,85.138093 L78.4242269,86.5758204 C74.9213635,67.4182386 68.5431076,56.1663401 64.0331046,50.2536633 C60.5824567,45.7296385 57.4300566,40.9811392 54.6042246,36.0208887 C47.2595395,23.1304171 30.1071908,0.573000727 0.00451354307,0.573000727" id="Fill-3"></path>
                                    </g>
                                    <g id="Group-8" transform="translate(33.414279, 0.000000)">
                                        <mask id="mask-2" fill="white">
                                            <use xlink:href="#path-1"></use>
                                        </mask>
                                        <g id="Clip-7"></g>
                                        <path d="M202.924395,314.924039 C201.378285,323.083278 198.985222,339.206365 180.808034,339.206365 C162.63173,339.206365 156.329585,325.673369 156.329585,315.692887 C156.329585,311.54238 155.910091,306.600306 155.419796,302.240775 C155.419796,302.240775 129.439488,296.811581 109.472813,298.025743 C85.4439486,299.486191 68.0676928,302.240775 68.0676928,302.240775 C67.5782831,306.600306 67.1587891,311.54238 67.1587891,315.692887 C67.1587891,325.673369 60.8566439,339.206365 42.6794555,339.206365 C26.602392,339.206365 22.2065551,323.063285 20.5639794,314.924039 C12.458187,274.756733 0.630934177,232.558252 0.0238183831,152.204556 C-0.77180421,47.0105284 70.188173,30.0140817 70.188173,30.0140817 C69.8235495,22.448291 63.7647817,12.6159439 63.7647817,12.6159439 C75.2035159,11.0582544 83.6394164,19.4937702 83.6394164,19.4937702 C85.4572237,9.37878514 81.821609,0.072635339 81.821609,0.072635339 C97.437583,4.68935809 111.552583,22.6373222 111.552583,22.6373222 C111.552583,22.6373222 121.416002,6.72326075 134.173399,4.92837346 C134.173399,4.92837346 129.985539,22.7800044 130.369632,26.1989239 C130.369632,26.1989239 147.987495,10.9973645 158.166863,14.6998307 C158.166863,14.6998307 153.022309,23.0226549 151.950563,29.7332614 C151.950563,29.7332614 221.78835,39.7246492 221.78835,152.204556 C221.78835,152.204556 215.897734,246.46931 202.924395,314.924039" id="Fill-6" fill="#C0C301" mask="url(#mask-2)"></path>
                                        <path d="M-175.484279,-127.149953 C-198.555279,-127.149953 -217.256279,-108.448953 -217.256279,-85.3789526 L-217.256279,-85.3789526 C-217.256279,-85.3379526 -217.254279,-85.2989526 -217.254279,-85.2589526 L-217.254279,-85.2589526 C-232.471279,-83.9429526 -244.414279,-71.1809526 -244.414279,-55.6239526 L-244.414279,-55.6239526 C-244.414279,-39.1909526 -231.091279,-25.8689526 -214.658279,-25.8689526 L-214.658279,-25.8689526 C-208.789279,-25.8689526 -203.322279,-27.5749526 -198.711279,-30.5089526 L-198.711279,-30.5089526 C-193.867279,-20.6439526 -183.724279,-13.8519526 -171.992279,-13.8519526 L-171.992279,-13.8519526 C-167.625279,-13.8519526 -163.482279,-14.8009526 -159.746279,-16.4909526 L-159.746279,-16.4909526 C-154.670279,-7.34195261 -144.918279,-1.14695261 -133.713279,-1.14695261 L-133.713279,-1.14695261 C-119.237279,-1.14695261 -107.179279,-11.4879526 -104.514279,-25.1839526 L-104.514279,-25.1839526 C-102.828279,-24.8879526 -101.095279,-24.7239526 -99.3262787,-24.7239526 L-99.3262787,-24.7239526 C-82.8932787,-24.7239526 -69.5702787,-38.0459526 -69.5702787,-54.4789526 L-69.5702787,-54.4789526 C-69.5702787,-69.1449526 -80.1842787,-81.3229526 -94.1462787,-83.7749526 L-94.1462787,-83.7749526 C-96.8592787,-97.4139526 -108.890279,-107.694953 -123.326279,-107.694953 L-123.326279,-107.694953 C-128.664279,-107.694953 -133.670279,-106.280953 -138.002279,-103.818953 L-138.002279,-103.818953 C-144.815279,-117.638953 -159.037279,-127.149953 -175.484279,-127.149953 L-175.484279,-127.149953 Z" id="Page-1" mask="url(#mask-2)"></path>
                                    </g>
                                    <path d="M219.257302,85.4151183 C212.296711,79.1052942 202.553653,76.2661915 193.207964,77.8256987 C179.108009,80.1731386 173.804154,95.5928108 175.852063,109.611108 C177.59376,121.522798 186.612881,128.795045 198.943704,128.795045 C200.620795,128.795045 202.361606,128.660542 204.151978,128.384266 C217.812969,126.278567 226.686948,113.190885 227.073697,102.272518 C227.289639,96.1671747 224.513368,90.179976 219.257302,85.4151183" id="Fill-9" fill="#FEFEFE"></path>
                                    <path d="M108.440262,89.3027987 C103.647056,83.3737634 96.0970491,79.6894733 88.7346638,79.6894733 C76.183474,79.6894733 65.172199,91.9637759 65.172199,105.956626 C65.172199,118.723501 74.6426743,127.30079 88.7364338,127.30079 C102.405389,127.30079 111.196178,114.033165 112.834329,105.065999 C113.825538,99.6340791 112.265268,94.0358483 108.440262,89.3027987" id="Fill-11" fill="#FEFEFE"></path>
                                    <path d="M108.535843,104.629682 C107.077349,112.616249 99.4786664,123.099299 88.6063376,123.099299 C77.7340088,123.099299 69.162702,116.793111 69.162702,105.627549 C69.162702,94.4628952 77.7322388,83.8526121 88.6045676,83.8526121 C99.4777814,83.8526121 110.539502,93.6558775 108.535843,104.629682" id="Fill-13" fill="#FDD200"></path>
                                    <path d="M87.1015577,90.7730613 C84.6456593,95.5370103 81.5348546,104.917682 86.8590654,116.067794 C87.8458498,118.133505 90.0318207,118.141684 91.000905,116.059615 C93.3683025,110.973041 96.2888304,101.287011 91.1433913,90.8121399 C90.1787321,88.8491239 88.0971922,88.8409447 87.1015577,90.7730613" id="Fill-15" fill="#13110D"></path>
                                    <path d="M222.441917,102.226714 C222.131279,110.983038 214.954745,122.166776 203.36025,123.954393 C191.765754,125.741101 181.643027,120.425508 179.902216,108.518362 C178.162289,96.612125 182.563436,83.9688481 194.136692,82.0421843 C208.682691,79.6193136 222.868491,90.1950622 222.441917,102.226714" id="Fill-17" fill="#FDD200"></path>
                                    <path d="M196.717111,89.7289368 C194.840893,95.2126582 192.98503,105.727517 200.401401,116.743126 C201.775819,118.7843 204.107816,118.433501 204.816708,116.054253 C206.54867,110.240636 208.15319,99.431325 201.033297,89.1054974 C199.698704,87.1706544 197.478218,87.5050941 196.717111,89.7289368" id="Fill-19" fill="#13110D"></path>
                                    <path d="M178.003342,138.724998 C158.733168,144.267791 138.711622,144.883051 119.262676,140.426278 C115.660692,139.601084 111.77639,138.64684 107.63809,137.546279 C82.5410207,130.872934 75.026414,143.457138 73.7263366,160.570821 C72.4253742,177.685412 82.2772882,199.894756 148.193602,200.16558 C208.675079,200.412774 217.525164,168.451057 214.498435,151.818132 C212.092982,138.598674 199.505507,135.047978 188.958861,136.273954 C185.554234,136.669284 181.931009,137.595355 178.003342,138.724998" id="Fill-21" fill="#8F9424"></path>
                                </g>
                                <g id="Group-28" transform="translate(80.535769, 143.054629)">
                                    <mask id="mask-4" fill="white">
                                        <use xlink:href="#path-3"></use>
                                    </mask>
                                    <g id="Clip-25"></g>
                                    <polygon id="Fill-24" fill="#1D1C1B" mask="url(#mask-4)" points="-14.3459869 57.8598958 140.382695 57.8598958 140.382695 -12.8750219 -14.3459869 -12.8750219"></polygon>
                                    <path d="M16.4073486,-3.97328974 C16.4073486,-3.97328974 15.301088,7.3867564 19.0402487,8.61909421 C23.8706248,10.2113183 44.3612254,14.2391362 63.7809657,13.5475366 C83.6679905,12.8395785 111.619212,11.1737414 112.061716,7.76572754 C112.846719,1.72218299 113.093636,-10.3485476 113.093636,-10.3485476 L17.7976968,-8.86719761 L16.4073486,-3.97328974 Z" id="Fill-26" fill="#FEFEFE" mask="url(#mask-4)"></path>
                                    <path d="M112.709189,55.8505308 C112.709189,55.8505308 121.037118,44.9712418 117.297957,43.738904 C112.468466,42.14668 97.1241899,40.7189494 63.7806117,41.012493 C33.4717274,41.2796813 10.4331876,41.4668948 9.99068334,44.8749087 C9.20656586,50.9175444 17.3459885,59.5166449 17.3459885,59.5166449 L111.31884,60.7444387 L112.709189,55.8505308 Z" id="Fill-27" fill="#FEFEFE" mask="url(#mask-4)"></path>
                                </g>
                                <g id="Group-35" transform="translate(109.741047, 163.957114)">
                                    <path d="M34.1712381,20.1383628 C34.1712381,20.1383628 59.1090061,20.0711113 69.4016543,20.6209375 C69.4016543,20.6209375 68.2520284,9.33904849 58.787748,4.81502372 C53.0670534,2.08134221 45.9887559,1.65238687 45.9887559,1.65238687 L34.1712381,20.1383628 Z" id="Fill-29" fill="#AE1917"></path>
                                    <path d="M56.9292303,3.98337746 C51.3218168,2.06761928 45.4542108,1.05884718 39.818477,0.67714963 C21.2032094,-0.604263574 -0.57950353,13.9075138 0.163903564,36.530364 C0.67897848,52.3699036 14.7337976,63.4100508 28.5151491,56.0914547 C35.4801656,52.3762652 39.0998501,44.3488022 39.2600367,36.3558737 C39.3600426,31.308378 37.7864976,26.3544891 38.0210248,21.3633392 C38.2936075,15.2707193 41.7973559,10.03601 46.6764075,7.08421565 C46.8640292,6.97152399 47.0605011,6.85701473 47.2667081,6.74341427 C49.7889822,5.35112701 52.6263192,4.72405247 55.4716214,4.76585744 L58.787748,4.81493284 L57.9885854,4.4614082 L57.3956297,4.17422623 L56.9292303,3.98337746 Z" id="Fill-31" fill="#CF1417"></path>
                                    <path d="M44.8597506,1.18671586 C44.8597506,1.18671586 31.176635,4.24484028 27.3595936,18.3685584 C27.1542716,19.1255919 26.6551269,22.7989764 26.5365357,23.5750948 C26.1683722,25.9716101 26.0497811,28.6035056 25.4302752,32.3714057 C24.4461458,38.3622396 15.558891,40.407048 14.4163451,33.4010803 C13.5092114,27.8419281 17.1819965,16.2474106 22.6575437,10.3974413 C28.133976,4.54656311 34.0520275,1.13854926 38.1451915,0.598719872 C38.1451915,0.598719872 42.3365915,0.666880149 44.8597506,1.18671586" id="Fill-33" fill="#AE1917"></path>
                                </g>
                            </g>
                            <ellipse id="Oval-1" fill="#431F5D" opacity="0.701375933" cx="98.5" cy="341.959459" rx="70.5" ry="12.5"></ellipse>
                            <g id="Yellow-Monster" transform="translate(0.000000, 64.000000)">
                                <g id="Page-1">
                                    <g id="Group-33" transform="translate(0.000000, 0.103661)">
                                        <path d="M147.500494,69.4483502 C147.500494,69.4483502 168.388766,44.7970457 153.545606,19.8787346 C152.841547,18.6963666 151.112155,19.0770865 150.930019,20.4598665 C149.904088,28.2520611 146.266152,45.3210068 133.825989,50.7742237 C117.515592,57.9237177 147.500494,69.4483502 147.500494,69.4483502" id="Fill-1" fill="#EDE1C6"></path>
                                        <path d="M49.3338587,66.6787066 C49.3338587,66.6787066 28.4455872,42.027402 43.2887467,17.1090909 C43.9928055,15.926723 45.7221984,16.3074429 45.9043341,17.6902229 C46.9302654,25.4824175 50.568201,42.5513632 63.0083643,48.0045801 C79.3187609,55.1540741 49.3338587,66.6787066 49.3338587,66.6787066" id="Fill-3" fill="#EDE1C6"></path>
                                        <path d="M52.914347,82.0687149 L48.5454801,142.597537 C48.5454801,142.597537 40.2263598,132.390975 35.771501,144.109737 C31.3166422,155.829127 47.822312,200.338183 40.5715217,206.299654 C35.1856811,210.728194 23.5152648,211.127762 17.8708512,201.898129 C12.5088971,193.13089 9.17969637,166.52761 9.17969637,166.52761 L1.77901741,170.865682 C0.542286498,152.388826 7.06393702,140.528079 7.06393702,140.528079 L5.97166058e-05,141.521972 C2.36364298,128.278445 6.66741876,120.500072 9.710577,116.412673 C12.0389275,113.28524 14.166033,110.00263 16.0727842,106.573637 C21.0286653,97.6625277 32.6023407,82.0687149 52.914347,82.0687149" id="Fill-5" fill="#E6A400"></path>
                                        <g id="Group-9" transform="translate(143.917020, 81.672603)" fill="#E6A400">
                                            <path d="M0.0030455469,0.396112123 L4.37191243,60.9249345 C4.37191243,60.9249345 12.6910328,50.7183722 17.1458916,62.4371342 C21.6007504,74.1565244 5.09508053,118.66558 12.3458708,124.627052 C17.7317115,129.055591 29.4021278,129.455159 35.0465414,120.225527 C40.4084954,111.458287 43.7376962,84.8550071 43.7376962,84.8550071 L51.1383751,89.1930788 C52.375106,70.7162231 45.8534555,58.8554764 45.8534555,58.8554764 L52.9173328,59.8493692 C50.5537496,46.6058425 46.2499738,38.8274695 43.2068156,34.7400698 C40.8784651,31.6126374 38.7513596,28.330027 36.8446084,24.9010342 C31.8887272,15.989925 20.3150519,0.396112123 0.0030455469,0.396112123" id="Fill-7"></path>
                                        </g>
                                        <g id="Group-12" transform="translate(22.095144, 0.000000)">
                                            <mask id="mask-6" fill="white">
                                                <use xlink:href="#path-5"></use>
                                            </mask>
                                            <g id="Clip-11"></g>
                                            <path d="M137.376141,218.179626 C136.332892,223.820061 134.718155,234.965858 122.452961,234.965858 C110.188365,234.965858 105.935945,225.610576 105.935945,218.711126 C105.935945,215.841904 105.652888,212.425477 105.322058,209.411757 C105.322058,209.411757 87.7916515,205.658587 74.3189881,206.49793 C58.1053324,207.507529 46.380574,209.411757 46.380574,209.411757 C46.0503412,212.425477 45.7672845,215.841904 45.7672845,218.711126 C45.7672845,225.610576 41.514865,234.965858 29.2496713,234.965858 C18.4015527,234.965858 15.4354288,223.80624 14.3270886,218.179626 C8.85764471,190.412197 0.877117507,161.240628 0.467461591,105.692578 C-0.069390696,32.9725491 47.8113839,21.2230028 47.8113839,21.2230028 C47.5653515,15.9928149 43.4771526,9.19576964 43.4771526,9.19576964 C51.1955239,8.11894779 56.8877108,13.9503716 56.8877108,13.9503716 C58.1142899,6.95794033 55.6611317,0.524652235 55.6611317,0.524652235 C66.1981268,3.71616625 75.7223283,16.1234911 75.7223283,16.1234911 C75.7223283,16.1234911 82.377744,5.12219152 90.9858927,3.88139621 C90.9858927,3.88139621 88.160103,16.2221265 88.419273,18.585606 C88.419273,18.585606 100.307058,8.07685499 107.175662,10.6363487 C107.175662,10.6363487 103.704335,16.3898694 102.981167,21.0288733 C102.981167,21.0288733 150.104735,27.9358625 150.104735,105.692578 C150.104735,105.692578 146.129998,170.857263 137.376141,218.179626" id="Fill-10" fill="#FDD200" mask="url(#mask-6)"></path>
                                        </g>
                                        <path d="M85.5212859,76.3095399 C83.4389678,80.0394648 80.3880464,86.8151496 69.5871039,88.7866006 C56.371819,91.1990836 50.2287718,84.581718 47.3862614,76.825962 C43.5990342,66.4906083 55.9263332,55.32722 66.4543708,55.4585244 C76.9818112,55.5892006 90.8533816,66.7582431 85.5212859,76.3095399" id="Fill-13" fill="#FEFEFE"></path>
                                        <path d="M72.7147014,76.0686057 C72.2602581,78.4628695 69.9958044,81.5852759 66.8069376,81.5456961 C63.6180709,81.5061163 61.1254997,79.5798994 61.1631212,76.2250401 C61.2007427,72.8701809 63.7500446,69.7125924 66.9389113,69.7528005 C70.1277781,69.7923803 73.3393371,72.7784563 72.7147014,76.0686057" id="Fill-15" fill="#13110D"></path>
                                        <path d="M44.5109068,70.2687829 C46.622486,57.8086849 57.9632666,47.7177208 69.806861,49.9392155 C81.6504555,52.1600821 91.8464688,65.3608877 87.5886748,77.1983891" id="Fill-17" fill="#FDD200"></path>
                                        <path d="M113.927998,73.8065887 C115.507502,77.6521118 117.673423,84.5459077 127.831218,87.7920796 C140.259438,91.7645093 147.716847,85.1050509 150.520542,79.0744716 C154.999885,69.438361 144.74296,57.3445333 134.610247,56.1527415 C124.477533,54.961578 109.883392,63.9600141 113.927998,73.8065887" id="Fill-19" fill="#FEFEFE"></path>
                                        <path d="M126.377775,75.2246136 C126.543787,77.583067 128.366935,80.8669339 131.436369,81.2275499 C134.505802,81.5887941 137.119001,80.0495796 137.462372,76.8203706 C137.805145,73.5911615 135.712078,70.2381871 132.642644,69.8769428 C129.573211,69.5163269 126.149061,71.984096 126.377775,75.2246136" id="Fill-21" fill="#13110D"></path>
                                        <path d="M154.703869,70.8453914 C153.256936,58.6837126 142.771297,48.3251136 131.21076,49.846737 C119.650819,51.3689887 109.237437,66.1850271 112.789381,77.8579268" id="Fill-23" fill="#FDD200"></path>
                                        <polygon id="Fill-25" fill="#E6A400" points="111.697045 68.4242385 112.604737 73.4326538 151.951412 64.9889632 150.631675 54.3828334"></polygon>
                                        <polygon id="Fill-27" fill="#E6A400" points="86.9058751 67.1640931 86.2179398 72.7027521 46.1654151 64.7704576 48.9261138 52.3197834"></polygon>
                                        <path d="M85.0105297,94.8602779 C79.0824623,94.4406064 73.1125932,95.1103217 67.4574306,97.0252301 C60.8366505,99.2674572 55.404828,103.233604 55.2901722,110.516916 C55.1605871,118.753912 57.8687352,120.000362 62.2477539,123.769866 C66.6267726,127.539371 64.3061853,130.914963 63.5012055,135.219109 C62.5755981,140.165327 70.5925524,140.873366 70.6170362,136.135098 C70.6391314,131.925818 67.6813679,127.365974 74.0202856,126.502129 C79.6037882,125.741317 103.738254,120.828396 110.904247,121.675278 C118.07024,122.522788 125.357457,126.921172 132.52345,124.826584 C139.689443,122.732624 142.675273,117.719183 142.675273,111.849436 C142.675273,105.97906 138.982398,98.6970055 129.935929,98.0210076 C120.889461,97.345638 100.077627,95.9270477 100.077627,95.9270477 L85.0105297,94.8602779 Z" id="Fill-29" fill="#E6A400"></path>
                                        <path d="M78.4258185,98.8662562 C78.4258185,98.8662562 56.7230124,101.308267 59.4102597,113.873283 C62.0975069,126.438299 80.6771345,122.511731 87.6597972,120.626979 C94.6430571,118.742226 106.287795,117.630851 112.70733,118.500978 C119.126866,119.370477 128.980105,123.768233 134.503892,119.841665 C140.027678,115.915098 140.624844,107.119587 134.503892,103.507145 C128.382939,99.8947028 88.2515888,96.3563943 78.4258185,98.8662562" id="Fill-31" fill="#1D1C1B"></path>
                                    </g>
                                    <g id="Group-40" transform="translate(64.493934, 91.828277)">
                                        <g id="Group-36">
                                            <mask id="mask-8" fill="white">
                                                <use xlink:href="#path-7"></use>
                                            </mask>
                                            <g id="Clip-35"></g>
                                            <path d="M17.7953694,33.3262542 C18.6266245,32.8852222 19.0034363,31.8674559 18.7060476,30.9395295 C15.708274,21.589273 14.0105309,11.8224862 13.8188406,2.03245413 C13.809286,1.54618802 13.4778588,1.12400349 13.0126664,1.01217485 L11.2104193,0.579310054 C10.6359455,0.441723131 10.0447511,0.706216713 9.76229158,1.22829312 C4.52096508,10.9190616 0.537867469,20.1562329 0.391561785,31.108529 C0.382604294,31.7681923 0.693130644,32.3914171 1.21326228,32.7602003 C2.43207821,33.6240451 5.07871818,34.949026 9.98622885,35.1224233 C13.2276462,35.2367649 15.8617457,34.3521878 17.7953694,33.3262542" id="Fill-34" fill="#FEFEFE" mask="url(#mask-8)"></path>
                                        </g>
                                        <g id="Group-39" transform="translate(51.953447, 0.628251)">
                                            <mask id="mask-10" fill="white">
                                                <use xlink:href="#path-9"></use>
                                            </mask>
                                            <g id="Clip-38"></g>
                                            <path d="M16.4114968,28.3807897 C16.4598672,18.3350595 12.9855551,9.84801961 8.36826713,0.914921626 C8.12462338,0.444361784 7.61344923,0.196830973 7.11541274,0.308031362 L5.55262916,0.658595303 C5.14894491,0.749063417 4.86111087,1.11847488 4.85215338,1.55196793 C4.65628291,10.540352 3.08275034,19.4791042 0.312496998,27.9818504 C0.0754220732,28.7074801 0.42595855,29.5003326 1.11389385,29.7547742 C2.97645479,30.4439653 5.96885391,31.3027841 9.3153725,31.3027841 C12.5639559,31.3027841 14.6343306,30.3490994 15.7999987,29.5499644 C16.1768105,29.2917533 16.4091081,28.8538625 16.4114968,28.3807897" id="Fill-37" fill="#FEFEFE" mask="url(#mask-10)"></path>
                                        </g>
                                    </g>
                                    <g id="Group-47" transform="translate(63.299602, 126.382070)" fill="#E6A400">
                                        <path d="M3.55851254,16.3952724 C0.728542591,16.7458363 -0.0376214617,18.3786601 0.329038498,19.7928527 C0.898734918,21.9911022 2.31401848,22.7274121 3.81171095,22.4578925 C6.0277942,22.0576968 6.85128619,20.8589943 6.85128619,19.1935014 C6.85128619,17.5280086 5.71129618,16.1288941 3.55851254,16.3952724" id="Fill-41"></path>
                                        <path d="M65.2548433,4.26877564 C61.1887396,4.77200453 60.0881626,7.11852123 60.614863,9.15028429 C61.4335777,12.3091293 63.466331,13.3671036 65.6185174,12.9794729 C68.803204,12.4046234 69.98619,10.6819597 69.98619,8.28895245 C69.98619,5.89594519 68.3481635,3.88617091 65.2548433,4.26877564" id="Fill-43"></path>
                                        <path d="M74.8390003,0.326250635 C72.7787774,0.581320456 72.2216214,1.76997095 72.4885547,2.79904575 C72.9029879,4.39982876 73.9330993,4.93572668 75.0235246,4.73908419 C76.6364701,4.44820407 77.2360248,3.57493547 77.2360248,2.3630397 C77.2360248,1.15051567 76.405964,0.132121141 74.8390003,0.326250635" id="Fill-45"></path>
                                    </g>
                                </g>
                            </g>
                        </g>
                        <g id="Brush" transform="translate(365.000000, 0.000000)">
                            <path d="M16.9622272,73.6433784 C13.6245632,74.671244 10.1681521,76.3642352 7.42098703,79.1425821 C-0.459411775,87.1122231 0.483687166,100.987999 0.483687166,100.987999 C0.483687166,100.987999 14.2037336,101.941803 22.0843347,93.9717529 C24.8312975,91.1936106 26.505288,87.6979674 27.52182,84.3222145 L16.9622272,73.6433784 L16.9622272,73.6433784 Z" id="Shape" fill="#BFC302"></path>
                            <polygon id="Shape" fill="#E6E6E6" points="32.0174201 52.1940493 16.9600019 73.6409233 16.9622272 73.6433784 27.5216177 84.3224191 27.5238429 84.3246696 48.7300153 69.0963416"></polygon>
                            <rect id="Rectangle-path" fill="#B3B3B3" transform="translate(43.290299, 57.696402) rotate(225.000000) translate(-43.290299, -57.696402) " x="31.4726462" y="53.5245232" width="23.6353055" height="8.34375809"></rect>
                            <polygon id="Shape" fill="#E74C0F" points="99.8934363 8.90114421 91.5370375 0.44989579 37.8509988 46.2938471 54.5639987 63.1965486"></polygon>
                        </g>
                    </g>
                </g>
            </g>
        </g>
    </g>
</svg>