<svg width="223" height="139" viewBox="0 0 223 139" xmlns="http://www.w3.org/2000/svg" xmlns:xlink="http://www.w3.org/1999/xlink"><title>Monsters bookcase</title><defs><path id="a" d="M55.66 0H0v53.923h55.66z"/><path id="c" d="M0 138.018h113.728V.296H0z"/><path d="M.432 1.562C-.248 3 .375 6.084.375 6.084l18.55 2.577c2.234-2.976.23-8.415.23-8.415L.432 1.562z" id="e"/><path d="M.67.246l-.584 4.42h45.25c-.323-1.4-.69-2.908-1.052-4.42H.67z" id="g"/></defs><g fill="none" fill-rule="evenodd"><g transform="translate(167 15)"><mask id="b" fill="#fff"><use xlink:href="#a"/></mask><path d="M25.78 43.798c-4.922 3.295-9.79 6.683-14.618 10.125 1.004-6.665 2.277-13.39 2.735-20.107.1-.136.128-.342-.004-.486C9.58 28.65 4.696 24.49 0 20.212c6.062-1.054 12.127-2.09 18.19-3.145.15.107.373.106.516-.1C22.36 11.653 25.34 5.776 28.266 0c2.916 5.277 5.647 10.73 8.84 15.824.087.14.2.222.32.26.04.06.096.107.173.13 5.865 1.724 12.025 2.616 18.06 3.563-4.245 4.876-8.562 9.687-12.766 14.604-.092.11-.14.225-.16.34-.242.144-.41.416-.326.773 1.32 5.646 2.232 11.398 2.832 17.172-6.14-2.99-12.223-6.12-18.432-8.956-.147-.068-.284-.04-.388.035-.183-.096-.407-.102-.64.053" stroke="#FCD200" fill="#FCD200" mask="url(#b)"/></g><path d="M59.775 48.315h-6.28v-2.09c0-2.874-2.357-5.225-5.236-5.225H14.756c-2.88 0-5.234 2.35-5.234 5.225v2.09H3.24c-1.726 0-3.14 1.41-3.14 3.136v6.27c0 2.04 1.256 4.39 3.14 6.27l6.963 5.384c2.2 8.517 9.318 15.1 18.165 16.355v5.433h-2.094c-1.728 0-3.14 1.41-3.14 3.135v1.045h-1.048c-1.728 0-3.14 1.41-3.14 3.135v1.046H44.07v-1.046c0-1.724-1.412-3.135-3.14-3.135h-1.046v-1.045c0-1.724-1.414-3.135-3.14-3.135h-2.095V85.73c8.846-1.255 15.965-7.84 18.163-16.356l6.962-5.383c1.885-1.88 3.14-4.23 3.14-6.27v-6.27c0-1.724-1.412-3.135-3.14-3.135zM5.335 61.64C3.87 60.124 3.24 58.61 3.24 57.72v-6.27h6.283v13.43l-4.188-3.24zm54.44-3.92c0 .89-.628 2.405-2.094 3.92l-4.24 3.24V51.45h6.283v6.27h.052z" fill="#FCD200"/><path d="M12.663 99.523h37.69c1.727 0 3.14 1.41 3.14 3.135v2.09c0 1.725-1.413 3.136-3.14 3.136h-37.69c-1.727 0-3.14-1.41-3.14-3.135v-2.092c0-1.724 1.413-3.135 3.14-3.135z" fill="#E4E7E7"/><path d="M38.837 55.004l-3.612 3.762s-3.664-4.18-3.717-4.18c-.052 0-3.664 4.18-3.664 4.18l-3.612-3.71c-.523-.68-1.047-.627-1.047-.052l1.047 8.935c0 .574.47 1.044 1.047 1.044H37.84c.576 0 1.047-.47 1.047-1.045l1.046-8.884c-.052-.888-.733-.418-1.1-.052zM37.79 67.126H25.227c-.576 0-1.047.47-1.047 1.045 0 .576.47 1.047 1.047 1.047H37.79c.576 0 1.047-.47 1.047-1.046 0-.573-.47-1.044-1.047-1.044z" fill="#E5A300"/><path d="M23.29 93.253c-.105.313-.157.68-.157 1.045v1.045h16.75v-1.045c0-.366-.052-.732-.156-1.045H23.29zm-4.188 4.18c-.105.314-.157.68-.157 1.045v1.045H44.07v-1.045c0-.366-.05-.73-.156-1.045H19.102z" fill="#E3BD59"/><path d="M9.523 104.748c0 1.725 1.413 3.136 3.14 3.136h37.69c1.727 0 3.14-1.41 3.14-3.136v-1.045H9.524v1.045z" fill="#D2D5D5"/><path d="M14.757 63.835v-17.61c0-2.874 2.356-5.225 5.235-5.225h-5.235c-2.88 0-5.235 2.35-5.235 5.225v17.61c0 12.227 9.842 22.102 21.986 22.102.89 0 1.78-.052 2.617-.156-10.94-1.306-19.368-10.607-19.368-21.945z" fill="#E5A300"/><g><path d="M86.83 120.508s2.86.966 5.308 3.24c3.148 2.922 5.763 8.31 10.063 9.384 3.85.96 8.887-1.593 13.155-5.975 4.64-4.765 10.81-4.605 10.81-4.605s.52 2.242 2.67 3.208c4.463 2.006 6.987 8.48 13.78 6.18 3.805-1.288 5.075-4.367 6.936-9.576 1.48-4.134 3.587-5.916 3.587-5.916l-19.573-5.177-39.45 2.563-7.284 6.675z" fill="#8F9424"/><g transform="translate(63 .09)"><mask id="d" fill="#fff"><use xlink:href="#c"/></mask><path d="M107.826 90.26c-7.557 5.12-14.732 6.538-20.875 6.217 6.623-8.303 13.867-23.445 13.867-49.98C100.817-2.374 55.59.324 55.59.324h-.144S10.218-2.375 10.218 46.498c0 28.03 8.083 43.35 14.98 51.32-5.767-.087-12.294-1.734-19.147-6.3-3.192-2.128-7.234 1.173-5.723 4.7 2.38 5.557 6.574 11.956 13.934 16.772.958.626 1.414 1.79 1.096 2.888-1.51 5.23-5.18 11.087-.015 14.02 10.643 6.046 18.584-8.76 28.76-6.858 9.084 1.7 7.953 17.9 19.873 14.514 8.803-2.5 1.78-15.99 10.982-18.21 8.837-2.13 15.62 10.79 25.052 5.993 5.024-2.554 3.41-7.507 1.183-12.48-.486-1.082-.17-2.364.77-3.084 5.92-4.522 9.41-10.104 11.462-15.003 1.44-3.436-2.51-6.6-5.596-4.51" fill="#C0C301" mask="url(#d)"/></g><path d="M102.556 28.582c3.916 3.5 7.68 11.972 3.36 17.75-3.786 5.068-10.992 6.642-16.26 3.55-6.223-3.652-9.17-10.756-5.437-16.93 3.733-6.174 12.955-9.177 18.336-4.37M149.516 28.357c4.077 3.642 7.996 12.46 3.5 18.477-3.943 5.274-11.443 6.912-16.927 3.694-6.478-3.8-9.548-11.196-5.66-17.623 3.886-6.427 13.485-9.553 19.086-4.548" fill="#8F9424"/><path d="M148.188 30.526c3.26 2.912 5.913 9.42 2.805 14.56-3.108 5.14-8.46 7.435-13.6 4.327-5.14-3.108-7.575-10.11-4.467-15.25 3.11-5.14 10.783-7.638 15.262-3.637" fill="#FEFEFE"/><path d="M146.184 34.61c1.547 1.802 2.51 5.5.466 8.048-2.045 2.547-4.44 1.996-7.642 1.355-3.158-.63-3.356-5.994-1.312-8.54 2.045-2.547 6.36-3.343 8.488-.864" fill="#13110D"/><path d="M129.97 39.723l23.68-.635s-.714 13.03-10.41 13.03c-9.693 0-13.27-7.866-13.27-12.395" fill="#8F9424"/><g transform="translate(85.102 34.984)"><mask id="f" fill="#fff"><use xlink:href="#e"/></mask><path fill="#FEFEFE" mask="url(#f)" d="M-1.17 8.947h22.558V.245h-22.56"/><path d="M15.24 4.423c-.045 3.785-2.552 4.655-5.418 4.555-2.865-.1-5.067-1.798-4.966-4.663.1-2.864 2.454-5.508 5.32-5.407 2.864.1 5.098 2.65 5.064 5.515" fill="#13110D" mask="url(#f)"/></g><g><path d="M146.155 77.982c-1.468-7.07-2.9-14.145-4.294-21.23-.18-.918-1.032-1.55-1.95-1.474-14.734 1.134-29.456 1.683-44.233 1.65-.924-.005-1.714.675-1.837 1.586-.89 6.51-1.8 13.015-2.724 19.52-.072.505.083 1.02.425 1.415.343.393.847.635 1.382.662 17.157.783 34.283.802 51.443.058.558-.027 1.076-.284 1.42-.705.345-.42.478-.962.37-1.483" fill="#8F9424"/><path d="M97.32 60.948c-.67 5.146-1.348 10.29-2.036 15.434-.09.66.43 1.253 1.125 1.283 14.832.586 29.64.603 44.473.05.724-.03 1.253-.67 1.116-1.35-1.132-5.644-2.23-11.293-3.304-16.947-.108-.57-.63-.968-1.214-.923-12.998.933-25.99 1.42-39.02 1.46-.58 0-1.068.425-1.142.993" fill="#FEFEFE"/></g><g transform="translate(95.96 66)"><mask id="h" fill="#fff"><use xlink:href="#g"/></mask><path d="M-.94 4.666L-.956 2.59c15.608-.14 31.154-.92 46.698-2.344l.204 2.067C30.34 3.743 14.73 4.525-.94 4.666" fill="#1D1C1B" mask="url(#h)"/></g><g fill="#8F9424"><path d="M87.235 62.67l-.72 11.45c-.015.233.17.433.41.448l1.26.077c.227.013.426-.142.458-.358.582-3.898 1.16-7.797 1.73-11.696.04-.266-.183-.5-.457-.48-.913.07-1.37.103-2.285.168-.213.015-.382.183-.395.393M151.882 72.867c-1.318-4.905-2.617-9.816-3.894-14.732-.077-.3-.36-.485-.632-.416l-1.417.356c-.256.064-.415.333-.366.618.884 5.152 1.782 10.302 2.694 15.45.063.352.418.567.73.44 1.038-.425 1.556-.64 2.59-1.07.242-.1.367-.376.294-.647M112.57 48.8l1.754 4.563c.06.156.21.26.375.26h7.56c.182 0 .342-.124.39-.3l1.574-5.848c.074-.275-.153-.537-.436-.504L112.9 48.257c-.26.03-.422.3-.33.544"/></g></g></g></svg>