<?xml version="1.0" encoding="utf-8"?>
<!-- Generator: Adobe Illustrator 19.2.1, SVG Export Plug-In . SVG Version: 6.00 Build 0)  -->
<svg version="1.1" id="Layer_1" xmlns="http://www.w3.org/2000/svg" xmlns:xlink="http://www.w3.org/1999/xlink" x="0px" y="0px"
	 viewBox="0 0 193.3 82.8" style="enable-background:new 0 0 193.3 82.8;" xml:space="preserve">
<g>
	<path d="M173.5,12.3c2.7-6.5,0.3-10.4-3.3-11.6c-6-2-9.9,0.4-11.7,4.4c-0.1,0.2-0.2,0.5-0.3,0.7C142.2,1.7,119,0,98.1,0
		C80.8,0,65,1.1,56.5,3C48.8,4,25,8.2,14.2,23.6c-4.7,6.7-6.3,15-4.5,23c0.9,4.2,2.6,8.1,5,11.7c-2.7,4-2.2,7.4,0.2,10.5
		c2.9,3.6,7.8,4.6,12.3,0.1h0.1c6.3,3.1,14.1,4.7,23.1,4.7c10-0.2,19.9-1.6,29.5-4.3c11.8-3.1,31.4-4.8,41-3.5
		c2.4,0.3,5.7,1.1,9.3,2c12.8,3.1,28.7,6.9,41.5-2c9.1-6.4,14.3-16.9,14-27.9C185.5,33.5,184.1,20.3,173.5,12.3z M145.9,42.3
		c-1.6,1.4-3.6,2.2-5.8,2.1c-0.3,0-0.7,0-1-0.1c-3.1-0.4-6.6-0.9-10.4-1.3c-0.8-0.1-1.5-0.2-2.3-0.3c-6.4-0.7-13.2-1.3-19.3-1.7
		c-0.6,0-1.3-0.1-1.9-0.1c-5-0.2-9.3-0.3-12.2,0c-1.9,0.2-4.4,0.5-7.1,0.8c-0.5,0.1-1.1,0.1-1.7,0.2c-4.9,0.6-10.6,1.4-15.9,2.3
		c-0.6,0.1-1.2,0.2-1.8,0.3c-2.9,0.5-5.7,1.1-8.1,1.6c-2.5,0.6-5.1,0-7-1.5c-1.6-1.2-2.7-2.9-3.2-4.9c-0.2-1-0.3-2-0.2-3v-0.3
		c0.4-3.4,2.8-6.1,6-7.1c13.2-3.9,26.9-6.1,40.7-6.4c18.7-0.5,37.3,2.5,47.1,4.4c4.1,0.8,7,4.4,6.9,8.6
		C148.7,38.6,147.6,40.7,145.9,42.3z" fill="#F2F3F4"/>
	<path d="M9.9,73.3c-3-2.2-5.6-1.6-7.3,0.3c-2.6,2.8-2.4,5.2-0.8,7.3C3.4,83,6.4,83.6,9,81C12.4,77.6,11.8,74.7,9.9,73.3z"/>
	<path d="M190.7,11.3c3.4-3.4,2.8-6.3,0.9-7.7c-3-2.2-5.6-1.6-7.3,0.3c-2.6,2.9-2.4,5.2-0.8,7.4S188.1,13.9,190.7,11.3z"/>
	<path d="M191.9,60.9c-2.7-2-5.1-1.5-6.6,0.3c-2.3,2.6-2.2,4.8-0.7,6.7c1.5,1.9,4.2,2.4,6.5,0.1C194.2,64.8,193.6,62.2,191.9,60.9z"
		/>
	<path d="M4.8,16.5c2.4,0,4.5-1.7,4.2-5C8.5,7.1,6.2,5.9,4.1,6.4c-3.2,0.8-4.4,3-4,5.3C0.6,15.1,2.3,16.4,4.8,16.5z"/>
	<path class="st0" fill="#010101" d="M141.9,27.5c-9.8-1.9-28.4-4.9-47.1-4.4c-13.8,0.3-27.5,2.5-40.7,6.4c-3.2,1-5.6,3.7-6,7.1v0.3
		c-0.1,1,0,2,0.2,3c0.4,2.1,1.6,3.8,3.2,4.9c1.7-1.9,4.9-4.6,8.8-4.4c3.4,0.1,5.3,2.5,6.3,4.3c0.6-0.1,1.2-0.2,1.8-0.3
		c0.9-2.7,2.9-6.8,7.8-7.7c4.5-0.8,6.9,2.8,8.1,5.3c0.6-0.1,1.1-0.1,1.7-0.2c1.2-3.4,4-8.8,9.5-8.9c5.3-0.1,8.3,4.8,9.8,8.1
		c0.6,0,1.3,0.1,1.9,0.1c1.2-3,3.9-7,10-6.3c6,0.7,8.4,5,9.3,8c0.8,0.1,1.6,0.2,2.3,0.3c1.8-2.2,4.9-4.8,9.7-4.4
		c3.5,0.3,5.9,1.9,7.5,3.7c1.7-1.5,2.8-3.7,2.9-6.2C148.9,31.9,146,28.3,141.9,27.5z"/>
	<path class="st1" fill="##F2F3F4" d="M138.4,38.6c-4.8-0.4-7.9,2.2-9.7,4.4c3.7,0.4,7.3,0.9,10.4,1.3c0.3,0.1,0.7,0.1,1,0.1c2.2,0,4.3-0.8,5.8-2.1
		C144.3,40.5,141.9,38.9,138.4,38.6z"/>
	<path class="st1" fill="##F2F3F4" d="M76.1,36.7c-4.8,0.8-6.9,5-7.8,7.7c5.3-0.9,11-1.7,15.9-2.3C83,39.5,80.6,35.9,76.1,36.7z"/>
	<path class="st1" fill="##F2F3F4" d="M95.4,32.9c-5.5,0.1-8.3,5.5-9.5,8.9c2.7-0.3,5.2-0.6,7.1-0.8c2.9-0.3,7.3-0.2,12.2,0
		C103.7,37.7,100.7,32.8,95.4,32.9z"/>
	<path class="st1" fill="##F2F3F4" d="M60.3,40.4c-3.9-0.1-7.1,2.6-8.8,4.4c1.9,1.5,4.5,2.1,7,1.5c2.4-0.6,5.2-1.1,8.1-1.6
		C65.6,42.9,63.7,40.5,60.3,40.4z"/>
	<path class="st1" fill="##F2F3F4" d="M117.1,34.8c-6.1-0.7-8.8,3.3-10,6.3c6.1,0.3,12.9,1,19.3,1.7C125.5,39.8,123.1,35.5,117.1,34.8z"/>
</g>
</svg>
