<?xml version="1.0" encoding="utf-8"?>
<!-- Generator: Adobe Illustrator 19.2.1, SVG Export Plug-In . SVG Version: 6.00 Build 0)  -->
<svg version="1.1" id="Layer_1" xmlns="http://www.w3.org/2000/svg" xmlns:xlink="http://www.w3.org/1999/xlink" x="0px" y="0px"
	 viewBox="0 0 168.6 87" style="enable-background:new 0 0 168.6 87;" xml:space="preserve">
<g>
	<path class="st0" fill="#F2F3F4" d="M142.7,25.2c-0.5-2.3-2.6-4-5-3.8c-38,2.9-76,4.3-114.1,4.3c-2.4,0-4.4,1.7-4.7,4.1c-2.3,16.8-4.6,33.6-7,50.4
		c-0.2,1.3,0.2,2.7,1.1,3.7s2.2,1.6,3.6,1.7c44.2,2,88.5,2,132.7,0.2c1.4-0.1,2.8-0.7,3.7-1.8c0.8-1.3,1.1-2.7,0.8-4
		C150,61.8,146.3,43.5,142.7,25.2z M131.6,29.6c1.5-0.1,2.8,0.9,3.1,2.4c1.1,6,2.3,12,3.4,18.1c0.2,0,0.3,0,0.5,0
		c0.4,1.8,0.8,3.5,1.3,5.2c-0.2,0-0.5,0-0.7,0.1c1.3,6.8,2.7,13.6,4,20.4c0,0.1,0,0.3,0,0.4c0.1,1.7-1.2,3.1-2.9,3.1
		c-38.2,1.5-76.4,1.4-114.7-0.1c0,0-0.1,0-0.2,0c-1.7-0.2-2.9-1.7-2.7-3.3c0.6-4.9,1.3-9.8,1.9-14.7c0,0,0,0-0.1,0
		c0.2-1.8,0.5-3.6,0.7-5.4c0,0,0,0,0,0c0.9-6.5,1.7-13.1,2.6-19.6c0.2-1.4,1.4-2.5,3.1-2.6C64.5,33.3,98.1,32,131.6,29.6z"/>
	<path d="M27.9,36c-0.8,6.6-1.7,13.1-2.6,19.6c37.7-0.5,75.3-2.3,112.8-5.6c-1.2-6-2.3-12-3.4-18.1c-0.3-1.5-1.6-2.5-3.1-2.4
		C98.1,32,64.5,33.3,31,33.4C29.3,33.5,28.1,34.6,27.9,36z" fill="#F2F3F4" />
	<path d="M22.7,75.8c-0.2,1.6,1,3.1,2.7,3.3c0.1,0,0.2,0,0.2,0c38.3,1.5,76.5,1.6,114.7,0.1c1.7,0,3-1.4,2.9-3.1c0-0.1,0-0.3,0-0.4
		c-1.4-6.8-2.7-13.6-4-20.4c-38.1,3.5-76.3,5.4-114.5,5.7C24,66,23.3,70.9,22.7,75.8z"/>
	<path class="st1" fill="#231F20" d="M25.3,55.6c-0.2,1.8-0.5,3.6-0.7,5.4c0,0,0,0,0.1,0c38.3-0.4,76.4-2.2,114.5-5.7c0.2,0,0.5,0,0.7-0.1
		c-0.4-1.7-0.8-3.5-1.3-5.2c-0.2,0-0.3,0-0.5,0C100.7,53.3,63.1,55.2,25.3,55.6C25.3,55.6,25.3,55.6,25.3,55.6z"/>
	<path class="st0" fill="#F2F3F4" d="M9.1,39.1c-0.1,0-0.2,0-0.2,0L3,39.5c-0.7,0-1.1,0.5-1.1,1L0,70c0,0.6,0.4,1.1,1.1,1.2l3.2,0.2
		c0.6,0,1.1-0.4,1.2-0.9C7,60.4,8.5,50.4,10,40.3C10.1,39.7,9.7,39.1,9.1,39.1z"/>
	<path class="st0" fill="#F2F3F4" d="M168.6,66.8c-3.4-12.7-6.7-25.3-10-38c-0.2-0.7-0.9-1.2-1.6-1.1l-3.6,0.9c-0.7,0.2-1.1,0.9-0.9,1.6
		c2.3,13.3,4.6,26.6,6.9,39.8c0.1,0.8,0.8,1.3,1.6,1.2c0.1,0,0.2,0,0.3-0.1l6.7-2.8C168.5,68.2,168.8,67.5,168.6,66.8z"/>
	<path class="st0" fill="#F2F3F4" d="M71.7,16.5c0.1,0.4,0.6,0.7,1,0.7h19.5c0.5,0,0.9-0.3,1-0.8l4.1-15.1c0.2-0.5-0.1-1.1-0.6-1.3
		c-0.2,0-0.4,0-0.5,0L68.1,3.3c-0.6,0-1,0.5-1,1c0,0.2,0,0.3,0.1,0.4L71.7,16.5z"/>
</g>
</svg>
