<?xml version="1.0" encoding="utf-8"?>
<!-- Generator: Adobe Illustrator 19.2.1, SVG Export Plug-In . SVG Version: 6.00 Build 0)  -->
<svg version="1.1" id="Layer_1" xmlns="http://www.w3.org/2000/svg" xmlns:xlink="http://www.w3.org/1999/xlink" x="0px" y="0px"
	 viewBox="0 0 77.6 48.7" style="enable-background:new 0 0 77.6 48.7;" xml:space="preserve">
<g>
	<path class="st0" fill="#D9D8D8" d="M38.2,18.6c0.6-0.7,1.7-0.7,2.2,0.1c2.1,3.4,4.6,5.7,7.2,7.2c-0.2-1.6-0.5-3.3-0.9-5.3c-1.6-1.2-3-2.7-4.2-4.7
		c1.8-1.3,3.3-3.5,5.9-4c3.4-0.8,5-5.3,2.4-8.8C48.2-0.3,39.2,0,39.2,0c-0.4,0-10.1,0.2-11,5.9c-0.9,5.6,2.8,7.8,5.4,8.3
		c1,0.2,1.9,0.8,2.8,1.4c-1,1.2-3,3.5-6.1,5.6c-0.4,1.7-0.7,3.2-1,4.5C33.7,23.6,36.7,20.5,38.2,18.6z"/>
	<path class="st0" fill="#D9D8D8" d="M74.1,20.7l-0.3,0.2c-0.1,0-5.6,2.8-12.4,3.1c-1.9,0.1-3.7,0.1-5.4-0.1c-0.4,1.6-0.7,3-1,4.3
		c6.5,0.6,12.9-1.9,16.6-3.7c1.2-0.6,2.4,0.7,1.8,1.8c-2,4-6.3,10.2-14.3,14.5c0.5,0.5,0.8,0.8,0.8,0.8l-20.1,5.7l-22.1-4.4l0.5-2.3
		c0.1-0.1,0.2-0.2,0.3-0.3C11.2,36.1,6.8,30.2,4.6,26.4c-0.7-1.1,0.5-2.5,1.7-2c6,2.6,11.1,3.4,15.4,3c-0.2-0.9-0.3-1.7-0.5-2.7
		c-5.2,0.9-11-0.4-17.2-3.7l-0.4-0.2c-2-1-4.2,0.9-3.4,3l0.2,0.4c0.1,0.3,2.5,6.5,8.7,12.6c5.5,5.5,15.1,11.8,29.8,11.8
		c0.5,0,1,0,1.6,0c15.5-0.5,24.7-7.1,29.7-12.6c5.5-6,7.2-11.9,7.3-12.2l0.1-0.4C78.1,21.5,76,19.8,74.1,20.7z"/>
	<path class="st1" fill="#1D1C1C" d="M48.2,34.7c-0.1-3.5-0.3-6-0.6-8.8c-2.6-1.5-5.1-3.8-7.2-7.2c-0.5-0.8-1.6-0.8-2.2-0.1c-1.5,1.9-4.4,5-8.9,7
		c-0.6,2.9-0.9,5.4-1.2,9c4.8-1.1,9.7-1,12.3-1.1C43.2,33.5,45.9,34,48.2,34.7z"/>
	<path class="st1" fill="#1D1C1C" d="M23.9,36.1c-1-3.3-1.7-5.7-2.3-8.5c-4.3,0.3-9.4-0.4-15.4-3c-1.2-0.5-2.4,0.8-1.7,2c2.2,3.8,6.6,9.6,13.8,13.9
		C19.9,38.4,21.8,37,23.9,36.1z"/>
	<path class="st1" fill="#1D1C1C" d="M59.1,40.8c8-4.3,12.2-10.5,14.3-14.5c0.6-1.2-0.6-2.4-1.8-1.8c-3.8,1.9-10.2,4.4-16.6,3.7
		c-0.7,2.6-1.5,4.9-2.6,8.1C55.5,37.9,57.9,39.8,59.1,40.8z"/>
	<path class="st2" fill="#CC2027" d="M52,36.9c-0.4,1.1-1.3,1.9-2.7,1.6c-0.7-0.2-1.1-1.2-1.1-2.8c0-0.3,0-0.7,0-1c-2.3-0.7-4.9-1.2-7.8-1.1
		c-2.7,0.1-7.6-0.1-12.3,1.1c0,0.4-0.1,0.7-0.1,1.1c-0.1,1.5-0.5,2.6-1.2,2.7c-1.4,0.2-2.2-0.6-2.6-1.7c-0.1-0.2-0.2-0.5-0.2-0.7
		c-2.1,1-4,2.3-5.5,4.2c-0.1,0.1-0.2,0.2-0.3,0.3l-0.5,2.3l22.1,4.4l20.1-5.7c0,0-0.3-0.3-0.8-0.8c-1.2-1-3.5-2.9-6.9-4.5
		C52.2,36.5,52.1,36.7,52,36.9z"/>
	<path class="st3" fill="#FFFFFF" d="M23.9,36.1c0.1,0.2,0.1,0.5,0.2,0.7c0.4,1.1,1.2,2,2.6,1.7c0.7-0.1,1.2-1.2,1.2-2.7c0-0.4,0.1-0.8,0.1-1.1
		c0.3-3.6,0.6-6.1,1.2-9c0.3-1.4,0.6-2.8,1-4.5c0-0.1,0.1-0.2,0.1-0.3c-3.9,0.5-5.8,0.8-9.6,1.4c0.2,1,0.3,1.8,0.4,2.7
		c0.2,1,0.3,1.9,0.5,2.7C22.2,30.3,22.9,32.7,23.9,36.1z"/>
	<path class="st3" fill="#FFFFFF" d="M48.2,34.7c0,0.3,0,0.7,0,1c0,1.6,0.4,2.6,1.1,2.8c1.4,0.3,2.3-0.5,2.7-1.6c0.1-0.2,0.2-0.4,0.2-0.6
		c1.2-3.1,1.9-5.4,2.6-8.1c0.4-1.3,0.7-2.7,1-4.3c0.1-0.5,0.2-1,0.3-1.5c-3.8-0.9-5.8-1.2-9.6-1.9c0,0.1,0,0.1,0,0.2
		c0.4,2,0.7,3.7,0.9,5.3C47.9,28.7,48.1,31.2,48.2,34.7z"/>
</g>
</svg>
