<?xml version="1.0" encoding="utf-8"?>
<!-- Generator: Adobe Illustrator 19.2.1, SVG Export Plug-In . SVG Version: 6.00 Build 0)  -->
<svg version="1.1" id="Layer_1" xmlns="http://www.w3.org/2000/svg" xmlns:xlink="http://www.w3.org/1999/xlink" x="0px" y="0px"
	 viewBox="0 0 144.2 89.3" style="enable-background:new 0 0 144.2 89.3;" xml:space="preserve">
<g>
	<path class="st0" fill="#231F20" d="M141.3,36.9c-1.3-0.1-2.5,0-3.5,0.6l-0.6,0.3c-7.3,3.4-15.1,5.3-23.1,5.7C98.7,44.2,87,41.4,79,28.8
		c3.1-2.4,5.8-5.9,10.2-6.9c6.2-1.4,9.2-9.9,4.6-16.2C89.2-0.6,72.5,0,72.5,0C71.8-0.1,53.6,0.5,52,10.8s5.2,14.5,10,15.3
		c1.8,0.5,3.6,1.3,5.1,2.4c-5.9,7-13.7,12.3-22.4,15.1c-11,3.7-23.6,1.8-37.4-5.5l-0.7-0.4c-2.2-1.2-4.9-0.3-6,1.8
		C0,40.6-0.1,42,0.4,43.2L0.7,44c3.8,8.7,9.3,16.7,16.2,23.3c10.2,10.1,28,21.8,55.4,21.8c1,0,1.9,0,2.9,0
		c28.8-0.9,45.9-13.2,55.2-23.4c10.2-11.1,13.4-22.1,13.6-22.5l0.2-0.7C144.9,40.2,143.6,37.7,141.3,36.9z M136.4,47.7
		c-3.8,7.3-11.7,18.9-26.6,26.9c0,0,0.1,0.1,0.1,0.1c-8.9,4.8-20.4,8.3-35,8.7c-17.2,0.5-30.5-3.7-40.7-9.7c0-0.1,0.1-0.1,0.1-0.2
		C20.8,65.8,12.7,54.9,8.6,48c-0.5-0.7-0.5-1.5-0.2-2.3c0.5-1.3,2-1.9,3.3-1.3c34.4,15,53.2-3.1,59.3-10.8c0.1-0.2,0.4-0.4,0.6-0.7
		c1.2-0.7,2.7-0.4,3.5,0.8c16.8,26.8,45.3,16.9,57.9,10.6c0.7-0.4,1.6-0.4,2.3,0C136.5,44.9,137,46.5,136.4,47.7z"/>
	<path class="st1" fill="#231F20" d="M135.3,44.3c-0.7-0.4-1.6-0.4-2.3,0c-12.6,6.3-41.1,16.2-57.9-10.6c-0.8-1.2-2.3-1.5-3.5-0.8
		c-0.2,0.3-0.5,0.5-0.6,0.7c-6.1,7.7-24.9,25.8-59.3,10.8c-1.3-0.6-2.8,0-3.3,1.3c-0.3,0.8-0.3,1.6,0.2,2.3
		c4.1,6.9,12.2,17.8,25.7,25.6c2.7-3.5,6.3-6,10.2-7.8c-1.7-5.2-3.1-10.4-4.2-15.7c5.4-0.4,10.1-1.7,14.1-3.5
		c-1.1,5.5-1.8,11-2.2,16.6c8.9-2.1,18-1.9,23-2c5.3-0.1,10.2,0.8,14.6,2.1c-0.1-5.4-0.5-10.8-1.2-16.1c4.4,2.5,9,3.8,13.6,4.2
		c-1.4,5.1-3,10-4.9,14.9c6.1,2.9,10.5,6.4,12.6,8.3c14.9-7.9,22.9-19.5,26.6-26.9C137,46.5,136.5,44.9,135.3,44.3z"/>
	<path class="st2" fill="#CC242F" d="M96.7,67.3c-0.8,2-2.4,3.5-5,2.9c-1.3-0.3-2.1-2.3-2-5.2c0-0.6,0-1.1,0-1.7c-4.4-1.3-9.2-2.2-14.6-2.1
		c-4.9,0.1-14.1-0.1-23,2c0,0.7-0.1,1.4-0.1,2.1c-0.1,2.8-1,4.8-2.3,5c-2.6,0.4-4.1-1.2-4.8-3.2c-0.2-0.4-0.3-0.9-0.4-1.3
		c-3.9,1.8-7.5,4.3-10.2,7.8c0,0.1-0.1,0.1-0.1,0.2c10.2,6,23.6,10.2,40.7,9.7c14.6-0.5,26-3.9,35-8.7c0,0-0.1-0.1-0.1-0.1
		c-2.2-1.9-6.6-5.4-12.6-8.3C97,66.6,96.8,66.9,96.7,67.3z"/>
	<path class="st3" fill="#FFFFFF" d="M49.7,70.3c1.3-0.2,2.2-2.2,2.3-5c0-0.7,0.1-1.4,0.1-2.1c0.4-5.6,1.1-11.1,2.2-16.6c-4,1.8-8.7,3.1-14.1,3.5
		c1.1,5.3,2.5,10.5,4.2,15.7c0.1,0.4,0.3,0.9,0.4,1.3C45.6,69.1,47.1,70.7,49.7,70.3z"/>
	<path d="M91.7,70.2c2.6,0.6,4.2-0.9,5-2.9c0.1-0.4,0.3-0.7,0.4-1.1c1.9-4.8,3.6-9.8,4.9-14.9c-4.6-0.4-9.2-1.7-13.6-4.2
		c0.7,5.3,1,10.7,1.2,16.1c0,0.6,0,1.1,0,1.7C89.6,67.9,90.4,69.9,91.7,70.2z"/>
</g>
</svg>
