<?xml version="1.0" encoding="utf-8"?>
<!-- Generator: Adobe Illustrator 19.2.1, SVG Export Plug-In . SVG Version: 6.00 Build 0)  -->
<svg version="1.1" id="Layer_1" xmlns="http://www.w3.org/2000/svg" xmlns:xlink="http://www.w3.org/1999/xlink" x="0px" y="0px"
	 viewBox="0 0 174.8 107.1" style="enable-background:new 0 0 174.8 107.1;" xml:space="preserve">
<g>
	<path class="st0" fill="#231F20" d="M102.6,76.9c59.4-3,68.2-35.6,65-52.9c-2.7-14.5-16.9-18.5-28.9-17.1c-4.2,0.6-8.3,1.5-12.4,2.7
		c-21.6,6.1-44.4,6.8-66.4,1.9c-4.1-0.9-8.5-2-13.1-3.2C18.5,0.9,10,14.8,8.5,33.6c-1,13.1,4,28.8,32.1,37.3
		C41.2,77.5,45.4,107,72,107C102,107,102.6,76.9,102.6,76.9z M81.4,98.9c-15.5,8.1-31.4-4.1-32-21.5c-0.1-3.9,0.4-7.6,1.4-11
		c-6.9-1.4-12.5-3.2-17-5.3c-14.8-7-17.8-17.3-17-25.4c1-10.7,5.4-19.3,18-20.7c4.4-0.5,9.8-0.1,16.4,1.3c4.2,0.9,8.1,1.7,11.8,2.4
		c19.8,3.7,40.1,3.3,59.7-1.4c3.6-0.9,7.3-1.6,11.1-2.1c3.4-0.3,6.8-0.5,10-0.2c6.6,0.6,12.2,3.4,15,11.5c3.1,9,0.3,24.4-21.3,34
		c-10.2,4.6-24.7,7.8-44.7,8.5c0.4,2.7,0.8,5.5,0.8,8.2C93.4,86,89.3,94.8,81.4,98.9z"/>
	<path class="st1" fill="#231F20" d="M92.3,37.8c0,0,0.1,0,0.1,0c1.4,0.1,2.8,0.1,4.2,0.3c0.3,0,0.6,0.1,0.8,0.1c0.2,0,0.4,0,0.6,0.1
		c3.3,0.4,6.7,0.9,9.9,1.7c0.2,0.1,0.5,0.1,0.7,0.2c0.1,0,0.1,0,0.2,0.1c0.5,0.1,1,0.3,1.5,0.4c1,0.3,2,0.6,3,0.9l0.6,0.2l0.7,0.3
		l0.9,0.4h-0.1c10.7,5,12,17.4,12,17.4c-2.8-0.1-6.5-0.2-10.5-0.3c8.6,0.2,15.3,0.6,20.3,1c21.6-9.6,24.4-25,21.3-34
		c-2.8-8.1-8.4-10.8-15-11.5c-0.2,2.8-0.4,5.6-0.7,7.7c-0.5,3.8-32.1,5.6-54.6,6.4c-22,0.8-45.1-3.6-50.6-5.4
		c-2.4-0.8-3-5.1-3.1-8.7c-12.6,1.5-17,10.1-18,20.7c-0.7,8.2,2.2,18.4,17,25.4c4.5-0.7,11.3-1.1,19.8-1.3
		C60.9,45.9,77.3,37.6,92.3,37.8z"/>
	<path class="st2" fill="#FFFFFF" d="M37.8,23.7c5.5,1.8,28.6,6.2,50.6,5.4c22.5-0.8,54.1-2.6,54.6-6.4c0.3-2.1,0.5-4.9,0.7-7.7
		c-3.2-0.3-6.5-0.1-10,0.2c-3.8,0.5-7.5,1.2-11.1,2.1C103,22,82.7,22.4,62.9,18.7c-3.7-0.7-7.6-1.5-11.8-2.4
		c-6.6-1.5-12-1.8-16.4-1.3C34.8,18.6,35.4,22.9,37.8,23.7z"/>
	<path d="M92.2,59.3c-0.1,0.5-0.1,0.9-0.1,1.4c-0.2,2.8,0.2,5.5,0.6,8.3c20-0.7,34.5-3.9,44.7-8.5c-5.1-0.5-11.7-0.8-20.3-1
		C108.3,59.3,98,59.3,92.2,59.3z"/>
	<path d="M33.7,61.1c4.5,2.1,10.1,4,17,5.3c0.7-2.3,1.6-4.5,2.7-6.6C45.1,60.1,38.3,60.4,33.7,61.1z"/>
	<path class="st3" fill="#AD2129" d="M110.5,40.6c-0.5-0.1-1-0.3-1.5-0.4C109.4,40.3,109.9,40.5,110.5,40.6z"/>
	<path class="st3" fill="#AD2129" d="M108.7,40.1c-0.2-0.1-0.5-0.1-0.7-0.2C108.2,40,108.5,40.1,108.7,40.1z"/>
	<path class="st3" fill="#AD2129" d="M117.1,59.5c4,0.1,7.7,0.2,10.5,0.3c0,0-1.3-12.4-12-17.4h-3.7c-3.3-0.1-6.4,0.7-9.3,2.2l-0.7,0.4
		c-5.3,3-8.9,8.3-9.7,14.3C98,59.3,108.3,59.3,117.1,59.5z"/>
	<path class="st4" fill="#CF232E" d="M93.5,77.2c0-2.7-0.4-5.5-0.8-8.2c-0.4-2.8-0.8-5.5-0.6-8.3c0-0.5,0.1-0.9,0.1-1.4c0.8-6,4.4-11.3,9.7-14.3
		l0.7-0.4c2.9-1.5,6-2.3,9.3-2.2h3.7h0.1l-0.9-0.4l-0.7-0.3l-0.6-0.2c-1-0.3-2-0.6-3-0.9c-0.5-0.1-1-0.3-1.5-0.4
		c-0.1,0-0.1,0-0.2-0.1c-0.2-0.1-0.5-0.1-0.7-0.2c-3.3-0.8-6.6-1.4-9.9-1.7c0.6,0.1,1.2,0.2,1.8,0.3c0,0-15.5,3.4-19.8,18.9
		c-0.2,0.8-0.8,4.9-0.9,5.7c-0.4,2.6-0.6,5.5-1.2,9.7c-1.1,6.6-11.1,8.8-12.4,1.1c-1-6.1,3.1-18.9,9.3-25.3
		c6.1-6.3,12.8-10.1,17.4-10.8c-15-0.2-31.3,8.1-38.8,22c-1.1,2.1-2,4.3-2.7,6.6c-1,3.4-1.5,7.1-1.4,11c0.6,17.4,16.5,29.6,32,21.5
		C89.3,94.8,93.4,86,93.5,77.2z"/>
	<path class="st4" fill="#CF232E" d="M96.6,38.1c0.3,0,0.6,0.1,0.8,0.1C97.1,38.1,96.9,38.1,96.6,38.1z"/>
	<path class="st3" fill="#AD2129" d="M96.6,38.1c-1.4-0.1-2.8-0.2-4.2-0.3c0,0-0.1,0-0.1,0c-4.6,0.7-11.2,4.4-17.4,10.8
		c-6.2,6.4-10.3,19.2-9.3,25.3c1.3,7.7,11.3,5.5,12.4-1.1c0.6-4.2,0.8-7.1,1.2-9.7c0.1-0.8,0.7-4.9,0.9-5.7
		c4.3-15.5,19.8-18.9,19.8-18.9c-0.6-0.1-1.2-0.2-1.8-0.3c-0.2,0-0.4,0-0.6-0.1C97.1,38.1,96.9,38.1,96.6,38.1z"/>
</g>
</svg>
