<svg version="1.1" id="Layer_1" xmlns="http://www.w3.org/2000/svg" xmlns:xlink="http://www.w3.org/1999/xlink" x="0px" y="0px"
	 viewBox="0 0 174.8 77.8" style="enable-background:new 0 0 174.8 77.8;" xml:space="preserve">
<path class="st0" style="opacity:0.2;enable-background:new;" d="M126.3,9.8c-21.6,6.1-44.4,6.8-66.4,1.9c-4.1-0.9-8.5-2-13.1-3.2C18.5,1.2,10,15,8.5,33.8s9.7,43.3,84.1,43.6
	c68.3,0.3,78.3-34.9,74.9-53.2c-2.7-14.5-16.9-18.5-28.9-17.1C134.5,7.7,130.4,8.6,126.3,9.8z"/>
<path class="st0" d="M126.3,9.8c-21.6,6.1-44.4,6.8-66.4,1.9c-4.1-0.9-8.5-2-13.1-3.2C18.5,1.2,10,15,8.5,33.8s9.7,43.3,84.1,43.6
    c68.3,0.3,78.3-34.9,74.9-53.2c-2.7-14.5-16.9-18.5-28.9-17.1C134.5,7.7,130.4,8.6,126.3,9.8z"/>
<g>
    <path class="st1" fill="#231F20" d="M133.5,15.7c-0.1,0-0.1,0-0.2,0c-0.6,11.3-4.2,22.4-9.9,32.2c-0.5,0.8-1.5,1.1-2.3,0.6l-1.6-0.8
        c-0.4-0.2-0.6-0.6-0.7-1c-0.5-9.2-1.9-18.4-4-27.3c-17.1,3.1-34.7,3-51.9-0.2c-0.7-0.1-1.5-0.3-2.3-0.4c-2.6,9.3-4.1,18.9-4.5,28.7
        c0,0.6-0.5,1.2-1.1,1.3l-2.4,0.5c-0.8,0.1-1.5-0.2-1.9-0.9C45,37.5,40.5,27,39.4,15.4c-16.1-0.3-21.5,9-22.6,20.9
        c-1.3,14.4,8.8,35.5,75.6,33.4c62.7-2,70.9-29.2,66.3-42.5C154.4,15.2,144.2,14.7,133.5,15.7z"/>
    <path class="st2" fill="#FFFFFF" d="M52.5,49.2l2.4-0.5c0.6-0.1,1.1-0.7,1.1-1.3c0.4-9.7,2-19.3,4.5-28.7c-3-0.6-6.2-1.3-9.5-2
        c-4.5-1-8.4-1.5-11.8-1.5c1.2,11.6,5.7,22.1,11.3,33C50.9,48.9,51.7,49.3,52.5,49.2z"/>
    <path class="st2" fill="#FFFFFF" d="M119.4,47.8l1.6,0.8c0.8,0.4,1.8,0.2,2.3-0.6c5.8-9.8,9.4-20.9,9.9-32.2c-3.7,0.4-7.3,1.1-10.9,2
        c-2.6,0.6-5.1,1.1-7.7,1.6c2.1,9,3.5,18.1,4,27.3C118.8,47.2,119,47.6,119.4,47.8z"/>
</g>
</svg>
