<?xml version="1.0" encoding="utf-8"?>
<!-- Generator: Adobe Illustrator 19.2.1, SVG Export Plug-In . SVG Version: 6.00 Build 0)  -->
<svg version="1.1" id="Layer_1" xmlns="http://www.w3.org/2000/svg" xmlns:xlink="http://www.w3.org/1999/xlink" x="0px" y="0px"
	 viewBox="0 0 146.3 90" style="enable-background:new 0 0 146.3 90;" xml:space="preserve">
<g>
	<path class="st0" fill="#231F20" d="M38.8,10.5c11.5-2.8,48.1-0.9,72.4,2.5c0.2-1.6,0.3-3.2,0.4-4.8C95.3,7.1,75,5.8,75,5.8L49.8,4.1
		c-3.8-0.3-7.6-0.3-11.4,0C38.5,6.3,38.6,8.4,38.8,10.5C38.8,10.5,38.8,10.5,38.8,10.5z"/>
	<path class="st0" fill="#231F20" d="M129.3,51.8c12-3.4,17-11.3,17-20.7c0-9.4-6.2-20.9-21.3-22c-1-0.1-2.2-0.2-3.4-0.2c1.1,2.2,2.1,4.3,3,6.5
		c3.7,0.8,6.5,1.7,8.1,2.6c10.2,5.8,9.3,19.7,0,26c-0.5,0.3-0.9,0.6-1.4,0.8c-7.1,3.6-17.5,0.9-26.6-1.2c-3-0.7-5.9-1.4-8.5-1.7
		c-10.7-1.4-30.2,0.4-41.9,3.4c-2.2,0.6-5,1.2-8.2,1.8c-9.3,1.7-21.7,2.7-30.1-1.4C11.6,43.5,8.2,40,7,34.4
		C4.4,23,15.2,16.8,24.9,13.6c1.3-2.7,2.7-5.5,4.2-8.2c-2.9,0.6-5.8,1.3-8.7,2.2C9.3,11.1,0.2,17.5,0,29
		c-0.2,13.1,4.3,15.1,11.6,21.1c7.3,6,3.4,11.4,2.1,18.2c-1.6,7.9,11.9,9,11.9,1.5c0-6.7-4.9-14,5.7-15.3c9.4-1.2,49.8-9,61.8-7.7
		S117.3,55.2,129.3,51.8z"/>
	<path class="st1" fill="#231F20" d="M7,34.4c1.2,5.6,4.6,9.1,8.9,11.2c0.7-11.5,4.1-21.8,9-32C15.2,16.8,4.4,23,7,34.4z"/>
	<path class="st1" fill="#231F20" d="M132.7,43.9c9.3-6.3,10.2-20.2,0-26c-1.5-0.9-4.3-1.7-8.1-2.6c4,9.3,6.6,18.8,6.7,29.4
		C131.8,44.5,132.2,44.2,132.7,43.9z"/>
	<path class="st1" fill="#231F20" d="M38.8,10.5C38.8,10.5,38.8,10.5,38.8,10.5c0.9,12.4,3.4,24.7,7.3,36.5c3.2-0.6,6.1-1.3,8.2-1.8
		c11.7-3,31.2-4.8,41.9-3.4c2.6,0.3,5.4,1,8.5,1.7c3.3-9.9,5.5-20.1,6.5-30.5C86.9,9.6,50.3,7.7,38.8,10.5z"/>
	<path class="st2" fill="#FFFFFF" d="M15.9,45.6c8.4,4.1,20.8,3.1,30.1,1.4c-3.9-11.8-6.3-24.1-7.3-36.5c-0.2-2.1-0.3-4.2-0.4-6.4
		c0-0.6-0.1-1.2-0.1-1.7c0-0.8-0.6-1.5-1.4-1.6l-3-0.7c-0.9-0.2-1.9,0.2-2.4,1c-0.8,1.4-1.6,2.9-2.4,4.3c-1.5,2.7-2.9,5.5-4.2,8.2
		C20,23.8,16.6,34.1,15.9,45.6z"/>
	<path class="st2" fill="#FFFFFF" d="M104.7,43.5c9.1,2.1,19.5,4.8,26.6,1.2c0-10.6-2.6-20-6.7-29.4c-0.9-2.2-1.9-4.3-3-6.5
		c-1.2-2.4-2.5-4.8-3.8-7.3c-0.4-0.8-1.3-1.2-2.1-1l-2.6,0.6c-0.7,0.1-1.2,0.7-1.2,1.4c-0.1,1.9-0.1,3.7-0.3,5.6
		c-0.1,1.6-0.2,3.2-0.4,4.8C110.2,23.4,108,33.6,104.7,43.5z"/>
	<path class="st0" fill="#231F20" d="M19.4,80.2c-4.7,0.6-6,3.2-5.4,5.4c1,3.5,3.3,4.7,5.8,4.2c3.7-0.6,5.1-2.5,5.1-5.2S23,79.8,19.4,80.2z"/>
	<path class="st0" fill="#231F20" d="M122.7,60.9c-6.8,0.8-8.6,4.5-7.8,7.8c1.4,5,4.8,6.7,8.4,6.1c5.3-0.9,7.3-3.7,7.3-7.5S127.9,60.3,122.7,60.9z"
		/>
	<path class="st0" fill="#231F20" d="M138.7,54.7c-3.4,0.4-4.4,2.3-3.9,3.9c0.7,2.6,2.4,3.4,4.2,3.1c2.7-0.5,3.7-1.8,3.7-3.8S141.4,54.3,138.7,54.7
		z"/>
</g>
</svg>
