<?xml version="1.0" encoding="utf-8"?>
<!-- Generator: Adobe Illustrator 19.2.1, SVG Export Plug-In . SVG Version: 6.00 Build 0)  -->
<svg version="1.1" id="Layer_1" xmlns="http://www.w3.org/2000/svg" xmlns:xlink="http://www.w3.org/1999/xlink" x="0px" y="0px"
	 viewBox="0 0 150.1 76" style="enable-background:new 0 0 150.1 76;" xml:space="preserve">
<g>
	<path class="st0" fill="#231F20" d="M149.8,14.7c0-0.3-0.1-0.5-0.1-0.7c-0.7-3.4-3.9-5.6-7.3-4.9c-5,1.1-11.7,2.5-14.7,3.1
		c-19.3,3.2-38.8,4.7-58.3,4.5c-13.5-0.2-27.8-2.3-41.4-4.4C23.8,11.6,15,10.1,8.4,9C8,9,7.5,9,7,9c-4,0.2-7.2,3.6-7,7.6
		C0.3,34.9,8.5,53.1,23.7,62c15.2,8.9,29.2,14.7,50.8,14c14.7-0.4,31.4-3.4,44.1-11.3c11.4-7,21-14.2,27.6-26.8
		C149.9,30.8,150.7,22.5,149.8,14.7z M73.9,67.2c-26.4,0-64.8-13.4-67.1-44.8c-0.2-3,2-5.5,5-5.7c0.6,0,1.2,0,1.8,0.2
		c16,4.1,32.3,6.5,48.8,7.2c4.3,0.2,8.5,0.3,12.8,0.3c3.5,0,7-0.1,10.6-0.2c17-0.7,34-3.3,50.5-7.7c2.8-0.8,5.8,0.9,6.6,3.7
		c0.2,0.7,0.2,1.4,0.2,2.1C139,53.7,100.8,67.2,73.9,67.2z"/>
	<path class="st1" fill="#231F20" d="M136.3,16.5c-16.6,4.4-33.5,6.9-50.5,7.7c-2.2,9-4.4,18.1-6.8,27c-0.3,0.7-0.9,1.3-1.6,1.5l-3.2,0.5
		c-0.9,0.2-1.8-0.2-2.2-1c-3.5-9.2-6.9-18.6-9.6-28.1c-16.5-0.8-32.8-3.2-48.8-7.2c-0.6-0.2-1.2-0.2-1.8-0.2c-3,0.2-5.2,2.7-5,5.7
		c2.3,31.4,40.7,44.8,67.1,44.8c26.9,0,65.1-13.5,69.2-44.9c0-0.7,0-1.4-0.2-2.1C142.1,17.4,139.1,15.7,136.3,16.5z"/>
	<path class="st2" fill="#FFFFFF" d="M74.2,53.2l3.2-0.5c0.7-0.2,1.3-0.8,1.6-1.5c2.4-9,4.6-18,6.8-27c-3.5,0.2-7.1,0.2-10.6,0.2
		c-4.3,0-8.5-0.1-12.8-0.3c2.7,9.5,6.1,18.8,9.6,28.1C72.4,53,73.3,53.4,74.2,53.2z"/>
</g>
</svg>
