<?xml version="1.0" encoding="utf-8"?>
<!-- Generator: Adobe Illustrator 19.2.1, SVG Export Plug-In . SVG Version: 6.00 Build 0)  -->
<svg version="1.1" id="Layer_1" xmlns="http://www.w3.org/2000/svg" xmlns:xlink="http://www.w3.org/1999/xlink" x="0px" y="0px"
	 viewBox="0 0 163.2 59.6" style="enable-background:new 0 0 163.2 59.6;" xml:space="preserve">
<path class="st0" style="opacity:0.2;enable-background:new;" fill="#231F20" d="M162.6,3.2L162.6,3.2c-0.7-1.4-2-2.5-3.5-3c-2.8-0.9-5.9,0.6-6.9,3.4c-3.2,7.8-7.7,15-13.4,21.2
	c-14.2,15.5-33.6,23.3-57.8,23.3s-43.3-7.8-57-23.2C18.4,18.7,14,11.6,11.1,3.8c-1-2.8-4-4.3-6.9-3.5L3,0.5v0.2
	c-2.5,1.3-3.6,4.3-2.6,7c3.4,9,8.4,17.4,14.8,24.6c11,12.5,31.3,27.3,65.8,27.3s55.1-14.8,66.4-27.2c6.6-7.2,11.8-15.5,15.5-24.6
	C163.4,6.3,163.3,4.7,162.6,3.2z"/></svg>
