<?xml version="1.0" encoding="utf-8"?>
<!-- Generator: Adobe Illustrator 19.2.1, SVG Export Plug-In . SVG Version: 6.00 Build 0)  -->
<svg version="1.1" id="Layer_1" xmlns="http://www.w3.org/2000/svg" xmlns:xlink="http://www.w3.org/1999/xlink" x="0px" y="0px"
	 viewBox="0 0 152.8 80.4" style="enable-background:new 0 0 152.8 80.4;" xml:space="preserve">
<path class="st0" fill="#3D3D3D" d="M33.2,16.4c-3-2.1-5.1-1.3-5.9,0.3c-1.2,2.5-0.5,4.4,1.2,5.4c2.5,1.5,4.2,1.1,5.6-0.4S35.5,18.1,33.2,16.4z"/>
<path class="st0" fill="#3D3D3D" d="M26.4,30c-3.7,0.4-4.6,2.4-4.2,4.2c0.7,2.7,2.6,3.6,4.5,3.3c2.9-0.5,3.9-2,3.9-4S29.2,29.6,26.4,30z"/>
<path class="st0" fill="#3D3D3D" d="M40.6,30.5c-3,2.2-2.8,4.4-1.5,5.7c2,2,4,1.8,5.5,0.6c2.2-1.9,2.4-3.7,1.4-5.4S42.9,28.8,40.6,30.5z"/>
<path class="st0" fill="#3D3D3D" d="M99.1,31c-0.4,3.7,1.4,5.1,3.2,5c2.8-0.1,4.1-1.7,4.2-3.7c0.1-2.9-1.1-4.3-3.1-4.7S99.4,28.3,99.1,31z"/>
<path class="st0" fill="#3D3D3D" d="M116.1,31.4c1.3,3.4,3.5,3.9,5.1,3c2.4-1.4,2.9-3.4,2-5.2c-1.2-2.6-2.9-3.3-4.9-2.8S115.1,28.8,116.1,31.4z"/>
<path class="st0" fill="#3D3D3D" d="M107.1,18.6c2.2,2.9,4.5,2.7,5.7,1.4c1.9-2,1.8-4,0.5-5.5c-1.9-2.2-3.7-2.4-5.5-1.3S105.4,16.4,107.1,18.6z"/>
<path class="st1" fill="#FFFFFF" d="M47.3,49.5c0,0-0.7,11.2,8.5,28c1.3,2.5,8.4,0.3,8.9-2.4l2-34.3L47.3,49.5z"/>
<path class="st1" fill="#FFFFFF" d="M98.9,50.2c0,0,0.4,11.8-9.7,29.1c-1.5,2.5-8.8,0.1-9.2-2.7l-1.2-36L98.9,50.2z"/>
<path class="st0" fill="#3D3D3D" d="M149.2,16.6c-2.8-0.9-5.7,0.6-6.6,3.4c-2.4,7.4-6.8,14.1-12.6,19.3c-5.7,5.5-13.3,8.6-21.2,8.8h-0.2
	c-13.4,0-23.5-8.9-29.7-16.7c-1.5,0.3-3.1,0.5-4.6,0.5c-3.3,0.1-6.5-0.4-9.6-1.2c-0.9,2.8-2.3,5.4-4,7.8c-4.6,6.3-11.4,9.6-20.1,9.9
	c-12.5,0.4-23.6-7.6-32-23.1c-1.2-2.2-3.9-2.9-6-1.8c-2.2,1.2-2.9,3.9-1.8,6c8.6,15.7,18.6,22.9,27.6,25.9c4,1.3,8.3,1.9,12.5,1.8
	C57.4,56.7,66.6,47.1,71,38.5c0.8,0.9,1.6,1.9,2.4,2.8c10.2,11.3,22.4,17.3,35.1,17.3h0.3c10.5-0.2,20.6-4.3,28.3-11.6
	c7.1-6.5,12.5-14.7,15.5-23.9C153.5,20.4,152,17.5,149.2,16.6C149.2,16.6,149.2,16.6,149.2,16.6z"/>
<path class="st2" fill="#FFFFFF" style="opacity:0.2;enable-background:new;" d="M78.8,31.4C95.9,27.7,96.8,4.8,96.8,4.8C72.4-5.5,45.6,4,45.6,4c-1.5,12.7,6.6,23.2,18.9,26.7
	c3.1,0.9,6.4,1.3,9.6,1.2C75.7,31.9,77.3,31.7,78.8,31.4z"/>
</svg>
