<?xml version="1.0" encoding="UTF-8" standalone="no"?>
<svg width="52px" height="95px" viewBox="0 0 52 95" version="1.1" xmlns="http://www.w3.org/2000/svg" xmlns:xlink="http://www.w3.org/1999/xlink">
    <!-- Generator: Sketch 41.1 (35376) - http://www.bohemiancoding.com/sketch -->
    <title>iphone</title>
    <desc>Created with Sketch.</desc>
    <defs></defs>
    <g id="Styles" stroke="none" stroke-width="1" fill="none" fill-rule="evenodd">
        <g transform="translate(-531.000000, -2907.000000)" id="iphone">
            <g transform="translate(531.000000, 2907.000000)">
                <g id="Layer_1">
                    <path d="M7.46086957,0 L44.5623043,0 C48.6435507,0 51.9826667,3.3340297 51.9826667,7.40905941 L51.9826667,87.4261485 C51.9826667,91.5011782 48.6435507,94.8352079 44.5623043,94.8352079 L7.46086957,94.8352079 C3.37962319,94.8352079 0.0405072464,91.5011782 0.0405072464,87.4261485 L0.0405072464,7.40905941 C0.0405072464,3.3340297 3.37981159,0 7.46086957,0 L7.46086957,0 Z" id="Shape" fill="#E4E7E7"></path>
                    <path d="M46.5534638,13 C47.3696377,13 48.0375363,13.6668812 48.0375363,14.4818119 L48.0375363,79.6809703 C48.0375363,80.495901 47.3696377,81.1627822 46.5534638,81.1627822 L6.4840725,81.1627822 C5.66789859,81.1627822 5.00000004,80.495901 5.00000004,79.6809703 L5.00000004,14.4818119 C4.99981163,13.6668812 5.66789859,13 6.4840725,13 L46.5534638,13 Z" id="Shape" fill="#4D4D4D"></path>
                    <path d="M26.0118696,84.4625248 C28.0896087,84.4625248 29.7219565,86.0925743 29.7219565,88.1669604 C29.7219565,90.2415347 28.0894203,91.871396 26.0118696,91.871396 C23.9341304,91.871396 22.3017826,90.2413465 22.3017826,88.1669604 C22.3015942,86.0923861 23.933942,84.4625248 26.0118696,84.4625248 L26.0118696,84.4625248 Z M21.5594638,5.18624752 L30.4638986,5.18624752 C31.2800725,5.18624752 31.947971,5.85312871 31.947971,6.66805941 C31.947971,7.4829901 31.2800725,8.14987129 30.4638986,8.14987129 L21.5594638,8.14987129 C20.7432899,8.14987129 20.0753913,7.4829901 20.0753913,6.66805941 C20.0753913,5.85312871 20.7432899,5.18624752 21.5594638,5.18624752 L21.5594638,5.18624752 Z" id="Shape" fill="#BFC3C5"></path>
                </g>
            </g>
        </g>
    </g>
</svg>