<?xml version="1.0" encoding="UTF-8" standalone="no"?>
<svg width="175px" height="128px" viewBox="0 0 175 128" version="1.1" xmlns="http://www.w3.org/2000/svg" xmlns:xlink="http://www.w3.org/1999/xlink">
    <!-- Generator: Sketch 40.3 (33839) - http://www.bohemiancoding.com/sketch -->
    <title>Mr Purple head</title>
    <desc>Created with Sketch.</desc>
    <defs>
        <path d="M13.1475,8.86211765 C4.6575,11.5434248 0,12.4293856 0,16.6659346 L0,16.6659346 C0,20.6314248 3.685,27.5660131 10.785,30.571085 L10.785,30.571085 C17.2133333,33.2917124 30.19,31.8251503 40.4916667,33.172915 L40.4916667,33.172915 C47.9725,34.1517386 54.9733333,37.1886013 63.6525,37.1886013 L63.6525,37.1886013 C71.8666667,37.1886013 79.7033333,36.7025359 86.8616667,35.8215948 L86.8616667,35.8215948 C92.2908333,35.1523137 97.33,34.2563137 101.846667,33.172915 L101.846667,33.172915 C113.94,30.2707451 122.984167,31.2286536 125.078333,26.3880784 L125.078333,26.3880784 C125.4175,25.604183 130.7325,23.4992941 130.7325,18.7833725 L130.7325,18.7833725 C130.7325,14.0682876 125.814167,13.8005752 122.571667,11.5559739 L122.571667,11.5559739 C113.149167,5.03466667 88.8175,0.378143791 63.6525,0.378143791 L63.6525,0.378143791 C43.9216667,0.378143791 25.0308333,5.10912418 13.1475,8.86211765 L13.1475,8.86211765 Z" id="path-1"></path>
        <path d="M17.3991667,1.12020915 C16.18,5.27644444 12.5858333,14.1929412 3.95666667,15.5457255 L3.95666667,15.5457255 C-7.35666667,17.3184837 11.735,27.6471634 11.735,27.6471634 L11.735,27.6471634 C11.735,27.6471634 27.2966667,16.8432941 19.175,1.14781699 L19.175,1.14781699 C18.9791667,0.768836601 18.58,0.578091503 18.2066667,0.578091503 L18.2066667,0.578091503 C17.8441667,0.578091503 17.5058333,0.757124183 17.3991667,1.12020915 L17.3991667,1.12020915 Z" id="path-3"></path>
        <path d="M3.45666667,1.07168627 C-5.5675,16.2995033 9.0275,27.9316078 9.165,28.0412026 L9.165,28.0412026 L9.17833333,28.0353464 C9.64333333,27.8136471 22.2825,21.7290458 20.985,18.2169935 L20.985,18.2169935 L20.9741667,18.1877124 C20.6666667,17.4063268 19.66,16.755451 17.6625,16.3271111 L17.6625,16.3271111 C9.175,14.5066667 6.17,5.37181699 5.2225,1.13945098 L5.2225,1.13945098 C5.135,0.749594771 4.77833333,0.55048366 4.39583333,0.55048366 L4.39583333,0.55048366 C4.04083333,0.55048366 3.66416667,0.721986928 3.45666667,1.07168627 L3.45666667,1.07168627 Z" id="path-5"></path>
        <path d="M48.72,0.143895425 C41.8583333,0.649202614 38.1933333,4.64564706 36.2566667,8.32418301 L36.2566667,8.32418301 C34.4558333,7.14206536 30.9358333,5.57929412 27.38,8.22211765 L27.38,8.22211765 C23.8358333,10.8565752 23.9908333,14.5100131 24.4941667,16.669281 L24.4941667,16.669281 C15.04,22.685281 2.475,36.091817 1.17666667,65.1335948 L1.17666667,65.1335948 C0.546666667,79.2127582 0.813333333,90.7176993 1.52833333,100.596288 L1.52833333,100.596288 C9.36,104.343425 26.825,111.099817 50.9325,111.099817 L50.9325,111.099817 C69.955,111.099817 85.1291667,107.033098 94.6575,103.538614 L94.6575,103.538614 C97.5716667,85.1300392 99.2666667,70.2954248 99.2666667,70.2954248 L99.2666667,70.2954248 C100.999167,37.1057778 88.2866667,23.1353725 79.4083333,17.4648889 L79.4083333,17.4648889 C79.5216667,14.7049412 78.99,8.9583268 72.9858333,6.7195817 L72.9858333,6.7195817 C68.5091667,5.04888889 65.0408333,6.55644444 62.7733333,8.33505882 L62.7733333,8.33505882 C60.815,4.73181699 56.9358333,0.0987189542 49.935,0.0987189542 L49.935,0.0987189542 C49.54,0.0987189542 49.1358333,0.112941176 48.72,0.143895425 L48.72,0.143895425 Z" id="path-7"></path>
        <path d="M10.2891667,0.35220915 C10.1166667,0.35220915 9.94166667,0.356392157 9.7675,0.365594771 L9.7675,0.365594771 C4.30916667,0.650039216 0.100833333,5.33416993 0.386666667,10.8072157 L0.386666667,10.8072157 L4.39916667,10.5972288 C4.22916667,7.34284967 6.73166667,4.55864052 9.97666667,4.38881046 L9.97666667,4.38881046 C13.2208333,4.21981699 15.9991667,6.72878431 16.1691667,9.9831634 L16.1691667,9.9831634 L20.1816667,9.77317647 C19.9058333,4.47581699 15.5208333,0.35220915 10.2908333,0.35220915 L10.2908333,0.35220915 L10.2891667,0.35220915 L10.2891667,0.35220915 Z" id="path-9"></path>
        <path d="M0.27,9.13066667 L4.2525,9.6669281 C4.68583333,6.43848366 7.6575,4.16376471 10.8783333,4.59879739 L10.8783333,4.59879739 C14.0983333,5.03383007 16.3666667,8.01380392 15.9341667,11.2422484 L15.9341667,11.2422484 L19.9166667,11.780183 C20.6441667,6.34896732 16.8291667,1.33688889 11.4133333,0.606535948 L11.4133333,0.606535948 C10.9666667,0.546300654 10.5233333,0.517019608 10.085,0.517019608 L10.085,0.517019608 C5.2025,0.517019608 0.9375,4.14703268 0.27,9.13066667 L0.27,9.13066667 Z" id="path-11"></path>
        <path d="M0.645,3.30039216 C0.645,3.30039216 0.1325,7.79796078 3.47166667,14.7668497 L3.47166667,14.7668497 C3.95916667,15.7841569 6.84666667,15.0671895 7.08583333,14.0013595 L7.08583333,14.0013595 L8.60916667,0.230901961 L0.645,3.30039216 Z" id="path-13"></path>
        <path d="M0.7,14.8797908 C0.805,16.0184052 3.70666667,17.1570196 4.35,16.1673203 L4.35,16.1673203 C8.7625,9.38583007 8.84,4.64564706 8.84,4.64564706 L8.84,4.64564706 L0.984166667,0.370614379 L0.7,14.8797908 Z" id="path-15"></path>
        <path d="M0.825833333,1.42222222 C0.2725,2.40439216 0.538333333,3.18326797 1.18583333,3.63670588 L1.18583333,3.63670588 C2.14333333,4.30933333 2.86416667,4.18969935 3.44333333,3.60407843 L3.44333333,3.60407843 C4.0225,3.01762092 4.0875,2.10739869 3.2,1.41134641 L3.2,1.41134641 C2.67333333,0.998065359 2.20916667,0.831581699 1.8275,0.831581699 L1.8275,0.831581699 C1.365,0.830745098 1.02166667,1.07586928 0.825833333,1.42222222 L0.825833333,1.42222222 Z" id="path-17"></path>
        <path d="M1.87,0.0133856209 C0.3925,0.10875817 -0.0475,0.896 0.106666667,1.60543791 L0.106666667,1.60543791 C0.345,2.70891503 1.06083333,3.11132026 1.845,3.01845752 L1.845,3.01845752 C3.00583333,2.8820915 3.46416667,2.31069281 3.5075,1.48664052 L3.5075,1.48664052 C3.54833333,0.701908497 3.04583333,0.00752941176 2.02583333,0.00752941176 L2.02583333,0.00752941176 C1.975,0.00752941176 1.92333333,0.00920261438 1.87,0.0133856209 L1.87,0.0133856209 Z" id="path-19"></path>
        <path d="M1.715,0.510326797 C0.481666667,1.33270588 0.493333333,2.23539869 0.979166667,2.77249673 L0.979166667,2.77249673 C1.73666667,3.60909804 2.55666667,3.59989542 3.19,3.12721569 L3.19,3.12721569 C4.1275,2.42698039 4.24,1.70248366 3.86666667,0.967111111 L3.86666667,0.967111111 C3.62833333,0.496941176 3.19833333,0.184888889 2.67416667,0.184888889 L2.67416667,0.184888889 C2.37833333,0.184888889 2.05333333,0.284444444 1.715,0.510326797 L1.715,0.510326797 Z" id="path-21"></path>
        <path d="M0.173333333,1.9810719 C-0.0575,3.44847059 0.611666667,4.05082353 1.335,4.05751634 L1.335,4.05751634 C2.46166667,4.06504575 3.01083333,3.4543268 3.0925,2.66541176 L3.0925,2.66541176 C3.21416667,1.50086275 2.75833333,0.926954248 1.96666667,0.704418301 L1.96666667,0.704418301 C1.82416667,0.664261438 1.68,0.643346405 1.53916667,0.643346405 L1.53916667,0.643346405 C0.8975,0.643346405 0.3175,1.06666667 0.173333333,1.9810719 L0.173333333,1.9810719 Z" id="path-23"></path>
        <path d="M1.32333333,0.51869281 C0.516666667,0.682666667 -0.0425,1.40298039 0.309166667,2.47550327 L0.309166667,2.47550327 C0.770833333,3.88601307 1.64083333,4.11775163 2.2875,3.79064052 L2.2875,3.79064052 C3.29333333,3.28282353 3.50416667,2.48805229 3.21833333,1.74933333 L3.21833333,1.74933333 C2.86583333,0.839111111 2.345,0.476862745 1.715,0.476862745 L1.715,0.476862745 C1.5875,0.476862745 1.4575,0.491084967 1.32333333,0.51869281 L1.32333333,0.51869281 Z" id="path-25"></path>
        <path d="M1.56166667,0.831581699 C0.834166667,1.2164183 0.499166667,2.06556863 1.13833333,2.99586928 L1.13833333,2.99586928 C1.97916667,4.21981699 2.87833333,4.19471895 3.40666667,3.69861438 L3.40666667,3.69861438 C4.22916667,2.92726797 4.20666667,2.10488889 3.725,1.47743791 L3.725,1.47743791 C3.26333333,0.875084967 2.79666667,0.62075817 2.3275,0.62075817 L2.3275,0.62075817 C2.0725,0.62075817 1.81666667,0.696052288 1.56166667,0.831581699 L1.56166667,0.831581699 Z" id="path-27"></path>
        <path d="M26.5275,0.732862745 C25.445,1.16454902 24.9166667,2.39435294 25.3483333,3.48026144 L25.3483333,3.48026144 C25.3766667,3.55220915 25.7333333,4.44318954 26.4366667,5.75163399 L26.4366667,5.75163399 C26.1975,6.45186928 25.6316667,7.83477124 24.535,9.17584314 L24.535,9.17584314 C22.5458333,11.6128627 19.7558333,12.8100392 16.2416667,12.7355817 L16.2416667,12.7355817 C11.2233333,12.6293333 6.94666667,9.18671895 3.87166667,2.78253595 L3.87166667,2.78253595 C3.44416667,1.89155556 2.3775,1.51759477 1.49,1.94509804 L1.49,1.94509804 C0.600833333,2.37427451 0.228333333,3.44261438 0.656666667,4.33359477 L0.656666667,4.33359477 C3.7675,10.8147451 7.62,13.9344314 11.1766667,15.3231895 L11.1766667,15.3231895 C12.9583333,16.0192418 14.6658333,16.281098 16.1675,16.3128889 L16.1675,16.3128889 C22.8683333,16.4551111 26.7916667,12.7799216 28.7216667,9.39335948 L28.7216667,9.39335948 C29.0075,9.78572549 29.3091667,10.1839477 29.6325,10.5830065 L29.6325,10.5830065 C33.4941667,15.36 38.2366667,18.0237386 43.3516667,18.2939608 L43.3516667,18.2939608 C43.3883333,18.2947974 43.425,18.2964706 43.4616667,18.2981438 L43.4616667,18.2981438 C47.5566667,18.4863791 51.6733333,17.0465882 55.0558333,14.2439739 L55.0558333,14.2439739 C58.1208333,11.7040523 60.4466667,8.49819608 61.7825,4.97526797 L61.7825,4.97526797 C62.1966667,3.88350327 61.6483333,2.66206536 60.5591667,2.24711111 L60.5591667,2.24711111 C59.4716667,1.83132026 58.2516667,2.38013072 57.8383333,3.47356863 L57.8383333,3.47356863 C56.7466667,6.35147712 54.9066667,8.87801307 52.3666667,10.9820654 L52.3666667,10.9820654 C49.7933333,13.1137255 46.7,14.212183 43.655,14.071634 L43.655,14.071634 C43.6266667,14.0707974 43.6,14.0691242 43.5725,14.0682876 L43.5725,14.0682876 C34.0466667,13.5654902 29.3141667,2.02959477 29.2658333,1.91330719 L29.2658333,1.91330719 C28.9366667,1.0867451 28.1441667,0.58227451 27.3066667,0.58227451 L27.3066667,0.58227451 C27.0475,0.58227451 26.7833333,0.629960784 26.5275,0.732862745 L26.5275,0.732862745 Z" id="path-29"></path>
        <path d="M0.955,1.68073203 C-0.106666667,8.01631373 4.78166667,13.2383791 11.8091667,13.5194771 L11.8091667,13.5194771 C20.4675,13.8658301 21.4816667,3.072 21.4816667,3.072 L21.4816667,3.072 C17.4833333,1.14112418 13.2525,0.576418301 9.6775,0.576418301 L9.6775,0.576418301 C4.67416667,0.577254902 0.955,1.68073203 0.955,1.68073203 L0.955,1.68073203 Z" id="path-31"></path>
        <path d="M0,7.99539869 C0,12.2863268 7.82666667,11.6722614 11.6033333,11.6722614 L11.6033333,11.6722614 C15.3783333,11.6722614 16.5691667,6.27534641 16.5691667,3.3271634 L16.5691667,3.3271634 C16.5691667,0.378143791 6.45166667,0.378143791 6.45166667,0.378143791 L6.45166667,0.378143791 C6.45166667,0.378143791 0,3.70530719 0,7.99539869 L0,7.99539869 Z" id="path-33"></path>
        <path d="M0.795833333,3.76219608 C-0.125833333,6.60998693 5.2025,7.89751634 7.70916667,8.71571242 L7.70916667,8.71571242 C10.2166667,9.5339085 12.1658333,6.2075817 12.8,4.25077124 L12.8,4.25077124 C13.4333333,2.29396078 6.71666667,0.102065359 6.71666667,0.102065359 L6.71666667,0.102065359 C6.71666667,0.102065359 1.71833333,0.914405229 0.795833333,3.76219608 L0.795833333,3.76219608 Z" id="path-35"></path>
        <path d="M0,9.94551634 C0,15.3332288 9.83,14.5618824 14.5708333,14.5618824 L14.5708333,14.5618824 C19.3133333,14.5618824 20.8083333,7.78373856 20.8083333,4.08094118 L20.8083333,4.08094118 C20.8083333,0.378980392 8.1025,0.378980392 8.1025,0.378980392 L8.1025,0.378980392 C8.1025,0.378980392 0,4.55780392 0,9.94551634 L0,9.94551634 Z" id="path-37"></path>
    </defs>
    <g id="Pages" stroke="none" stroke-width="1" fill="none" fill-rule="evenodd">
        <g id="Start-Page" transform="translate(-1083.000000, -1408.000000)">
            <g id="Section-02" transform="translate(-99.000000, 868.000000)">
                <g id="2nd-Green-Section" transform="translate(27.000000, 0.000000)">
                    <g id="Mr-Purple-head" transform="translate(1155.000000, 540.000000)">
                        <g id="Group-3" transform="translate(24.166667, 80.313725)">
                            <mask id="mask-2" fill="white">
                                <use xlink:href="#path-1"></use>
                            </mask>
                            <g id="Clip-2"></g>
                            <polygon id="Fill-1" fill="#258A96" mask="url(#mask-2)" points="-4.16666667 -3.80486275 134.899167 -3.80486275 134.899167 41.3716078 -4.16666667 41.3716078"></polygon>
                        </g>
                        <g id="Group-6" transform="translate(115.000000, 10.875817)">
                            <mask id="mask-4" fill="white">
                                <use xlink:href="#path-3"></use>
                            </mask>
                            <g id="Clip-5"></g>
                            <polygon id="Fill-4" fill="#EDE0C6" mask="url(#mask-4)" points="6.48275 -8.77862484 31.0310833 1.17860392 17.60525 34.5389176 -6.94308333 24.5825255"></polygon>
                        </g>
                        <g id="Group-9" transform="translate(49.166667, 7.529412)">
                            <mask id="mask-6" fill="white">
                                <use xlink:href="#path-5"></use>
                            </mask>
                            <g id="Clip-8"></g>
                            <polygon id="Fill-7" fill="#EDE0C6" mask="url(#mask-6)" points="-9.04583333 1.16831373 15.3366667 -8.22755556 28.1241667 25.2155817 3.74166667 34.6122876"></polygon>
                        </g>
                        <g id="Group-12" transform="translate(40.833333, 0.000000)">
                            <mask id="mask-8" fill="white">
                                <use xlink:href="#path-7"></use>
                            </mask>
                            <g id="Clip-11"></g>
                            <polygon id="Fill-10" fill="#4F2A72" mask="url(#mask-8)" points="0.751166667 -6.69933595 107.166167 -1.1008 98.8378333 158.445762 -7.57716667 152.847226"></polygon>
                        </g>
                        <g id="Group-15" transform="translate(57.500000, 39.320261)">
                            <mask id="mask-10" fill="white">
                                <use xlink:href="#path-9"></use>
                            </mask>
                            <g id="Clip-14"></g>
                            <polygon id="Fill-13" fill="#020303" mask="url(#mask-10)" points="-3.03916667 -4.55144575 25.0241667 -3.07484444 24.0166667 16.2397699 -4.0475 14.762332"></polygon>
                        </g>
                        <g id="Group-18" transform="translate(108.333333, 41.830065)">
                            <mask id="mask-12" fill="white">
                                <use xlink:href="#path-11"></use>
                            </mask>
                            <g id="Clip-17"></g>
                            <polygon id="Fill-16" fill="#020303" mask="url(#mask-12)" points="-3.19658333 -4.38395817 24.8884167 -2.90652026 23.89175 16.1780288 -4.19325 14.7005908"></polygon>
                        </g>
                        <g id="Group-21" transform="translate(80.833333, 68.601307)">
                            <mask id="mask-14" fill="white">
                                <use xlink:href="#path-13"></use>
                            </mask>
                            <g id="Clip-20"></g>
                            <polygon id="Fill-19" fill="#FEFEFE" mask="url(#mask-14)" points="-3.12091667 -4.57512157 12.9890833 -3.72764444 11.7590833 19.8260288 -4.35091667 18.9785516"></polygon>
                        </g>
                        <g id="Group-24" transform="translate(93.333333, 68.601307)">
                            <mask id="mask-16" fill="white">
                                <use xlink:href="#path-15"></use>
                            </mask>
                            <g id="Clip-23"></g>
                            <polygon id="Fill-22" fill="#FEFEFE" mask="url(#mask-16)" points="-2.95858333 -4.02614379 13.4205833 -3.16444444 12.1489167 21.1948758 -4.23025 20.3331765"></polygon>
                        </g>
                        <g id="Group-27" transform="translate(73.333333, 56.888889)">
                            <mask id="mask-18" fill="white">
                                <use xlink:href="#path-17"></use>
                            </mask>
                            <g id="Clip-26"></g>
                            <polygon id="Fill-25" fill="#371E57" mask="url(#mask-18)" points="-3.33166667 -3.63068235 8.34166667 -3.01745359 7.7375 8.5661281 -3.93666667 7.95206275"></polygon>
                        </g>
                        <g id="Group-30" transform="translate(71.666667, 63.581699)">
                            <mask id="mask-20" fill="white">
                                <use xlink:href="#path-19"></use>
                            </mask>
                            <g id="Clip-29"></g>
                            <polygon id="Fill-28" fill="#371E57" mask="url(#mask-20)" points="-3.79191667 -4.49020654 7.95975 -3.87195817 7.36475 7.52422484 -4.38691667 6.90597647"></polygon>
                        </g>
                        <g id="Group-33" transform="translate(77.500000, 63.581699)">
                            <mask id="mask-22" fill="white">
                                <use xlink:href="#path-21"></use>
                            </mask>
                            <g id="Clip-32"></g>
                            <polygon id="Fill-31" fill="#371E57" mask="url(#mask-22)" points="-3.17141667 -4.31293072 8.52275 -3.69802876 7.91525 7.93658562 -3.77891667 7.32084706"></polygon>
                        </g>
                        <g id="Group-36" transform="translate(102.500000, 63.581699)">
                            <mask id="mask-24" fill="white">
                                <use xlink:href="#path-23"></use>
                            </mask>
                            <g id="Clip-35"></g>
                            <polygon id="Fill-34" fill="#371E57" mask="url(#mask-24)" points="-3.71783333 -3.82435556 7.578 -3.22953203 6.963 8.54312157 -4.332 7.94829804"></polygon>
                        </g>
                        <g id="Group-39" transform="translate(109.166667, 63.581699)">
                            <mask id="mask-26" fill="white">
                                <use xlink:href="#path-25"></use>
                            </mask>
                            <g id="Clip-38"></g>
                            <polygon id="Fill-37" fill="#371E57" mask="url(#mask-26)" points="-3.66741667 -3.99753203 7.80925 -3.39350588 7.19341667 8.39755294 -4.28325 7.7943634"></polygon>
                        </g>
                        <g id="Group-42" transform="translate(105.000000, 57.725490)">
                            <mask id="mask-28" fill="white">
                                <use xlink:href="#path-27"></use>
                            </mask>
                            <g id="Clip-41"></g>
                            <polygon id="Fill-40" fill="#371E57" mask="url(#mask-28)" points="-3.068 -3.85372026 8.53033333 -3.24383791 7.91783333 8.48698562 -3.6805 7.87626667"></polygon>
                        </g>
                        <g id="Group-45" transform="translate(62.500000, 58.562092)">
                            <mask id="mask-30" fill="white">
                                <use xlink:href="#path-29"></use>
                            </mask>
                            <g id="Clip-44"></g>
                            <polygon id="Fill-43" fill="#371E57" mask="url(#mask-30)" points="-3.22833333 -5.4003451 66.4075 -1.73686797 65.0833333 23.6247007 -4.5525 19.9612235"></polygon>
                        </g>
                        <g id="Group-48" transform="translate(80.833333, 51.869281)">
                            <mask id="mask-32" fill="white">
                                <use xlink:href="#path-31"></use>
                            </mask>
                            <g id="Clip-47"></g>
                            <polygon id="Fill-46" fill="#694691" mask="url(#mask-32)" points="-2.97325 -4.32355556 25.9609167 -2.80094118 24.85425 18.3951895 -4.07991667 16.8725752"></polygon>
                        </g>
                        <g id="Group-51" transform="translate(0.000000, 101.228758)">
                            <mask id="mask-34" fill="white">
                                <use xlink:href="#path-33"></use>
                            </mask>
                            <g id="Clip-50"></g>
                            <polygon id="Fill-49" fill="#258A96" mask="url(#mask-34)" points="-4.16666667 -3.80486275 20.7358333 -3.80486275 20.7358333 15.8853856 -4.16666667 15.8853856"></polygon>
                        </g>
                        <g id="Group-54" transform="translate(10.000000, 81.150327)">
                            <mask id="mask-36" fill="white">
                                <use xlink:href="#path-35"></use>
                            </mask>
                            <g id="Clip-53"></g>
                            <polygon id="Fill-52" fill="#258A96" mask="url(#mask-36)" points="-0.241666667 -6.56614902 18.6833333 -0.392867974 13.675 15.082583 -5.25 8.90846536"></polygon>
                        </g>
                        <g id="Group-57" transform="translate(154.166667, 112.941176)">
                            <mask id="mask-38" fill="white">
                                <use xlink:href="#path-37"></use>
                            </mask>
                            <g id="Clip-56"></g>
                            <polygon id="Fill-55" fill="#258A96" mask="url(#mask-38)" points="-4.16666667 -3.80486275 24.975 -3.80486275 24.975 18.7833725 -4.16666667 18.7833725"></polygon>
                        </g>
                    </g>
                </g>
            </g>
        </g>
    </g>
</svg>