<svg width="137" height="148" viewBox="0 0 137 148" xmlns="http://www.w3.org/2000/svg" xmlns:xlink="http://www.w3.org/1999/xlink"><title>Mr Red</title><defs><path id="a" d="M0 64.097h136.66V.345H0z"/></defs><g fill="none" fill-rule="evenodd"><path d="M98.896 52.002c-.245-.5-.693-.878-1.227-1.035-.998-.297-2.04.21-2.42 1.18-.59 1.495-1.983 4.446-4.687 7.392-4.95 5.39-11.732 8.123-20.158 8.123-8.414 0-15.104-2.725-19.882-8.1-2.606-2.93-3.91-5.87-4.454-7.362-.357-.973-1.382-1.507-2.396-1.236l-.43.113v.06c-.345.188-.633.476-.816.827-.26.493-.298 1.076-.108 1.6.626 1.727 2.128 5.14 5.16 8.573 3.83 4.338 10.915 9.51 22.925 9.51 11.992 0 19.214-5.16 23.16-9.486 3.127-3.43 4.724-6.834 5.398-8.558.202-.518.177-1.1-.067-1.6M88.15 85.93s19.81 3.264 28.876-16.343c1.295-2.8 5.404-2.206 5.848.847.96 6.597.24 15.727-7.267 24.528-19.726 23.126-43.145 15.963-43.145 15.963L88.15 85.93zM48.53 87.01S29.83 88.834 19.886 69.49c-1.42-2.762-4.982-1.735-5.62 1.093-1.045 4.64.268 15.082 8.015 23.99 20.352 23.406 42.87 17.364 42.87 17.364L48.53 87.01zM89.096 144.196c-.037-.07-.075-.137-.113-.21.072.138.105.2.113.21" fill="#AE1917"/><path d="M93.516 105.41c-.19-.77-.744-1.14-1.346-1.2-.226-.046-.475-.046-.743.013-5.522 1.224-11.052 2.582-16.43 4.337-1.264.413-3.074.867-4.603 1.606-.67-1.208-2.7-2.05-3.89-2.402-6.362-1.88-13.23-2.533-19.81-3.237-.99-.105-1.523.543-1.61 1.3-.04.124-.072.256-.09.398-.96 8.128-1.292 16.42-.94 24.595.125 2.942.372 5.876.788 8.792.35 2.454.455 5.76 2.902 7.1 1.968 1.082 4.848.35 5.717-1.815.245-.61.358-1.308.538-1.938 2.258-7.876 4.944-15.886 9.08-22.992 1.01-1.74 2.12-3.445 3.508-4.91.35-.37.746-.674 1.153-.96.183.47.53.888 1.007 1.184 1.34.83 2.71 1.344 3.932 2.407 3.432 2.984 6.033 6.888 8.373 10.75 2.25 3.71 4.256 7.567 6.103 11.493.55 1.17 1.087 2.347 1.602 3.533.094.217.33.705.308.674.335.62.685 1.088 1.338 1.48 2.03 1.217 4.802.524 6.01-1.517.677-1.147.68-2.585.78-3.876.132-1.678.187-3.362.19-5.045.008-9.942-1.47-20.125-3.868-29.773" fill="#AE1917"/><path d="M81.35 101.524s31.595-9.87 31.595-56.985S69.32.025 69.32.025h-.137S25.56-2.574 25.56 44.54c0 47.114 31.99 56.984 31.99 56.984" fill="#CF1417"/><g transform="translate(0 83.736)"><mask id="b" fill="#fff"><use xlink:href="#a"/></mask><path d="M130.664 1.155c-20.468 15.95-39.82 1.58-39.82 1.58L70.738 14.642 45.152 1.894S27.076 17.467 5.724 3.187c-3.05-2.04-6.85 1.106-5.41 4.478 3.117 7.288 9.505 16.106 22.578 20.39 2.323.76 4.575 1.365 6.76 1.84-4.28 7.663-8.4 15.688-10.946 24.095-1.355 4.475 2.286 9.074 7.09 7.643 2.302-.686 3.934-3.012 5.48-4.73 4.59-5.102 9.217-10.17 14.217-14.878 2.91-2.74 5.955-5.433 9.19-7.854.437 1.114.877 2.226 1.326 3.332 3.168 7.8 6.71 15.55 11.335 22.61 1.062 1.62 2.127 3.216 4.092 3.784 1.71.495 3.647.065 4.963-1.145 1.812-1.666 1.775-4.045 1.958-6.302.602-7.446 1.306-14.928 2.32-22.36 5.47 2.39 10.628 5.59 15.55 8.887 5.427 3.638 10.624 7.598 15.738 11.66 1.33 1.06 2.636 2.242 4.065 3.17 3.71 2.414 8.654-.495 8.195-4.937-.203-1.968-1.342-3.97-2.16-5.747-.848-1.844-1.764-3.656-2.725-5.444-2.084-3.875-4.38-7.636-6.784-11.32-.33-.508-.666-1.014-1-1.52 1.193-.415 2.402-.868 3.63-1.37 12.86-5.272 18.65-14.624 21.256-22.194 1.205-3.502-2.855-6.394-5.778-4.117" fill="#CF1417" mask="url(#b)"/></g><path d="M11.303 95.122c-1.737-1.31-2.98-.858-3.487.076-.788 1.452-.378 2.585.584 3.233 1.423.96 2.478.768 3.314-.104.836-.873.91-2.207-.41-3.204M18.745 99.464c-2.125-.98-3.327-.22-3.646.877-.498 1.707.193 2.803 1.352 3.265 1.715.683 2.78.24 3.458-.87.68-1.107.45-2.525-1.165-3.27M28.685 101.572c-2.934-.484-4.15.85-4.17 2.303-.034 2.258 1.182 3.368 2.758 3.543 2.332.26 3.487-.645 3.944-2.23.458-1.586-.3-3.248-2.532-3.616M127.334 91.334c1.243-1.622 2.48-1.525 3.175-.807 1.078 1.117.99 2.245.284 3.074-1.047 1.227-2.052 1.317-3.028.737s-1.378-1.77-.432-3.003M121.687 97.132c1.677-1.42 2.956-1.034 3.52-.12.88 1.42.53 2.584-.404 3.294-1.38 1.05-2.456.913-3.35.08-.892-.832-1.042-2.174.234-3.254M112.89 101.112c2.87-1.056 4.358.056 4.66 1.52.472 2.274-.542 3.63-2.1 4.113-2.305.713-3.647.023-4.416-1.49-.77-1.514-.326-3.34 1.857-4.143" fill="#AE1917"/><path d="M54.503 34.74c-.526 2.807-3.27 6.49-7.196 6.49-3.926 0-7.02-2.215-7.02-6.14 0-3.922 3.093-7.65 7.02-7.65 3.925 0 7.92 3.445 7.196 7.3" fill="#13110D"/><path d="M50.407 32.8c-.095.506-.59 1.17-1.3 1.17-.707 0-1.265-.4-1.265-1.107 0-.708.558-1.38 1.266-1.38.71 0 1.43.62 1.3 1.316" fill="#FEFEFE"/><path d="M74.275 24.296c2.735 2.33 5.04 7.63 2.582 11.91s-7.313 5.454-11.1 3.813c-4.53-1.965-6.418-8.166-3.96-12.447 2.458-4.28 8.72-6.48 12.478-3.277" fill="#13110D"/><path d="M71.99 27.513c.515.438.948 1.434.487 2.24-.463.804-1.282 1.178-2.088.716-.806-.463-1.208-1.536-.746-2.34.463-.806 1.64-1.22 2.347-.617" fill="#FEFEFE"/><path d="M62.74 19.47c-.466 2.48-2.89 5.733-6.358 5.733-3.468 0-6.203-1.958-6.203-5.424s2.733-6.76 6.2-6.76c3.47 0 6.998 3.043 6.36 6.45" fill="#13110D"/><path d="M58.92 18.007c-.1.544-.633 1.26-1.395 1.26-.76 0-1.362-.43-1.362-1.192 0-.76.6-1.484 1.362-1.484.762 0 1.537.67 1.396 1.417" fill="#FEFEFE"/><path d="M85.232 32.262c-.482 2.814.81 7.22 4.49 8.584 3.682 1.363 7.354.36 8.72-3.318 1.363-3.68-.242-8.25-3.923-9.613-3.682-1.363-8.626.48-9.288 4.347" fill="#13110D"/><path d="M93.704 32.584c-.087.51.147 1.308.814 1.555.667.246 1.332.064 1.58-.602.246-.667-.044-1.495-.71-1.742-.668-.247-1.564.087-1.684.788" fill="#FEFEFE"/><path d="M82.38 12.888c-2.466.545-5.642 3.07-5.53 6.535.11 3.464 2.157 6.13 5.624 6.02 3.466-.112 6.672-2.95 6.56-6.413-.11-3.464-3.27-6.89-6.655-6.142" fill="#13110D"/><path d="M83.355 15.7c-.455.1-1.042.568-1.02 1.208.02.64.397 1.133 1.038 1.112.64-.02 1.233-.545 1.212-1.185-.02-.64-.604-1.273-1.23-1.135" fill="#FEFEFE"/><path d="M97.553 49.04c-.246-.5-.694-.877-1.228-1.034-.997-.297-2.038.21-2.42 1.18-.59 1.495-1.982 4.446-4.686 7.392-4.95 5.39-11.733 8.124-20.16 8.124-8.413 0-15.102-2.725-19.88-8.1-2.607-2.93-3.91-5.87-4.454-7.363-.357-.975-1.382-1.508-2.396-1.237l-.43.113v.06c-.345.188-.632.476-.816.827-.26.493-.298 1.076-.108 1.6.626 1.727 2.13 5.14 5.16 8.573 3.83 4.338 10.915 9.51 22.925 9.51 11.994 0 19.215-5.16 23.16-9.486 3.128-3.43 4.725-6.835 5.4-8.56.2-.517.177-1.1-.067-1.6" fill="#AE1917"/></g></svg>