<?xml version="1.0" encoding="UTF-8" standalone="no"?>
<svg width="120px" height="136px" viewBox="0 0 120 136" version="1.1" xmlns="http://www.w3.org/2000/svg" xmlns:xlink="http://www.w3.org/1999/xlink">
    <!-- Generator: Sketch 41.1 (35376) - http://www.bohemiancoding.com/sketch -->
    <title>Monster shape 1</title>
    <desc>Created with Sketch.</desc>
    <defs>
        <polyline id="path-1" points="0 0.303636364 119.859636 0.303636364 119.859636 136 0 136"></polyline>
        <polyline id="path-3" points="0 0.303636364 119.859636 0.303636364 119.859636 136 0 136"></polyline>
    </defs>
    <g id="Pages" stroke="none" stroke-width="1" fill="none" fill-rule="evenodd">
        <g id="Create-monster" transform="translate(-469.000000, -814.000000)">
            <g id="Scoll-02" transform="translate(414.000000, 431.000000)">
                <g id="Monster-shape-1" transform="translate(55.000000, 383.000000)">
                    <g id="Group-3">
                        <mask id="mask-2" fill="white">
                            <use xlink:href="#path-1"></use>
                        </mask>
                        <g id="Clip-2"></g>
                        <path d="M32.2214182,47.5019636 L29.5610545,82.5365091 C29.5610545,82.5365091 24.4952364,76.6288727 21.7825091,83.4117818 C19.0697818,90.1950545 29.1206909,115.957236 24.7054182,119.407782 C21.4257818,121.971055 14.3192364,122.202327 10.8821455,116.860145 C7.61705455,111.7856 5.58978182,96.3874182 5.58978182,96.3874182 L1.08323636,98.8983273 C0.330145455,88.2037818 4.30141818,81.3386909 4.30141818,81.3386909 L-3.63636364e-05,81.9139636 C1.43923636,74.2485091 4.05996364,69.7463273 5.91305455,67.3805091 C7.33087273,65.5703273 8.62614545,63.6703273 9.78723636,61.6856 C12.8050545,56.5277818 19.8526909,47.5019636 32.2214182,47.5019636" id="Fill-1" fill="#DAD9D9" mask="url(#mask-2)"></path>
                    </g>
                    <path d="M87.6381455,47.5019636 L90.2985091,82.5365091 C90.2985091,82.5365091 95.3643273,76.6288727 98.0770545,83.4117818 C100.789782,90.1950545 90.7388727,115.957236 95.1541455,119.407782 C98.4337818,121.971055 105.540327,122.202327 108.977418,116.860145 C112.242509,111.7856 114.269782,96.3874182 114.269782,96.3874182 L118.776327,98.8983273 C119.529418,88.2037818 115.558145,81.3386909 115.558145,81.3386909 L119.8596,81.9139636 C118.420327,74.2485091 115.7996,69.7463273 113.946509,67.3805091 C112.528691,65.5703273 111.233418,63.6703273 110.072327,61.6856 C107.054509,56.5277818 100.006873,47.5019636 87.6381455,47.5019636" id="Fill-4" fill="#DAD9D9"></path>
                    <g id="Group-8">
                        <mask id="mask-4" fill="white">
                            <use xlink:href="#path-3"></use>
                        </mask>
                        <g id="Clip-7"></g>
                        <path d="M97.1079636,126.284073 C96.4726909,129.5488 95.4894182,136.000073 88.0210545,136.000073 C80.5523273,136.000073 77.9628727,130.585164 77.9628727,126.591709 C77.9628727,124.930982 77.7905091,122.953527 77.5890545,121.209164 C77.5890545,121.209164 66.9141455,119.0368 58.7101455,119.522618 C48.8370545,120.106982 41.6974182,121.209164 41.6974182,121.209164 C41.4963273,122.953527 41.3239636,124.930982 41.3239636,126.591709 C41.3239636,130.585164 38.7345091,136.000073 31.2657818,136.000073 C24.6599636,136.000073 22.8537818,129.5408 22.1788727,126.284073 C18.8483273,110.212073 13.9886909,93.3273455 13.7392364,61.1757091 C13.4123273,19.0848 42.5686909,12.2840727 42.5686909,12.2840727 C42.4188727,9.2568 39.9294182,5.32261818 39.9294182,5.32261818 C44.6294182,4.69934545 48.0956,8.07461818 48.0956,8.07461818 C48.8425091,4.02734545 47.3486909,0.303709091 47.3486909,0.303709091 C53.7650545,2.15098182 59.5646909,9.33243636 59.5646909,9.33243636 C59.5646909,9.33243636 63.6174182,2.9648 68.8592364,2.24661818 C68.8592364,2.24661818 67.1385091,9.38952727 67.2963273,10.7575273 C67.2963273,10.7575273 74.5352364,4.67498182 78.7181455,6.15643636 C78.7181455,6.15643636 76.6039636,9.48661818 76.1636,12.1717091 C76.1636,12.1717091 104.858873,16.1695273 104.858873,61.1757091 C104.858873,61.1757091 102.438509,98.8935273 97.1079636,126.284073" id="Fill-6" fill="#F2F3F4" mask="url(#mask-4)"></path>
                    </g>
                </g>
            </g>
        </g>
    </g>
</svg>