<?xml version="1.0" encoding="UTF-8" standalone="no"?>
<svg width="118px" height="143px" viewBox="0 0 118 143" version="1.1" xmlns="http://www.w3.org/2000/svg" xmlns:xlink="http://www.w3.org/1999/xlink">
    <!-- Generator: Sketch 41.1 (35376) - http://www.bohemiancoding.com/sketch -->
    <title>Monster shape 3</title>
    <desc>Created with Sketch.</desc>
    <defs>
        <polygon id="path-1" points="0 0.0764441489 117.956987 0.0764441489 117.956987 143 0 143"></polygon>
        <polyline id="path-3" points="0 0.0764441489 117.956987 0.0764441489 117.956987 143 0 143"></polyline>
    </defs>
    <g id="Pages" stroke="none" stroke-width="1" fill="none" fill-rule="evenodd">
        <g id="Create-monster" transform="translate(-466.000000, -457.000000)">
            <g id="Scoll-02" transform="translate(414.000000, 431.000000)">
                <g id="Monster-shape-3" transform="translate(52.000000, 26.000000)">
                    <g id="Group-3">
                        <mask id="mask-2" fill="white">
                            <use xlink:href="#path-1"></use>
                        </mask>
                        <g id="Clip-2"></g>
                        <path d="M15.3561013,69.4740019 C15.3561013,69.4740019 -3.52618258,74.528063 4.60287548,92.1094566 C4.60287548,92.1094566 -5.85573097,101.848289 4.75703677,114.069465 C4.75703677,114.069465 0.92317871,127.882276 10.7571465,130.660127 C20.5911142,133.438358 24.0104497,122.219324 23.7877723,117.383185 C23.7877723,117.383185 28.9329529,116.331223 30.9998561,111.23951 C33.0667594,106.148177 30.6763077,96.2941082 30.6763077,96.2941082 L34.8550303,70.1684646 L15.3561013,69.4740019 Z" id="Fill-1" fill="#DAD9D9" mask="url(#mask-2)"></path>
                    </g>
                    <path d="M102.209925,69.6039569 C102.209925,69.6039569 118.486312,68.6075207 113.215519,91.9427628 C113.215519,91.9427628 123.798215,101.546582 113.343035,113.902771 C113.343035,113.902771 117.353893,127.66576 107.556086,130.569116 C97.7586606,133.472853 94.1958219,122.298316 94.3564542,117.459896 C94.3564542,117.459896 89.197951,116.473728 87.0659574,111.409398 C84.9343445,106.344688 87.1980413,96.4609543 87.1980413,96.4609543 L82.684351,70.3908372 L102.209925,69.6039569 Z" id="Fill-4" fill="#DAD9D9"></path>
                    <g id="Group-8">
                        <mask id="mask-4" fill="white">
                            <use xlink:href="#path-3"></use>
                        </mask>
                        <g id="Clip-7"></g>
                        <path d="M75.73594,11.9722566 C75.73594,11.9722566 105.039527,16.2025465 105.039527,63.8253497 C105.039527,63.8253497 102.567998,103.735661 97.1243916,132.719023 C96.4753916,136.173461 95.4712497,143.00019 87.8446432,143.00019 C80.2176561,143.00019 77.5733142,137.270302 77.5733142,133.044956 C77.5733142,131.287501 77.3970755,129.194985 77.1915271,127.348916 C77.1915271,127.348916 66.2902303,125.050267 57.9122303,125.564459 C47.8297013,126.182858 40.5388239,127.348916 40.5388239,127.348916 C40.3332755,129.194985 40.1574174,131.287501 40.1574174,133.044956 C40.1574174,137.270302 37.5130755,143.00019 29.8860884,143.00019 C23.1402948,143.00019 21.2953077,136.165094 20.60634,132.719023 C17.2052755,115.712672 12.2424239,97.8460386 11.9873916,63.8253497 C11.6539465,19.2873152 41.4283916,12.0909162 41.4283916,12.0909162 C41.4283916,12.0909162 61.4038884,6.83452527 75.73594,11.9722566" id="Fill-6" fill="#F2F3F4" mask="url(#mask-4)"></path>
                    </g>
                    <path d="M53.75608,0.199819681 C41.4521058,1.75304309 40.7098477,14.651567 40.7098477,14.651567 L58.5556348,18.7924819 L69.2844994,11.0723835 C69.2844994,11.0723835 65.4936542,-1.28190372 53.75608,0.199819681" id="Fill-9" fill="#F2F3F4"></path>
                    <path d="M77.0369852,5.19485532 C68.9159206,2.65166117 64.7234948,10.5280707 64.7234948,10.5280707 L74.6537658,18.2261106 L83.5757077,16.4515415 C83.5757077,16.4515415 84.7842561,7.62053085 77.0369852,5.19485532" id="Fill-11" fill="#F2F3F4"></path>
                    <path d="M33.965691,8.87436702 C29.1136071,12.8779867 32.3087426,18.6504707 32.3087426,18.6504707 L41.0879426,15.604875 L43.5853555,9.3645984 C43.5853555,9.3645984 38.5947168,5.05520213 33.965691,8.87436702" id="Fill-13" fill="#F2F3F4"></path>
                </g>
            </g>
        </g>
    </g>
</svg>