<?xml version="1.0" encoding="UTF-8" standalone="no"?>
<svg width="110px" height="134px" viewBox="0 0 110 134" version="1.1" xmlns="http://www.w3.org/2000/svg" xmlns:xlink="http://www.w3.org/1999/xlink">
    <!-- Generator: Sketch 41.1 (35376) - http://www.bohemiancoding.com/sketch -->
    <title>Monster shape 2</title>
    <desc>Created with Sketch.</desc>
    <defs>
        <polyline id="path-1" points="0 0.287196629 109.737721 0.287196629 109.737721 134 0 134"></polyline>
    </defs>
    <g id="Pages" stroke="none" stroke-width="1" fill="none" fill-rule="evenodd">
        <g id="Create-monster" transform="translate(-474.000000, -653.000000)">
            <g id="Scoll-02" transform="translate(414.000000, 431.000000)">
                <g id="Monster-shape-2" transform="translate(60.000000, 222.000000)">
                    <path d="M22.9941156,116.910709 C22.9941156,116.910709 25.7527211,117.847956 28.1154762,120.055192 C31.1535714,122.893282 33.6764626,128.125681 37.8257823,129.167192 C41.5388435,130.09917 46.3994218,127.620922 50.5176871,123.366046 C54.9962585,118.739282 60.9482313,118.894737 60.9482313,118.894737 C60.9482313,118.894737 61.4492177,121.071861 63.5238776,122.009861 C67.8310884,123.957378 70.2668027,130.242956 76.8211565,128.009748 C80.4934354,126.759333 81.7180272,123.770304 83.5143197,118.712557 C84.9398299,114.69858 86.9744558,112.968248 86.9744558,112.968248 L68.0877551,107.942496 L30.0228912,110.4294 L22.9941156,116.910709 Z" id="Fill-1" fill="#DAD9D9"></path>
                    <g id="Group-5">
                        <mask id="mask-2" fill="white">
                            <use xlink:href="#path-1"></use>
                        </mask>
                        <g id="Clip-4"></g>
                        <path d="M104.043014,87.6309185 C96.7504626,92.6017163 89.8271973,93.9797331 83.9002925,93.6676938 C90.2900204,85.6069916 97.2791361,70.904632 97.2791361,45.1442612 C97.2791361,-2.30604213 53.6383197,0.312980337 53.6383197,0.312980337 L53.5002585,0.312980337 C53.5002585,0.312980337 9.85944218,-2.30604213 9.85944218,45.1442612 C9.85944218,72.3583062 17.6593401,87.231177 24.3124694,94.9693006 C18.7492381,94.884986 12.4511769,93.2863961 5.83882993,88.8531039 C2.75733333,86.7873961 -1.14280272,89.9917275 0.315258503,93.4158792 C2.61291156,98.8112612 6.65859184,105.02457 13.7610748,109.700267 C14.684102,110.307784 15.1237279,111.438126 14.8176735,112.504104 C13.3603605,117.581424 9.81791156,123.26852 14.8027075,126.117149 C25.0708707,131.986048 32.7338299,117.610031 42.5522653,119.457801 C51.3182177,121.107581 50.226449,136.837525 61.7281837,133.549256 C70.2225034,131.120694 63.4466531,118.025581 72.3248503,115.869913 C80.8517211,113.800065 87.3955986,126.344874 96.4982857,121.687621 C101.345769,119.208244 99.7896803,114.398924 97.639068,109.57116 C97.1710068,108.520615 97.474068,107.275469 98.3832517,106.576486 C104.093524,102.186104 107.460871,96.7673848 109.442741,92.0111376 C110.833082,88.6743118 107.020122,85.6017219 104.043014,87.6309185" id="Fill-3" fill="#F2F3F4" mask="url(#mask-2)"></path>
                    </g>
                </g>
            </g>
        </g>
    </g>
</svg>