<?xml version="1.0" encoding="UTF-8" standalone="no"?>
<svg preserveAspectRatio="none" viewBox="0 0 934 126" version="1.1" xmlns="http://www.w3.org/2000/svg" xmlns:xlink="http://www.w3.org/1999/xlink">
    <!-- Generator: Sketch 40.3 (33839) - http://www.bohemiancoding.com/sketch -->
    <title>Wood effect</title>
    <desc>Created with Sketch.</desc>
    <defs>
        <polygon id="path-1" points="0.0451880917 13.2 249.716185 13.2 249.716185 0.0351825672 0.0451880917 0.0351825672 0.0451880917 13.2"></polygon>
        <polygon id="path-3" points="125.368698 0.924942857 0.300473892 0.924942857 0.300473892 3.2130567 125.368698 3.2130567 125.368698 0.924942857"></polygon>
        <polygon id="path-5" points="117.635475 18.6703992 117.635475 0.243679574 0.421925827 0.243679574 0.421925827 18.6703992 117.635475 18.6703992"></polygon>
        <polygon id="path-7" points="-24.7653631 -3.70914548 -24.7653631 24.1818169 114.626957 24.1818169 114.626957 -3.70914548 -24.7653631 -3.70914548"></polygon>
    </defs>
    <g id="Pages" stroke="none" stroke-width="1" fill="none" fill-rule="evenodd">
        <g id="Leaderboard" transform="translate(-184.000000, -1135.000000)">
            <g id="Cabinet" transform="translate(184.000000, 430.000000)">
                <g id="Wood-effect" transform="translate(0.000000, 705.000000)">
                    <path d="M428.524712,124 C834.491632,124 882.233894,124.510737 895,116 C901,112 900,107.587443 895,102 C879.797621,85.0115148 696.361306,90 428.524712,90 C160.688117,90 38,99 19.323958,107.533494 C5.20347322,113.985453 8.85136604,122.599278 19.323958,125 C29.79655,127.400722 101.853432,124 428.524712,124 Z" id="Oval-1" fill="#18A9BB"></path>
                    <g id="Stands" transform="translate(39.000000, 73.000000)" fill="#5C3818">
                        <rect id="Stand-02" x="799" y="0" width="42.1775076" height="33.9576767"></rect>
                        <rect id="Stand-01" x="0" y="0" width="42.1775076" height="33.9576767"></rect>
                    </g>
                    <rect id="Rectangle-5" fill="#7B512B" x="0" y="0" width="934" height="73"></rect>
                    <g id="Group-3" transform="translate(39.000000, 34.789531)" fill="#8B6137">
                        <path d="M112.516726,6.4878 C131.416418,8.0454 150.352542,9.72274286 169.342818,9.50871429 C187.22048,9.30694286 203.733465,4.94057143 220.964234,0.841971429 C221.325588,0.756171429 221.560911,-0.0678857143 221.06368,0.0292285714 C212.341957,1.73202857 203.777772,4.08351429 195.069834,5.84477143 C185.397957,7.8012 175.736911,8.37822857 165.871065,8.37257143 C146.875865,8.3622 127.950572,6.57642857 109.042018,5.04994286 C73.0169108,2.14217143 36.0721723,0.705257143 0.169156923,5.59208571 C0.00669538462,5.61377143 -0.0927507692,5.96545714 0.126818462,5.94377143 C37.5786338,2.20817143 75.0698338,3.40182857 112.516726,6.4878" id="Fill-1"></path>
                    </g>
                    <path d="M140.434782,47.2174257 C170.389735,49.2888829 200.372258,53.26114 230.190351,47.7284543 C238.60192,46.1680257 246.916997,44.1691686 255.314782,42.5446257 C264.096566,40.8455971 272.834043,40.03474 281.744812,39.3125114 C282.260751,39.2710257 282.072689,38.2763114 281.591212,38.2470829 C266.378905,37.3334543 250.978535,41.9034829 236.252628,44.95174 C221.372135,48.0320543 206.603889,49.35394 191.381735,49.0277114 C175.272443,48.6826257 159.24192,46.99774 143.186782,45.8219971 C128.202905,44.7254543 113.296812,44.6603971 98.2932431,45.4938829 C80.4106585,46.4876543 62.5733662,48.3252829 44.6897969,49.26154 C44.5194585,49.2700257 44.5696738,49.6292543 44.7419815,49.6264257 C76.7350892,49.1333114 108.385551,45.0017114 140.434782,47.2174257" id="Fill-4" fill="#8B6137"></path>
                    <g id="Group-8" transform="translate(44.907692, 49.875246)">
                        <mask id="mask-2" fill="white">
                            <use xlink:href="#path-1"></use>
                        </mask>
                        <g id="Clip-7"></g>
                        <path d="M248.981858,12.0267086 C232.957243,7.95356571 216.540751,6.50345143 200.026782,5.70956571 C183.562043,4.91850857 167.14752,4.38296571 150.660135,4.51119429 C117.85472,4.76765143 85.4234585,-0.00603428571 52.6042585,0.0354514286 C35.0731815,0.05808 17.2792123,0.900994286 0.242412308,5.13913714 C-0.231187692,5.25699429 0.251273846,5.92453714 0.611643077,5.84722286 C30.7359508,-0.62832 63.1642585,-0.0880628571 93.7739815,2.50573714 C109.781858,3.86156571 125.592812,5.64450857 141.685366,5.80290857 C159.148505,5.97545143 176.537797,6.07256571 193.98912,6.82496571 C212.599335,7.62733714 231.133735,8.93225143 249.28512,13.1779371 C250.140751,13.3778229 249.55392,12.1719086 248.981858,12.0267086" id="Fill-6" fill="#8B6137" mask="url(#mask-2)"></path>
                    </g>
                    <g id="Group-11" transform="translate(47.861538, 31.018103)">
                        <mask id="mask-4" fill="white">
                            <use xlink:href="#path-3"></use>
                        </mask>
                        <g id="Clip-10"></g>
                        <path d="M0.566547692,2.03119714 C10.2098708,3.41719714 20.06784,2.63556857 29.7535015,2.09908286 C40.2504862,1.51734 50.6017477,1.79359714 61.1007015,1.91711143 C71.53664,2.03874 81.9912862,1.87374 92.4075323,2.60351143 C103.43424,3.37476857 114.157686,3.60199714 125.142055,2.15376857 C125.713132,2.07834 125.069194,1.48905429 124.697994,1.52111143 C113.393625,2.50074 102.504763,2.44228286 91.2043323,1.72382571 C80.7821785,1.06194 70.3324554,1.23448286 59.8955323,1.10154 C50.0080246,0.97614 40.2583631,0.706482857 30.3708554,1.26088286 C20.3789785,1.82094 10.4963938,2.26314 0.494670769,1.63519714 C0.150055385,1.61351143 0.321378462,1.99631143 0.566547692,2.03119714" id="Fill-9" fill="#8B6137" mask="url(#mask-4)"></path>
                    </g>
                    <g id="Wood" transform="translate(776.765363, 23.538585)">
                        <mask id="mask-6" fill="white">
                            <use xlink:href="#path-5"></use>
                        </mask>
                        <g id="Clip-2"></g>
                        <path d="M117.00963,0.250687805 C101.044759,3.89698049 85.2476525,8.07151707 68.9911888,10.1521512 C59.2072726,11.4043463 50.1535352,11.4076634 40.4223453,10.5095659 C31.7073341,9.70600488 22.9108369,8.91322439 14.1534849,9.16946829 C10.7630268,9.26815122 1.42568603,8.94722439 0.434272626,13.8407366 C0.351188827,14.2495659 0.701898324,14.6384927 1.05180894,14.7620537 C19.2335799,21.1971756 39.5547587,18.2084927 58.2214514,16.1709805 C69.1909095,14.9735171 80.2202838,14.4461024 91.1809542,13.1690293 C95.1849542,12.7021512 99.1705799,12.0785415 103.177775,11.6423463 C106.954094,11.2310293 111.319189,10.4780537 115.034792,11.5859561 C115.532496,11.7343951 115.369524,11.0784439 115.020412,10.9631756 C108.729211,8.89332195 100.662893,11.0759561 94.3109765,11.8861512 C83.6786469,13.2428341 72.9584402,13.5596146 62.2989486,14.6194195 C42.5865184,16.5789805 21.1373173,20.4102 1.85228939,13.9137122 C3.84230615,9.25488293 16.1267251,10.2864927 19.4524737,10.3387366 C27.8271609,10.4722488 36.1730883,11.310639 44.5182168,11.9831756 C53.4497251,12.7038098 62.0768592,12.0611268 70.9867978,10.8503951 C86.6185352,8.72746829 102.183965,5.17239512 117.432239,1.05010244 C117.936334,0.914102439 117.391496,0.163614634 117.00963,0.250687805" id="Fill-1" fill="#8B6137" mask="url(#mask-6)"></path>
                        <mask id="mask-8" fill="white">
                            <use xlink:href="#path-7"></use>
                        </mask>
                        <g id="Clip-5"></g>
                        <path d="M114.24254,17.5949171 C114.618015,17.5857951 114.827322,17.1097951 114.351188,17.0965268 C94.9287525,16.5475512 75.9536911,16.8941854 56.696624,19.7402341 C39.9855961,22.2106244 23.541395,23.5656488 6.69775251,22.138478 C-0.320431844,21.5438927 -7.61822514,20.6441366 -14.2393648,18.021161 C-17.8183592,16.6031122 -28.6591972,9.36857561 -19.9697503,6.98857561 C-15.0262642,5.63438049 -9.50278939,6.36081951 -4.45305196,6.46530732 C5.75666872,6.67594146 15.9655905,6.75886829 26.1681212,6.29281951 C37.5609872,5.77203902 49.546624,6.2853561 60.7605402,3.9576 C71.8266631,1.66052683 82.287233,-2.98752195 93.7456073,-2.77274146 C94.1722106,-2.76444878 94.6795011,-3.42454634 94.0379983,-3.50166829 C84.2420989,-4.6808878 74.5420654,-0.556107317 65.1903447,1.88028293 C53.3596911,4.96267317 40.8555793,4.61520976 28.7269425,5.16086829 C17.5641547,5.66340488 6.40616034,5.70569756 -4.7646162,5.41877073 C-10.0292531,5.2836 -15.8251469,4.58120976 -20.9515771,6.17174634 C-25.1497056,7.47452683 -25.9805436,10.634039 -22.9527782,14.098722 C-19.3130687,18.2633073 -13.3358285,19.9575024 -8.2429514,21.1450146 C6.34864078,24.5458439 22.4916631,24.7672585 37.3373,23.3881854 C51.0573112,22.1144293 64.5839927,19.100039 78.3367581,18.1646244 C90.2960318,17.3502829 102.272881,17.8926244 114.24254,17.5949171" id="Fill-4" fill="#8B6137" mask="url(#mask-8)"></path>
                    </g>
                </g>
            </g>
        </g>
    </g>
</svg>
