<?xml version="1.0" encoding="utf-8"?>
<!-- Generator: Adobe Illustrator 19.2.1, SVG Export Plug-In . SVG Version: 6.00 Build 0)  -->
<svg version="1.1" id="Capa_1" xmlns="http://www.w3.org/2000/svg" xmlns:xlink="http://www.w3.org/1999/xlink" x="0px" y="0px"
	 viewBox="0 0 21.6 38.2" style="enable-background:new 0 0 21.6 38.2;" xml:space="preserve">
<style type="text/css">
	.st0{fill:#010002;}
</style>
<g>
	<g>
		<path class="st0" d="M12.6,37.9c-0.3-0.3-0.3-0.9,0-1.3c9.7-9.7,9.7-25.5,0-35.1c-0.3-0.3-0.3-0.9,0-1.3c0.3-0.3,0.9-0.3,1.3,0
			c10.4,10.4,10.4,27.3,0,37.6C13.5,38.3,12.9,38.3,12.6,37.9z"/>
	</g>
	<g>
		<path class="st0" d="M8.6,34c-0.3-0.3-0.3-0.9,0-1.3c7.5-7.5,7.5-19.7,0-27.2c-0.3-0.3-0.3-0.9,0-1.3c0.3-0.3,0.9-0.3,1.3,0
			c8.2,8.2,8.2,21.5,0,29.7C9.5,34.3,9,34.3,8.6,34z"/>
	</g>
	<g>
		<path class="st0" d="M4.7,30c-0.3-0.3-0.3-0.9,0-1.3c5.3-5.3,5.3-14,0-19.3c-0.3-0.3-0.3-0.9,0-1.3c0.3-0.3,0.9-0.3,1.3,0
			c6,6,6,15.8,0,21.8C5.6,30.3,5,30.3,4.7,30z"/>
	</g>
	<g>
		<path class="st0" d="M0.3,25.6c-0.3-0.3-0.3-0.9,0-1.3c2.9-2.9,2.9-7.6,0-10.5c-0.3-0.3-0.3-0.9,0-1.3c0.3-0.3,0.9-0.3,1.3,0
			c3.6,3.6,3.6,9.5,0,13.1C1.2,26,0.6,26,0.3,25.6z"/>
	</g>
</g>
</svg>
