<?xml version="1.0" encoding="utf-8"?>
<!-- Generator: Adobe Illustrator 19.2.1, SVG Export Plug-In . SVG Version: 6.00 Build 0)  -->
<svg version="1.1" id="Layer_1" xmlns="http://www.w3.org/2000/svg" xmlns:xlink="http://www.w3.org/1999/xlink" x="0px" y="0px"
	 viewBox="0 0 647.5 24.1" style="enable-background:new 0 0 647.5 24.1;" xml:space="preserve">
<style type="text/css">
	.st0{fill:#FFFFFF;}
</style>
<title>Swirl border 01</title>
<desc>Created with Sketch.</desc>
<g id="Symbols">
	<g id="Footer_Desktop_Main" transform="translate(0.000000, -330.000000)">
		<path id="Swirl-border-01" class="st0" d="M641.9,334c-2.9,2.7-5.2,2.8-8.1,0c-5.4-5.1-5.6-5.1-10.7-0.2c-3,2.9-5.5,3-8.5,0
			c-5.2-5-5.4-5-10.3-0.2c-3.2,3.1-5.7,3.1-8.9,0c-4.9-4.8-5.1-4.8-10.3,0.2c-3,2.9-5.5,2.9-8.5,0c-5.2-5-5.4-5-10.3-0.1
			c-3.2,3.1-5.7,3.1-8.9,0c-4.9-4.8-5.1-4.8-10.3,0.2c-3.1,2.9-5.5,2.9-8.5,0c-5-4.9-5.2-4.9-10.7,0.2c-2.9,2.7-5.3,2.6-8.1-0.1
			c-5.3-5-5.5-5-10.7-0.1c-3.1,3-5.5,2.8-8.5-0.1c-5.1-4.9-5.4-5-10.3-0.1c-3.2,3.2-5.7,3-8.9-0.1c-4.9-4.8-5.2-4.9-9.9-0.1
			c-3.4,3.4-6.3,3.4-9.2-0.2c-3.3-4.1-6.4-4.2-9.7,0c-3.2,3.9-6.4,3.6-9.5-0.1c-3.1-3.9-6-3.7-9.4-0.1c-4.2,4.5-5.3,4.4-9.7-0.2
			c-3.3-3.4-5.8-3.5-9.1,0c-4.5,4.7-5.4,4.6-10.1-0.2c-3.2-3.2-5.6-3.2-8.7,0c-4.8,4.9-5.4,4.8-10.5-0.2c-3.1-3-5.3-3-8.4,0
			c-5.1,5.1-5.4,5.1-10.8-0.2c-2.9-2.9-5.1-2.8-8,0c-5.3,5.2-5.5,5.2-11.2-0.2c-2.8-2.7-4.9-2.5-7.6,0.1c-5.6,5.3-5.8,5.3-11.2,0.1
			c-2.9-2.9-5.1-2.7-8,0.1c-5.3,5.2-5.6,5.2-10.8,0.1c-3.1-3.1-5.4-2.9-8.4,0.1c-5,5-5.6,5-10.5,0.1c-3.2-3.3-5.6-3.1-8.7,0.1
			c-4.7,4.7-5.5,4.8-10.1,0c-3.4-3.5-5.9-3.2-9.1,0.1c-4.3,4.5-5.5,4.5-9.7,0c-3.5-3.7-6.3-3.6-9.4,0.2c-3.1,3.8-6.4,3.9-9.5,0
			c-3.4-4.2-6.5-3.8-9.7,0.2c-3,3.7-5.9,3.4-9.2,0.1c-4.7-4.7-5-4.7-9.9,0.2c-3.2,3.1-5.7,3.1-8.9,0c-4.9-4.8-5.1-4.8-10.3,0.2
			c-3.1,2.9-5.5,2.9-8.5,0c-5-4.9-5.3-4.9-10.7,0.2c-2.9,2.7-5.3,2.7-8.1-0.1c-5.3-5-5.5-5-10.7-0.1c-3.1,3-5.5,2.8-8.5-0.1
			c-5.1-4.9-5.4-5-10.3-0.1c-3.2,3.2-5.7,3-8.9-0.1c-4.9-4.8-5.2-4.9-9.9-0.1c-3.4,3.4-6.3,3.4-9.2-0.2c-3.3-4.1-6.4-4.2-9.7-0.1
			c-3.2,3.9-6.4,3.7-9.5-0.1c-3.1-3.9-6-3.7-9.4-0.1c-4.2,4.5-5.3,4.4-9.7-0.1c-3.3-3.4-5.8-3.5-9.1,0c-4.5,4.7-5.4,4.6-10.1-0.2
			c-3.2-3.2-5.6-3.2-8.7,0c-4.8,4.9-5.4,4.9-10.5-0.2c-3-3-5.3-3-8.4,0c-5.1,5.1-5.4,5.1-10.8-0.2c-1.8-1.8-3.1-2.2-5.3-2.1
			c-0.1,7.9,0.1,15.9,0,23.8c215.7,0,431.5-0.1,647.5-0.1v-23.7C646,330.2,644.7,331.4,641.9,334"/>
	</g>
</g>
</svg>
