<?xml version="1.0" encoding="UTF-8" standalone="no"?>
<svg width="22px" height="21px" viewBox="0 0 22 21" version="1.1" xmlns="http://www.w3.org/2000/svg" xmlns:xlink="http://www.w3.org/1999/xlink">
    <!-- Generator: Sketch 41.2 (35397) - http://www.bohemiancoding.com/sketch -->
    <title>tick-mark</title>
    <desc>Created with Sketch.</desc>
    <defs></defs>
    <g id="Pages" stroke="none" stroke-width="1" fill="none" fill-rule="evenodd">
        <g id="Connect" transform="translate(-218.000000, -1375.000000)" fill="#FFFFFF">
            <g id="Your-connections" transform="translate(156.000000, 1162.000000)">
                <g id="02" transform="translate(0.000000, 95.000000)">
                    <g id="tick-mark" transform="translate(62.000000, 118.000000)">
                        <g id="Capa_1">
                            <path d="M21.8986037,1.67838184 C21.8907364,1.64127204 21.875349,1.60370691 21.8496649,1.56659711 C20.7193291,-0.0681691093 17.8848125,0.0201658666 16.1218589,1.72960787e-05 C15.9447306,-0.00203171109 15.8583067,0.178394754 15.8967173,0.316816572 C15.7393727,0.358935052 15.5910523,0.415510417 15.4635569,0.502593222 C13.6513174,1.74042122 12.7875419,4.33947298 11.931865,6.23434928 C11.1126318,8.04851747 10.1863813,9.80804546 9.38959286,11.6326863 C9.0509549,12.4081217 8.14518225,13.9737909 8.00276225,15.164264 C6.42584549,12.3225188 4.96242509,9.43489849 3.55349682,6.50561507 C3.47933661,6.35137036 3.30995978,6.33247396 3.1758698,6.39178134 C2.82624086,6.19132013 2.37387515,6.34761385 2.00342119,6.43947767 C1.49853016,6.56480861 0.971772862,6.71233712 0.500317557,6.93351606 C0.423612068,6.96948752 0.380110916,7.0207127 0.352575613,7.0760359 C0.182851703,7.00466215 -0.0498100437,7.14752348 0.00942556755,7.36175856 C1.27871051,11.9551773 4.79698188,15.8226783 6.60470927,20.2364675 C6.67030808,20.3967454 6.80624918,20.4732416 6.94716515,20.4911135 C6.98071657,20.5585031 7.03833246,20.6130294 7.12730157,20.6327227 C7.79242955,20.7797959 8.45813601,20.857772 9.13737874,20.9112738 C9.73123888,20.9580595 10.4244806,21.0765604 11.000061,20.9028501 C11.1985929,20.8429736 11.2788849,20.6598151 11.2490357,20.49487 C11.295892,20.4862187 11.3454093,20.4591262 11.3970091,20.40312 C11.4567074,20.338804 11.3961992,20.2561607 11.3168327,20.2675441 C11.7912961,20.2002683 12.2252664,18.143179 12.3581994,17.7859687 C12.7836083,16.6433057 13.2507829,15.5153273 13.7179575,14.388601 C13.98822,13.7369029 14.2913397,13.091921 14.6165571,12.4530861 C14.7435897,12.2300858 14.8613668,12.0001416 14.975673,11.7673517 C16.8296782,8.33970415 19.3717189,5.12401506 21.8820593,2.26758523 C22.0524774,2.07395406 22.02043,1.84048107 21.8986037,1.67838184 L21.8986037,1.67838184 Z M2.81559696,7.25270585 C2.78875582,7.20318818 2.7636501,7.15241833 2.73761883,7.10233149 C2.86407297,7.07216555 2.98775045,7.03596642 3.09650333,6.97756972 C3.11732835,7.03505575 3.14127712,7.09128962 3.16233353,7.14854798 C3.0420112,7.13101759 2.90977232,7.1708594 2.81559696,7.25270585 L2.81559696,7.25270585 Z M4.74850586,11.0742181 C4.72490417,11.0417754 4.70361637,11.0079668 4.6796676,10.9755242 C4.67573398,10.970174 4.67029634,10.9684665 4.66613134,10.9634578 C4.60666434,10.72509 4.54199108,10.4886573 4.46968198,10.2550705 C4.47083893,10.2531354 4.47188018,10.2512002 4.47303713,10.249265 C4.59173974,10.5009514 4.71113652,10.7521824 4.83423552,11.0019336 C4.80230383,11.0212854 4.7752313,11.0478086 4.74850586,11.0742181 L4.74850586,11.0742181 Z M9.89378973,20.1410748 C9.95499214,20.0558133 9.96991674,19.9425488 9.94585227,19.8379356 C10.0216322,19.7845475 10.0935942,19.7258093 10.1639365,19.6650221 C10.150863,19.7184101 10.1346658,19.7704322 10.1218237,19.823934 C10.0907019,19.954046 10.1262201,20.0563825 10.1908933,20.1312851 C10.0918588,20.1327649 9.99282426,20.1367491 9.89378973,20.1410748 L9.89378973,20.1410748 Z M12.3697689,15.3445767 C12.2876257,15.5495912 12.193219,15.766103 12.0931432,15.9897863 C12.099275,15.9422038 12.1051754,15.8943936 12.110266,15.8462419 C12.232208,15.5287596 12.3638684,15.2136679 12.4955288,14.8986899 C12.5234112,14.878769 12.5525663,14.8602141 12.5799859,14.8400656 C12.5095279,15.008198 12.4375659,15.1754197 12.3697689,15.3445767 L12.3697689,15.3445767 Z M14.6804205,10.6127361 C14.2707461,11.3264736 13.880624,12.0501146 13.5164176,12.7857082 C13.4025741,12.9468968 13.2831774,13.1027352 13.1577645,13.2528819 C13.6558295,12.3105662 14.2005195,11.3923833 14.7396561,10.4719238 C14.7202194,10.5190509 14.7002042,10.5658366 14.6804205,10.6127361 L14.6804205,10.6127361 Z M17.5150527,2.15671118 C17.5436293,2.10764884 17.5722058,2.0585865 17.6033277,2.01009333 C17.73198,1.85197828 17.8569301,1.6863502 17.9767897,1.5061514 C17.9900946,1.50603757 18.003168,1.50467156 18.0164729,1.5047854 C18.0942197,1.52584464 18.1718507,1.54701771 18.2497131,1.57092279 C18.1715036,1.57843582 18.0920215,1.60564208 18.0197124,1.67633283 C17.8505669,1.84139174 17.6832726,2.00041746 17.5150527,2.15671118 L17.5150527,2.15671118 Z" id="Shape"></path>
                        </g>
                    </g>
                </g>
            </g>
        </g>
    </g>
</svg>