<?xml version="1.0" encoding="utf-8"?>
<!-- Generator: Adobe Illustrator 19.2.1, SVG Export Plug-In . SVG Version: 6.00 Build 0)  -->
<svg version="1.1" id="Layer_1" xmlns="http://www.w3.org/2000/svg" xmlns:xlink="http://www.w3.org/1999/xlink" x="0px" y="0px" viewBox="0 0 934 92" style="enable-background:new 0 0 934 92;" xml:space="preserve" preserveAspectRatio="none">
<style type="text/css">
	.st0{fill:#7B512B;}
	.st1{fill:#5C3817;}
	.st2{fill:#8B6137;}
	.st3{filter:url(#Adobe_OpacityMaskFilter);}
	.st4{fill:#FFFFFF;}
	.st5{mask:url(#mask-2);fill:#8B6137;}
	.st6{filter:url(#Adobe_OpacityMaskFilter_1_);}
	.st7{mask:url(#mask-4);fill:#8B6137;}
	.st8{filter:url(#Adobe_OpacityMaskFilter_2_);}
	.st9{mask:url(#mask-6);fill:#8B6137;}
	.st10{filter:url(#Adobe_OpacityMaskFilter_3_);}
	.st11{mask:url(#mask-8);fill:#8B6137;}
	.st12{filter:url(#Adobe_OpacityMaskFilter_4_);}
	.st13{mask:url(#mask-10);fill:#8B6137;}
</style>
<title>Wood 01</title>
<desc>Created with Sketch.</desc>
<g id="Pages">
	<g id="Home-_x28_with-bonus-round_x29_" transform="translate(-183.000000, -1509.000000)">
		<g id="Your-collection" transform="translate(183.000000, 1165.000000)">
			<g id="Shelf-01" transform="translate(0.000000, 83.000000)">
				<g id="Wood-01" transform="translate(0.000000, 261.000000)">
					<rect id="Wood" y="0" class="st0" width="934" height="46"/>
					<g id="Hold-01" transform="translate(44.000000, 45.000000)">
						<rect id="Rectangle-5" y="0" class="st1" width="21" height="46"/>
						<circle id="Oval-2" class="st0" cx="10" cy="14" r="4"/>
					</g>
					<g id="Hold-02" transform="translate(871.000000, 46.000000)">
						<rect id="Rectangle-5_1_" y="0" class="st1" width="21" height="46"/>
						<circle id="Oval-2_1_" class="st0" cx="10" cy="14" r="4"/>
					</g>
					<g id="Wood-effect" transform="translate(128.000000, 6.000000)">
						<g id="Group-3" transform="translate(0.000000, 4.019200)">
							<path id="Fill-1" class="st2" d="M192.1,6.9c32.3,1.7,64.6,3.4,97,3.2c30.5-0.2,58.7-4.8,88.1-9.2c0.6-0.1,1-1,0.2-0.9
								c-14.9,1.8-29.5,4.3-44.4,6.2c-16.5,2.1-33,2.7-49.8,2.7c-32.4,0-64.7-1.9-97-3.5C124.6,2.3,61.6,0.7,0.3,5.9
								C0,6-0.2,6.3,0.2,6.3C64.1,2.3,128.1,3.6,192.1,6.9"/>
						</g>
						<path id="Fill-4" class="st2" d="M173.2,17.2c51.1,2.2,102.3,6.4,153.2,0.5c14.4-1.7,28.6-3.8,42.9-5.5
							c15-1.8,29.9-2.7,45.1-3.4c0.9,0,0.6-1.1-0.3-1.1c-26-1-52.3,3.9-77.4,7.1c-25.4,3.3-50.6,4.7-76.6,4.3
							c-27.5-0.4-54.9-2.2-82.3-3.4c-25.6-1.2-51-1.2-76.6-0.3c-30.5,1.1-61,3-91.5,4c-0.3,0-0.2,0.4,0.1,0.4
							C64.4,19.2,118.4,14.9,173.2,17.2"/>
						<g id="Group-8" transform="translate(10.084615, 20.019200)">
							<g id="Clip-7">
							</g>
							<defs>
								<filter id="Adobe_OpacityMaskFilter" filterUnits="userSpaceOnUse" x="0.1" y="0" width="426.2" height="14">
									<feColorMatrix  type="matrix" values="1 0 0 0 0  0 1 0 0 0  0 0 1 0 0  0 0 0 1 0"/>
								</filter>
							</defs>
							<mask maskUnits="userSpaceOnUse" x="0.1" y="0" width="426.2" height="14" id="mask-2">
								<g class="st3">
									<polygon id="path-1" class="st4" points="0.1,14 426.3,14 426.3,0 0.1,0 									"/>
								</g>
							</mask>
							<path id="Fill-6" class="st5" d="M425,12.8c-27.4-4.3-55.4-5.9-83.6-6.7c-28.1-0.8-56.1-1.4-84.3-1.3
								C201.2,5.1,145.8,0,89.8,0C59.9,0.1,29.5,1,0.4,5.5c-0.8,0.1,0,0.8,0.6,0.8c51.4-6.9,106.8-6.3,159-3.5
								c27.3,1.4,54.3,3.3,81.8,3.5c29.8,0.2,59.5,0.3,89.3,1.1c31.8,0.9,63.4,2.2,94.4,6.7C427,14.2,426,12.9,425,12.8"/>
						</g>
						<g id="Group-11" transform="translate(15.126923, 0.019200)">
							<g id="Clip-10">
							</g>
							<defs>
								<filter id="Adobe_OpacityMaskFilter_1_" filterUnits="userSpaceOnUse" x="0.5" y="1" width="213.5" height="2.4">
									<feColorMatrix  type="matrix" values="1 0 0 0 0  0 1 0 0 0  0 0 1 0 0  0 0 0 1 0"/>
								</filter>
							</defs>
							<mask maskUnits="userSpaceOnUse" x="0.5" y="1" width="213.5" height="2.4" id="mask-4">
								<g class="st6">
									<polygon id="path-3" class="st4" points="214,1 0.5,1 0.5,3.4 214,3.4 									"/>
								</g>
							</mask>
							<path id="Fill-9" class="st7" d="M1,2.2c16.5,1.5,33.3,0.6,49.8,0.1C68.7,1.6,86.4,1.9,104.3,2c17.8,0.1,35.7,0,53.4,0.7
								c18.8,0.8,37.1,1.1,55.9-0.5c1-0.1-0.1-0.7-0.8-0.7c-19.3,1-37.9,1-57.2,0.2c-17.8-0.7-35.6-0.5-53.4-0.7
								C85.4,1,68.7,0.7,51.8,1.3c-17.1,0.6-33.9,1.1-51,0.4C0.3,1.7,0.5,2.1,1,2.2"/>
						</g>
					</g>
					<g id="Wood-effect_1_" transform="translate(755.000000, 1.000000)">
						<g id="Group-3_1_" transform="translate(31.000000, 5.473000)">
							<g id="Clip-2">
							</g>
							<defs>
								<filter id="Adobe_OpacityMaskFilter_2_" filterUnits="userSpaceOnUse" x="0.5" y="0.3" width="146.7" height="22.2">
									<feColorMatrix  type="matrix" values="1 0 0 0 0  0 1 0 0 0  0 0 1 0 0  0 0 0 1 0"/>
								</filter>
							</defs>
							<mask maskUnits="userSpaceOnUse" x="0.5" y="0.3" width="146.7" height="22.2" id="mask-6">
								<g class="st8">
									<polygon id="path-5" class="st4" points="147.2,22.5 147.2,0.3 0.5,0.3 0.5,22.5 									"/>
								</g>
							</mask>
							<path id="Fill-1_1_" class="st9" d="M146.5,0.3c-20,4.4-39.8,9.4-60.1,11.9c-12.2,1.5-23.6,1.5-35.8,0.4
								c-10.9-1-21.9-1.9-32.9-1.6c-4.2,0.1-15.9-0.3-17.2,5.6c-0.1,0.5,0.3,1,0.8,1.1c22.8,7.8,48.2,4.2,71.6,1.7
								c13.7-1.4,27.5-2.1,41.3-3.6c5-0.6,10-1.3,15-1.8c4.7-0.5,10.2-1.4,14.8-0.1c0.6,0.2,0.4-0.6,0-0.8c-7.9-2.5-18,0.1-25.9,1.1
								c-13.3,1.6-26.7,2-40.1,3.3c-24.7,2.4-51.5,7-75.7-0.9c2.5-5.6,17.9-4.4,22-4.3c10.5,0.2,20.9,1.2,31.4,2
								c11.2,0.9,22,0.1,33.1-1.4c19.6-2.6,39.1-6.8,58.1-11.8C147.6,1.1,146.9,0.2,146.5,0.3"/>
						</g>
						<g id="Group-6" transform="translate(0.000000, 0.473000)">
							<g id="Clip-5">
							</g>
							<defs>
								<filter id="Adobe_OpacityMaskFilter_3_" filterUnits="userSpaceOnUse" x="0" y="0.5" width="174.5" height="33.6">
									<feColorMatrix  type="matrix" values="1 0 0 0 0  0 1 0 0 0  0 0 1 0 0  0 0 0 1 0"/>
								</filter>
							</defs>
							<mask maskUnits="userSpaceOnUse" x="0" y="0.5" width="174.5" height="33.6" id="mask-8">
								<g class="st10">
									<polygon id="path-7" class="st4" points="0,0.5 0,34.2 174.5,34.2 174.5,0.5 									"/>
								</g>
							</mask>
							<path id="Fill-4_1_" class="st11" d="M174,26.2c0.5,0,0.7-0.6,0.1-0.6c-24.3-0.7-48.1-0.2-72.2,3.2
								c-20.9,3-41.5,4.6-62.6,2.9c-8.8-0.7-17.9-1.8-26.2-5C8.7,25-4.9,16.3,6,13.4c6.2-1.6,13.1-0.8,19.4-0.6
								c12.8,0.3,25.6,0.4,38.3-0.2C78,12,93,12.6,107.1,9.8C120.9,7,134,1.4,148.3,1.7c0.5,0,1.2-0.8,0.4-0.9
								c-12.3-1.4-24.4,3.6-36.1,6.5c-14.8,3.7-30.5,3.3-45.6,4C53,11.8,39,11.9,25,11.5c-6.6-0.2-13.8-1-20.3,0.9
								C-0.5,14-1.5,17.8,2.3,22c4.6,5,12,7.1,18.4,8.5c18.3,4.1,38.5,4.4,57.1,2.7c17.2-1.5,34.1-5.2,51.3-6.3
								C144,25.9,159,26.6,174,26.2"/>
						</g>
						<g id="Group-9" transform="translate(98.000000, 31.473000)">
							<g id="Clip-8">
							</g>
							<defs>
								<filter id="Adobe_OpacityMaskFilter_4_" filterUnits="userSpaceOnUse" x="0.5" y="0.2" width="77.6" height="8.8">
									<feColorMatrix  type="matrix" values="1 0 0 0 0  0 1 0 0 0  0 0 1 0 0  0 0 0 1 0"/>
								</filter>
							</defs>
							<mask maskUnits="userSpaceOnUse" x="0.5" y="0.2" width="77.6" height="8.8" id="mask-10">
								<g class="st12">
									<polygon id="path-9" class="st4" points="0.5,9 78.2,9 78.2,0.2 0.5,0.2 									"/>
								</g>
							</mask>
							<path id="Fill-7" class="st13" d="M64.8,0.3c-6.7,0-13.4,0.9-20,1.3C30.6,2.3,13.2,0.1,0.7,8.3C0.2,8.6,1,9.1,1.4,9
								C15,3,29.4,3.6,44,2.9c11.2-0.5,22.9-3.3,33.8,0.4c0.2,0.1,0.5-0.1,0.3-0.3C74.9,0,68.9,0.3,64.8,0.3"/>
						</g>
					</g>
				</g>
			</g>
		</g>
	</g>
</g>
</svg>
