<svg width="106" height="127" viewBox="0 0 106 127" xmlns="http://www.w3.org/2000/svg" xmlns:xlink="http://www.w3.org/1999/xlink"><title>Yellow Monster</title><defs><path id="a" d="M.248 126.065H80.56V.28H.25v125.785z"/><path d="M2.31.29c-.704.807-1.427 1.7-2.1 2.646v12.77c2.796 1.39 6.906.96 9.884.355V.29H2.31z" id="c"/><path d="M.128 14.456c2.865.686 6.27 1.724 8.68.77V1.682c-.3-.353-.62-.638-.96-.84-.35-.206-.903-.44-1.615-.692H.128v14.306z" id="e"/></defs><g fill="none" fill-rule="evenodd"><path d="M79.163 37.654s11.21-13.226 3.245-26.595c-.378-.636-1.306-.432-1.404.31-.55 4.18-2.503 13.34-9.18 16.265-8.753 3.836 7.34 10.02 7.34 10.02M26.477 36.168s-11.21-13.226-3.244-26.595c.378-.635 1.306-.43 1.404.31.55 4.182 2.503 13.34 9.18 16.266 8.753 3.835-7.34 10.018-7.34 10.018" fill="#EDE1C6"/><path d="M28.4 44.425L26.053 76.9s-4.465-5.476-6.855.81c-2.392 6.29 6.466 30.17 2.575 33.368-2.89 2.376-9.154 2.59-12.184-2.362-2.876-4.704-4.663-18.977-4.663-18.977L.955 92.066C.29 82.153 3.79 75.79 3.79 75.79L0 76.323c1.27-7.105 3.578-11.28 5.212-13.472 1.25-1.677 2.39-3.438 3.414-5.278 2.66-4.78 8.872-13.147 19.773-13.147M77.242 44.425L79.587 76.9s4.465-5.476 6.855.81c2.39 6.29-6.467 30.17-2.576 33.368 2.89 2.376 9.154 2.59 12.184-2.362 2.877-4.704 4.664-18.977 4.664-18.977l3.972 2.327c.664-9.914-2.836-16.277-2.836-16.277l3.79.533c-1.268-7.105-3.577-11.28-5.21-13.472-1.25-1.677-2.392-3.438-3.415-5.278-2.66-4.78-8.872-13.147-19.773-13.147" fill="#E6A400"/><g transform="translate(11.858 .393)"><mask id="b" fill="#fff"><use xlink:href="#a"/></mask><path d="M73.73 117.06c-.56 3.025-1.427 9.005-8.01 9.005-6.582 0-8.864-5.02-8.864-8.72 0-1.54-.152-3.374-.33-4.99 0 0-9.408-2.014-16.64-1.564-8.7.543-14.994 1.564-14.994 1.564-.177 1.617-.33 3.45-.33 4.99 0 3.7-2.28 8.72-8.864 8.72-5.822 0-7.414-5.987-8.01-9.005C4.755 102.16.472 86.51.252 56.706c-.287-39.016 25.41-45.32 25.41-45.32-.132-2.806-2.326-6.453-2.326-6.453 4.143-.578 7.198 2.55 7.198 2.55.658-3.75-.66-7.203-.66-7.203C35.53 1.995 40.64 8.65 40.64 8.65s3.572-5.902 8.192-6.568c0 0-1.516 6.622-1.377 7.89 0 0 6.38-5.64 10.066-4.265 0 0-1.862 3.087-2.25 5.575 0 0 25.29 3.706 25.29 45.425 0 0-2.132 34.962-6.83 60.352" fill="#FDD200" mask="url(#b)"/></g><path d="M45.9 41.335c-1.118 2-2.756 5.637-8.553 6.694-7.092 1.294-10.39-2.257-11.915-6.418-2.032-5.545 4.584-11.534 10.234-11.464 5.65.07 13.095 6.063 10.233 11.187" fill="#FEFEFE"/><path d="M39.026 41.206c-.244 1.284-1.46 2.96-3.17 2.938-1.712-.02-3.05-1.054-3.03-2.854.02-1.8 1.39-3.494 3.1-3.473 1.712.02 3.435 1.624 3.1 3.39" fill="#13110D"/><path d="M23.89 38.094c1.132-6.685 7.22-12.1 13.575-10.907 6.357 1.19 11.83 8.274 9.544 14.625" fill="#FDD200"/><path d="M61.145 39.992c.848 2.063 2.01 5.762 7.462 7.504 6.67 2.13 10.673-1.442 12.177-4.678 2.404-5.17-3.1-11.658-8.54-12.298-5.437-.64-13.27 4.19-11.1 9.472" fill="#FEFEFE"/><path d="M67.827 40.753c.09 1.265 1.068 3.027 2.715 3.22 1.647.194 3.05-.63 3.234-2.364.184-1.733-.94-3.532-2.587-3.726-1.648-.194-3.486 1.13-3.363 2.87" fill="#13110D"/><path d="M83.03 38.403c-.777-6.525-6.405-12.082-12.61-11.266-6.203.817-11.792 8.766-9.886 15.03" fill="#FDD200"/><path fill="#E6A400" d="M59.948 37.104l.487 2.688 21.117-4.53-.708-5.69M46.642 36.428l-.37 2.972-21.495-4.256 1.482-6.68M45.625 51.288c-3.18-.225-6.385.134-9.42 1.162-3.554 1.203-6.47 3.33-6.53 7.238-.07 4.42 1.383 5.088 3.733 7.11 2.35 2.023 1.105 3.834.673 6.143-.496 2.655 3.807 3.035 3.82.493.012-2.258-1.575-4.705 1.827-5.168 2.996-.41 15.95-3.045 19.795-2.59 3.846.455 7.757 2.814 11.603 1.69 3.846-1.123 5.45-3.813 5.45-6.962 0-3.15-1.983-7.057-6.838-7.42-4.856-.362-16.025-1.123-16.025-1.123l-8.087-.572z"/><path d="M42.09 53.437s-11.647 1.31-10.205 8.052c1.443 6.74 11.414 4.634 15.162 3.622 3.748-1.01 9.998-1.607 13.443-1.14 3.445.466 8.734 2.826 11.698.72 2.965-2.108 3.285-6.827 0-8.765-3.285-1.938-24.823-3.836-30.097-2.49" fill="#1D1C1B"/><g><g transform="translate(34.614 49.606)"><mask id="d" fill="#fff"><use xlink:href="#c"/></mask><path d="M9.55 17.88c.447-.236.65-.782.49-1.28C8.43 11.583 7.52 6.343 7.417 1.09 7.41.83 7.234.603 6.984.543L6.017.31c-.31-.073-.626.07-.778.35C2.425 5.857.29 10.813.21 16.69c-.005.354.162.69.44.887.655.463 2.076 1.174 4.71 1.267 1.74.06 3.153-.413 4.19-.964" fill="#FEFEFE" mask="url(#d)"/></g><g transform="translate(62.497 49.943)"><mask id="f" fill="#fff"><use xlink:href="#e"/></mask><path d="M8.808 15.227C8.834 9.837 6.968 5.284 4.49.49 4.36.24 4.087.107 3.82.166l-.84.188c-.217.05-.37.247-.376.48-.105 4.822-.95 9.618-2.436 14.18-.128.39.06.815.43.95 1 .37 2.605.832 4.402.832 1.743 0 2.854-.512 3.48-.94.202-.14.327-.374.328-.628" fill="#FEFEFE" mask="url(#f)"/></g></g><g fill="#E6A400"><path d="M35.883 76.94c-1.52.19-1.93 1.065-1.734 1.824.305 1.18 1.065 1.574 1.87 1.43 1.188-.215 1.63-.858 1.63-1.752 0-.893-.612-1.644-1.767-1.5M68.995 70.435c-2.182.27-2.773 1.53-2.49 2.62.44 1.694 1.53 2.26 2.685 2.053 1.71-.308 2.344-1.232 2.344-2.516s-.88-2.362-2.54-2.157M74.14 68.32c-1.107.136-1.406.774-1.263 1.326.223.86.776 1.147 1.36 1.04.867-.155 1.188-.623 1.188-1.274 0-.65-.445-1.197-1.286-1.092"/></g></g></svg>
